%TF.GenerationSoftware,KiCad,Pcbnew,8.0.7-8.0.7-0~ubuntu22.04.1*%
%TF.CreationDate,2024-12-15T21:04:24+01:00*%
%TF.ProjectId,EEZ DIB 1.2 template,45455a20-4449-4422-9031-2e322074656d,rev?*%
%TF.SameCoordinates,Original*%
%TF.FileFunction,Drillmap*%
%TF.FilePolarity,Positive*%
%FSLAX45Y45*%
G04 Gerber Fmt 4.5, Leading zero omitted, Abs format (unit mm)*
G04 Created by KiCad (PCBNEW 8.0.7-8.0.7-0~ubuntu22.04.1) date 2024-12-15 21:04:24*
%MOMM*%
%LPD*%
G01*
G04 APERTURE LIST*
%ADD10C,0.100000*%
%ADD11C,0.200000*%
%ADD12C,0.150000*%
%ADD13C,0.320000*%
G04 APERTURE END LIST*
D10*
X8200110Y-6650360D02*
X7700110Y-6650360D01*
X22000110Y-5750360D02*
G75*
G02*
X22150110Y-5900360I0J-150000D01*
G01*
X7550110Y-6800360D02*
G75*
G02*
X7700110Y-6650360I150000J0D01*
G01*
X22150110Y-15100360D02*
X22150110Y-5900360D01*
X8200110Y-5900360D02*
G75*
G02*
X8350110Y-5750360I150000J0D01*
G01*
X7550110Y-14200360D02*
X7550110Y-6800360D01*
X8200110Y-6650360D02*
X8200110Y-5900360D01*
X22150110Y-15100360D02*
G75*
G02*
X22000110Y-15250360I-150000J0D01*
G01*
X8200110Y-14350360D02*
X7700110Y-14350360D01*
X8350110Y-15250360D02*
G75*
G02*
X8200110Y-15100360I0J150000D01*
G01*
X8350110Y-5750360D02*
X22000110Y-5750360D01*
X8200110Y-15100360D02*
X8200110Y-14350360D01*
X7700110Y-14350360D02*
G75*
G02*
X7550110Y-14200360I0J150000D01*
G01*
X22000110Y-15250360D02*
X8350110Y-15250360D01*
D11*
D10*
X17955500Y-14316951D02*
X17985500Y-14346951D01*
X17985500Y-14316951D02*
X17955500Y-14346951D01*
X17955500Y-14850350D02*
X17985500Y-14880350D01*
X17985500Y-14850350D02*
X17955500Y-14880350D01*
X18336500Y-14704300D02*
X18366500Y-14734300D01*
X18366500Y-14704300D02*
X18336500Y-14734300D01*
X18336501Y-14310600D02*
X18366501Y-14340600D01*
X18366501Y-14310600D02*
X18336501Y-14340600D01*
X14421760Y-14520110D02*
G75*
G02*
X14381760Y-14520110I-20000J0D01*
G01*
X14381760Y-14520110D02*
G75*
G02*
X14421760Y-14520110I20000J0D01*
G01*
X15126610Y-14462960D02*
G75*
G02*
X15086610Y-14462960I-20000J0D01*
G01*
X15086610Y-14462960D02*
G75*
G02*
X15126610Y-14462960I20000J0D01*
G01*
X15196460Y-14539160D02*
G75*
G02*
X15156460Y-14539160I-20000J0D01*
G01*
X15156460Y-14539160D02*
G75*
G02*
X15196460Y-14539160I20000J0D01*
G01*
X16604890Y-13617140D02*
G75*
G02*
X16564890Y-13617140I-20000J0D01*
G01*
X16564890Y-13617140D02*
G75*
G02*
X16604890Y-13617140I20000J0D01*
G01*
X16663351Y-13481050D02*
G75*
G02*
X16623351Y-13481050I-20000J0D01*
G01*
X16623351Y-13481050D02*
G75*
G02*
X16663351Y-13481050I20000J0D01*
G01*
X16860160Y-14386760D02*
G75*
G02*
X16820160Y-14386760I-20000J0D01*
G01*
X16820160Y-14386760D02*
G75*
G02*
X16860160Y-14386760I20000J0D01*
G01*
X16987160Y-13876220D02*
G75*
G02*
X16947160Y-13876220I-20000J0D01*
G01*
X16947160Y-13876220D02*
G75*
G02*
X16987160Y-13876220I20000J0D01*
G01*
X17082410Y-14048180D02*
G75*
G02*
X17042410Y-14048180I-20000J0D01*
G01*
X17042410Y-14048180D02*
G75*
G02*
X17082410Y-14048180I20000J0D01*
G01*
X17164960Y-14335960D02*
G75*
G02*
X17124960Y-14335960I-20000J0D01*
G01*
X17124960Y-14335960D02*
G75*
G02*
X17164960Y-14335960I20000J0D01*
G01*
X17253860Y-13923210D02*
G75*
G02*
X17213860Y-13923210I-20000J0D01*
G01*
X17213860Y-13923210D02*
G75*
G02*
X17253860Y-13923210I20000J0D01*
G01*
X17336410Y-14148520D02*
G75*
G02*
X17296410Y-14148520I-20000J0D01*
G01*
X17296410Y-14148520D02*
G75*
G02*
X17336410Y-14148520I20000J0D01*
G01*
X17406260Y-13065960D02*
G75*
G02*
X17366260Y-13065960I-20000J0D01*
G01*
X17366260Y-13065960D02*
G75*
G02*
X17406260Y-13065960I20000J0D01*
G01*
X17406260Y-13237410D02*
G75*
G02*
X17366260Y-13237410I-20000J0D01*
G01*
X17366260Y-13237410D02*
G75*
G02*
X17406260Y-13237410I20000J0D01*
G01*
X17558700Y-14539160D02*
G75*
G02*
X17518700Y-14539160I-20000J0D01*
G01*
X17518700Y-14539160D02*
G75*
G02*
X17558700Y-14539160I20000J0D01*
G01*
X17558700Y-14913810D02*
G75*
G02*
X17518700Y-14913810I-20000J0D01*
G01*
X17518700Y-14913810D02*
G75*
G02*
X17558700Y-14913810I20000J0D01*
G01*
X17634860Y-13294560D02*
G75*
G02*
X17594860Y-13294560I-20000J0D01*
G01*
X17594860Y-13294560D02*
G75*
G02*
X17634860Y-13294560I20000J0D01*
G01*
X17634860Y-14056560D02*
G75*
G02*
X17594860Y-14056560I-20000J0D01*
G01*
X17594860Y-14056560D02*
G75*
G02*
X17634860Y-14056560I20000J0D01*
G01*
X17666650Y-14913810D02*
G75*
G02*
X17626650Y-14913810I-20000J0D01*
G01*
X17626650Y-14913810D02*
G75*
G02*
X17666650Y-14913810I20000J0D01*
G01*
X17679350Y-14312900D02*
G75*
G02*
X17639350Y-14312900I-20000J0D01*
G01*
X17639350Y-14312900D02*
G75*
G02*
X17679350Y-14312900I20000J0D01*
G01*
X17806350Y-14109700D02*
G75*
G02*
X17766350Y-14109700I-20000J0D01*
G01*
X17766350Y-14109700D02*
G75*
G02*
X17806350Y-14109700I20000J0D01*
G01*
X18263510Y-14056560D02*
G75*
G02*
X18223510Y-14056560I-20000J0D01*
G01*
X18223510Y-14056560D02*
G75*
G02*
X18263510Y-14056560I20000J0D01*
G01*
X18269860Y-13523160D02*
G75*
G02*
X18229860Y-13523160I-20000J0D01*
G01*
X18229860Y-13523160D02*
G75*
G02*
X18269860Y-13523160I20000J0D01*
G01*
X18396860Y-13523160D02*
G75*
G02*
X18356860Y-13523160I-20000J0D01*
G01*
X18356860Y-13523160D02*
G75*
G02*
X18396860Y-13523160I20000J0D01*
G01*
X18460360Y-13935910D02*
G75*
G02*
X18420360Y-13935910I-20000J0D01*
G01*
X18420360Y-13935910D02*
G75*
G02*
X18460360Y-13935910I20000J0D01*
G01*
X18485760Y-13059610D02*
G75*
G02*
X18445760Y-13059610I-20000J0D01*
G01*
X18445760Y-13059610D02*
G75*
G02*
X18485760Y-13059610I20000J0D01*
G01*
X18485760Y-13237410D02*
G75*
G02*
X18445760Y-13237410I-20000J0D01*
G01*
X18445760Y-13237410D02*
G75*
G02*
X18485760Y-13237410I20000J0D01*
G01*
X18644550Y-14166850D02*
G75*
G02*
X18604550Y-14166850I-20000J0D01*
G01*
X18604550Y-14166850D02*
G75*
G02*
X18644550Y-14166850I20000J0D01*
G01*
X18644550Y-14300200D02*
G75*
G02*
X18604550Y-14300200I-20000J0D01*
G01*
X18604550Y-14300200D02*
G75*
G02*
X18644550Y-14300200I20000J0D01*
G01*
X18695310Y-13294560D02*
G75*
G02*
X18655310Y-13294560I-20000J0D01*
G01*
X18655310Y-13294560D02*
G75*
G02*
X18695310Y-13294560I20000J0D01*
G01*
X18695310Y-14056560D02*
G75*
G02*
X18655310Y-14056560I-20000J0D01*
G01*
X18655310Y-14056560D02*
G75*
G02*
X18695310Y-14056560I20000J0D01*
G01*
X19323960Y-13516810D02*
G75*
G02*
X19283960Y-13516810I-20000J0D01*
G01*
X19283960Y-13516810D02*
G75*
G02*
X19323960Y-13516810I20000J0D01*
G01*
X19330310Y-14056560D02*
G75*
G02*
X19290310Y-14056560I-20000J0D01*
G01*
X19290310Y-14056560D02*
G75*
G02*
X19330310Y-14056560I20000J0D01*
G01*
X19457310Y-13294560D02*
G75*
G02*
X19417310Y-13294560I-20000J0D01*
G01*
X19417310Y-13294560D02*
G75*
G02*
X19457310Y-13294560I20000J0D01*
G01*
X19457310Y-14056560D02*
G75*
G02*
X19417310Y-14056560I-20000J0D01*
G01*
X19417310Y-14056560D02*
G75*
G02*
X19457310Y-14056560I20000J0D01*
G01*
X20953600Y-14166850D02*
G75*
G02*
X20913600Y-14166850I-20000J0D01*
G01*
X20913600Y-14166850D02*
G75*
G02*
X20953600Y-14166850I20000J0D01*
G01*
X11650000Y-6410000D02*
X11650000Y-6490000D01*
X11610000Y-6450000D02*
X11690000Y-6450000D01*
X11650000Y-6610000D02*
X11650000Y-6690000D01*
X11610000Y-6650000D02*
X11690000Y-6650000D01*
X11850000Y-6410000D02*
X11850000Y-6490000D01*
X11810000Y-6450000D02*
X11890000Y-6450000D01*
X11850000Y-6610000D02*
X11850000Y-6690000D01*
X11810000Y-6650000D02*
X11890000Y-6650000D01*
X12050000Y-6410000D02*
X12050000Y-6490000D01*
X12010000Y-6450000D02*
X12090000Y-6450000D01*
X12050000Y-6610000D02*
X12050000Y-6690000D01*
X12010000Y-6650000D02*
X12090000Y-6650000D01*
X12250000Y-6410000D02*
X12250000Y-6490000D01*
X12210000Y-6450000D02*
X12290000Y-6450000D01*
X12250000Y-6610000D02*
X12250000Y-6690000D01*
X12210000Y-6650000D02*
X12290000Y-6650000D01*
X12450000Y-6410000D02*
X12450000Y-6490000D01*
X12410000Y-6450000D02*
X12490000Y-6450000D01*
X12450000Y-6610000D02*
X12450000Y-6690000D01*
X12410000Y-6650000D02*
X12490000Y-6650000D01*
X13650000Y-6410000D02*
X13650000Y-6490000D01*
X13610000Y-6450000D02*
X13690000Y-6450000D01*
X13650000Y-6610000D02*
X13650000Y-6690000D01*
X13610000Y-6650000D02*
X13690000Y-6650000D01*
X13850000Y-6410000D02*
X13850000Y-6490000D01*
X13810000Y-6450000D02*
X13890000Y-6450000D01*
X13850000Y-6610000D02*
X13850000Y-6690000D01*
X13810000Y-6650000D02*
X13890000Y-6650000D01*
X14050000Y-6410000D02*
X14050000Y-6490000D01*
X14010000Y-6450000D02*
X14090000Y-6450000D01*
X14050000Y-6610000D02*
X14050000Y-6690000D01*
X14010000Y-6650000D02*
X14090000Y-6650000D01*
X14250000Y-6410000D02*
X14250000Y-6490000D01*
X14210000Y-6450000D02*
X14290000Y-6450000D01*
X14250000Y-6610000D02*
X14250000Y-6690000D01*
X14210000Y-6650000D02*
X14290000Y-6650000D01*
X14450000Y-6410000D02*
X14450000Y-6490000D01*
X14410000Y-6450000D02*
X14490000Y-6450000D01*
X14450000Y-6610000D02*
X14450000Y-6690000D01*
X14410000Y-6650000D02*
X14490000Y-6650000D01*
X13033356Y-14035356D02*
X13033356Y-13964644D01*
X12962644Y-13964644D01*
X12962644Y-14035356D01*
X13033356Y-14035356D01*
X13033356Y-14289356D02*
X13033356Y-14218644D01*
X12962644Y-14218644D01*
X12962644Y-14289356D01*
X13033356Y-14289356D01*
X13287356Y-14035356D02*
X13287356Y-13964644D01*
X13216644Y-13964644D01*
X13216644Y-14035356D01*
X13287356Y-14035356D01*
X13287356Y-14289356D02*
X13287356Y-14218644D01*
X13216644Y-14218644D01*
X13216644Y-14289356D01*
X13287356Y-14289356D01*
X13541356Y-14035356D02*
X13541356Y-13964644D01*
X13470644Y-13964644D01*
X13470644Y-14035356D01*
X13541356Y-14035356D01*
X13541356Y-14289356D02*
X13541356Y-14218644D01*
X13470644Y-14218644D01*
X13470644Y-14289356D01*
X13541356Y-14289356D01*
X13795356Y-14035356D02*
X13795356Y-13964644D01*
X13724644Y-13964644D01*
X13724644Y-14035356D01*
X13795356Y-14035356D01*
X13795356Y-14289356D02*
X13795356Y-14218644D01*
X13724644Y-14218644D01*
X13724644Y-14289356D01*
X13795356Y-14289356D01*
X14049356Y-14035356D02*
X14049356Y-13964644D01*
X13978644Y-13964644D01*
X13978644Y-14035356D01*
X14049356Y-14035356D01*
X14049356Y-14289356D02*
X14049356Y-14218644D01*
X13978644Y-14218644D01*
X13978644Y-14289356D01*
X14049356Y-14289356D01*
X14303356Y-14035356D02*
X14303356Y-13964644D01*
X14232644Y-13964644D01*
X14232644Y-14035356D01*
X14303356Y-14035356D01*
X14303356Y-14289356D02*
X14303356Y-14218644D01*
X14232644Y-14218644D01*
X14232644Y-14289356D01*
X14303356Y-14289356D01*
X14557356Y-14035356D02*
X14557356Y-13964644D01*
X14486644Y-13964644D01*
X14486644Y-14035356D01*
X14557356Y-14035356D01*
X14557356Y-14289356D02*
X14557356Y-14218644D01*
X14486644Y-14218644D01*
X14486644Y-14289356D01*
X14557356Y-14289356D01*
X14811356Y-14035356D02*
X14811356Y-13964644D01*
X14740644Y-13964644D01*
X14740644Y-14035356D01*
X14811356Y-14035356D01*
X14811356Y-14289356D02*
X14811356Y-14218644D01*
X14740644Y-14218644D01*
X14740644Y-14289356D01*
X14811356Y-14289356D01*
X15065356Y-14035356D02*
X15065356Y-13964644D01*
X14994644Y-13964644D01*
X14994644Y-14035356D01*
X15065356Y-14035356D01*
X15065356Y-14289356D02*
X15065356Y-14218644D01*
X14994644Y-14218644D01*
X14994644Y-14289356D01*
X15065356Y-14289356D01*
X15319356Y-14035356D02*
X15319356Y-13964644D01*
X15248644Y-13964644D01*
X15248644Y-14035356D01*
X15319356Y-14035356D01*
X15319356Y-14289356D02*
X15319356Y-14218644D01*
X15248644Y-14218644D01*
X15248644Y-14289356D01*
X15319356Y-14289356D01*
X15573356Y-14035356D02*
X15573356Y-13964644D01*
X15502644Y-13964644D01*
X15502644Y-14035356D01*
X15573356Y-14035356D01*
X15573356Y-14289356D02*
X15573356Y-14218644D01*
X15502644Y-14218644D01*
X15502644Y-14289356D01*
X15573356Y-14289356D01*
X15827356Y-14035356D02*
X15827356Y-13964644D01*
X15756644Y-13964644D01*
X15756644Y-14035356D01*
X15827356Y-14035356D01*
X15827356Y-14289356D02*
X15827356Y-14218644D01*
X15756644Y-14218644D01*
X15756644Y-14289356D01*
X15827356Y-14289356D01*
X16081356Y-14035356D02*
X16081356Y-13964644D01*
X16010644Y-13964644D01*
X16010644Y-14035356D01*
X16081356Y-14035356D01*
X16081356Y-14289356D02*
X16081356Y-14218644D01*
X16010644Y-14218644D01*
X16010644Y-14289356D01*
X16081356Y-14289356D01*
X16335356Y-14035356D02*
X16335356Y-13964644D01*
X16264644Y-13964644D01*
X16264644Y-14035356D01*
X16335356Y-14035356D01*
X16335356Y-14289356D02*
X16335356Y-14218644D01*
X16264644Y-14218644D01*
X16264644Y-14289356D01*
X16335356Y-14289356D01*
D12*
X20859710Y-14766560D02*
X20934710Y-14691560D01*
X20859710Y-14616560D01*
X20784710Y-14691560D01*
X20859710Y-14766560D01*
X21367710Y-14766560D02*
X21442710Y-14691560D01*
X21367710Y-14616560D01*
X21292710Y-14691560D01*
X21367710Y-14766560D01*
D13*
X8490000Y-6140000D02*
X8810000Y-6460000D01*
X8810000Y-6140000D02*
X8490000Y-6460000D01*
X8810000Y-6300000D02*
G75*
G02*
X8490000Y-6300000I-160000J0D01*
G01*
X8490000Y-6300000D02*
G75*
G02*
X8810000Y-6300000I160000J0D01*
G01*
X8490000Y-14540000D02*
X8810000Y-14860000D01*
X8810000Y-14540000D02*
X8490000Y-14860000D01*
X8810000Y-14700000D02*
G75*
G02*
X8490000Y-14700000I-160000J0D01*
G01*
X8490000Y-14700000D02*
G75*
G02*
X8810000Y-14700000I160000J0D01*
G01*
D11*
X7805887Y-15566844D02*
X7805887Y-15366844D01*
X7805887Y-15366844D02*
X7853506Y-15366844D01*
X7853506Y-15366844D02*
X7882077Y-15376368D01*
X7882077Y-15376368D02*
X7901125Y-15395415D01*
X7901125Y-15395415D02*
X7910649Y-15414463D01*
X7910649Y-15414463D02*
X7920172Y-15452558D01*
X7920172Y-15452558D02*
X7920172Y-15481129D01*
X7920172Y-15481129D02*
X7910649Y-15519225D01*
X7910649Y-15519225D02*
X7901125Y-15538272D01*
X7901125Y-15538272D02*
X7882077Y-15557320D01*
X7882077Y-15557320D02*
X7853506Y-15566844D01*
X7853506Y-15566844D02*
X7805887Y-15566844D01*
X8005887Y-15566844D02*
X8005887Y-15433510D01*
X8005887Y-15471606D02*
X8015411Y-15452558D01*
X8015411Y-15452558D02*
X8024934Y-15443034D01*
X8024934Y-15443034D02*
X8043982Y-15433510D01*
X8043982Y-15433510D02*
X8063030Y-15433510D01*
X8129696Y-15566844D02*
X8129696Y-15433510D01*
X8129696Y-15366844D02*
X8120172Y-15376368D01*
X8120172Y-15376368D02*
X8129696Y-15385891D01*
X8129696Y-15385891D02*
X8139220Y-15376368D01*
X8139220Y-15376368D02*
X8129696Y-15366844D01*
X8129696Y-15366844D02*
X8129696Y-15385891D01*
X8253506Y-15566844D02*
X8234458Y-15557320D01*
X8234458Y-15557320D02*
X8224934Y-15538272D01*
X8224934Y-15538272D02*
X8224934Y-15366844D01*
X8358268Y-15566844D02*
X8339220Y-15557320D01*
X8339220Y-15557320D02*
X8329696Y-15538272D01*
X8329696Y-15538272D02*
X8329696Y-15366844D01*
X8586839Y-15566844D02*
X8586839Y-15366844D01*
X8586839Y-15366844D02*
X8653506Y-15509701D01*
X8653506Y-15509701D02*
X8720173Y-15366844D01*
X8720173Y-15366844D02*
X8720173Y-15566844D01*
X8901125Y-15566844D02*
X8901125Y-15462082D01*
X8901125Y-15462082D02*
X8891601Y-15443034D01*
X8891601Y-15443034D02*
X8872554Y-15433510D01*
X8872554Y-15433510D02*
X8834458Y-15433510D01*
X8834458Y-15433510D02*
X8815411Y-15443034D01*
X8901125Y-15557320D02*
X8882077Y-15566844D01*
X8882077Y-15566844D02*
X8834458Y-15566844D01*
X8834458Y-15566844D02*
X8815411Y-15557320D01*
X8815411Y-15557320D02*
X8805887Y-15538272D01*
X8805887Y-15538272D02*
X8805887Y-15519225D01*
X8805887Y-15519225D02*
X8815411Y-15500177D01*
X8815411Y-15500177D02*
X8834458Y-15490653D01*
X8834458Y-15490653D02*
X8882077Y-15490653D01*
X8882077Y-15490653D02*
X8901125Y-15481129D01*
X8996363Y-15433510D02*
X8996363Y-15633510D01*
X8996363Y-15443034D02*
X9015411Y-15433510D01*
X9015411Y-15433510D02*
X9053506Y-15433510D01*
X9053506Y-15433510D02*
X9072554Y-15443034D01*
X9072554Y-15443034D02*
X9082077Y-15452558D01*
X9082077Y-15452558D02*
X9091601Y-15471606D01*
X9091601Y-15471606D02*
X9091601Y-15528748D01*
X9091601Y-15528748D02*
X9082077Y-15547796D01*
X9082077Y-15547796D02*
X9072554Y-15557320D01*
X9072554Y-15557320D02*
X9053506Y-15566844D01*
X9053506Y-15566844D02*
X9015411Y-15566844D01*
X9015411Y-15566844D02*
X8996363Y-15557320D01*
X9177315Y-15547796D02*
X9186839Y-15557320D01*
X9186839Y-15557320D02*
X9177315Y-15566844D01*
X9177315Y-15566844D02*
X9167792Y-15557320D01*
X9167792Y-15557320D02*
X9177315Y-15547796D01*
X9177315Y-15547796D02*
X9177315Y-15566844D01*
X9177315Y-15443034D02*
X9186839Y-15452558D01*
X9186839Y-15452558D02*
X9177315Y-15462082D01*
X9177315Y-15462082D02*
X9167792Y-15452558D01*
X9167792Y-15452558D02*
X9177315Y-15443034D01*
X9177315Y-15443034D02*
X9177315Y-15462082D01*
D10*
X7515110Y-15880360D02*
X7545110Y-15910360D01*
X7545110Y-15880360D02*
X7515110Y-15910360D01*
D11*
X7843982Y-15786844D02*
X7863030Y-15786844D01*
X7863030Y-15786844D02*
X7882077Y-15796368D01*
X7882077Y-15796368D02*
X7891601Y-15805891D01*
X7891601Y-15805891D02*
X7901125Y-15824939D01*
X7901125Y-15824939D02*
X7910649Y-15863034D01*
X7910649Y-15863034D02*
X7910649Y-15910653D01*
X7910649Y-15910653D02*
X7901125Y-15948748D01*
X7901125Y-15948748D02*
X7891601Y-15967796D01*
X7891601Y-15967796D02*
X7882077Y-15977320D01*
X7882077Y-15977320D02*
X7863030Y-15986844D01*
X7863030Y-15986844D02*
X7843982Y-15986844D01*
X7843982Y-15986844D02*
X7824934Y-15977320D01*
X7824934Y-15977320D02*
X7815411Y-15967796D01*
X7815411Y-15967796D02*
X7805887Y-15948748D01*
X7805887Y-15948748D02*
X7796363Y-15910653D01*
X7796363Y-15910653D02*
X7796363Y-15863034D01*
X7796363Y-15863034D02*
X7805887Y-15824939D01*
X7805887Y-15824939D02*
X7815411Y-15805891D01*
X7815411Y-15805891D02*
X7824934Y-15796368D01*
X7824934Y-15796368D02*
X7843982Y-15786844D01*
X7996363Y-15967796D02*
X8005887Y-15977320D01*
X8005887Y-15977320D02*
X7996363Y-15986844D01*
X7996363Y-15986844D02*
X7986839Y-15977320D01*
X7986839Y-15977320D02*
X7996363Y-15967796D01*
X7996363Y-15967796D02*
X7996363Y-15986844D01*
X8072553Y-15786844D02*
X8196363Y-15786844D01*
X8196363Y-15786844D02*
X8129696Y-15863034D01*
X8129696Y-15863034D02*
X8158268Y-15863034D01*
X8158268Y-15863034D02*
X8177315Y-15872558D01*
X8177315Y-15872558D02*
X8186839Y-15882082D01*
X8186839Y-15882082D02*
X8196363Y-15901129D01*
X8196363Y-15901129D02*
X8196363Y-15948748D01*
X8196363Y-15948748D02*
X8186839Y-15967796D01*
X8186839Y-15967796D02*
X8177315Y-15977320D01*
X8177315Y-15977320D02*
X8158268Y-15986844D01*
X8158268Y-15986844D02*
X8101125Y-15986844D01*
X8101125Y-15986844D02*
X8082077Y-15977320D01*
X8082077Y-15977320D02*
X8072553Y-15967796D01*
X8320172Y-15786844D02*
X8339220Y-15786844D01*
X8339220Y-15786844D02*
X8358268Y-15796368D01*
X8358268Y-15796368D02*
X8367792Y-15805891D01*
X8367792Y-15805891D02*
X8377315Y-15824939D01*
X8377315Y-15824939D02*
X8386839Y-15863034D01*
X8386839Y-15863034D02*
X8386839Y-15910653D01*
X8386839Y-15910653D02*
X8377315Y-15948748D01*
X8377315Y-15948748D02*
X8367792Y-15967796D01*
X8367792Y-15967796D02*
X8358268Y-15977320D01*
X8358268Y-15977320D02*
X8339220Y-15986844D01*
X8339220Y-15986844D02*
X8320172Y-15986844D01*
X8320172Y-15986844D02*
X8301125Y-15977320D01*
X8301125Y-15977320D02*
X8291601Y-15967796D01*
X8291601Y-15967796D02*
X8282077Y-15948748D01*
X8282077Y-15948748D02*
X8272553Y-15910653D01*
X8272553Y-15910653D02*
X8272553Y-15863034D01*
X8272553Y-15863034D02*
X8282077Y-15824939D01*
X8282077Y-15824939D02*
X8291601Y-15805891D01*
X8291601Y-15805891D02*
X8301125Y-15796368D01*
X8301125Y-15796368D02*
X8320172Y-15786844D01*
X8510649Y-15786844D02*
X8529696Y-15786844D01*
X8529696Y-15786844D02*
X8548744Y-15796368D01*
X8548744Y-15796368D02*
X8558268Y-15805891D01*
X8558268Y-15805891D02*
X8567792Y-15824939D01*
X8567792Y-15824939D02*
X8577315Y-15863034D01*
X8577315Y-15863034D02*
X8577315Y-15910653D01*
X8577315Y-15910653D02*
X8567792Y-15948748D01*
X8567792Y-15948748D02*
X8558268Y-15967796D01*
X8558268Y-15967796D02*
X8548744Y-15977320D01*
X8548744Y-15977320D02*
X8529696Y-15986844D01*
X8529696Y-15986844D02*
X8510649Y-15986844D01*
X8510649Y-15986844D02*
X8491601Y-15977320D01*
X8491601Y-15977320D02*
X8482077Y-15967796D01*
X8482077Y-15967796D02*
X8472554Y-15948748D01*
X8472554Y-15948748D02*
X8463030Y-15910653D01*
X8463030Y-15910653D02*
X8463030Y-15863034D01*
X8463030Y-15863034D02*
X8472554Y-15824939D01*
X8472554Y-15824939D02*
X8482077Y-15805891D01*
X8482077Y-15805891D02*
X8491601Y-15796368D01*
X8491601Y-15796368D02*
X8510649Y-15786844D01*
X8663030Y-15986844D02*
X8663030Y-15853510D01*
X8663030Y-15872558D02*
X8672554Y-15863034D01*
X8672554Y-15863034D02*
X8691601Y-15853510D01*
X8691601Y-15853510D02*
X8720173Y-15853510D01*
X8720173Y-15853510D02*
X8739220Y-15863034D01*
X8739220Y-15863034D02*
X8748744Y-15882082D01*
X8748744Y-15882082D02*
X8748744Y-15986844D01*
X8748744Y-15882082D02*
X8758268Y-15863034D01*
X8758268Y-15863034D02*
X8777315Y-15853510D01*
X8777315Y-15853510D02*
X8805887Y-15853510D01*
X8805887Y-15853510D02*
X8824935Y-15863034D01*
X8824935Y-15863034D02*
X8834458Y-15882082D01*
X8834458Y-15882082D02*
X8834458Y-15986844D01*
X8929696Y-15986844D02*
X8929696Y-15853510D01*
X8929696Y-15872558D02*
X8939220Y-15863034D01*
X8939220Y-15863034D02*
X8958268Y-15853510D01*
X8958268Y-15853510D02*
X8986839Y-15853510D01*
X8986839Y-15853510D02*
X9005887Y-15863034D01*
X9005887Y-15863034D02*
X9015411Y-15882082D01*
X9015411Y-15882082D02*
X9015411Y-15986844D01*
X9015411Y-15882082D02*
X9024935Y-15863034D01*
X9024935Y-15863034D02*
X9043982Y-15853510D01*
X9043982Y-15853510D02*
X9072554Y-15853510D01*
X9072554Y-15853510D02*
X9091601Y-15863034D01*
X9091601Y-15863034D02*
X9101125Y-15882082D01*
X9101125Y-15882082D02*
X9101125Y-15986844D01*
X9491601Y-15777320D02*
X9320173Y-16034463D01*
X9748744Y-15786844D02*
X9767792Y-15786844D01*
X9767792Y-15786844D02*
X9786839Y-15796368D01*
X9786839Y-15796368D02*
X9796363Y-15805891D01*
X9796363Y-15805891D02*
X9805887Y-15824939D01*
X9805887Y-15824939D02*
X9815411Y-15863034D01*
X9815411Y-15863034D02*
X9815411Y-15910653D01*
X9815411Y-15910653D02*
X9805887Y-15948748D01*
X9805887Y-15948748D02*
X9796363Y-15967796D01*
X9796363Y-15967796D02*
X9786839Y-15977320D01*
X9786839Y-15977320D02*
X9767792Y-15986844D01*
X9767792Y-15986844D02*
X9748744Y-15986844D01*
X9748744Y-15986844D02*
X9729697Y-15977320D01*
X9729697Y-15977320D02*
X9720173Y-15967796D01*
X9720173Y-15967796D02*
X9710649Y-15948748D01*
X9710649Y-15948748D02*
X9701125Y-15910653D01*
X9701125Y-15910653D02*
X9701125Y-15863034D01*
X9701125Y-15863034D02*
X9710649Y-15824939D01*
X9710649Y-15824939D02*
X9720173Y-15805891D01*
X9720173Y-15805891D02*
X9729697Y-15796368D01*
X9729697Y-15796368D02*
X9748744Y-15786844D01*
X9901125Y-15967796D02*
X9910649Y-15977320D01*
X9910649Y-15977320D02*
X9901125Y-15986844D01*
X9901125Y-15986844D02*
X9891601Y-15977320D01*
X9891601Y-15977320D02*
X9901125Y-15967796D01*
X9901125Y-15967796D02*
X9901125Y-15986844D01*
X10034458Y-15786844D02*
X10053506Y-15786844D01*
X10053506Y-15786844D02*
X10072554Y-15796368D01*
X10072554Y-15796368D02*
X10082078Y-15805891D01*
X10082078Y-15805891D02*
X10091601Y-15824939D01*
X10091601Y-15824939D02*
X10101125Y-15863034D01*
X10101125Y-15863034D02*
X10101125Y-15910653D01*
X10101125Y-15910653D02*
X10091601Y-15948748D01*
X10091601Y-15948748D02*
X10082078Y-15967796D01*
X10082078Y-15967796D02*
X10072554Y-15977320D01*
X10072554Y-15977320D02*
X10053506Y-15986844D01*
X10053506Y-15986844D02*
X10034458Y-15986844D01*
X10034458Y-15986844D02*
X10015411Y-15977320D01*
X10015411Y-15977320D02*
X10005887Y-15967796D01*
X10005887Y-15967796D02*
X9996363Y-15948748D01*
X9996363Y-15948748D02*
X9986839Y-15910653D01*
X9986839Y-15910653D02*
X9986839Y-15863034D01*
X9986839Y-15863034D02*
X9996363Y-15824939D01*
X9996363Y-15824939D02*
X10005887Y-15805891D01*
X10005887Y-15805891D02*
X10015411Y-15796368D01*
X10015411Y-15796368D02*
X10034458Y-15786844D01*
X10291601Y-15986844D02*
X10177316Y-15986844D01*
X10234458Y-15986844D02*
X10234458Y-15786844D01*
X10234458Y-15786844D02*
X10215411Y-15815415D01*
X10215411Y-15815415D02*
X10196363Y-15834463D01*
X10196363Y-15834463D02*
X10177316Y-15843987D01*
X10482078Y-15986844D02*
X10367792Y-15986844D01*
X10424935Y-15986844D02*
X10424935Y-15786844D01*
X10424935Y-15786844D02*
X10405887Y-15815415D01*
X10405887Y-15815415D02*
X10386839Y-15834463D01*
X10386839Y-15834463D02*
X10367792Y-15843987D01*
X10596363Y-15872558D02*
X10577316Y-15863034D01*
X10577316Y-15863034D02*
X10567792Y-15853510D01*
X10567792Y-15853510D02*
X10558268Y-15834463D01*
X10558268Y-15834463D02*
X10558268Y-15824939D01*
X10558268Y-15824939D02*
X10567792Y-15805891D01*
X10567792Y-15805891D02*
X10577316Y-15796368D01*
X10577316Y-15796368D02*
X10596363Y-15786844D01*
X10596363Y-15786844D02*
X10634459Y-15786844D01*
X10634459Y-15786844D02*
X10653506Y-15796368D01*
X10653506Y-15796368D02*
X10663030Y-15805891D01*
X10663030Y-15805891D02*
X10672554Y-15824939D01*
X10672554Y-15824939D02*
X10672554Y-15834463D01*
X10672554Y-15834463D02*
X10663030Y-15853510D01*
X10663030Y-15853510D02*
X10653506Y-15863034D01*
X10653506Y-15863034D02*
X10634459Y-15872558D01*
X10634459Y-15872558D02*
X10596363Y-15872558D01*
X10596363Y-15872558D02*
X10577316Y-15882082D01*
X10577316Y-15882082D02*
X10567792Y-15891606D01*
X10567792Y-15891606D02*
X10558268Y-15910653D01*
X10558268Y-15910653D02*
X10558268Y-15948748D01*
X10558268Y-15948748D02*
X10567792Y-15967796D01*
X10567792Y-15967796D02*
X10577316Y-15977320D01*
X10577316Y-15977320D02*
X10596363Y-15986844D01*
X10596363Y-15986844D02*
X10634459Y-15986844D01*
X10634459Y-15986844D02*
X10653506Y-15977320D01*
X10653506Y-15977320D02*
X10663030Y-15967796D01*
X10663030Y-15967796D02*
X10672554Y-15948748D01*
X10672554Y-15948748D02*
X10672554Y-15910653D01*
X10672554Y-15910653D02*
X10663030Y-15891606D01*
X10663030Y-15891606D02*
X10653506Y-15882082D01*
X10653506Y-15882082D02*
X10634459Y-15872558D01*
X10748744Y-15786844D02*
X10748744Y-15824939D01*
X10824935Y-15786844D02*
X10824935Y-15824939D01*
X11120173Y-16063034D02*
X11110649Y-16053510D01*
X11110649Y-16053510D02*
X11091601Y-16024939D01*
X11091601Y-16024939D02*
X11082078Y-16005891D01*
X11082078Y-16005891D02*
X11072554Y-15977320D01*
X11072554Y-15977320D02*
X11063030Y-15929701D01*
X11063030Y-15929701D02*
X11063030Y-15891606D01*
X11063030Y-15891606D02*
X11072554Y-15843987D01*
X11072554Y-15843987D02*
X11082078Y-15815415D01*
X11082078Y-15815415D02*
X11091601Y-15796368D01*
X11091601Y-15796368D02*
X11110649Y-15767796D01*
X11110649Y-15767796D02*
X11120173Y-15758272D01*
X11282078Y-15853510D02*
X11282078Y-15986844D01*
X11234458Y-15777320D02*
X11186839Y-15920177D01*
X11186839Y-15920177D02*
X11310649Y-15920177D01*
X11539220Y-15986844D02*
X11539220Y-15786844D01*
X11624935Y-15986844D02*
X11624935Y-15882082D01*
X11624935Y-15882082D02*
X11615411Y-15863034D01*
X11615411Y-15863034D02*
X11596363Y-15853510D01*
X11596363Y-15853510D02*
X11567792Y-15853510D01*
X11567792Y-15853510D02*
X11548744Y-15863034D01*
X11548744Y-15863034D02*
X11539220Y-15872558D01*
X11748744Y-15986844D02*
X11729697Y-15977320D01*
X11729697Y-15977320D02*
X11720173Y-15967796D01*
X11720173Y-15967796D02*
X11710649Y-15948748D01*
X11710649Y-15948748D02*
X11710649Y-15891606D01*
X11710649Y-15891606D02*
X11720173Y-15872558D01*
X11720173Y-15872558D02*
X11729697Y-15863034D01*
X11729697Y-15863034D02*
X11748744Y-15853510D01*
X11748744Y-15853510D02*
X11777316Y-15853510D01*
X11777316Y-15853510D02*
X11796363Y-15863034D01*
X11796363Y-15863034D02*
X11805887Y-15872558D01*
X11805887Y-15872558D02*
X11815411Y-15891606D01*
X11815411Y-15891606D02*
X11815411Y-15948748D01*
X11815411Y-15948748D02*
X11805887Y-15967796D01*
X11805887Y-15967796D02*
X11796363Y-15977320D01*
X11796363Y-15977320D02*
X11777316Y-15986844D01*
X11777316Y-15986844D02*
X11748744Y-15986844D01*
X11929697Y-15986844D02*
X11910649Y-15977320D01*
X11910649Y-15977320D02*
X11901125Y-15958272D01*
X11901125Y-15958272D02*
X11901125Y-15786844D01*
X12082078Y-15977320D02*
X12063030Y-15986844D01*
X12063030Y-15986844D02*
X12024935Y-15986844D01*
X12024935Y-15986844D02*
X12005887Y-15977320D01*
X12005887Y-15977320D02*
X11996363Y-15958272D01*
X11996363Y-15958272D02*
X11996363Y-15882082D01*
X11996363Y-15882082D02*
X12005887Y-15863034D01*
X12005887Y-15863034D02*
X12024935Y-15853510D01*
X12024935Y-15853510D02*
X12063030Y-15853510D01*
X12063030Y-15853510D02*
X12082078Y-15863034D01*
X12082078Y-15863034D02*
X12091601Y-15882082D01*
X12091601Y-15882082D02*
X12091601Y-15901129D01*
X12091601Y-15901129D02*
X11996363Y-15920177D01*
X12167792Y-15977320D02*
X12186840Y-15986844D01*
X12186840Y-15986844D02*
X12224935Y-15986844D01*
X12224935Y-15986844D02*
X12243982Y-15977320D01*
X12243982Y-15977320D02*
X12253506Y-15958272D01*
X12253506Y-15958272D02*
X12253506Y-15948748D01*
X12253506Y-15948748D02*
X12243982Y-15929701D01*
X12243982Y-15929701D02*
X12224935Y-15920177D01*
X12224935Y-15920177D02*
X12196363Y-15920177D01*
X12196363Y-15920177D02*
X12177316Y-15910653D01*
X12177316Y-15910653D02*
X12167792Y-15891606D01*
X12167792Y-15891606D02*
X12167792Y-15882082D01*
X12167792Y-15882082D02*
X12177316Y-15863034D01*
X12177316Y-15863034D02*
X12196363Y-15853510D01*
X12196363Y-15853510D02*
X12224935Y-15853510D01*
X12224935Y-15853510D02*
X12243982Y-15863034D01*
X12320173Y-16063034D02*
X12329697Y-16053510D01*
X12329697Y-16053510D02*
X12348744Y-16024939D01*
X12348744Y-16024939D02*
X12358268Y-16005891D01*
X12358268Y-16005891D02*
X12367792Y-15977320D01*
X12367792Y-15977320D02*
X12377316Y-15929701D01*
X12377316Y-15929701D02*
X12377316Y-15891606D01*
X12377316Y-15891606D02*
X12367792Y-15843987D01*
X12367792Y-15843987D02*
X12358268Y-15815415D01*
X12358268Y-15815415D02*
X12348744Y-15796368D01*
X12348744Y-15796368D02*
X12329697Y-15767796D01*
X12329697Y-15767796D02*
X12320173Y-15758272D01*
D10*
X7545110Y-16159360D02*
G75*
G02*
X7505110Y-16159360I-20000J0D01*
G01*
X7505110Y-16159360D02*
G75*
G02*
X7545110Y-16159360I20000J0D01*
G01*
D11*
X7843982Y-16050844D02*
X7863030Y-16050844D01*
X7863030Y-16050844D02*
X7882077Y-16060368D01*
X7882077Y-16060368D02*
X7891601Y-16069891D01*
X7891601Y-16069891D02*
X7901125Y-16088939D01*
X7901125Y-16088939D02*
X7910649Y-16127034D01*
X7910649Y-16127034D02*
X7910649Y-16174653D01*
X7910649Y-16174653D02*
X7901125Y-16212748D01*
X7901125Y-16212748D02*
X7891601Y-16231796D01*
X7891601Y-16231796D02*
X7882077Y-16241320D01*
X7882077Y-16241320D02*
X7863030Y-16250844D01*
X7863030Y-16250844D02*
X7843982Y-16250844D01*
X7843982Y-16250844D02*
X7824934Y-16241320D01*
X7824934Y-16241320D02*
X7815411Y-16231796D01*
X7815411Y-16231796D02*
X7805887Y-16212748D01*
X7805887Y-16212748D02*
X7796363Y-16174653D01*
X7796363Y-16174653D02*
X7796363Y-16127034D01*
X7796363Y-16127034D02*
X7805887Y-16088939D01*
X7805887Y-16088939D02*
X7815411Y-16069891D01*
X7815411Y-16069891D02*
X7824934Y-16060368D01*
X7824934Y-16060368D02*
X7843982Y-16050844D01*
X7996363Y-16231796D02*
X8005887Y-16241320D01*
X8005887Y-16241320D02*
X7996363Y-16250844D01*
X7996363Y-16250844D02*
X7986839Y-16241320D01*
X7986839Y-16241320D02*
X7996363Y-16231796D01*
X7996363Y-16231796D02*
X7996363Y-16250844D01*
X8177315Y-16117510D02*
X8177315Y-16250844D01*
X8129696Y-16041320D02*
X8082077Y-16184177D01*
X8082077Y-16184177D02*
X8205887Y-16184177D01*
X8320172Y-16050844D02*
X8339220Y-16050844D01*
X8339220Y-16050844D02*
X8358268Y-16060368D01*
X8358268Y-16060368D02*
X8367792Y-16069891D01*
X8367792Y-16069891D02*
X8377315Y-16088939D01*
X8377315Y-16088939D02*
X8386839Y-16127034D01*
X8386839Y-16127034D02*
X8386839Y-16174653D01*
X8386839Y-16174653D02*
X8377315Y-16212748D01*
X8377315Y-16212748D02*
X8367792Y-16231796D01*
X8367792Y-16231796D02*
X8358268Y-16241320D01*
X8358268Y-16241320D02*
X8339220Y-16250844D01*
X8339220Y-16250844D02*
X8320172Y-16250844D01*
X8320172Y-16250844D02*
X8301125Y-16241320D01*
X8301125Y-16241320D02*
X8291601Y-16231796D01*
X8291601Y-16231796D02*
X8282077Y-16212748D01*
X8282077Y-16212748D02*
X8272553Y-16174653D01*
X8272553Y-16174653D02*
X8272553Y-16127034D01*
X8272553Y-16127034D02*
X8282077Y-16088939D01*
X8282077Y-16088939D02*
X8291601Y-16069891D01*
X8291601Y-16069891D02*
X8301125Y-16060368D01*
X8301125Y-16060368D02*
X8320172Y-16050844D01*
X8510649Y-16050844D02*
X8529696Y-16050844D01*
X8529696Y-16050844D02*
X8548744Y-16060368D01*
X8548744Y-16060368D02*
X8558268Y-16069891D01*
X8558268Y-16069891D02*
X8567792Y-16088939D01*
X8567792Y-16088939D02*
X8577315Y-16127034D01*
X8577315Y-16127034D02*
X8577315Y-16174653D01*
X8577315Y-16174653D02*
X8567792Y-16212748D01*
X8567792Y-16212748D02*
X8558268Y-16231796D01*
X8558268Y-16231796D02*
X8548744Y-16241320D01*
X8548744Y-16241320D02*
X8529696Y-16250844D01*
X8529696Y-16250844D02*
X8510649Y-16250844D01*
X8510649Y-16250844D02*
X8491601Y-16241320D01*
X8491601Y-16241320D02*
X8482077Y-16231796D01*
X8482077Y-16231796D02*
X8472554Y-16212748D01*
X8472554Y-16212748D02*
X8463030Y-16174653D01*
X8463030Y-16174653D02*
X8463030Y-16127034D01*
X8463030Y-16127034D02*
X8472554Y-16088939D01*
X8472554Y-16088939D02*
X8482077Y-16069891D01*
X8482077Y-16069891D02*
X8491601Y-16060368D01*
X8491601Y-16060368D02*
X8510649Y-16050844D01*
X8663030Y-16250844D02*
X8663030Y-16117510D01*
X8663030Y-16136558D02*
X8672554Y-16127034D01*
X8672554Y-16127034D02*
X8691601Y-16117510D01*
X8691601Y-16117510D02*
X8720173Y-16117510D01*
X8720173Y-16117510D02*
X8739220Y-16127034D01*
X8739220Y-16127034D02*
X8748744Y-16146082D01*
X8748744Y-16146082D02*
X8748744Y-16250844D01*
X8748744Y-16146082D02*
X8758268Y-16127034D01*
X8758268Y-16127034D02*
X8777315Y-16117510D01*
X8777315Y-16117510D02*
X8805887Y-16117510D01*
X8805887Y-16117510D02*
X8824935Y-16127034D01*
X8824935Y-16127034D02*
X8834458Y-16146082D01*
X8834458Y-16146082D02*
X8834458Y-16250844D01*
X8929696Y-16250844D02*
X8929696Y-16117510D01*
X8929696Y-16136558D02*
X8939220Y-16127034D01*
X8939220Y-16127034D02*
X8958268Y-16117510D01*
X8958268Y-16117510D02*
X8986839Y-16117510D01*
X8986839Y-16117510D02*
X9005887Y-16127034D01*
X9005887Y-16127034D02*
X9015411Y-16146082D01*
X9015411Y-16146082D02*
X9015411Y-16250844D01*
X9015411Y-16146082D02*
X9024935Y-16127034D01*
X9024935Y-16127034D02*
X9043982Y-16117510D01*
X9043982Y-16117510D02*
X9072554Y-16117510D01*
X9072554Y-16117510D02*
X9091601Y-16127034D01*
X9091601Y-16127034D02*
X9101125Y-16146082D01*
X9101125Y-16146082D02*
X9101125Y-16250844D01*
X9491601Y-16041320D02*
X9320173Y-16298463D01*
X9748744Y-16050844D02*
X9767792Y-16050844D01*
X9767792Y-16050844D02*
X9786839Y-16060368D01*
X9786839Y-16060368D02*
X9796363Y-16069891D01*
X9796363Y-16069891D02*
X9805887Y-16088939D01*
X9805887Y-16088939D02*
X9815411Y-16127034D01*
X9815411Y-16127034D02*
X9815411Y-16174653D01*
X9815411Y-16174653D02*
X9805887Y-16212748D01*
X9805887Y-16212748D02*
X9796363Y-16231796D01*
X9796363Y-16231796D02*
X9786839Y-16241320D01*
X9786839Y-16241320D02*
X9767792Y-16250844D01*
X9767792Y-16250844D02*
X9748744Y-16250844D01*
X9748744Y-16250844D02*
X9729697Y-16241320D01*
X9729697Y-16241320D02*
X9720173Y-16231796D01*
X9720173Y-16231796D02*
X9710649Y-16212748D01*
X9710649Y-16212748D02*
X9701125Y-16174653D01*
X9701125Y-16174653D02*
X9701125Y-16127034D01*
X9701125Y-16127034D02*
X9710649Y-16088939D01*
X9710649Y-16088939D02*
X9720173Y-16069891D01*
X9720173Y-16069891D02*
X9729697Y-16060368D01*
X9729697Y-16060368D02*
X9748744Y-16050844D01*
X9901125Y-16231796D02*
X9910649Y-16241320D01*
X9910649Y-16241320D02*
X9901125Y-16250844D01*
X9901125Y-16250844D02*
X9891601Y-16241320D01*
X9891601Y-16241320D02*
X9901125Y-16231796D01*
X9901125Y-16231796D02*
X9901125Y-16250844D01*
X10034458Y-16050844D02*
X10053506Y-16050844D01*
X10053506Y-16050844D02*
X10072554Y-16060368D01*
X10072554Y-16060368D02*
X10082078Y-16069891D01*
X10082078Y-16069891D02*
X10091601Y-16088939D01*
X10091601Y-16088939D02*
X10101125Y-16127034D01*
X10101125Y-16127034D02*
X10101125Y-16174653D01*
X10101125Y-16174653D02*
X10091601Y-16212748D01*
X10091601Y-16212748D02*
X10082078Y-16231796D01*
X10082078Y-16231796D02*
X10072554Y-16241320D01*
X10072554Y-16241320D02*
X10053506Y-16250844D01*
X10053506Y-16250844D02*
X10034458Y-16250844D01*
X10034458Y-16250844D02*
X10015411Y-16241320D01*
X10015411Y-16241320D02*
X10005887Y-16231796D01*
X10005887Y-16231796D02*
X9996363Y-16212748D01*
X9996363Y-16212748D02*
X9986839Y-16174653D01*
X9986839Y-16174653D02*
X9986839Y-16127034D01*
X9986839Y-16127034D02*
X9996363Y-16088939D01*
X9996363Y-16088939D02*
X10005887Y-16069891D01*
X10005887Y-16069891D02*
X10015411Y-16060368D01*
X10015411Y-16060368D02*
X10034458Y-16050844D01*
X10291601Y-16250844D02*
X10177316Y-16250844D01*
X10234458Y-16250844D02*
X10234458Y-16050844D01*
X10234458Y-16050844D02*
X10215411Y-16079415D01*
X10215411Y-16079415D02*
X10196363Y-16098463D01*
X10196363Y-16098463D02*
X10177316Y-16107987D01*
X10472554Y-16050844D02*
X10377316Y-16050844D01*
X10377316Y-16050844D02*
X10367792Y-16146082D01*
X10367792Y-16146082D02*
X10377316Y-16136558D01*
X10377316Y-16136558D02*
X10396363Y-16127034D01*
X10396363Y-16127034D02*
X10443982Y-16127034D01*
X10443982Y-16127034D02*
X10463030Y-16136558D01*
X10463030Y-16136558D02*
X10472554Y-16146082D01*
X10472554Y-16146082D02*
X10482078Y-16165129D01*
X10482078Y-16165129D02*
X10482078Y-16212748D01*
X10482078Y-16212748D02*
X10472554Y-16231796D01*
X10472554Y-16231796D02*
X10463030Y-16241320D01*
X10463030Y-16241320D02*
X10443982Y-16250844D01*
X10443982Y-16250844D02*
X10396363Y-16250844D01*
X10396363Y-16250844D02*
X10377316Y-16241320D01*
X10377316Y-16241320D02*
X10367792Y-16231796D01*
X10548744Y-16050844D02*
X10682078Y-16050844D01*
X10682078Y-16050844D02*
X10596363Y-16250844D01*
X10748744Y-16050844D02*
X10748744Y-16088939D01*
X10824935Y-16050844D02*
X10824935Y-16088939D01*
X11120173Y-16327034D02*
X11110649Y-16317510D01*
X11110649Y-16317510D02*
X11091601Y-16288939D01*
X11091601Y-16288939D02*
X11082078Y-16269891D01*
X11082078Y-16269891D02*
X11072554Y-16241320D01*
X11072554Y-16241320D02*
X11063030Y-16193701D01*
X11063030Y-16193701D02*
X11063030Y-16155606D01*
X11063030Y-16155606D02*
X11072554Y-16107987D01*
X11072554Y-16107987D02*
X11082078Y-16079415D01*
X11082078Y-16079415D02*
X11091601Y-16060368D01*
X11091601Y-16060368D02*
X11110649Y-16031796D01*
X11110649Y-16031796D02*
X11120173Y-16022272D01*
X11177316Y-16050844D02*
X11301125Y-16050844D01*
X11301125Y-16050844D02*
X11234458Y-16127034D01*
X11234458Y-16127034D02*
X11263030Y-16127034D01*
X11263030Y-16127034D02*
X11282078Y-16136558D01*
X11282078Y-16136558D02*
X11291601Y-16146082D01*
X11291601Y-16146082D02*
X11301125Y-16165129D01*
X11301125Y-16165129D02*
X11301125Y-16212748D01*
X11301125Y-16212748D02*
X11291601Y-16231796D01*
X11291601Y-16231796D02*
X11282078Y-16241320D01*
X11282078Y-16241320D02*
X11263030Y-16250844D01*
X11263030Y-16250844D02*
X11205887Y-16250844D01*
X11205887Y-16250844D02*
X11186839Y-16241320D01*
X11186839Y-16241320D02*
X11177316Y-16231796D01*
X11482078Y-16050844D02*
X11386839Y-16050844D01*
X11386839Y-16050844D02*
X11377316Y-16146082D01*
X11377316Y-16146082D02*
X11386839Y-16136558D01*
X11386839Y-16136558D02*
X11405887Y-16127034D01*
X11405887Y-16127034D02*
X11453506Y-16127034D01*
X11453506Y-16127034D02*
X11472554Y-16136558D01*
X11472554Y-16136558D02*
X11482078Y-16146082D01*
X11482078Y-16146082D02*
X11491601Y-16165129D01*
X11491601Y-16165129D02*
X11491601Y-16212748D01*
X11491601Y-16212748D02*
X11482078Y-16231796D01*
X11482078Y-16231796D02*
X11472554Y-16241320D01*
X11472554Y-16241320D02*
X11453506Y-16250844D01*
X11453506Y-16250844D02*
X11405887Y-16250844D01*
X11405887Y-16250844D02*
X11386839Y-16241320D01*
X11386839Y-16241320D02*
X11377316Y-16231796D01*
X11729697Y-16250844D02*
X11729697Y-16050844D01*
X11815411Y-16250844D02*
X11815411Y-16146082D01*
X11815411Y-16146082D02*
X11805887Y-16127034D01*
X11805887Y-16127034D02*
X11786840Y-16117510D01*
X11786840Y-16117510D02*
X11758268Y-16117510D01*
X11758268Y-16117510D02*
X11739220Y-16127034D01*
X11739220Y-16127034D02*
X11729697Y-16136558D01*
X11939220Y-16250844D02*
X11920173Y-16241320D01*
X11920173Y-16241320D02*
X11910649Y-16231796D01*
X11910649Y-16231796D02*
X11901125Y-16212748D01*
X11901125Y-16212748D02*
X11901125Y-16155606D01*
X11901125Y-16155606D02*
X11910649Y-16136558D01*
X11910649Y-16136558D02*
X11920173Y-16127034D01*
X11920173Y-16127034D02*
X11939220Y-16117510D01*
X11939220Y-16117510D02*
X11967792Y-16117510D01*
X11967792Y-16117510D02*
X11986840Y-16127034D01*
X11986840Y-16127034D02*
X11996363Y-16136558D01*
X11996363Y-16136558D02*
X12005887Y-16155606D01*
X12005887Y-16155606D02*
X12005887Y-16212748D01*
X12005887Y-16212748D02*
X11996363Y-16231796D01*
X11996363Y-16231796D02*
X11986840Y-16241320D01*
X11986840Y-16241320D02*
X11967792Y-16250844D01*
X11967792Y-16250844D02*
X11939220Y-16250844D01*
X12120173Y-16250844D02*
X12101125Y-16241320D01*
X12101125Y-16241320D02*
X12091601Y-16222272D01*
X12091601Y-16222272D02*
X12091601Y-16050844D01*
X12272554Y-16241320D02*
X12253506Y-16250844D01*
X12253506Y-16250844D02*
X12215411Y-16250844D01*
X12215411Y-16250844D02*
X12196363Y-16241320D01*
X12196363Y-16241320D02*
X12186840Y-16222272D01*
X12186840Y-16222272D02*
X12186840Y-16146082D01*
X12186840Y-16146082D02*
X12196363Y-16127034D01*
X12196363Y-16127034D02*
X12215411Y-16117510D01*
X12215411Y-16117510D02*
X12253506Y-16117510D01*
X12253506Y-16117510D02*
X12272554Y-16127034D01*
X12272554Y-16127034D02*
X12282078Y-16146082D01*
X12282078Y-16146082D02*
X12282078Y-16165129D01*
X12282078Y-16165129D02*
X12186840Y-16184177D01*
X12358268Y-16241320D02*
X12377316Y-16250844D01*
X12377316Y-16250844D02*
X12415411Y-16250844D01*
X12415411Y-16250844D02*
X12434459Y-16241320D01*
X12434459Y-16241320D02*
X12443982Y-16222272D01*
X12443982Y-16222272D02*
X12443982Y-16212748D01*
X12443982Y-16212748D02*
X12434459Y-16193701D01*
X12434459Y-16193701D02*
X12415411Y-16184177D01*
X12415411Y-16184177D02*
X12386840Y-16184177D01*
X12386840Y-16184177D02*
X12367792Y-16174653D01*
X12367792Y-16174653D02*
X12358268Y-16155606D01*
X12358268Y-16155606D02*
X12358268Y-16146082D01*
X12358268Y-16146082D02*
X12367792Y-16127034D01*
X12367792Y-16127034D02*
X12386840Y-16117510D01*
X12386840Y-16117510D02*
X12415411Y-16117510D01*
X12415411Y-16117510D02*
X12434459Y-16127034D01*
X12510649Y-16327034D02*
X12520173Y-16317510D01*
X12520173Y-16317510D02*
X12539221Y-16288939D01*
X12539221Y-16288939D02*
X12548744Y-16269891D01*
X12548744Y-16269891D02*
X12558268Y-16241320D01*
X12558268Y-16241320D02*
X12567792Y-16193701D01*
X12567792Y-16193701D02*
X12567792Y-16155606D01*
X12567792Y-16155606D02*
X12558268Y-16107987D01*
X12558268Y-16107987D02*
X12548744Y-16079415D01*
X12548744Y-16079415D02*
X12539221Y-16060368D01*
X12539221Y-16060368D02*
X12520173Y-16031796D01*
X12520173Y-16031796D02*
X12510649Y-16022272D01*
D10*
X7505110Y-16383360D02*
X7505110Y-16463360D01*
X7465110Y-16423360D02*
X7545110Y-16423360D01*
D11*
X7843982Y-16314844D02*
X7863030Y-16314844D01*
X7863030Y-16314844D02*
X7882077Y-16324368D01*
X7882077Y-16324368D02*
X7891601Y-16333891D01*
X7891601Y-16333891D02*
X7901125Y-16352939D01*
X7901125Y-16352939D02*
X7910649Y-16391034D01*
X7910649Y-16391034D02*
X7910649Y-16438653D01*
X7910649Y-16438653D02*
X7901125Y-16476748D01*
X7901125Y-16476748D02*
X7891601Y-16495796D01*
X7891601Y-16495796D02*
X7882077Y-16505320D01*
X7882077Y-16505320D02*
X7863030Y-16514844D01*
X7863030Y-16514844D02*
X7843982Y-16514844D01*
X7843982Y-16514844D02*
X7824934Y-16505320D01*
X7824934Y-16505320D02*
X7815411Y-16495796D01*
X7815411Y-16495796D02*
X7805887Y-16476748D01*
X7805887Y-16476748D02*
X7796363Y-16438653D01*
X7796363Y-16438653D02*
X7796363Y-16391034D01*
X7796363Y-16391034D02*
X7805887Y-16352939D01*
X7805887Y-16352939D02*
X7815411Y-16333891D01*
X7815411Y-16333891D02*
X7824934Y-16324368D01*
X7824934Y-16324368D02*
X7843982Y-16314844D01*
X7996363Y-16495796D02*
X8005887Y-16505320D01*
X8005887Y-16505320D02*
X7996363Y-16514844D01*
X7996363Y-16514844D02*
X7986839Y-16505320D01*
X7986839Y-16505320D02*
X7996363Y-16495796D01*
X7996363Y-16495796D02*
X7996363Y-16514844D01*
X8120172Y-16400558D02*
X8101125Y-16391034D01*
X8101125Y-16391034D02*
X8091601Y-16381510D01*
X8091601Y-16381510D02*
X8082077Y-16362463D01*
X8082077Y-16362463D02*
X8082077Y-16352939D01*
X8082077Y-16352939D02*
X8091601Y-16333891D01*
X8091601Y-16333891D02*
X8101125Y-16324368D01*
X8101125Y-16324368D02*
X8120172Y-16314844D01*
X8120172Y-16314844D02*
X8158268Y-16314844D01*
X8158268Y-16314844D02*
X8177315Y-16324368D01*
X8177315Y-16324368D02*
X8186839Y-16333891D01*
X8186839Y-16333891D02*
X8196363Y-16352939D01*
X8196363Y-16352939D02*
X8196363Y-16362463D01*
X8196363Y-16362463D02*
X8186839Y-16381510D01*
X8186839Y-16381510D02*
X8177315Y-16391034D01*
X8177315Y-16391034D02*
X8158268Y-16400558D01*
X8158268Y-16400558D02*
X8120172Y-16400558D01*
X8120172Y-16400558D02*
X8101125Y-16410082D01*
X8101125Y-16410082D02*
X8091601Y-16419606D01*
X8091601Y-16419606D02*
X8082077Y-16438653D01*
X8082077Y-16438653D02*
X8082077Y-16476748D01*
X8082077Y-16476748D02*
X8091601Y-16495796D01*
X8091601Y-16495796D02*
X8101125Y-16505320D01*
X8101125Y-16505320D02*
X8120172Y-16514844D01*
X8120172Y-16514844D02*
X8158268Y-16514844D01*
X8158268Y-16514844D02*
X8177315Y-16505320D01*
X8177315Y-16505320D02*
X8186839Y-16495796D01*
X8186839Y-16495796D02*
X8196363Y-16476748D01*
X8196363Y-16476748D02*
X8196363Y-16438653D01*
X8196363Y-16438653D02*
X8186839Y-16419606D01*
X8186839Y-16419606D02*
X8177315Y-16410082D01*
X8177315Y-16410082D02*
X8158268Y-16400558D01*
X8320172Y-16314844D02*
X8339220Y-16314844D01*
X8339220Y-16314844D02*
X8358268Y-16324368D01*
X8358268Y-16324368D02*
X8367792Y-16333891D01*
X8367792Y-16333891D02*
X8377315Y-16352939D01*
X8377315Y-16352939D02*
X8386839Y-16391034D01*
X8386839Y-16391034D02*
X8386839Y-16438653D01*
X8386839Y-16438653D02*
X8377315Y-16476748D01*
X8377315Y-16476748D02*
X8367792Y-16495796D01*
X8367792Y-16495796D02*
X8358268Y-16505320D01*
X8358268Y-16505320D02*
X8339220Y-16514844D01*
X8339220Y-16514844D02*
X8320172Y-16514844D01*
X8320172Y-16514844D02*
X8301125Y-16505320D01*
X8301125Y-16505320D02*
X8291601Y-16495796D01*
X8291601Y-16495796D02*
X8282077Y-16476748D01*
X8282077Y-16476748D02*
X8272553Y-16438653D01*
X8272553Y-16438653D02*
X8272553Y-16391034D01*
X8272553Y-16391034D02*
X8282077Y-16352939D01*
X8282077Y-16352939D02*
X8291601Y-16333891D01*
X8291601Y-16333891D02*
X8301125Y-16324368D01*
X8301125Y-16324368D02*
X8320172Y-16314844D01*
X8510649Y-16314844D02*
X8529696Y-16314844D01*
X8529696Y-16314844D02*
X8548744Y-16324368D01*
X8548744Y-16324368D02*
X8558268Y-16333891D01*
X8558268Y-16333891D02*
X8567792Y-16352939D01*
X8567792Y-16352939D02*
X8577315Y-16391034D01*
X8577315Y-16391034D02*
X8577315Y-16438653D01*
X8577315Y-16438653D02*
X8567792Y-16476748D01*
X8567792Y-16476748D02*
X8558268Y-16495796D01*
X8558268Y-16495796D02*
X8548744Y-16505320D01*
X8548744Y-16505320D02*
X8529696Y-16514844D01*
X8529696Y-16514844D02*
X8510649Y-16514844D01*
X8510649Y-16514844D02*
X8491601Y-16505320D01*
X8491601Y-16505320D02*
X8482077Y-16495796D01*
X8482077Y-16495796D02*
X8472554Y-16476748D01*
X8472554Y-16476748D02*
X8463030Y-16438653D01*
X8463030Y-16438653D02*
X8463030Y-16391034D01*
X8463030Y-16391034D02*
X8472554Y-16352939D01*
X8472554Y-16352939D02*
X8482077Y-16333891D01*
X8482077Y-16333891D02*
X8491601Y-16324368D01*
X8491601Y-16324368D02*
X8510649Y-16314844D01*
X8663030Y-16514844D02*
X8663030Y-16381510D01*
X8663030Y-16400558D02*
X8672554Y-16391034D01*
X8672554Y-16391034D02*
X8691601Y-16381510D01*
X8691601Y-16381510D02*
X8720173Y-16381510D01*
X8720173Y-16381510D02*
X8739220Y-16391034D01*
X8739220Y-16391034D02*
X8748744Y-16410082D01*
X8748744Y-16410082D02*
X8748744Y-16514844D01*
X8748744Y-16410082D02*
X8758268Y-16391034D01*
X8758268Y-16391034D02*
X8777315Y-16381510D01*
X8777315Y-16381510D02*
X8805887Y-16381510D01*
X8805887Y-16381510D02*
X8824935Y-16391034D01*
X8824935Y-16391034D02*
X8834458Y-16410082D01*
X8834458Y-16410082D02*
X8834458Y-16514844D01*
X8929696Y-16514844D02*
X8929696Y-16381510D01*
X8929696Y-16400558D02*
X8939220Y-16391034D01*
X8939220Y-16391034D02*
X8958268Y-16381510D01*
X8958268Y-16381510D02*
X8986839Y-16381510D01*
X8986839Y-16381510D02*
X9005887Y-16391034D01*
X9005887Y-16391034D02*
X9015411Y-16410082D01*
X9015411Y-16410082D02*
X9015411Y-16514844D01*
X9015411Y-16410082D02*
X9024935Y-16391034D01*
X9024935Y-16391034D02*
X9043982Y-16381510D01*
X9043982Y-16381510D02*
X9072554Y-16381510D01*
X9072554Y-16381510D02*
X9091601Y-16391034D01*
X9091601Y-16391034D02*
X9101125Y-16410082D01*
X9101125Y-16410082D02*
X9101125Y-16514844D01*
X9491601Y-16305320D02*
X9320173Y-16562463D01*
X9748744Y-16314844D02*
X9767792Y-16314844D01*
X9767792Y-16314844D02*
X9786839Y-16324368D01*
X9786839Y-16324368D02*
X9796363Y-16333891D01*
X9796363Y-16333891D02*
X9805887Y-16352939D01*
X9805887Y-16352939D02*
X9815411Y-16391034D01*
X9815411Y-16391034D02*
X9815411Y-16438653D01*
X9815411Y-16438653D02*
X9805887Y-16476748D01*
X9805887Y-16476748D02*
X9796363Y-16495796D01*
X9796363Y-16495796D02*
X9786839Y-16505320D01*
X9786839Y-16505320D02*
X9767792Y-16514844D01*
X9767792Y-16514844D02*
X9748744Y-16514844D01*
X9748744Y-16514844D02*
X9729697Y-16505320D01*
X9729697Y-16505320D02*
X9720173Y-16495796D01*
X9720173Y-16495796D02*
X9710649Y-16476748D01*
X9710649Y-16476748D02*
X9701125Y-16438653D01*
X9701125Y-16438653D02*
X9701125Y-16391034D01*
X9701125Y-16391034D02*
X9710649Y-16352939D01*
X9710649Y-16352939D02*
X9720173Y-16333891D01*
X9720173Y-16333891D02*
X9729697Y-16324368D01*
X9729697Y-16324368D02*
X9748744Y-16314844D01*
X9901125Y-16495796D02*
X9910649Y-16505320D01*
X9910649Y-16505320D02*
X9901125Y-16514844D01*
X9901125Y-16514844D02*
X9891601Y-16505320D01*
X9891601Y-16505320D02*
X9901125Y-16495796D01*
X9901125Y-16495796D02*
X9901125Y-16514844D01*
X10034458Y-16314844D02*
X10053506Y-16314844D01*
X10053506Y-16314844D02*
X10072554Y-16324368D01*
X10072554Y-16324368D02*
X10082078Y-16333891D01*
X10082078Y-16333891D02*
X10091601Y-16352939D01*
X10091601Y-16352939D02*
X10101125Y-16391034D01*
X10101125Y-16391034D02*
X10101125Y-16438653D01*
X10101125Y-16438653D02*
X10091601Y-16476748D01*
X10091601Y-16476748D02*
X10082078Y-16495796D01*
X10082078Y-16495796D02*
X10072554Y-16505320D01*
X10072554Y-16505320D02*
X10053506Y-16514844D01*
X10053506Y-16514844D02*
X10034458Y-16514844D01*
X10034458Y-16514844D02*
X10015411Y-16505320D01*
X10015411Y-16505320D02*
X10005887Y-16495796D01*
X10005887Y-16495796D02*
X9996363Y-16476748D01*
X9996363Y-16476748D02*
X9986839Y-16438653D01*
X9986839Y-16438653D02*
X9986839Y-16391034D01*
X9986839Y-16391034D02*
X9996363Y-16352939D01*
X9996363Y-16352939D02*
X10005887Y-16333891D01*
X10005887Y-16333891D02*
X10015411Y-16324368D01*
X10015411Y-16324368D02*
X10034458Y-16314844D01*
X10167792Y-16314844D02*
X10291601Y-16314844D01*
X10291601Y-16314844D02*
X10224935Y-16391034D01*
X10224935Y-16391034D02*
X10253506Y-16391034D01*
X10253506Y-16391034D02*
X10272554Y-16400558D01*
X10272554Y-16400558D02*
X10282078Y-16410082D01*
X10282078Y-16410082D02*
X10291601Y-16429129D01*
X10291601Y-16429129D02*
X10291601Y-16476748D01*
X10291601Y-16476748D02*
X10282078Y-16495796D01*
X10282078Y-16495796D02*
X10272554Y-16505320D01*
X10272554Y-16505320D02*
X10253506Y-16514844D01*
X10253506Y-16514844D02*
X10196363Y-16514844D01*
X10196363Y-16514844D02*
X10177316Y-16505320D01*
X10177316Y-16505320D02*
X10167792Y-16495796D01*
X10482078Y-16514844D02*
X10367792Y-16514844D01*
X10424935Y-16514844D02*
X10424935Y-16314844D01*
X10424935Y-16314844D02*
X10405887Y-16343415D01*
X10405887Y-16343415D02*
X10386839Y-16362463D01*
X10386839Y-16362463D02*
X10367792Y-16371987D01*
X10663030Y-16314844D02*
X10567792Y-16314844D01*
X10567792Y-16314844D02*
X10558268Y-16410082D01*
X10558268Y-16410082D02*
X10567792Y-16400558D01*
X10567792Y-16400558D02*
X10586839Y-16391034D01*
X10586839Y-16391034D02*
X10634459Y-16391034D01*
X10634459Y-16391034D02*
X10653506Y-16400558D01*
X10653506Y-16400558D02*
X10663030Y-16410082D01*
X10663030Y-16410082D02*
X10672554Y-16429129D01*
X10672554Y-16429129D02*
X10672554Y-16476748D01*
X10672554Y-16476748D02*
X10663030Y-16495796D01*
X10663030Y-16495796D02*
X10653506Y-16505320D01*
X10653506Y-16505320D02*
X10634459Y-16514844D01*
X10634459Y-16514844D02*
X10586839Y-16514844D01*
X10586839Y-16514844D02*
X10567792Y-16505320D01*
X10567792Y-16505320D02*
X10558268Y-16495796D01*
X10748744Y-16314844D02*
X10748744Y-16352939D01*
X10824935Y-16314844D02*
X10824935Y-16352939D01*
X11120173Y-16591034D02*
X11110649Y-16581510D01*
X11110649Y-16581510D02*
X11091601Y-16552939D01*
X11091601Y-16552939D02*
X11082078Y-16533891D01*
X11082078Y-16533891D02*
X11072554Y-16505320D01*
X11072554Y-16505320D02*
X11063030Y-16457701D01*
X11063030Y-16457701D02*
X11063030Y-16419606D01*
X11063030Y-16419606D02*
X11072554Y-16371987D01*
X11072554Y-16371987D02*
X11082078Y-16343415D01*
X11082078Y-16343415D02*
X11091601Y-16324368D01*
X11091601Y-16324368D02*
X11110649Y-16295796D01*
X11110649Y-16295796D02*
X11120173Y-16286272D01*
X11186839Y-16333891D02*
X11196363Y-16324368D01*
X11196363Y-16324368D02*
X11215411Y-16314844D01*
X11215411Y-16314844D02*
X11263030Y-16314844D01*
X11263030Y-16314844D02*
X11282078Y-16324368D01*
X11282078Y-16324368D02*
X11291601Y-16333891D01*
X11291601Y-16333891D02*
X11301125Y-16352939D01*
X11301125Y-16352939D02*
X11301125Y-16371987D01*
X11301125Y-16371987D02*
X11291601Y-16400558D01*
X11291601Y-16400558D02*
X11177316Y-16514844D01*
X11177316Y-16514844D02*
X11301125Y-16514844D01*
X11424935Y-16314844D02*
X11443982Y-16314844D01*
X11443982Y-16314844D02*
X11463030Y-16324368D01*
X11463030Y-16324368D02*
X11472554Y-16333891D01*
X11472554Y-16333891D02*
X11482078Y-16352939D01*
X11482078Y-16352939D02*
X11491601Y-16391034D01*
X11491601Y-16391034D02*
X11491601Y-16438653D01*
X11491601Y-16438653D02*
X11482078Y-16476748D01*
X11482078Y-16476748D02*
X11472554Y-16495796D01*
X11472554Y-16495796D02*
X11463030Y-16505320D01*
X11463030Y-16505320D02*
X11443982Y-16514844D01*
X11443982Y-16514844D02*
X11424935Y-16514844D01*
X11424935Y-16514844D02*
X11405887Y-16505320D01*
X11405887Y-16505320D02*
X11396363Y-16495796D01*
X11396363Y-16495796D02*
X11386839Y-16476748D01*
X11386839Y-16476748D02*
X11377316Y-16438653D01*
X11377316Y-16438653D02*
X11377316Y-16391034D01*
X11377316Y-16391034D02*
X11386839Y-16352939D01*
X11386839Y-16352939D02*
X11396363Y-16333891D01*
X11396363Y-16333891D02*
X11405887Y-16324368D01*
X11405887Y-16324368D02*
X11424935Y-16314844D01*
X11729697Y-16514844D02*
X11729697Y-16314844D01*
X11815411Y-16514844D02*
X11815411Y-16410082D01*
X11815411Y-16410082D02*
X11805887Y-16391034D01*
X11805887Y-16391034D02*
X11786840Y-16381510D01*
X11786840Y-16381510D02*
X11758268Y-16381510D01*
X11758268Y-16381510D02*
X11739220Y-16391034D01*
X11739220Y-16391034D02*
X11729697Y-16400558D01*
X11939220Y-16514844D02*
X11920173Y-16505320D01*
X11920173Y-16505320D02*
X11910649Y-16495796D01*
X11910649Y-16495796D02*
X11901125Y-16476748D01*
X11901125Y-16476748D02*
X11901125Y-16419606D01*
X11901125Y-16419606D02*
X11910649Y-16400558D01*
X11910649Y-16400558D02*
X11920173Y-16391034D01*
X11920173Y-16391034D02*
X11939220Y-16381510D01*
X11939220Y-16381510D02*
X11967792Y-16381510D01*
X11967792Y-16381510D02*
X11986840Y-16391034D01*
X11986840Y-16391034D02*
X11996363Y-16400558D01*
X11996363Y-16400558D02*
X12005887Y-16419606D01*
X12005887Y-16419606D02*
X12005887Y-16476748D01*
X12005887Y-16476748D02*
X11996363Y-16495796D01*
X11996363Y-16495796D02*
X11986840Y-16505320D01*
X11986840Y-16505320D02*
X11967792Y-16514844D01*
X11967792Y-16514844D02*
X11939220Y-16514844D01*
X12120173Y-16514844D02*
X12101125Y-16505320D01*
X12101125Y-16505320D02*
X12091601Y-16486272D01*
X12091601Y-16486272D02*
X12091601Y-16314844D01*
X12272554Y-16505320D02*
X12253506Y-16514844D01*
X12253506Y-16514844D02*
X12215411Y-16514844D01*
X12215411Y-16514844D02*
X12196363Y-16505320D01*
X12196363Y-16505320D02*
X12186840Y-16486272D01*
X12186840Y-16486272D02*
X12186840Y-16410082D01*
X12186840Y-16410082D02*
X12196363Y-16391034D01*
X12196363Y-16391034D02*
X12215411Y-16381510D01*
X12215411Y-16381510D02*
X12253506Y-16381510D01*
X12253506Y-16381510D02*
X12272554Y-16391034D01*
X12272554Y-16391034D02*
X12282078Y-16410082D01*
X12282078Y-16410082D02*
X12282078Y-16429129D01*
X12282078Y-16429129D02*
X12186840Y-16448177D01*
X12358268Y-16505320D02*
X12377316Y-16514844D01*
X12377316Y-16514844D02*
X12415411Y-16514844D01*
X12415411Y-16514844D02*
X12434459Y-16505320D01*
X12434459Y-16505320D02*
X12443982Y-16486272D01*
X12443982Y-16486272D02*
X12443982Y-16476748D01*
X12443982Y-16476748D02*
X12434459Y-16457701D01*
X12434459Y-16457701D02*
X12415411Y-16448177D01*
X12415411Y-16448177D02*
X12386840Y-16448177D01*
X12386840Y-16448177D02*
X12367792Y-16438653D01*
X12367792Y-16438653D02*
X12358268Y-16419606D01*
X12358268Y-16419606D02*
X12358268Y-16410082D01*
X12358268Y-16410082D02*
X12367792Y-16391034D01*
X12367792Y-16391034D02*
X12386840Y-16381510D01*
X12386840Y-16381510D02*
X12415411Y-16381510D01*
X12415411Y-16381510D02*
X12434459Y-16391034D01*
X12510649Y-16591034D02*
X12520173Y-16581510D01*
X12520173Y-16581510D02*
X12539221Y-16552939D01*
X12539221Y-16552939D02*
X12548744Y-16533891D01*
X12548744Y-16533891D02*
X12558268Y-16505320D01*
X12558268Y-16505320D02*
X12567792Y-16457701D01*
X12567792Y-16457701D02*
X12567792Y-16419606D01*
X12567792Y-16419606D02*
X12558268Y-16371987D01*
X12558268Y-16371987D02*
X12548744Y-16343415D01*
X12548744Y-16343415D02*
X12539221Y-16324368D01*
X12539221Y-16324368D02*
X12520173Y-16295796D01*
X12520173Y-16295796D02*
X12510649Y-16286272D01*
D10*
X7530466Y-16722716D02*
X7530466Y-16652004D01*
X7459754Y-16652004D01*
X7459754Y-16722716D01*
X7530466Y-16722716D01*
D11*
X7910649Y-16778844D02*
X7796363Y-16778844D01*
X7853506Y-16778844D02*
X7853506Y-16578844D01*
X7853506Y-16578844D02*
X7834458Y-16607415D01*
X7834458Y-16607415D02*
X7815411Y-16626463D01*
X7815411Y-16626463D02*
X7796363Y-16635987D01*
X7996363Y-16759796D02*
X8005887Y-16769320D01*
X8005887Y-16769320D02*
X7996363Y-16778844D01*
X7996363Y-16778844D02*
X7986839Y-16769320D01*
X7986839Y-16769320D02*
X7996363Y-16759796D01*
X7996363Y-16759796D02*
X7996363Y-16778844D01*
X8129696Y-16578844D02*
X8148744Y-16578844D01*
X8148744Y-16578844D02*
X8167792Y-16588368D01*
X8167792Y-16588368D02*
X8177315Y-16597891D01*
X8177315Y-16597891D02*
X8186839Y-16616939D01*
X8186839Y-16616939D02*
X8196363Y-16655034D01*
X8196363Y-16655034D02*
X8196363Y-16702653D01*
X8196363Y-16702653D02*
X8186839Y-16740748D01*
X8186839Y-16740748D02*
X8177315Y-16759796D01*
X8177315Y-16759796D02*
X8167792Y-16769320D01*
X8167792Y-16769320D02*
X8148744Y-16778844D01*
X8148744Y-16778844D02*
X8129696Y-16778844D01*
X8129696Y-16778844D02*
X8110649Y-16769320D01*
X8110649Y-16769320D02*
X8101125Y-16759796D01*
X8101125Y-16759796D02*
X8091601Y-16740748D01*
X8091601Y-16740748D02*
X8082077Y-16702653D01*
X8082077Y-16702653D02*
X8082077Y-16655034D01*
X8082077Y-16655034D02*
X8091601Y-16616939D01*
X8091601Y-16616939D02*
X8101125Y-16597891D01*
X8101125Y-16597891D02*
X8110649Y-16588368D01*
X8110649Y-16588368D02*
X8129696Y-16578844D01*
X8320172Y-16578844D02*
X8339220Y-16578844D01*
X8339220Y-16578844D02*
X8358268Y-16588368D01*
X8358268Y-16588368D02*
X8367792Y-16597891D01*
X8367792Y-16597891D02*
X8377315Y-16616939D01*
X8377315Y-16616939D02*
X8386839Y-16655034D01*
X8386839Y-16655034D02*
X8386839Y-16702653D01*
X8386839Y-16702653D02*
X8377315Y-16740748D01*
X8377315Y-16740748D02*
X8367792Y-16759796D01*
X8367792Y-16759796D02*
X8358268Y-16769320D01*
X8358268Y-16769320D02*
X8339220Y-16778844D01*
X8339220Y-16778844D02*
X8320172Y-16778844D01*
X8320172Y-16778844D02*
X8301125Y-16769320D01*
X8301125Y-16769320D02*
X8291601Y-16759796D01*
X8291601Y-16759796D02*
X8282077Y-16740748D01*
X8282077Y-16740748D02*
X8272553Y-16702653D01*
X8272553Y-16702653D02*
X8272553Y-16655034D01*
X8272553Y-16655034D02*
X8282077Y-16616939D01*
X8282077Y-16616939D02*
X8291601Y-16597891D01*
X8291601Y-16597891D02*
X8301125Y-16588368D01*
X8301125Y-16588368D02*
X8320172Y-16578844D01*
X8510649Y-16578844D02*
X8529696Y-16578844D01*
X8529696Y-16578844D02*
X8548744Y-16588368D01*
X8548744Y-16588368D02*
X8558268Y-16597891D01*
X8558268Y-16597891D02*
X8567792Y-16616939D01*
X8567792Y-16616939D02*
X8577315Y-16655034D01*
X8577315Y-16655034D02*
X8577315Y-16702653D01*
X8577315Y-16702653D02*
X8567792Y-16740748D01*
X8567792Y-16740748D02*
X8558268Y-16759796D01*
X8558268Y-16759796D02*
X8548744Y-16769320D01*
X8548744Y-16769320D02*
X8529696Y-16778844D01*
X8529696Y-16778844D02*
X8510649Y-16778844D01*
X8510649Y-16778844D02*
X8491601Y-16769320D01*
X8491601Y-16769320D02*
X8482077Y-16759796D01*
X8482077Y-16759796D02*
X8472554Y-16740748D01*
X8472554Y-16740748D02*
X8463030Y-16702653D01*
X8463030Y-16702653D02*
X8463030Y-16655034D01*
X8463030Y-16655034D02*
X8472554Y-16616939D01*
X8472554Y-16616939D02*
X8482077Y-16597891D01*
X8482077Y-16597891D02*
X8491601Y-16588368D01*
X8491601Y-16588368D02*
X8510649Y-16578844D01*
X8663030Y-16778844D02*
X8663030Y-16645510D01*
X8663030Y-16664558D02*
X8672554Y-16655034D01*
X8672554Y-16655034D02*
X8691601Y-16645510D01*
X8691601Y-16645510D02*
X8720173Y-16645510D01*
X8720173Y-16645510D02*
X8739220Y-16655034D01*
X8739220Y-16655034D02*
X8748744Y-16674082D01*
X8748744Y-16674082D02*
X8748744Y-16778844D01*
X8748744Y-16674082D02*
X8758268Y-16655034D01*
X8758268Y-16655034D02*
X8777315Y-16645510D01*
X8777315Y-16645510D02*
X8805887Y-16645510D01*
X8805887Y-16645510D02*
X8824935Y-16655034D01*
X8824935Y-16655034D02*
X8834458Y-16674082D01*
X8834458Y-16674082D02*
X8834458Y-16778844D01*
X8929696Y-16778844D02*
X8929696Y-16645510D01*
X8929696Y-16664558D02*
X8939220Y-16655034D01*
X8939220Y-16655034D02*
X8958268Y-16645510D01*
X8958268Y-16645510D02*
X8986839Y-16645510D01*
X8986839Y-16645510D02*
X9005887Y-16655034D01*
X9005887Y-16655034D02*
X9015411Y-16674082D01*
X9015411Y-16674082D02*
X9015411Y-16778844D01*
X9015411Y-16674082D02*
X9024935Y-16655034D01*
X9024935Y-16655034D02*
X9043982Y-16645510D01*
X9043982Y-16645510D02*
X9072554Y-16645510D01*
X9072554Y-16645510D02*
X9091601Y-16655034D01*
X9091601Y-16655034D02*
X9101125Y-16674082D01*
X9101125Y-16674082D02*
X9101125Y-16778844D01*
X9491601Y-16569320D02*
X9320173Y-16826463D01*
X9748744Y-16578844D02*
X9767792Y-16578844D01*
X9767792Y-16578844D02*
X9786839Y-16588368D01*
X9786839Y-16588368D02*
X9796363Y-16597891D01*
X9796363Y-16597891D02*
X9805887Y-16616939D01*
X9805887Y-16616939D02*
X9815411Y-16655034D01*
X9815411Y-16655034D02*
X9815411Y-16702653D01*
X9815411Y-16702653D02*
X9805887Y-16740748D01*
X9805887Y-16740748D02*
X9796363Y-16759796D01*
X9796363Y-16759796D02*
X9786839Y-16769320D01*
X9786839Y-16769320D02*
X9767792Y-16778844D01*
X9767792Y-16778844D02*
X9748744Y-16778844D01*
X9748744Y-16778844D02*
X9729697Y-16769320D01*
X9729697Y-16769320D02*
X9720173Y-16759796D01*
X9720173Y-16759796D02*
X9710649Y-16740748D01*
X9710649Y-16740748D02*
X9701125Y-16702653D01*
X9701125Y-16702653D02*
X9701125Y-16655034D01*
X9701125Y-16655034D02*
X9710649Y-16616939D01*
X9710649Y-16616939D02*
X9720173Y-16597891D01*
X9720173Y-16597891D02*
X9729697Y-16588368D01*
X9729697Y-16588368D02*
X9748744Y-16578844D01*
X9901125Y-16759796D02*
X9910649Y-16769320D01*
X9910649Y-16769320D02*
X9901125Y-16778844D01*
X9901125Y-16778844D02*
X9891601Y-16769320D01*
X9891601Y-16769320D02*
X9901125Y-16759796D01*
X9901125Y-16759796D02*
X9901125Y-16778844D01*
X10034458Y-16578844D02*
X10053506Y-16578844D01*
X10053506Y-16578844D02*
X10072554Y-16588368D01*
X10072554Y-16588368D02*
X10082078Y-16597891D01*
X10082078Y-16597891D02*
X10091601Y-16616939D01*
X10091601Y-16616939D02*
X10101125Y-16655034D01*
X10101125Y-16655034D02*
X10101125Y-16702653D01*
X10101125Y-16702653D02*
X10091601Y-16740748D01*
X10091601Y-16740748D02*
X10082078Y-16759796D01*
X10082078Y-16759796D02*
X10072554Y-16769320D01*
X10072554Y-16769320D02*
X10053506Y-16778844D01*
X10053506Y-16778844D02*
X10034458Y-16778844D01*
X10034458Y-16778844D02*
X10015411Y-16769320D01*
X10015411Y-16769320D02*
X10005887Y-16759796D01*
X10005887Y-16759796D02*
X9996363Y-16740748D01*
X9996363Y-16740748D02*
X9986839Y-16702653D01*
X9986839Y-16702653D02*
X9986839Y-16655034D01*
X9986839Y-16655034D02*
X9996363Y-16616939D01*
X9996363Y-16616939D02*
X10005887Y-16597891D01*
X10005887Y-16597891D02*
X10015411Y-16588368D01*
X10015411Y-16588368D02*
X10034458Y-16578844D01*
X10167792Y-16578844D02*
X10291601Y-16578844D01*
X10291601Y-16578844D02*
X10224935Y-16655034D01*
X10224935Y-16655034D02*
X10253506Y-16655034D01*
X10253506Y-16655034D02*
X10272554Y-16664558D01*
X10272554Y-16664558D02*
X10282078Y-16674082D01*
X10282078Y-16674082D02*
X10291601Y-16693129D01*
X10291601Y-16693129D02*
X10291601Y-16740748D01*
X10291601Y-16740748D02*
X10282078Y-16759796D01*
X10282078Y-16759796D02*
X10272554Y-16769320D01*
X10272554Y-16769320D02*
X10253506Y-16778844D01*
X10253506Y-16778844D02*
X10196363Y-16778844D01*
X10196363Y-16778844D02*
X10177316Y-16769320D01*
X10177316Y-16769320D02*
X10167792Y-16759796D01*
X10386839Y-16778844D02*
X10424935Y-16778844D01*
X10424935Y-16778844D02*
X10443982Y-16769320D01*
X10443982Y-16769320D02*
X10453506Y-16759796D01*
X10453506Y-16759796D02*
X10472554Y-16731225D01*
X10472554Y-16731225D02*
X10482078Y-16693129D01*
X10482078Y-16693129D02*
X10482078Y-16616939D01*
X10482078Y-16616939D02*
X10472554Y-16597891D01*
X10472554Y-16597891D02*
X10463030Y-16588368D01*
X10463030Y-16588368D02*
X10443982Y-16578844D01*
X10443982Y-16578844D02*
X10405887Y-16578844D01*
X10405887Y-16578844D02*
X10386839Y-16588368D01*
X10386839Y-16588368D02*
X10377316Y-16597891D01*
X10377316Y-16597891D02*
X10367792Y-16616939D01*
X10367792Y-16616939D02*
X10367792Y-16664558D01*
X10367792Y-16664558D02*
X10377316Y-16683606D01*
X10377316Y-16683606D02*
X10386839Y-16693129D01*
X10386839Y-16693129D02*
X10405887Y-16702653D01*
X10405887Y-16702653D02*
X10443982Y-16702653D01*
X10443982Y-16702653D02*
X10463030Y-16693129D01*
X10463030Y-16693129D02*
X10472554Y-16683606D01*
X10472554Y-16683606D02*
X10482078Y-16664558D01*
X10653506Y-16645510D02*
X10653506Y-16778844D01*
X10605887Y-16569320D02*
X10558268Y-16712177D01*
X10558268Y-16712177D02*
X10682078Y-16712177D01*
X10748744Y-16578844D02*
X10748744Y-16616939D01*
X10824935Y-16578844D02*
X10824935Y-16616939D01*
X11120173Y-16855034D02*
X11110649Y-16845510D01*
X11110649Y-16845510D02*
X11091601Y-16816939D01*
X11091601Y-16816939D02*
X11082078Y-16797891D01*
X11082078Y-16797891D02*
X11072554Y-16769320D01*
X11072554Y-16769320D02*
X11063030Y-16721701D01*
X11063030Y-16721701D02*
X11063030Y-16683606D01*
X11063030Y-16683606D02*
X11072554Y-16635987D01*
X11072554Y-16635987D02*
X11082078Y-16607415D01*
X11082078Y-16607415D02*
X11091601Y-16588368D01*
X11091601Y-16588368D02*
X11110649Y-16559796D01*
X11110649Y-16559796D02*
X11120173Y-16550272D01*
X11186839Y-16597891D02*
X11196363Y-16588368D01*
X11196363Y-16588368D02*
X11215411Y-16578844D01*
X11215411Y-16578844D02*
X11263030Y-16578844D01*
X11263030Y-16578844D02*
X11282078Y-16588368D01*
X11282078Y-16588368D02*
X11291601Y-16597891D01*
X11291601Y-16597891D02*
X11301125Y-16616939D01*
X11301125Y-16616939D02*
X11301125Y-16635987D01*
X11301125Y-16635987D02*
X11291601Y-16664558D01*
X11291601Y-16664558D02*
X11177316Y-16778844D01*
X11177316Y-16778844D02*
X11301125Y-16778844D01*
X11415411Y-16664558D02*
X11396363Y-16655034D01*
X11396363Y-16655034D02*
X11386839Y-16645510D01*
X11386839Y-16645510D02*
X11377316Y-16626463D01*
X11377316Y-16626463D02*
X11377316Y-16616939D01*
X11377316Y-16616939D02*
X11386839Y-16597891D01*
X11386839Y-16597891D02*
X11396363Y-16588368D01*
X11396363Y-16588368D02*
X11415411Y-16578844D01*
X11415411Y-16578844D02*
X11453506Y-16578844D01*
X11453506Y-16578844D02*
X11472554Y-16588368D01*
X11472554Y-16588368D02*
X11482078Y-16597891D01*
X11482078Y-16597891D02*
X11491601Y-16616939D01*
X11491601Y-16616939D02*
X11491601Y-16626463D01*
X11491601Y-16626463D02*
X11482078Y-16645510D01*
X11482078Y-16645510D02*
X11472554Y-16655034D01*
X11472554Y-16655034D02*
X11453506Y-16664558D01*
X11453506Y-16664558D02*
X11415411Y-16664558D01*
X11415411Y-16664558D02*
X11396363Y-16674082D01*
X11396363Y-16674082D02*
X11386839Y-16683606D01*
X11386839Y-16683606D02*
X11377316Y-16702653D01*
X11377316Y-16702653D02*
X11377316Y-16740748D01*
X11377316Y-16740748D02*
X11386839Y-16759796D01*
X11386839Y-16759796D02*
X11396363Y-16769320D01*
X11396363Y-16769320D02*
X11415411Y-16778844D01*
X11415411Y-16778844D02*
X11453506Y-16778844D01*
X11453506Y-16778844D02*
X11472554Y-16769320D01*
X11472554Y-16769320D02*
X11482078Y-16759796D01*
X11482078Y-16759796D02*
X11491601Y-16740748D01*
X11491601Y-16740748D02*
X11491601Y-16702653D01*
X11491601Y-16702653D02*
X11482078Y-16683606D01*
X11482078Y-16683606D02*
X11472554Y-16674082D01*
X11472554Y-16674082D02*
X11453506Y-16664558D01*
X11729697Y-16778844D02*
X11729697Y-16578844D01*
X11815411Y-16778844D02*
X11815411Y-16674082D01*
X11815411Y-16674082D02*
X11805887Y-16655034D01*
X11805887Y-16655034D02*
X11786840Y-16645510D01*
X11786840Y-16645510D02*
X11758268Y-16645510D01*
X11758268Y-16645510D02*
X11739220Y-16655034D01*
X11739220Y-16655034D02*
X11729697Y-16664558D01*
X11939220Y-16778844D02*
X11920173Y-16769320D01*
X11920173Y-16769320D02*
X11910649Y-16759796D01*
X11910649Y-16759796D02*
X11901125Y-16740748D01*
X11901125Y-16740748D02*
X11901125Y-16683606D01*
X11901125Y-16683606D02*
X11910649Y-16664558D01*
X11910649Y-16664558D02*
X11920173Y-16655034D01*
X11920173Y-16655034D02*
X11939220Y-16645510D01*
X11939220Y-16645510D02*
X11967792Y-16645510D01*
X11967792Y-16645510D02*
X11986840Y-16655034D01*
X11986840Y-16655034D02*
X11996363Y-16664558D01*
X11996363Y-16664558D02*
X12005887Y-16683606D01*
X12005887Y-16683606D02*
X12005887Y-16740748D01*
X12005887Y-16740748D02*
X11996363Y-16759796D01*
X11996363Y-16759796D02*
X11986840Y-16769320D01*
X11986840Y-16769320D02*
X11967792Y-16778844D01*
X11967792Y-16778844D02*
X11939220Y-16778844D01*
X12120173Y-16778844D02*
X12101125Y-16769320D01*
X12101125Y-16769320D02*
X12091601Y-16750272D01*
X12091601Y-16750272D02*
X12091601Y-16578844D01*
X12272554Y-16769320D02*
X12253506Y-16778844D01*
X12253506Y-16778844D02*
X12215411Y-16778844D01*
X12215411Y-16778844D02*
X12196363Y-16769320D01*
X12196363Y-16769320D02*
X12186840Y-16750272D01*
X12186840Y-16750272D02*
X12186840Y-16674082D01*
X12186840Y-16674082D02*
X12196363Y-16655034D01*
X12196363Y-16655034D02*
X12215411Y-16645510D01*
X12215411Y-16645510D02*
X12253506Y-16645510D01*
X12253506Y-16645510D02*
X12272554Y-16655034D01*
X12272554Y-16655034D02*
X12282078Y-16674082D01*
X12282078Y-16674082D02*
X12282078Y-16693129D01*
X12282078Y-16693129D02*
X12186840Y-16712177D01*
X12358268Y-16769320D02*
X12377316Y-16778844D01*
X12377316Y-16778844D02*
X12415411Y-16778844D01*
X12415411Y-16778844D02*
X12434459Y-16769320D01*
X12434459Y-16769320D02*
X12443982Y-16750272D01*
X12443982Y-16750272D02*
X12443982Y-16740748D01*
X12443982Y-16740748D02*
X12434459Y-16721701D01*
X12434459Y-16721701D02*
X12415411Y-16712177D01*
X12415411Y-16712177D02*
X12386840Y-16712177D01*
X12386840Y-16712177D02*
X12367792Y-16702653D01*
X12367792Y-16702653D02*
X12358268Y-16683606D01*
X12358268Y-16683606D02*
X12358268Y-16674082D01*
X12358268Y-16674082D02*
X12367792Y-16655034D01*
X12367792Y-16655034D02*
X12386840Y-16645510D01*
X12386840Y-16645510D02*
X12415411Y-16645510D01*
X12415411Y-16645510D02*
X12434459Y-16655034D01*
X12510649Y-16855034D02*
X12520173Y-16845510D01*
X12520173Y-16845510D02*
X12539221Y-16816939D01*
X12539221Y-16816939D02*
X12548744Y-16797891D01*
X12548744Y-16797891D02*
X12558268Y-16769320D01*
X12558268Y-16769320D02*
X12567792Y-16721701D01*
X12567792Y-16721701D02*
X12567792Y-16683606D01*
X12567792Y-16683606D02*
X12558268Y-16635987D01*
X12558268Y-16635987D02*
X12548744Y-16607415D01*
X12548744Y-16607415D02*
X12539221Y-16588368D01*
X12539221Y-16588368D02*
X12520173Y-16559796D01*
X12520173Y-16559796D02*
X12510649Y-16550272D01*
D12*
X7470110Y-17026360D02*
X7545110Y-16951360D01*
X7470110Y-16876360D01*
X7395110Y-16951360D01*
X7470110Y-17026360D01*
D11*
X7910649Y-17042844D02*
X7796363Y-17042844D01*
X7853506Y-17042844D02*
X7853506Y-16842844D01*
X7853506Y-16842844D02*
X7834458Y-16871415D01*
X7834458Y-16871415D02*
X7815411Y-16890463D01*
X7815411Y-16890463D02*
X7796363Y-16899987D01*
X7996363Y-17023796D02*
X8005887Y-17033320D01*
X8005887Y-17033320D02*
X7996363Y-17042844D01*
X7996363Y-17042844D02*
X7986839Y-17033320D01*
X7986839Y-17033320D02*
X7996363Y-17023796D01*
X7996363Y-17023796D02*
X7996363Y-17042844D01*
X8186839Y-16842844D02*
X8091601Y-16842844D01*
X8091601Y-16842844D02*
X8082077Y-16938082D01*
X8082077Y-16938082D02*
X8091601Y-16928558D01*
X8091601Y-16928558D02*
X8110649Y-16919034D01*
X8110649Y-16919034D02*
X8158268Y-16919034D01*
X8158268Y-16919034D02*
X8177315Y-16928558D01*
X8177315Y-16928558D02*
X8186839Y-16938082D01*
X8186839Y-16938082D02*
X8196363Y-16957130D01*
X8196363Y-16957130D02*
X8196363Y-17004749D01*
X8196363Y-17004749D02*
X8186839Y-17023796D01*
X8186839Y-17023796D02*
X8177315Y-17033320D01*
X8177315Y-17033320D02*
X8158268Y-17042844D01*
X8158268Y-17042844D02*
X8110649Y-17042844D01*
X8110649Y-17042844D02*
X8091601Y-17033320D01*
X8091601Y-17033320D02*
X8082077Y-17023796D01*
X8320172Y-16842844D02*
X8339220Y-16842844D01*
X8339220Y-16842844D02*
X8358268Y-16852368D01*
X8358268Y-16852368D02*
X8367792Y-16861891D01*
X8367792Y-16861891D02*
X8377315Y-16880939D01*
X8377315Y-16880939D02*
X8386839Y-16919034D01*
X8386839Y-16919034D02*
X8386839Y-16966653D01*
X8386839Y-16966653D02*
X8377315Y-17004749D01*
X8377315Y-17004749D02*
X8367792Y-17023796D01*
X8367792Y-17023796D02*
X8358268Y-17033320D01*
X8358268Y-17033320D02*
X8339220Y-17042844D01*
X8339220Y-17042844D02*
X8320172Y-17042844D01*
X8320172Y-17042844D02*
X8301125Y-17033320D01*
X8301125Y-17033320D02*
X8291601Y-17023796D01*
X8291601Y-17023796D02*
X8282077Y-17004749D01*
X8282077Y-17004749D02*
X8272553Y-16966653D01*
X8272553Y-16966653D02*
X8272553Y-16919034D01*
X8272553Y-16919034D02*
X8282077Y-16880939D01*
X8282077Y-16880939D02*
X8291601Y-16861891D01*
X8291601Y-16861891D02*
X8301125Y-16852368D01*
X8301125Y-16852368D02*
X8320172Y-16842844D01*
X8510649Y-16842844D02*
X8529696Y-16842844D01*
X8529696Y-16842844D02*
X8548744Y-16852368D01*
X8548744Y-16852368D02*
X8558268Y-16861891D01*
X8558268Y-16861891D02*
X8567792Y-16880939D01*
X8567792Y-16880939D02*
X8577315Y-16919034D01*
X8577315Y-16919034D02*
X8577315Y-16966653D01*
X8577315Y-16966653D02*
X8567792Y-17004749D01*
X8567792Y-17004749D02*
X8558268Y-17023796D01*
X8558268Y-17023796D02*
X8548744Y-17033320D01*
X8548744Y-17033320D02*
X8529696Y-17042844D01*
X8529696Y-17042844D02*
X8510649Y-17042844D01*
X8510649Y-17042844D02*
X8491601Y-17033320D01*
X8491601Y-17033320D02*
X8482077Y-17023796D01*
X8482077Y-17023796D02*
X8472554Y-17004749D01*
X8472554Y-17004749D02*
X8463030Y-16966653D01*
X8463030Y-16966653D02*
X8463030Y-16919034D01*
X8463030Y-16919034D02*
X8472554Y-16880939D01*
X8472554Y-16880939D02*
X8482077Y-16861891D01*
X8482077Y-16861891D02*
X8491601Y-16852368D01*
X8491601Y-16852368D02*
X8510649Y-16842844D01*
X8663030Y-17042844D02*
X8663030Y-16909510D01*
X8663030Y-16928558D02*
X8672554Y-16919034D01*
X8672554Y-16919034D02*
X8691601Y-16909510D01*
X8691601Y-16909510D02*
X8720173Y-16909510D01*
X8720173Y-16909510D02*
X8739220Y-16919034D01*
X8739220Y-16919034D02*
X8748744Y-16938082D01*
X8748744Y-16938082D02*
X8748744Y-17042844D01*
X8748744Y-16938082D02*
X8758268Y-16919034D01*
X8758268Y-16919034D02*
X8777315Y-16909510D01*
X8777315Y-16909510D02*
X8805887Y-16909510D01*
X8805887Y-16909510D02*
X8824935Y-16919034D01*
X8824935Y-16919034D02*
X8834458Y-16938082D01*
X8834458Y-16938082D02*
X8834458Y-17042844D01*
X8929696Y-17042844D02*
X8929696Y-16909510D01*
X8929696Y-16928558D02*
X8939220Y-16919034D01*
X8939220Y-16919034D02*
X8958268Y-16909510D01*
X8958268Y-16909510D02*
X8986839Y-16909510D01*
X8986839Y-16909510D02*
X9005887Y-16919034D01*
X9005887Y-16919034D02*
X9015411Y-16938082D01*
X9015411Y-16938082D02*
X9015411Y-17042844D01*
X9015411Y-16938082D02*
X9024935Y-16919034D01*
X9024935Y-16919034D02*
X9043982Y-16909510D01*
X9043982Y-16909510D02*
X9072554Y-16909510D01*
X9072554Y-16909510D02*
X9091601Y-16919034D01*
X9091601Y-16919034D02*
X9101125Y-16938082D01*
X9101125Y-16938082D02*
X9101125Y-17042844D01*
X9491601Y-16833320D02*
X9320173Y-17090463D01*
X9748744Y-16842844D02*
X9767792Y-16842844D01*
X9767792Y-16842844D02*
X9786839Y-16852368D01*
X9786839Y-16852368D02*
X9796363Y-16861891D01*
X9796363Y-16861891D02*
X9805887Y-16880939D01*
X9805887Y-16880939D02*
X9815411Y-16919034D01*
X9815411Y-16919034D02*
X9815411Y-16966653D01*
X9815411Y-16966653D02*
X9805887Y-17004749D01*
X9805887Y-17004749D02*
X9796363Y-17023796D01*
X9796363Y-17023796D02*
X9786839Y-17033320D01*
X9786839Y-17033320D02*
X9767792Y-17042844D01*
X9767792Y-17042844D02*
X9748744Y-17042844D01*
X9748744Y-17042844D02*
X9729697Y-17033320D01*
X9729697Y-17033320D02*
X9720173Y-17023796D01*
X9720173Y-17023796D02*
X9710649Y-17004749D01*
X9710649Y-17004749D02*
X9701125Y-16966653D01*
X9701125Y-16966653D02*
X9701125Y-16919034D01*
X9701125Y-16919034D02*
X9710649Y-16880939D01*
X9710649Y-16880939D02*
X9720173Y-16861891D01*
X9720173Y-16861891D02*
X9729697Y-16852368D01*
X9729697Y-16852368D02*
X9748744Y-16842844D01*
X9901125Y-17023796D02*
X9910649Y-17033320D01*
X9910649Y-17033320D02*
X9901125Y-17042844D01*
X9901125Y-17042844D02*
X9891601Y-17033320D01*
X9891601Y-17033320D02*
X9901125Y-17023796D01*
X9901125Y-17023796D02*
X9901125Y-17042844D01*
X10034458Y-16842844D02*
X10053506Y-16842844D01*
X10053506Y-16842844D02*
X10072554Y-16852368D01*
X10072554Y-16852368D02*
X10082078Y-16861891D01*
X10082078Y-16861891D02*
X10091601Y-16880939D01*
X10091601Y-16880939D02*
X10101125Y-16919034D01*
X10101125Y-16919034D02*
X10101125Y-16966653D01*
X10101125Y-16966653D02*
X10091601Y-17004749D01*
X10091601Y-17004749D02*
X10082078Y-17023796D01*
X10082078Y-17023796D02*
X10072554Y-17033320D01*
X10072554Y-17033320D02*
X10053506Y-17042844D01*
X10053506Y-17042844D02*
X10034458Y-17042844D01*
X10034458Y-17042844D02*
X10015411Y-17033320D01*
X10015411Y-17033320D02*
X10005887Y-17023796D01*
X10005887Y-17023796D02*
X9996363Y-17004749D01*
X9996363Y-17004749D02*
X9986839Y-16966653D01*
X9986839Y-16966653D02*
X9986839Y-16919034D01*
X9986839Y-16919034D02*
X9996363Y-16880939D01*
X9996363Y-16880939D02*
X10005887Y-16861891D01*
X10005887Y-16861891D02*
X10015411Y-16852368D01*
X10015411Y-16852368D02*
X10034458Y-16842844D01*
X10282078Y-16842844D02*
X10186839Y-16842844D01*
X10186839Y-16842844D02*
X10177316Y-16938082D01*
X10177316Y-16938082D02*
X10186839Y-16928558D01*
X10186839Y-16928558D02*
X10205887Y-16919034D01*
X10205887Y-16919034D02*
X10253506Y-16919034D01*
X10253506Y-16919034D02*
X10272554Y-16928558D01*
X10272554Y-16928558D02*
X10282078Y-16938082D01*
X10282078Y-16938082D02*
X10291601Y-16957130D01*
X10291601Y-16957130D02*
X10291601Y-17004749D01*
X10291601Y-17004749D02*
X10282078Y-17023796D01*
X10282078Y-17023796D02*
X10272554Y-17033320D01*
X10272554Y-17033320D02*
X10253506Y-17042844D01*
X10253506Y-17042844D02*
X10205887Y-17042844D01*
X10205887Y-17042844D02*
X10186839Y-17033320D01*
X10186839Y-17033320D02*
X10177316Y-17023796D01*
X10386839Y-17042844D02*
X10424935Y-17042844D01*
X10424935Y-17042844D02*
X10443982Y-17033320D01*
X10443982Y-17033320D02*
X10453506Y-17023796D01*
X10453506Y-17023796D02*
X10472554Y-16995225D01*
X10472554Y-16995225D02*
X10482078Y-16957130D01*
X10482078Y-16957130D02*
X10482078Y-16880939D01*
X10482078Y-16880939D02*
X10472554Y-16861891D01*
X10472554Y-16861891D02*
X10463030Y-16852368D01*
X10463030Y-16852368D02*
X10443982Y-16842844D01*
X10443982Y-16842844D02*
X10405887Y-16842844D01*
X10405887Y-16842844D02*
X10386839Y-16852368D01*
X10386839Y-16852368D02*
X10377316Y-16861891D01*
X10377316Y-16861891D02*
X10367792Y-16880939D01*
X10367792Y-16880939D02*
X10367792Y-16928558D01*
X10367792Y-16928558D02*
X10377316Y-16947606D01*
X10377316Y-16947606D02*
X10386839Y-16957130D01*
X10386839Y-16957130D02*
X10405887Y-16966653D01*
X10405887Y-16966653D02*
X10443982Y-16966653D01*
X10443982Y-16966653D02*
X10463030Y-16957130D01*
X10463030Y-16957130D02*
X10472554Y-16947606D01*
X10472554Y-16947606D02*
X10482078Y-16928558D01*
X10672554Y-17042844D02*
X10558268Y-17042844D01*
X10615411Y-17042844D02*
X10615411Y-16842844D01*
X10615411Y-16842844D02*
X10596363Y-16871415D01*
X10596363Y-16871415D02*
X10577316Y-16890463D01*
X10577316Y-16890463D02*
X10558268Y-16899987D01*
X10748744Y-16842844D02*
X10748744Y-16880939D01*
X10824935Y-16842844D02*
X10824935Y-16880939D01*
X11120173Y-17119034D02*
X11110649Y-17109510D01*
X11110649Y-17109510D02*
X11091601Y-17080939D01*
X11091601Y-17080939D02*
X11082078Y-17061891D01*
X11082078Y-17061891D02*
X11072554Y-17033320D01*
X11072554Y-17033320D02*
X11063030Y-16985701D01*
X11063030Y-16985701D02*
X11063030Y-16947606D01*
X11063030Y-16947606D02*
X11072554Y-16899987D01*
X11072554Y-16899987D02*
X11082078Y-16871415D01*
X11082078Y-16871415D02*
X11091601Y-16852368D01*
X11091601Y-16852368D02*
X11110649Y-16823796D01*
X11110649Y-16823796D02*
X11120173Y-16814272D01*
X11186839Y-16861891D02*
X11196363Y-16852368D01*
X11196363Y-16852368D02*
X11215411Y-16842844D01*
X11215411Y-16842844D02*
X11263030Y-16842844D01*
X11263030Y-16842844D02*
X11282078Y-16852368D01*
X11282078Y-16852368D02*
X11291601Y-16861891D01*
X11291601Y-16861891D02*
X11301125Y-16880939D01*
X11301125Y-16880939D02*
X11301125Y-16899987D01*
X11301125Y-16899987D02*
X11291601Y-16928558D01*
X11291601Y-16928558D02*
X11177316Y-17042844D01*
X11177316Y-17042844D02*
X11301125Y-17042844D01*
X11539220Y-17042844D02*
X11539220Y-16842844D01*
X11624935Y-17042844D02*
X11624935Y-16938082D01*
X11624935Y-16938082D02*
X11615411Y-16919034D01*
X11615411Y-16919034D02*
X11596363Y-16909510D01*
X11596363Y-16909510D02*
X11567792Y-16909510D01*
X11567792Y-16909510D02*
X11548744Y-16919034D01*
X11548744Y-16919034D02*
X11539220Y-16928558D01*
X11748744Y-17042844D02*
X11729697Y-17033320D01*
X11729697Y-17033320D02*
X11720173Y-17023796D01*
X11720173Y-17023796D02*
X11710649Y-17004749D01*
X11710649Y-17004749D02*
X11710649Y-16947606D01*
X11710649Y-16947606D02*
X11720173Y-16928558D01*
X11720173Y-16928558D02*
X11729697Y-16919034D01*
X11729697Y-16919034D02*
X11748744Y-16909510D01*
X11748744Y-16909510D02*
X11777316Y-16909510D01*
X11777316Y-16909510D02*
X11796363Y-16919034D01*
X11796363Y-16919034D02*
X11805887Y-16928558D01*
X11805887Y-16928558D02*
X11815411Y-16947606D01*
X11815411Y-16947606D02*
X11815411Y-17004749D01*
X11815411Y-17004749D02*
X11805887Y-17023796D01*
X11805887Y-17023796D02*
X11796363Y-17033320D01*
X11796363Y-17033320D02*
X11777316Y-17042844D01*
X11777316Y-17042844D02*
X11748744Y-17042844D01*
X11929697Y-17042844D02*
X11910649Y-17033320D01*
X11910649Y-17033320D02*
X11901125Y-17014272D01*
X11901125Y-17014272D02*
X11901125Y-16842844D01*
X12082078Y-17033320D02*
X12063030Y-17042844D01*
X12063030Y-17042844D02*
X12024935Y-17042844D01*
X12024935Y-17042844D02*
X12005887Y-17033320D01*
X12005887Y-17033320D02*
X11996363Y-17014272D01*
X11996363Y-17014272D02*
X11996363Y-16938082D01*
X11996363Y-16938082D02*
X12005887Y-16919034D01*
X12005887Y-16919034D02*
X12024935Y-16909510D01*
X12024935Y-16909510D02*
X12063030Y-16909510D01*
X12063030Y-16909510D02*
X12082078Y-16919034D01*
X12082078Y-16919034D02*
X12091601Y-16938082D01*
X12091601Y-16938082D02*
X12091601Y-16957130D01*
X12091601Y-16957130D02*
X11996363Y-16976177D01*
X12167792Y-17033320D02*
X12186840Y-17042844D01*
X12186840Y-17042844D02*
X12224935Y-17042844D01*
X12224935Y-17042844D02*
X12243982Y-17033320D01*
X12243982Y-17033320D02*
X12253506Y-17014272D01*
X12253506Y-17014272D02*
X12253506Y-17004749D01*
X12253506Y-17004749D02*
X12243982Y-16985701D01*
X12243982Y-16985701D02*
X12224935Y-16976177D01*
X12224935Y-16976177D02*
X12196363Y-16976177D01*
X12196363Y-16976177D02*
X12177316Y-16966653D01*
X12177316Y-16966653D02*
X12167792Y-16947606D01*
X12167792Y-16947606D02*
X12167792Y-16938082D01*
X12167792Y-16938082D02*
X12177316Y-16919034D01*
X12177316Y-16919034D02*
X12196363Y-16909510D01*
X12196363Y-16909510D02*
X12224935Y-16909510D01*
X12224935Y-16909510D02*
X12243982Y-16919034D01*
X12320173Y-17119034D02*
X12329697Y-17109510D01*
X12329697Y-17109510D02*
X12348744Y-17080939D01*
X12348744Y-17080939D02*
X12358268Y-17061891D01*
X12358268Y-17061891D02*
X12367792Y-17033320D01*
X12367792Y-17033320D02*
X12377316Y-16985701D01*
X12377316Y-16985701D02*
X12377316Y-16947606D01*
X12377316Y-16947606D02*
X12367792Y-16899987D01*
X12367792Y-16899987D02*
X12358268Y-16871415D01*
X12358268Y-16871415D02*
X12348744Y-16852368D01*
X12348744Y-16852368D02*
X12329697Y-16823796D01*
X12329697Y-16823796D02*
X12320173Y-16814272D01*
X7345110Y-17121360D02*
X7545110Y-17321360D01*
X7545110Y-17121360D02*
X7345110Y-17321360D01*
X7545110Y-17221360D02*
G75*
G02*
X7345110Y-17221360I-100000J0D01*
G01*
X7345110Y-17221360D02*
G75*
G02*
X7545110Y-17221360I100000J0D01*
G01*
X7786839Y-17112844D02*
X7910649Y-17112844D01*
X7910649Y-17112844D02*
X7843982Y-17189034D01*
X7843982Y-17189034D02*
X7872553Y-17189034D01*
X7872553Y-17189034D02*
X7891601Y-17198558D01*
X7891601Y-17198558D02*
X7901125Y-17208082D01*
X7901125Y-17208082D02*
X7910649Y-17227130D01*
X7910649Y-17227130D02*
X7910649Y-17274749D01*
X7910649Y-17274749D02*
X7901125Y-17293796D01*
X7901125Y-17293796D02*
X7891601Y-17303320D01*
X7891601Y-17303320D02*
X7872553Y-17312844D01*
X7872553Y-17312844D02*
X7815411Y-17312844D01*
X7815411Y-17312844D02*
X7796363Y-17303320D01*
X7796363Y-17303320D02*
X7786839Y-17293796D01*
X7996363Y-17293796D02*
X8005887Y-17303320D01*
X8005887Y-17303320D02*
X7996363Y-17312844D01*
X7996363Y-17312844D02*
X7986839Y-17303320D01*
X7986839Y-17303320D02*
X7996363Y-17293796D01*
X7996363Y-17293796D02*
X7996363Y-17312844D01*
X8082077Y-17131891D02*
X8091601Y-17122368D01*
X8091601Y-17122368D02*
X8110649Y-17112844D01*
X8110649Y-17112844D02*
X8158268Y-17112844D01*
X8158268Y-17112844D02*
X8177315Y-17122368D01*
X8177315Y-17122368D02*
X8186839Y-17131891D01*
X8186839Y-17131891D02*
X8196363Y-17150939D01*
X8196363Y-17150939D02*
X8196363Y-17169987D01*
X8196363Y-17169987D02*
X8186839Y-17198558D01*
X8186839Y-17198558D02*
X8072553Y-17312844D01*
X8072553Y-17312844D02*
X8196363Y-17312844D01*
X8320172Y-17112844D02*
X8339220Y-17112844D01*
X8339220Y-17112844D02*
X8358268Y-17122368D01*
X8358268Y-17122368D02*
X8367792Y-17131891D01*
X8367792Y-17131891D02*
X8377315Y-17150939D01*
X8377315Y-17150939D02*
X8386839Y-17189034D01*
X8386839Y-17189034D02*
X8386839Y-17236653D01*
X8386839Y-17236653D02*
X8377315Y-17274749D01*
X8377315Y-17274749D02*
X8367792Y-17293796D01*
X8367792Y-17293796D02*
X8358268Y-17303320D01*
X8358268Y-17303320D02*
X8339220Y-17312844D01*
X8339220Y-17312844D02*
X8320172Y-17312844D01*
X8320172Y-17312844D02*
X8301125Y-17303320D01*
X8301125Y-17303320D02*
X8291601Y-17293796D01*
X8291601Y-17293796D02*
X8282077Y-17274749D01*
X8282077Y-17274749D02*
X8272553Y-17236653D01*
X8272553Y-17236653D02*
X8272553Y-17189034D01*
X8272553Y-17189034D02*
X8282077Y-17150939D01*
X8282077Y-17150939D02*
X8291601Y-17131891D01*
X8291601Y-17131891D02*
X8301125Y-17122368D01*
X8301125Y-17122368D02*
X8320172Y-17112844D01*
X8510649Y-17112844D02*
X8529696Y-17112844D01*
X8529696Y-17112844D02*
X8548744Y-17122368D01*
X8548744Y-17122368D02*
X8558268Y-17131891D01*
X8558268Y-17131891D02*
X8567792Y-17150939D01*
X8567792Y-17150939D02*
X8577315Y-17189034D01*
X8577315Y-17189034D02*
X8577315Y-17236653D01*
X8577315Y-17236653D02*
X8567792Y-17274749D01*
X8567792Y-17274749D02*
X8558268Y-17293796D01*
X8558268Y-17293796D02*
X8548744Y-17303320D01*
X8548744Y-17303320D02*
X8529696Y-17312844D01*
X8529696Y-17312844D02*
X8510649Y-17312844D01*
X8510649Y-17312844D02*
X8491601Y-17303320D01*
X8491601Y-17303320D02*
X8482077Y-17293796D01*
X8482077Y-17293796D02*
X8472554Y-17274749D01*
X8472554Y-17274749D02*
X8463030Y-17236653D01*
X8463030Y-17236653D02*
X8463030Y-17189034D01*
X8463030Y-17189034D02*
X8472554Y-17150939D01*
X8472554Y-17150939D02*
X8482077Y-17131891D01*
X8482077Y-17131891D02*
X8491601Y-17122368D01*
X8491601Y-17122368D02*
X8510649Y-17112844D01*
X8663030Y-17312844D02*
X8663030Y-17179510D01*
X8663030Y-17198558D02*
X8672554Y-17189034D01*
X8672554Y-17189034D02*
X8691601Y-17179510D01*
X8691601Y-17179510D02*
X8720173Y-17179510D01*
X8720173Y-17179510D02*
X8739220Y-17189034D01*
X8739220Y-17189034D02*
X8748744Y-17208082D01*
X8748744Y-17208082D02*
X8748744Y-17312844D01*
X8748744Y-17208082D02*
X8758268Y-17189034D01*
X8758268Y-17189034D02*
X8777315Y-17179510D01*
X8777315Y-17179510D02*
X8805887Y-17179510D01*
X8805887Y-17179510D02*
X8824935Y-17189034D01*
X8824935Y-17189034D02*
X8834458Y-17208082D01*
X8834458Y-17208082D02*
X8834458Y-17312844D01*
X8929696Y-17312844D02*
X8929696Y-17179510D01*
X8929696Y-17198558D02*
X8939220Y-17189034D01*
X8939220Y-17189034D02*
X8958268Y-17179510D01*
X8958268Y-17179510D02*
X8986839Y-17179510D01*
X8986839Y-17179510D02*
X9005887Y-17189034D01*
X9005887Y-17189034D02*
X9015411Y-17208082D01*
X9015411Y-17208082D02*
X9015411Y-17312844D01*
X9015411Y-17208082D02*
X9024935Y-17189034D01*
X9024935Y-17189034D02*
X9043982Y-17179510D01*
X9043982Y-17179510D02*
X9072554Y-17179510D01*
X9072554Y-17179510D02*
X9091601Y-17189034D01*
X9091601Y-17189034D02*
X9101125Y-17208082D01*
X9101125Y-17208082D02*
X9101125Y-17312844D01*
X9491601Y-17103320D02*
X9320173Y-17360463D01*
X9748744Y-17112844D02*
X9767792Y-17112844D01*
X9767792Y-17112844D02*
X9786839Y-17122368D01*
X9786839Y-17122368D02*
X9796363Y-17131891D01*
X9796363Y-17131891D02*
X9805887Y-17150939D01*
X9805887Y-17150939D02*
X9815411Y-17189034D01*
X9815411Y-17189034D02*
X9815411Y-17236653D01*
X9815411Y-17236653D02*
X9805887Y-17274749D01*
X9805887Y-17274749D02*
X9796363Y-17293796D01*
X9796363Y-17293796D02*
X9786839Y-17303320D01*
X9786839Y-17303320D02*
X9767792Y-17312844D01*
X9767792Y-17312844D02*
X9748744Y-17312844D01*
X9748744Y-17312844D02*
X9729697Y-17303320D01*
X9729697Y-17303320D02*
X9720173Y-17293796D01*
X9720173Y-17293796D02*
X9710649Y-17274749D01*
X9710649Y-17274749D02*
X9701125Y-17236653D01*
X9701125Y-17236653D02*
X9701125Y-17189034D01*
X9701125Y-17189034D02*
X9710649Y-17150939D01*
X9710649Y-17150939D02*
X9720173Y-17131891D01*
X9720173Y-17131891D02*
X9729697Y-17122368D01*
X9729697Y-17122368D02*
X9748744Y-17112844D01*
X9901125Y-17293796D02*
X9910649Y-17303320D01*
X9910649Y-17303320D02*
X9901125Y-17312844D01*
X9901125Y-17312844D02*
X9891601Y-17303320D01*
X9891601Y-17303320D02*
X9901125Y-17293796D01*
X9901125Y-17293796D02*
X9901125Y-17312844D01*
X10101125Y-17312844D02*
X9986839Y-17312844D01*
X10043982Y-17312844D02*
X10043982Y-17112844D01*
X10043982Y-17112844D02*
X10024935Y-17141415D01*
X10024935Y-17141415D02*
X10005887Y-17160463D01*
X10005887Y-17160463D02*
X9986839Y-17169987D01*
X10177316Y-17131891D02*
X10186839Y-17122368D01*
X10186839Y-17122368D02*
X10205887Y-17112844D01*
X10205887Y-17112844D02*
X10253506Y-17112844D01*
X10253506Y-17112844D02*
X10272554Y-17122368D01*
X10272554Y-17122368D02*
X10282078Y-17131891D01*
X10282078Y-17131891D02*
X10291601Y-17150939D01*
X10291601Y-17150939D02*
X10291601Y-17169987D01*
X10291601Y-17169987D02*
X10282078Y-17198558D01*
X10282078Y-17198558D02*
X10167792Y-17312844D01*
X10167792Y-17312844D02*
X10291601Y-17312844D01*
X10463030Y-17112844D02*
X10424935Y-17112844D01*
X10424935Y-17112844D02*
X10405887Y-17122368D01*
X10405887Y-17122368D02*
X10396363Y-17131891D01*
X10396363Y-17131891D02*
X10377316Y-17160463D01*
X10377316Y-17160463D02*
X10367792Y-17198558D01*
X10367792Y-17198558D02*
X10367792Y-17274749D01*
X10367792Y-17274749D02*
X10377316Y-17293796D01*
X10377316Y-17293796D02*
X10386839Y-17303320D01*
X10386839Y-17303320D02*
X10405887Y-17312844D01*
X10405887Y-17312844D02*
X10443982Y-17312844D01*
X10443982Y-17312844D02*
X10463030Y-17303320D01*
X10463030Y-17303320D02*
X10472554Y-17293796D01*
X10472554Y-17293796D02*
X10482078Y-17274749D01*
X10482078Y-17274749D02*
X10482078Y-17227130D01*
X10482078Y-17227130D02*
X10472554Y-17208082D01*
X10472554Y-17208082D02*
X10463030Y-17198558D01*
X10463030Y-17198558D02*
X10443982Y-17189034D01*
X10443982Y-17189034D02*
X10405887Y-17189034D01*
X10405887Y-17189034D02*
X10386839Y-17198558D01*
X10386839Y-17198558D02*
X10377316Y-17208082D01*
X10377316Y-17208082D02*
X10367792Y-17227130D01*
X10605887Y-17112844D02*
X10624935Y-17112844D01*
X10624935Y-17112844D02*
X10643982Y-17122368D01*
X10643982Y-17122368D02*
X10653506Y-17131891D01*
X10653506Y-17131891D02*
X10663030Y-17150939D01*
X10663030Y-17150939D02*
X10672554Y-17189034D01*
X10672554Y-17189034D02*
X10672554Y-17236653D01*
X10672554Y-17236653D02*
X10663030Y-17274749D01*
X10663030Y-17274749D02*
X10653506Y-17293796D01*
X10653506Y-17293796D02*
X10643982Y-17303320D01*
X10643982Y-17303320D02*
X10624935Y-17312844D01*
X10624935Y-17312844D02*
X10605887Y-17312844D01*
X10605887Y-17312844D02*
X10586839Y-17303320D01*
X10586839Y-17303320D02*
X10577316Y-17293796D01*
X10577316Y-17293796D02*
X10567792Y-17274749D01*
X10567792Y-17274749D02*
X10558268Y-17236653D01*
X10558268Y-17236653D02*
X10558268Y-17189034D01*
X10558268Y-17189034D02*
X10567792Y-17150939D01*
X10567792Y-17150939D02*
X10577316Y-17131891D01*
X10577316Y-17131891D02*
X10586839Y-17122368D01*
X10586839Y-17122368D02*
X10605887Y-17112844D01*
X10748744Y-17112844D02*
X10748744Y-17150939D01*
X10824935Y-17112844D02*
X10824935Y-17150939D01*
X11120173Y-17389034D02*
X11110649Y-17379510D01*
X11110649Y-17379510D02*
X11091601Y-17350939D01*
X11091601Y-17350939D02*
X11082078Y-17331891D01*
X11082078Y-17331891D02*
X11072554Y-17303320D01*
X11072554Y-17303320D02*
X11063030Y-17255701D01*
X11063030Y-17255701D02*
X11063030Y-17217606D01*
X11063030Y-17217606D02*
X11072554Y-17169987D01*
X11072554Y-17169987D02*
X11082078Y-17141415D01*
X11082078Y-17141415D02*
X11091601Y-17122368D01*
X11091601Y-17122368D02*
X11110649Y-17093796D01*
X11110649Y-17093796D02*
X11120173Y-17084272D01*
X11186839Y-17131891D02*
X11196363Y-17122368D01*
X11196363Y-17122368D02*
X11215411Y-17112844D01*
X11215411Y-17112844D02*
X11263030Y-17112844D01*
X11263030Y-17112844D02*
X11282078Y-17122368D01*
X11282078Y-17122368D02*
X11291601Y-17131891D01*
X11291601Y-17131891D02*
X11301125Y-17150939D01*
X11301125Y-17150939D02*
X11301125Y-17169987D01*
X11301125Y-17169987D02*
X11291601Y-17198558D01*
X11291601Y-17198558D02*
X11177316Y-17312844D01*
X11177316Y-17312844D02*
X11301125Y-17312844D01*
X11539220Y-17312844D02*
X11539220Y-17112844D01*
X11624935Y-17312844D02*
X11624935Y-17208082D01*
X11624935Y-17208082D02*
X11615411Y-17189034D01*
X11615411Y-17189034D02*
X11596363Y-17179510D01*
X11596363Y-17179510D02*
X11567792Y-17179510D01*
X11567792Y-17179510D02*
X11548744Y-17189034D01*
X11548744Y-17189034D02*
X11539220Y-17198558D01*
X11748744Y-17312844D02*
X11729697Y-17303320D01*
X11729697Y-17303320D02*
X11720173Y-17293796D01*
X11720173Y-17293796D02*
X11710649Y-17274749D01*
X11710649Y-17274749D02*
X11710649Y-17217606D01*
X11710649Y-17217606D02*
X11720173Y-17198558D01*
X11720173Y-17198558D02*
X11729697Y-17189034D01*
X11729697Y-17189034D02*
X11748744Y-17179510D01*
X11748744Y-17179510D02*
X11777316Y-17179510D01*
X11777316Y-17179510D02*
X11796363Y-17189034D01*
X11796363Y-17189034D02*
X11805887Y-17198558D01*
X11805887Y-17198558D02*
X11815411Y-17217606D01*
X11815411Y-17217606D02*
X11815411Y-17274749D01*
X11815411Y-17274749D02*
X11805887Y-17293796D01*
X11805887Y-17293796D02*
X11796363Y-17303320D01*
X11796363Y-17303320D02*
X11777316Y-17312844D01*
X11777316Y-17312844D02*
X11748744Y-17312844D01*
X11929697Y-17312844D02*
X11910649Y-17303320D01*
X11910649Y-17303320D02*
X11901125Y-17284272D01*
X11901125Y-17284272D02*
X11901125Y-17112844D01*
X12082078Y-17303320D02*
X12063030Y-17312844D01*
X12063030Y-17312844D02*
X12024935Y-17312844D01*
X12024935Y-17312844D02*
X12005887Y-17303320D01*
X12005887Y-17303320D02*
X11996363Y-17284272D01*
X11996363Y-17284272D02*
X11996363Y-17208082D01*
X11996363Y-17208082D02*
X12005887Y-17189034D01*
X12005887Y-17189034D02*
X12024935Y-17179510D01*
X12024935Y-17179510D02*
X12063030Y-17179510D01*
X12063030Y-17179510D02*
X12082078Y-17189034D01*
X12082078Y-17189034D02*
X12091601Y-17208082D01*
X12091601Y-17208082D02*
X12091601Y-17227130D01*
X12091601Y-17227130D02*
X11996363Y-17246177D01*
X12167792Y-17303320D02*
X12186840Y-17312844D01*
X12186840Y-17312844D02*
X12224935Y-17312844D01*
X12224935Y-17312844D02*
X12243982Y-17303320D01*
X12243982Y-17303320D02*
X12253506Y-17284272D01*
X12253506Y-17284272D02*
X12253506Y-17274749D01*
X12253506Y-17274749D02*
X12243982Y-17255701D01*
X12243982Y-17255701D02*
X12224935Y-17246177D01*
X12224935Y-17246177D02*
X12196363Y-17246177D01*
X12196363Y-17246177D02*
X12177316Y-17236653D01*
X12177316Y-17236653D02*
X12167792Y-17217606D01*
X12167792Y-17217606D02*
X12167792Y-17208082D01*
X12167792Y-17208082D02*
X12177316Y-17189034D01*
X12177316Y-17189034D02*
X12196363Y-17179510D01*
X12196363Y-17179510D02*
X12224935Y-17179510D01*
X12224935Y-17179510D02*
X12243982Y-17189034D01*
X12320173Y-17389034D02*
X12329697Y-17379510D01*
X12329697Y-17379510D02*
X12348744Y-17350939D01*
X12348744Y-17350939D02*
X12358268Y-17331891D01*
X12358268Y-17331891D02*
X12367792Y-17303320D01*
X12367792Y-17303320D02*
X12377316Y-17255701D01*
X12377316Y-17255701D02*
X12377316Y-17217606D01*
X12377316Y-17217606D02*
X12367792Y-17169987D01*
X12367792Y-17169987D02*
X12358268Y-17141415D01*
X12358268Y-17141415D02*
X12348744Y-17122368D01*
X12348744Y-17122368D02*
X12329697Y-17093796D01*
X12329697Y-17093796D02*
X12320173Y-17084272D01*
M02*
