%TF.GenerationSoftware,KiCad,Pcbnew,8.0.7-8.0.7-0~ubuntu22.04.1*%
%TF.CreationDate,2024-12-15T22:19:22+01:00*%
%TF.ProjectId,EEZ DIB 1.2 template,45455a20-4449-4422-9031-2e322074656d,rev?*%
%TF.SameCoordinates,Original*%
%TF.FileFunction,Drillmap*%
%TF.FilePolarity,Positive*%
%FSLAX45Y45*%
G04 Gerber Fmt 4.5, Leading zero omitted, Abs format (unit mm)*
G04 Created by KiCad (PCBNEW 8.0.7-8.0.7-0~ubuntu22.04.1) date 2024-12-15 22:19:22*
%MOMM*%
%LPD*%
G01*
G04 APERTURE LIST*
%ADD10C,0.100000*%
%ADD11C,0.200000*%
G04 APERTURE END LIST*
D10*
X8200110Y-6650360D02*
X7700110Y-6650360D01*
X22000110Y-5750360D02*
G75*
G02*
X22150110Y-5900360I0J-150000D01*
G01*
X7550110Y-6800360D02*
G75*
G02*
X7700110Y-6650360I150000J0D01*
G01*
X22150110Y-15100360D02*
X22150110Y-5900360D01*
X8200110Y-5900360D02*
G75*
G02*
X8350110Y-5750360I150000J0D01*
G01*
X7550110Y-14200360D02*
X7550110Y-6800360D01*
X8200110Y-6650360D02*
X8200110Y-5900360D01*
X22150110Y-15100360D02*
G75*
G02*
X22000110Y-15250360I-150000J0D01*
G01*
X8200110Y-14350360D02*
X7700110Y-14350360D01*
X8350110Y-15250360D02*
G75*
G02*
X8200110Y-15100360I0J150000D01*
G01*
X8350110Y-5750360D02*
X22000110Y-5750360D01*
X8200110Y-15100360D02*
X8200110Y-14350360D01*
X7700110Y-14350360D02*
G75*
G02*
X7550110Y-14200360I0J150000D01*
G01*
X22000110Y-15250360D02*
X8350110Y-15250360D01*
D11*
X7805887Y-15566844D02*
X7805887Y-15366844D01*
X7805887Y-15366844D02*
X7853506Y-15366844D01*
X7853506Y-15366844D02*
X7882077Y-15376368D01*
X7882077Y-15376368D02*
X7901125Y-15395415D01*
X7901125Y-15395415D02*
X7910649Y-15414463D01*
X7910649Y-15414463D02*
X7920172Y-15452558D01*
X7920172Y-15452558D02*
X7920172Y-15481129D01*
X7920172Y-15481129D02*
X7910649Y-15519225D01*
X7910649Y-15519225D02*
X7901125Y-15538272D01*
X7901125Y-15538272D02*
X7882077Y-15557320D01*
X7882077Y-15557320D02*
X7853506Y-15566844D01*
X7853506Y-15566844D02*
X7805887Y-15566844D01*
X8005887Y-15566844D02*
X8005887Y-15433510D01*
X8005887Y-15471606D02*
X8015411Y-15452558D01*
X8015411Y-15452558D02*
X8024934Y-15443034D01*
X8024934Y-15443034D02*
X8043982Y-15433510D01*
X8043982Y-15433510D02*
X8063030Y-15433510D01*
X8129696Y-15566844D02*
X8129696Y-15433510D01*
X8129696Y-15366844D02*
X8120172Y-15376368D01*
X8120172Y-15376368D02*
X8129696Y-15385891D01*
X8129696Y-15385891D02*
X8139220Y-15376368D01*
X8139220Y-15376368D02*
X8129696Y-15366844D01*
X8129696Y-15366844D02*
X8129696Y-15385891D01*
X8253506Y-15566844D02*
X8234458Y-15557320D01*
X8234458Y-15557320D02*
X8224934Y-15538272D01*
X8224934Y-15538272D02*
X8224934Y-15366844D01*
X8358268Y-15566844D02*
X8339220Y-15557320D01*
X8339220Y-15557320D02*
X8329696Y-15538272D01*
X8329696Y-15538272D02*
X8329696Y-15366844D01*
X8586839Y-15566844D02*
X8586839Y-15366844D01*
X8586839Y-15366844D02*
X8653506Y-15509701D01*
X8653506Y-15509701D02*
X8720173Y-15366844D01*
X8720173Y-15366844D02*
X8720173Y-15566844D01*
X8901125Y-15566844D02*
X8901125Y-15462082D01*
X8901125Y-15462082D02*
X8891601Y-15443034D01*
X8891601Y-15443034D02*
X8872554Y-15433510D01*
X8872554Y-15433510D02*
X8834458Y-15433510D01*
X8834458Y-15433510D02*
X8815411Y-15443034D01*
X8901125Y-15557320D02*
X8882077Y-15566844D01*
X8882077Y-15566844D02*
X8834458Y-15566844D01*
X8834458Y-15566844D02*
X8815411Y-15557320D01*
X8815411Y-15557320D02*
X8805887Y-15538272D01*
X8805887Y-15538272D02*
X8805887Y-15519225D01*
X8805887Y-15519225D02*
X8815411Y-15500177D01*
X8815411Y-15500177D02*
X8834458Y-15490653D01*
X8834458Y-15490653D02*
X8882077Y-15490653D01*
X8882077Y-15490653D02*
X8901125Y-15481129D01*
X8996363Y-15433510D02*
X8996363Y-15633510D01*
X8996363Y-15443034D02*
X9015411Y-15433510D01*
X9015411Y-15433510D02*
X9053506Y-15433510D01*
X9053506Y-15433510D02*
X9072554Y-15443034D01*
X9072554Y-15443034D02*
X9082077Y-15452558D01*
X9082077Y-15452558D02*
X9091601Y-15471606D01*
X9091601Y-15471606D02*
X9091601Y-15528748D01*
X9091601Y-15528748D02*
X9082077Y-15547796D01*
X9082077Y-15547796D02*
X9072554Y-15557320D01*
X9072554Y-15557320D02*
X9053506Y-15566844D01*
X9053506Y-15566844D02*
X9015411Y-15566844D01*
X9015411Y-15566844D02*
X8996363Y-15557320D01*
X9177315Y-15547796D02*
X9186839Y-15557320D01*
X9186839Y-15557320D02*
X9177315Y-15566844D01*
X9177315Y-15566844D02*
X9167792Y-15557320D01*
X9167792Y-15557320D02*
X9177315Y-15547796D01*
X9177315Y-15547796D02*
X9177315Y-15566844D01*
X9177315Y-15443034D02*
X9186839Y-15452558D01*
X9186839Y-15452558D02*
X9177315Y-15462082D01*
X9177315Y-15462082D02*
X9167792Y-15452558D01*
X9167792Y-15452558D02*
X9177315Y-15443034D01*
X9177315Y-15443034D02*
X9177315Y-15462082D01*
M02*
