M48
; DRILL file {KiCad 8.0.7-8.0.7-0~ubuntu22.04.1} date 2024-12-15T22:19:22+0100
; FORMAT={-:-/ absolute / inch / decimal}
; #@! TF.CreationDate,2024-12-15T22:19:22+01:00
; #@! TF.GenerationSoftware,Kicad,Pcbnew,8.0.7-8.0.7-0~ubuntu22.04.1
; #@! TF.FileFunction,Plated,1,4,PTH
FMAT,2
INCH
; #@! TA.AperFunction,Plated,PTH,ViaDrill
T1C0.0118
; #@! TA.AperFunction,Plated,PTH,ViaDrill
T2C0.0157
; #@! TA.AperFunction,Plated,PTH,ComponentDrill
T3C0.0315
; #@! TA.AperFunction,Plated,PTH,ComponentDrill
T4C0.0394
; #@! TA.AperFunction,Plated,PTH,ComponentDrill
T5C0.0591
; #@! TA.AperFunction,Plated,PTH,ComponentDrill
T6C0.1260
%
G90
G05
T1
X7.075Y-5.6425
X7.075Y-5.8525
X7.225Y-5.795
X7.225Y-5.64
T2
X5.67Y-5.7166
X5.9475Y-5.6941
X5.975Y-5.7241
X6.5295Y-5.3611
X6.5525Y-5.3075
X6.63Y-5.6641
X6.68Y-5.4631
X6.7175Y-5.5308
X6.75Y-5.6441
X6.785Y-5.4816
X6.8175Y-5.5703
X6.845Y-5.1441
X6.845Y-5.2116
X6.905Y-5.7241
X6.905Y-5.8716
X6.935Y-5.2341
X6.935Y-5.5341
X6.9475Y-5.8716
X6.9525Y-5.635
X7.0025Y-5.555
X7.1825Y-5.5341
X7.185Y-5.3241
X7.235Y-5.3241
X7.26Y-5.4866
X7.27Y-5.1416
X7.27Y-5.2116
X7.3325Y-5.5775
X7.3325Y-5.63
X7.3525Y-5.2341
X7.3525Y-5.5341
X7.6Y-5.3216
X7.6025Y-5.5341
X7.6525Y-5.2341
X7.6525Y-5.5341
X8.2416Y-5.5775
T3
X4.5866Y-2.5394
X4.5866Y-2.6181
X4.6654Y-2.5394
X4.6654Y-2.6181
X4.7441Y-2.5394
X4.7441Y-2.6181
X4.8228Y-2.5394
X4.8228Y-2.6181
X4.9016Y-2.5394
X4.9016Y-2.6181
X5.374Y-2.5394
X5.374Y-2.6181
X5.4528Y-2.5394
X5.4528Y-2.6181
X5.5315Y-2.5394
X5.5315Y-2.6181
X5.6102Y-2.5394
X5.6102Y-2.6181
X5.689Y-2.5394
X5.689Y-2.6181
T4
X3.6669Y-5.5118
X3.6669Y-5.6118
X3.7669Y-5.5118
X3.7669Y-5.6118
X3.8669Y-5.5118
X3.8669Y-5.6118
X3.9669Y-5.5118
X3.9669Y-5.6118
X4.0669Y-5.5118
X4.0669Y-5.6118
X4.1669Y-5.5118
X4.1669Y-5.6118
X4.2669Y-5.5118
X4.2669Y-5.6118
X4.3669Y-5.5118
X4.3669Y-5.6118
X4.4669Y-5.5118
X4.4669Y-5.6118
X4.5669Y-5.5118
X4.5669Y-5.6118
X5.1173Y-5.5118
X5.1173Y-5.6118
X5.2173Y-5.5118
X5.2173Y-5.6118
X5.3173Y-5.5118
X5.3173Y-5.6118
X5.4173Y-5.5118
X5.4173Y-5.6118
X5.5173Y-5.5118
X5.5173Y-5.6118
X5.6173Y-5.5118
X5.6173Y-5.6118
X5.7173Y-5.5118
X5.7173Y-5.6118
X5.8173Y-5.5118
X5.8173Y-5.6118
X5.9173Y-5.5118
X5.9173Y-5.6118
X6.0173Y-5.5118
X6.0173Y-5.6118
X6.1173Y-5.5118
X6.1173Y-5.6118
X6.2173Y-5.5118
X6.2173Y-5.6118
X6.3173Y-5.5118
X6.3173Y-5.6118
X6.4173Y-5.5118
X6.4173Y-5.6118
T5
X8.2125Y-5.7841
X8.4125Y-5.7841
T6
X3.4055Y-2.4803
X3.4055Y-5.7874
M30
