%TF.GenerationSoftware,KiCad,Pcbnew,8.0.8-8.0.8-0~ubuntu22.04.1*%
%TF.CreationDate,2025-02-04T16:45:40+01:00*%
%TF.ProjectId,EEZ DIB 1.2 template,45455a20-4449-4422-9031-2e322074656d,rev?*%
%TF.SameCoordinates,Original*%
%TF.FileFunction,Copper,L2,Inr*%
%TF.FilePolarity,Positive*%
%FSLAX46Y46*%
G04 Gerber Fmt 4.6, Leading zero omitted, Abs format (unit mm)*
G04 Created by KiCad (PCBNEW 8.0.8-8.0.8-0~ubuntu22.04.1) date 2025-02-04 16:45:40*
%MOMM*%
%LPD*%
G01*
G04 APERTURE LIST*
G04 Aperture macros list*
%AMOutline5P*
0 Free polygon, 5 corners , with rotation*
0 The origin of the aperture is its center*
0 number of corners: always 5*
0 $1 to $10 corner X, Y*
0 $11 Rotation angle, in degrees counterclockwise*
0 create outline with 5 corners*
4,1,5,$1,$2,$3,$4,$5,$6,$7,$8,$9,$10,$1,$2,$11*%
%AMOutline6P*
0 Free polygon, 6 corners , with rotation*
0 The origin of the aperture is its center*
0 number of corners: always 6*
0 $1 to $12 corner X, Y*
0 $13 Rotation angle, in degrees counterclockwise*
0 create outline with 6 corners*
4,1,6,$1,$2,$3,$4,$5,$6,$7,$8,$9,$10,$11,$12,$1,$2,$13*%
%AMOutline7P*
0 Free polygon, 7 corners , with rotation*
0 The origin of the aperture is its center*
0 number of corners: always 7*
0 $1 to $14 corner X, Y*
0 $15 Rotation angle, in degrees counterclockwise*
0 create outline with 7 corners*
4,1,7,$1,$2,$3,$4,$5,$6,$7,$8,$9,$10,$11,$12,$13,$14,$1,$2,$15*%
%AMOutline8P*
0 Free polygon, 8 corners , with rotation*
0 The origin of the aperture is its center*
0 number of corners: always 8*
0 $1 to $16 corner X, Y*
0 $17 Rotation angle, in degrees counterclockwise*
0 create outline with 8 corners*
4,1,8,$1,$2,$3,$4,$5,$6,$7,$8,$9,$10,$11,$12,$13,$14,$15,$16,$1,$2,$17*%
G04 Aperture macros list end*
%ADD10C,0.101600*%
%TA.AperFunction,NonConductor*%
%ADD11C,0.101600*%
%TD*%
%TA.AperFunction,ComponentPad*%
%ADD12Outline8P,-1.200000X0.497056X-0.497056X1.200000X0.497056X1.200000X1.200000X0.497056X1.200000X-0.497056X0.497056X-1.200000X-0.497056X-1.200000X-1.200000X-0.497056X270.000000*%
%TD*%
%TA.AperFunction,ComponentPad*%
%ADD13R,1.200000X1.200000*%
%TD*%
%TA.AperFunction,ComponentPad*%
%ADD14Outline8P,-0.600000X0.248528X-0.248528X0.600000X0.248528X0.600000X0.600000X0.248528X0.600000X-0.248528X0.248528X-0.600000X-0.248528X-0.600000X-0.600000X-0.248528X0.000000*%
%TD*%
%TA.AperFunction,ComponentPad*%
%ADD15R,1.500000X1.500000*%
%TD*%
%TA.AperFunction,ComponentPad*%
%ADD16Outline8P,-0.750000X0.310660X-0.310660X0.750000X0.310660X0.750000X0.750000X0.310660X0.750000X-0.310660X0.310660X-0.750000X-0.310660X-0.750000X-0.750000X-0.310660X0.000000*%
%TD*%
%TA.AperFunction,ComponentPad*%
%ADD17C,5.500000*%
%TD*%
%TA.AperFunction,ComponentPad*%
%ADD18Outline8P,-0.750000X0.310660X-0.310660X0.750000X0.310660X0.750000X0.750000X0.310660X0.750000X-0.310660X0.310660X-0.750000X-0.310660X-0.750000X-0.750000X-0.310660X180.000000*%
%TD*%
%TA.AperFunction,ViaPad*%
%ADD19C,0.806400*%
%TD*%
%TA.AperFunction,ViaPad*%
%ADD20C,0.600000*%
%TD*%
G04 APERTURE END LIST*
D10*
D11*
X92385243Y-61920496D02*
X92428786Y-61876953D01*
X92428786Y-61876953D02*
X92515872Y-61833410D01*
X92515872Y-61833410D02*
X92733586Y-61833410D01*
X92733586Y-61833410D02*
X92820672Y-61876953D01*
X92820672Y-61876953D02*
X92864214Y-61920496D01*
X92864214Y-61920496D02*
X92907757Y-62007582D01*
X92907757Y-62007582D02*
X92907757Y-62094668D01*
X92907757Y-62094668D02*
X92864214Y-62225296D01*
X92864214Y-62225296D02*
X92341700Y-62747810D01*
X92341700Y-62747810D02*
X92907757Y-62747810D01*
D12*
%TO.N,PE*%
%TO.C,J1*%
X213677100Y-146915600D03*
%TO.N,unconnected-(J1-Pad2)*%
X208597100Y-146915600D03*
%TD*%
D13*
%TO.N,GND*%
%TO.C,X4*%
X136500000Y-66500000D03*
D14*
X136500000Y-64500000D03*
%TO.N,/DIB v1.2 interface/AFE2N*%
X138500000Y-66500000D03*
%TO.N,/DIB v1.2 interface/AFE2P*%
X138500000Y-64500000D03*
%TO.N,GND*%
X140500000Y-66500000D03*
X140500000Y-64500000D03*
%TO.N,ADIB2_ID0*%
X142500000Y-66500000D03*
%TO.N,ADIB2_ID2*%
X142500000Y-64500000D03*
%TO.N,ADIB2_ID1*%
X144500000Y-66500000D03*
%TO.N,GND*%
X144500000Y-64500000D03*
%TD*%
D13*
%TO.N,GND*%
%TO.C,X3*%
X116500000Y-66500000D03*
D14*
X116500000Y-64500000D03*
%TO.N,/DIB v1.2 interface/AFE1N*%
X118500000Y-66500000D03*
%TO.N,/DIB v1.2 interface/AFE1P*%
X118500000Y-64500000D03*
%TO.N,GND*%
X120500000Y-66500000D03*
X120500000Y-64500000D03*
%TO.N,ADIB1_ID0*%
X122500000Y-66500000D03*
%TO.N,ADIB1_ID2*%
X122500000Y-64500000D03*
%TO.N,ADIB1_ID1*%
X124500000Y-66500000D03*
%TO.N,GND*%
X124500000Y-64500000D03*
%TD*%
D15*
%TO.N,+3V3*%
%TO.C,X2*%
X129980000Y-142540000D03*
D16*
%TO.N,unconnected-(X2-Pin_2-Pad2)*%
X129980000Y-140000000D03*
%TO.N,unconnected-(X2-Pin_3-Pad3)*%
X132520000Y-142540000D03*
%TO.N,/DIB v1.2 interface/DIB_NRESET*%
X132520000Y-140000000D03*
%TO.N,/DIB v1.2 interface/DIB_SCL*%
X135060000Y-142540000D03*
%TO.N,/DIB v1.2 interface/OE_SYNC*%
X135060000Y-140000000D03*
%TO.N,GNDIO*%
X137600000Y-142540000D03*
%TO.N,/DIB v1.2 interface/DIB_SDA*%
X137600000Y-140000000D03*
%TO.N,Net-(RN1B-2)*%
X140140000Y-142540000D03*
%TO.N,/DIB v1.2 interface/DIB_IRQ*%
X140140000Y-140000000D03*
%TO.N,GNDIO*%
X142680000Y-142540000D03*
%TO.N,/DIB v1.2 interface/DIB_CSB*%
X142680000Y-140000000D03*
%TO.N,Net-(RN1C-2)*%
X145220000Y-142540000D03*
%TO.N,Net-(RN1A-2)*%
X145220000Y-140000000D03*
%TO.N,Net-(RN1D-2)*%
X147760000Y-142540000D03*
%TO.N,GNDIO*%
X147760000Y-140000000D03*
%TO.N,/DIB v1.2 interface/DIB_A0*%
X150300000Y-142540000D03*
%TO.N,/DIB v1.2 interface/DIB_A2*%
X150300000Y-140000000D03*
%TO.N,/DIB v1.2 interface/DIB_A1*%
X152840000Y-142540000D03*
%TO.N,GNDIO*%
X152840000Y-140000000D03*
%TO.N,unconnected-(X2-Pin_21-Pad21)*%
X155380000Y-142540000D03*
%TO.N,unconnected-(X2-Pin_22-Pad22)*%
X155380000Y-140000000D03*
%TO.N,+5V*%
X157920000Y-142540000D03*
X157920000Y-140000000D03*
%TO.N,GNDIO*%
X160460000Y-142540000D03*
%TO.N,/DIB v1.2 interface/DIB_BOOT*%
X160460000Y-140000000D03*
%TO.N,unconnected-(X2-Pin_27-Pad27)*%
X163000000Y-142540000D03*
%TO.N,unconnected-(X2-Pin_28-Pad28)*%
X163000000Y-140000000D03*
%TD*%
D17*
%TO.N,*%
%TO.C,KK1*%
X86500000Y-63000000D03*
%TD*%
D15*
%TO.N,unconnected-(X1-Pin_1-Pad1)*%
%TO.C,X1*%
X93140000Y-142540000D03*
D18*
%TO.N,unconnected-(X1-Pin_2-Pad2)*%
X93140000Y-140000000D03*
%TO.N,unconnected-(X1-Pin_3-Pad3)*%
X95680000Y-142540000D03*
%TO.N,unconnected-(X1-Pin_4-Pad4)*%
X95680000Y-140000000D03*
%TO.N,unconnected-(X1-Pin_5-Pad5)*%
X98220000Y-142540000D03*
%TO.N,unconnected-(X1-Pin_6-Pad6)*%
X98220000Y-140000000D03*
%TO.N,unconnected-(X1-Pin_7-Pad7)*%
X100760000Y-142540000D03*
%TO.N,unconnected-(X1-Pin_8-Pad8)*%
X100760000Y-140000000D03*
%TO.N,unconnected-(X1-Pin_9-Pad9)*%
X103300000Y-142540000D03*
%TO.N,unconnected-(X1-Pin_10-Pad10)*%
X103300000Y-140000000D03*
%TO.N,unconnected-(X1-Pin_11-Pad11)*%
X105840000Y-142540000D03*
%TO.N,unconnected-(X1-Pin_12-Pad12)*%
X105840000Y-140000000D03*
%TO.N,unconnected-(X1-Pin_13-Pad13)*%
X108380000Y-142540000D03*
%TO.N,unconnected-(X1-Pin_14-Pad14)*%
X108380000Y-140000000D03*
%TO.N,unconnected-(X1-Pin_15-Pad15)*%
X110920000Y-142540000D03*
%TO.N,unconnected-(X1-Pin_16-Pad16)*%
X110920000Y-140000000D03*
%TO.N,unconnected-(X1-Pin_17-Pad17)*%
X113460000Y-142540000D03*
%TO.N,unconnected-(X1-Pin_18-Pad18)*%
X113460000Y-140000000D03*
%TO.N,unconnected-(X1-Pin_19-Pad19)*%
X116000000Y-142540000D03*
%TO.N,unconnected-(X1-Pin_20-Pad20)*%
X116000000Y-140000000D03*
%TD*%
D17*
%TO.N,*%
%TO.C,KK2*%
X86500000Y-147000000D03*
%TD*%
D19*
%TO.N,GND*%
X176148600Y-132945600D03*
X209336000Y-141668500D03*
X183768600Y-135231600D03*
X184657600Y-130596100D03*
X194373100Y-132945600D03*
X186753100Y-132945600D03*
X173862600Y-130659600D03*
%TO.N,+3V3*%
X172338600Y-139232100D03*
X166433510Y-134810500D03*
X171449600Y-143359600D03*
X182435100Y-140565600D03*
X186245500Y-141668500D03*
X193103100Y-140565600D03*
%TO.N,GNDIO*%
X168401600Y-143867600D03*
X173164100Y-141485200D03*
X186245500Y-143002000D03*
X186753100Y-140565600D03*
X170624100Y-140481800D03*
X184403600Y-139359100D03*
X165848900Y-136171400D03*
X194373100Y-140565600D03*
X176148600Y-140565600D03*
%TO.N,/DIB v1.2 interface/DIB_A0*%
X169671600Y-138762200D03*
%TO.N,+3V3_ISO*%
X193039600Y-135168100D03*
X173862600Y-132374100D03*
X182498600Y-135231600D03*
X184657600Y-132374100D03*
%TO.N,/DIB v1.2 interface/DIB_SDA*%
X151066100Y-144629600D03*
%TO.N,/DIB v1.2 interface/DIB_SCL*%
X151764600Y-145391600D03*
%TO.N,/DIB v1.2 interface/DIB_BOOT*%
X177863502Y-141097002D03*
%TO.N,/DIB v1.2 interface/DIB_NRESET*%
X176593500Y-143129000D03*
X176466504Y-149138100D03*
%TO.N,/DIB v1.2 interface/OE_SYNC*%
X175387000Y-149138100D03*
X175387000Y-145391600D03*
D20*
%TO.N,/DIB v1.2 interface/DIB_CSB*%
X183515008Y-143256000D03*
X183515000Y-147193000D03*
%TO.N,/DIB v1.2 interface/DIB_IRQ*%
X179705000Y-143319506D03*
X179705000Y-148653500D03*
D19*
%TO.N,Net-(RN1A-2)*%
X144017600Y-145201100D03*
%TD*%
%TA.AperFunction,Conductor*%
%TO.N,GNDIO*%
G36*
X170239860Y-132779035D02*
G01*
X170344677Y-132792834D01*
X170360432Y-132797055D01*
X170454300Y-132835937D01*
X170468418Y-132844087D01*
X170549028Y-132905941D01*
X170560562Y-132917476D01*
X170622409Y-132998077D01*
X170630563Y-133012201D01*
X170665228Y-133095886D01*
X170669443Y-133106063D01*
X170673665Y-133121822D01*
X170687465Y-133226640D01*
X170688000Y-133234798D01*
X170688000Y-138059894D01*
X170867606Y-138239500D01*
X194783091Y-138239500D01*
X194791248Y-138240034D01*
X194910506Y-138255735D01*
X194926263Y-138259957D01*
X195033585Y-138304411D01*
X195047711Y-138312566D01*
X195143155Y-138385804D01*
X195149291Y-138391186D01*
X195428313Y-138670208D01*
X195433696Y-138676345D01*
X195499578Y-138762203D01*
X195506930Y-138771784D01*
X195515088Y-138785914D01*
X195559542Y-138893236D01*
X195563764Y-138908996D01*
X195579465Y-139028251D01*
X195580000Y-139036409D01*
X195580000Y-151887905D01*
X195579465Y-151896063D01*
X195563764Y-152015318D01*
X195559542Y-152031078D01*
X195515088Y-152138400D01*
X195506930Y-152152530D01*
X195436219Y-152244682D01*
X195424682Y-152256219D01*
X195332530Y-152326930D01*
X195318400Y-152335088D01*
X195211078Y-152379542D01*
X195195318Y-152383764D01*
X195076064Y-152399465D01*
X195067906Y-152400000D01*
X127766094Y-152400000D01*
X127757936Y-152399465D01*
X127638681Y-152383764D01*
X127622921Y-152379542D01*
X127515599Y-152335088D01*
X127501471Y-152326931D01*
X127409314Y-152256216D01*
X127397783Y-152244685D01*
X127327066Y-152152526D01*
X127318911Y-152138400D01*
X127274457Y-152031078D01*
X127270235Y-152015318D01*
X127254535Y-151896063D01*
X127254000Y-151887905D01*
X127254000Y-149138096D01*
X174724469Y-149138096D01*
X174724469Y-149138103D01*
X174743719Y-149296646D01*
X174743720Y-149296650D01*
X174743720Y-149296651D01*
X174743721Y-149296654D01*
X174788443Y-149414576D01*
X174800359Y-149445997D01*
X174891085Y-149577436D01*
X174891088Y-149577439D01*
X175010639Y-149683352D01*
X175152063Y-149757577D01*
X175307141Y-149795800D01*
X175307143Y-149795800D01*
X175466857Y-149795800D01*
X175466859Y-149795800D01*
X175621937Y-149757577D01*
X175763361Y-149683352D01*
X175882912Y-149577439D01*
X175882912Y-149577438D01*
X175885307Y-149575317D01*
X175930526Y-149559713D01*
X175968197Y-149575317D01*
X175970591Y-149577438D01*
X175970592Y-149577439D01*
X176090143Y-149683352D01*
X176231567Y-149757577D01*
X176386645Y-149795800D01*
X176386647Y-149795800D01*
X176546361Y-149795800D01*
X176546363Y-149795800D01*
X176701441Y-149757577D01*
X176842865Y-149683352D01*
X176962416Y-149577439D01*
X177053146Y-149445994D01*
X177109783Y-149296654D01*
X177119967Y-149212785D01*
X177129035Y-149138103D01*
X177129035Y-149138096D01*
X177109784Y-148979553D01*
X177109783Y-148979549D01*
X177109783Y-148979546D01*
X177053146Y-148830206D01*
X177053144Y-148830204D01*
X177053144Y-148830202D01*
X176962418Y-148698763D01*
X176962414Y-148698759D01*
X176911325Y-148653498D01*
X179145715Y-148653498D01*
X179145715Y-148653501D01*
X179164770Y-148798247D01*
X179164771Y-148798253D01*
X179164772Y-148798254D01*
X179220645Y-148933143D01*
X179309526Y-149048974D01*
X179425357Y-149137855D01*
X179560246Y-149193728D01*
X179560250Y-149193728D01*
X179560252Y-149193729D01*
X179704998Y-149212785D01*
X179705000Y-149212785D01*
X179705002Y-149212785D01*
X179849747Y-149193729D01*
X179849747Y-149193728D01*
X179849754Y-149193728D01*
X179984643Y-149137855D01*
X180100474Y-149048974D01*
X180189355Y-148933143D01*
X180245228Y-148798254D01*
X180264285Y-148653500D01*
X180246528Y-148518623D01*
X180245229Y-148508752D01*
X180245228Y-148508750D01*
X180245228Y-148508746D01*
X180189355Y-148373858D01*
X180100474Y-148258026D01*
X180100472Y-148258025D01*
X180100472Y-148258024D01*
X180065349Y-148231074D01*
X179984643Y-148169145D01*
X179984639Y-148169143D01*
X179849757Y-148113273D01*
X179849747Y-148113270D01*
X179705002Y-148094215D01*
X179704998Y-148094215D01*
X179560252Y-148113270D01*
X179560242Y-148113273D01*
X179425360Y-148169143D01*
X179309525Y-148258025D01*
X179220643Y-148373860D01*
X179164773Y-148508742D01*
X179164770Y-148508752D01*
X179145715Y-148653498D01*
X176911325Y-148653498D01*
X176842864Y-148592847D01*
X176701442Y-148518623D01*
X176546365Y-148480400D01*
X176546363Y-148480400D01*
X176386645Y-148480400D01*
X176386642Y-148480400D01*
X176231565Y-148518623D01*
X176090143Y-148592847D01*
X175968197Y-148700882D01*
X175922978Y-148716486D01*
X175885307Y-148700882D01*
X175763360Y-148592847D01*
X175621938Y-148518623D01*
X175466861Y-148480400D01*
X175466859Y-148480400D01*
X175307141Y-148480400D01*
X175307138Y-148480400D01*
X175152061Y-148518623D01*
X175010639Y-148592847D01*
X174891089Y-148698759D01*
X174891085Y-148698763D01*
X174800359Y-148830202D01*
X174743720Y-148979549D01*
X174743719Y-148979553D01*
X174724469Y-149138096D01*
X127254000Y-149138096D01*
X127254000Y-147192998D01*
X182955715Y-147192998D01*
X182955715Y-147193001D01*
X182974770Y-147337747D01*
X182974771Y-147337753D01*
X182974772Y-147337754D01*
X183030645Y-147472643D01*
X183119526Y-147588474D01*
X183235357Y-147677355D01*
X183370246Y-147733228D01*
X183370250Y-147733228D01*
X183370252Y-147733229D01*
X183514998Y-147752285D01*
X183515000Y-147752285D01*
X183515002Y-147752285D01*
X183659747Y-147733229D01*
X183659747Y-147733228D01*
X183659754Y-147733228D01*
X183794643Y-147677355D01*
X183910474Y-147588474D01*
X183999355Y-147472643D01*
X184055228Y-147337754D01*
X184074285Y-147193000D01*
X184055228Y-147048246D01*
X183999355Y-146913358D01*
X183910474Y-146797526D01*
X183910472Y-146797525D01*
X183910472Y-146797524D01*
X183875349Y-146770574D01*
X183794643Y-146708645D01*
X183794639Y-146708643D01*
X183659757Y-146652773D01*
X183659747Y-146652770D01*
X183515002Y-146633715D01*
X183514998Y-146633715D01*
X183370252Y-146652770D01*
X183370242Y-146652773D01*
X183235360Y-146708643D01*
X183119525Y-146797525D01*
X183030643Y-146913360D01*
X182974773Y-147048242D01*
X182974770Y-147048252D01*
X182955715Y-147192998D01*
X127254000Y-147192998D01*
X127254000Y-145201096D01*
X143355069Y-145201096D01*
X143355069Y-145201103D01*
X143374319Y-145359646D01*
X143374320Y-145359650D01*
X143374320Y-145359651D01*
X143374321Y-145359654D01*
X143386438Y-145391603D01*
X143430959Y-145508997D01*
X143521685Y-145640436D01*
X143521688Y-145640439D01*
X143641239Y-145746352D01*
X143782663Y-145820577D01*
X143937741Y-145858800D01*
X143937743Y-145858800D01*
X144097457Y-145858800D01*
X144097459Y-145858800D01*
X144252537Y-145820577D01*
X144393961Y-145746352D01*
X144513512Y-145640439D01*
X144604242Y-145508994D01*
X144660879Y-145359654D01*
X144661161Y-145357333D01*
X144680131Y-145201103D01*
X144680131Y-145201096D01*
X144660880Y-145042553D01*
X144660879Y-145042549D01*
X144660879Y-145042546D01*
X144604242Y-144893206D01*
X144604240Y-144893204D01*
X144604240Y-144893202D01*
X144513514Y-144761763D01*
X144513510Y-144761759D01*
X144393960Y-144655847D01*
X144343943Y-144629596D01*
X150403569Y-144629596D01*
X150403569Y-144629603D01*
X150422819Y-144788146D01*
X150422820Y-144788150D01*
X150422820Y-144788151D01*
X150422821Y-144788154D01*
X150444891Y-144846347D01*
X150479459Y-144937497D01*
X150570185Y-145068936D01*
X150570188Y-145068939D01*
X150689739Y-145174852D01*
X150831163Y-145249077D01*
X150986241Y-145287300D01*
X151044185Y-145287300D01*
X151088379Y-145305606D01*
X151106685Y-145349800D01*
X151106229Y-145357333D01*
X151102069Y-145391597D01*
X151102069Y-145391603D01*
X151121319Y-145550146D01*
X151121320Y-145550150D01*
X151121320Y-145550151D01*
X151121321Y-145550154D01*
X151155562Y-145640440D01*
X151177959Y-145699497D01*
X151268685Y-145830936D01*
X151268689Y-145830940D01*
X151388239Y-145936852D01*
X151529663Y-146011077D01*
X151684741Y-146049300D01*
X151684743Y-146049300D01*
X151844457Y-146049300D01*
X151844459Y-146049300D01*
X151999537Y-146011077D01*
X152140961Y-145936852D01*
X152260512Y-145830939D01*
X152351242Y-145699494D01*
X152407879Y-145550154D01*
X152427131Y-145391600D01*
X152427131Y-145391596D01*
X174724469Y-145391596D01*
X174724469Y-145391603D01*
X174743719Y-145550146D01*
X174743720Y-145550150D01*
X174743720Y-145550151D01*
X174743721Y-145550154D01*
X174777962Y-145640440D01*
X174800359Y-145699497D01*
X174891085Y-145830936D01*
X174891089Y-145830940D01*
X175010639Y-145936852D01*
X175152063Y-146011077D01*
X175307141Y-146049300D01*
X175307143Y-146049300D01*
X175466857Y-146049300D01*
X175466859Y-146049300D01*
X175621937Y-146011077D01*
X175763361Y-145936852D01*
X175882912Y-145830939D01*
X175973642Y-145699494D01*
X176030279Y-145550154D01*
X176049531Y-145391600D01*
X176045370Y-145357333D01*
X176030280Y-145233053D01*
X176030279Y-145233049D01*
X176030279Y-145233046D01*
X175973642Y-145083706D01*
X175973640Y-145083704D01*
X175973640Y-145083702D01*
X175882914Y-144952263D01*
X175882910Y-144952259D01*
X175763360Y-144846347D01*
X175621938Y-144772123D01*
X175466861Y-144733900D01*
X175466859Y-144733900D01*
X175307141Y-144733900D01*
X175307138Y-144733900D01*
X175152061Y-144772123D01*
X175010639Y-144846347D01*
X174891089Y-144952259D01*
X174891085Y-144952263D01*
X174800359Y-145083702D01*
X174743720Y-145233049D01*
X174743719Y-145233053D01*
X174724469Y-145391596D01*
X152427131Y-145391596D01*
X152422970Y-145357333D01*
X152407880Y-145233053D01*
X152407879Y-145233049D01*
X152407879Y-145233046D01*
X152351242Y-145083706D01*
X152351240Y-145083704D01*
X152351240Y-145083702D01*
X152260514Y-144952263D01*
X152260510Y-144952259D01*
X152140960Y-144846347D01*
X151999538Y-144772123D01*
X151844461Y-144733900D01*
X151844459Y-144733900D01*
X151786515Y-144733900D01*
X151742321Y-144715594D01*
X151724015Y-144671400D01*
X151724471Y-144663867D01*
X151728631Y-144629602D01*
X151728631Y-144629596D01*
X151709380Y-144471053D01*
X151709379Y-144471049D01*
X151709379Y-144471046D01*
X151652742Y-144321706D01*
X151652740Y-144321704D01*
X151652740Y-144321702D01*
X151562014Y-144190263D01*
X151562010Y-144190259D01*
X151442460Y-144084347D01*
X151301038Y-144010123D01*
X151145961Y-143971900D01*
X151145959Y-143971900D01*
X150986241Y-143971900D01*
X150986238Y-143971900D01*
X150831161Y-144010123D01*
X150689739Y-144084347D01*
X150570189Y-144190259D01*
X150570185Y-144190263D01*
X150479459Y-144321702D01*
X150422820Y-144471049D01*
X150422819Y-144471053D01*
X150403569Y-144629596D01*
X144343943Y-144629596D01*
X144252538Y-144581623D01*
X144097461Y-144543400D01*
X144097459Y-144543400D01*
X143937741Y-144543400D01*
X143937738Y-144543400D01*
X143782661Y-144581623D01*
X143641239Y-144655847D01*
X143521689Y-144761759D01*
X143521685Y-144761763D01*
X143430959Y-144893202D01*
X143374320Y-145042549D01*
X143374319Y-145042553D01*
X143355069Y-145201096D01*
X127254000Y-145201096D01*
X127254000Y-141764932D01*
X128975500Y-141764932D01*
X128975500Y-143315064D01*
X128975501Y-143315068D01*
X128990265Y-143389299D01*
X128990267Y-143389303D01*
X129046515Y-143473484D01*
X129130697Y-143529733D01*
X129130699Y-143529734D01*
X129204933Y-143544500D01*
X130755066Y-143544499D01*
X130829301Y-143529734D01*
X130913484Y-143473484D01*
X130969734Y-143389301D01*
X130984500Y-143315067D01*
X130984499Y-142204273D01*
X131515499Y-142204273D01*
X131515499Y-142875729D01*
X131530264Y-142949960D01*
X131530265Y-142949962D01*
X131572314Y-143012892D01*
X131572316Y-143012894D01*
X132047105Y-143487682D01*
X132047107Y-143487684D01*
X132110037Y-143529733D01*
X132110039Y-143529734D01*
X132184273Y-143544500D01*
X132855729Y-143544501D01*
X132929961Y-143529735D01*
X132992893Y-143487685D01*
X133467684Y-143012893D01*
X133509734Y-142949961D01*
X133524500Y-142875727D01*
X133524501Y-142204273D01*
X134055499Y-142204273D01*
X134055499Y-142875729D01*
X134070264Y-142949960D01*
X134070265Y-142949962D01*
X134112314Y-143012892D01*
X134112316Y-143012894D01*
X134587105Y-143487682D01*
X134587107Y-143487684D01*
X134650037Y-143529733D01*
X134650039Y-143529734D01*
X134724273Y-143544500D01*
X135395729Y-143544501D01*
X135469961Y-143529735D01*
X135532893Y-143487685D01*
X136007684Y-143012893D01*
X136049734Y-142949961D01*
X136064500Y-142875727D01*
X136064501Y-142204322D01*
X136596000Y-142204322D01*
X136596000Y-142286000D01*
X137169297Y-142286000D01*
X137134075Y-142347007D01*
X137100000Y-142474174D01*
X137100000Y-142605826D01*
X137134075Y-142732993D01*
X137169297Y-142794000D01*
X136596000Y-142794000D01*
X136596000Y-142875678D01*
X136610736Y-142949765D01*
X136610737Y-142949767D01*
X136652703Y-143012573D01*
X136652705Y-143012575D01*
X137127423Y-143487294D01*
X137127425Y-143487296D01*
X137190231Y-143529261D01*
X137190235Y-143529263D01*
X137264322Y-143543999D01*
X137264323Y-143544000D01*
X137346000Y-143544000D01*
X137346000Y-142970702D01*
X137407007Y-143005925D01*
X137534174Y-143040000D01*
X137665826Y-143040000D01*
X137792993Y-143005925D01*
X137854000Y-142970702D01*
X137854000Y-143544000D01*
X137935678Y-143544000D01*
X137935678Y-143543999D01*
X138009765Y-143529263D01*
X138009767Y-143529262D01*
X138072573Y-143487296D01*
X138072575Y-143487294D01*
X138547294Y-143012576D01*
X138547296Y-143012574D01*
X138589261Y-142949768D01*
X138589263Y-142949764D01*
X138603999Y-142875677D01*
X138604000Y-142875677D01*
X138604000Y-142794000D01*
X138030703Y-142794000D01*
X138065925Y-142732993D01*
X138100000Y-142605826D01*
X138100000Y-142474174D01*
X138065925Y-142347007D01*
X138030703Y-142286000D01*
X138604000Y-142286000D01*
X138604000Y-142204322D01*
X138603999Y-142204321D01*
X138603989Y-142204273D01*
X139135499Y-142204273D01*
X139135499Y-142875729D01*
X139150264Y-142949960D01*
X139150265Y-142949962D01*
X139192314Y-143012892D01*
X139192316Y-143012894D01*
X139667105Y-143487682D01*
X139667107Y-143487684D01*
X139730037Y-143529733D01*
X139730039Y-143529734D01*
X139804273Y-143544500D01*
X140475729Y-143544501D01*
X140549961Y-143529735D01*
X140612893Y-143487685D01*
X141087684Y-143012893D01*
X141129734Y-142949961D01*
X141144500Y-142875727D01*
X141144501Y-142204322D01*
X141676000Y-142204322D01*
X141676000Y-142286000D01*
X142249297Y-142286000D01*
X142214075Y-142347007D01*
X142180000Y-142474174D01*
X142180000Y-142605826D01*
X142214075Y-142732993D01*
X142249297Y-142794000D01*
X141676000Y-142794000D01*
X141676000Y-142875678D01*
X141690736Y-142949765D01*
X141690737Y-142949767D01*
X141732703Y-143012573D01*
X141732705Y-143012575D01*
X142207423Y-143487294D01*
X142207425Y-143487296D01*
X142270231Y-143529261D01*
X142270235Y-143529263D01*
X142344322Y-143543999D01*
X142344323Y-143544000D01*
X142426000Y-143544000D01*
X142426000Y-142970702D01*
X142487007Y-143005925D01*
X142614174Y-143040000D01*
X142745826Y-143040000D01*
X142872993Y-143005925D01*
X142934000Y-142970702D01*
X142934000Y-143544000D01*
X143015678Y-143544000D01*
X143015678Y-143543999D01*
X143089765Y-143529263D01*
X143089767Y-143529262D01*
X143152573Y-143487296D01*
X143152575Y-143487294D01*
X143627294Y-143012576D01*
X143627296Y-143012574D01*
X143669261Y-142949768D01*
X143669263Y-142949764D01*
X143683999Y-142875677D01*
X143684000Y-142875677D01*
X143684000Y-142794000D01*
X143110703Y-142794000D01*
X143145925Y-142732993D01*
X143180000Y-142605826D01*
X143180000Y-142474174D01*
X143145925Y-142347007D01*
X143110703Y-142286000D01*
X143684000Y-142286000D01*
X143684000Y-142204322D01*
X143683999Y-142204321D01*
X143683989Y-142204273D01*
X144215499Y-142204273D01*
X144215499Y-142875729D01*
X144230264Y-142949960D01*
X144230265Y-142949962D01*
X144272314Y-143012892D01*
X144272316Y-143012894D01*
X144747105Y-143487682D01*
X144747107Y-143487684D01*
X144810037Y-143529733D01*
X144810039Y-143529734D01*
X144884273Y-143544500D01*
X145555729Y-143544501D01*
X145629961Y-143529735D01*
X145692893Y-143487685D01*
X146167684Y-143012893D01*
X146209734Y-142949961D01*
X146224500Y-142875727D01*
X146224501Y-142204273D01*
X146755499Y-142204273D01*
X146755499Y-142875729D01*
X146770264Y-142949960D01*
X146770265Y-142949962D01*
X146812314Y-143012892D01*
X146812316Y-143012894D01*
X147287105Y-143487682D01*
X147287107Y-143487684D01*
X147350037Y-143529733D01*
X147350039Y-143529734D01*
X147424273Y-143544500D01*
X148095729Y-143544501D01*
X148169961Y-143529735D01*
X148232893Y-143487685D01*
X148707684Y-143012893D01*
X148749734Y-142949961D01*
X148764500Y-142875727D01*
X148764501Y-142204273D01*
X149295499Y-142204273D01*
X149295499Y-142875729D01*
X149310264Y-142949960D01*
X149310265Y-142949962D01*
X149352314Y-143012892D01*
X149352316Y-143012894D01*
X149827105Y-143487682D01*
X149827107Y-143487684D01*
X149890037Y-143529733D01*
X149890039Y-143529734D01*
X149964273Y-143544500D01*
X150635729Y-143544501D01*
X150709961Y-143529735D01*
X150772893Y-143487685D01*
X151247684Y-143012893D01*
X151289734Y-142949961D01*
X151304500Y-142875727D01*
X151304501Y-142204273D01*
X151835499Y-142204273D01*
X151835499Y-142875729D01*
X151850264Y-142949960D01*
X151850265Y-142949962D01*
X151892314Y-143012892D01*
X151892316Y-143012894D01*
X152367105Y-143487682D01*
X152367107Y-143487684D01*
X152430037Y-143529733D01*
X152430039Y-143529734D01*
X152504273Y-143544500D01*
X153175729Y-143544501D01*
X153249961Y-143529735D01*
X153312893Y-143487685D01*
X153787684Y-143012893D01*
X153829734Y-142949961D01*
X153844500Y-142875727D01*
X153844501Y-142204273D01*
X154375499Y-142204273D01*
X154375499Y-142875729D01*
X154390264Y-142949960D01*
X154390265Y-142949962D01*
X154432314Y-143012892D01*
X154432316Y-143012894D01*
X154907105Y-143487682D01*
X154907107Y-143487684D01*
X154970037Y-143529733D01*
X154970039Y-143529734D01*
X155044273Y-143544500D01*
X155715729Y-143544501D01*
X155789961Y-143529735D01*
X155852893Y-143487685D01*
X156327684Y-143012893D01*
X156369734Y-142949961D01*
X156384500Y-142875727D01*
X156384501Y-142204273D01*
X156915499Y-142204273D01*
X156915499Y-142875729D01*
X156930264Y-142949960D01*
X156930265Y-142949962D01*
X156972314Y-143012892D01*
X156972316Y-143012894D01*
X157447105Y-143487682D01*
X157447107Y-143487684D01*
X157510037Y-143529733D01*
X157510039Y-143529734D01*
X157584273Y-143544500D01*
X158255729Y-143544501D01*
X158329961Y-143529735D01*
X158392893Y-143487685D01*
X158867684Y-143012893D01*
X158909734Y-142949961D01*
X158924500Y-142875727D01*
X158924501Y-142204322D01*
X159456000Y-142204322D01*
X159456000Y-142286000D01*
X160029297Y-142286000D01*
X159994075Y-142347007D01*
X159960000Y-142474174D01*
X159960000Y-142605826D01*
X159994075Y-142732993D01*
X160029297Y-142794000D01*
X159456000Y-142794000D01*
X159456000Y-142875678D01*
X159470736Y-142949765D01*
X159470737Y-142949767D01*
X159512703Y-143012573D01*
X159512705Y-143012575D01*
X159987423Y-143487294D01*
X159987425Y-143487296D01*
X160050231Y-143529261D01*
X160050235Y-143529263D01*
X160124322Y-143543999D01*
X160124323Y-143544000D01*
X160206000Y-143544000D01*
X160206000Y-142970702D01*
X160267007Y-143005925D01*
X160394174Y-143040000D01*
X160525826Y-143040000D01*
X160652993Y-143005925D01*
X160714000Y-142970702D01*
X160714000Y-143544000D01*
X160795678Y-143544000D01*
X160795678Y-143543999D01*
X160869765Y-143529263D01*
X160869767Y-143529262D01*
X160932573Y-143487296D01*
X160932575Y-143487294D01*
X161407294Y-143012576D01*
X161407296Y-143012574D01*
X161449261Y-142949768D01*
X161449263Y-142949764D01*
X161463999Y-142875677D01*
X161464000Y-142875677D01*
X161464000Y-142794000D01*
X160890703Y-142794000D01*
X160925925Y-142732993D01*
X160960000Y-142605826D01*
X160960000Y-142474174D01*
X160925925Y-142347007D01*
X160890703Y-142286000D01*
X161464000Y-142286000D01*
X161464000Y-142204322D01*
X161463999Y-142204321D01*
X161463989Y-142204273D01*
X161995499Y-142204273D01*
X161995499Y-142875729D01*
X162010264Y-142949960D01*
X162010265Y-142949962D01*
X162052314Y-143012892D01*
X162052316Y-143012894D01*
X162527105Y-143487682D01*
X162527107Y-143487684D01*
X162590037Y-143529733D01*
X162590039Y-143529734D01*
X162664273Y-143544500D01*
X163335729Y-143544501D01*
X163409961Y-143529735D01*
X163472893Y-143487685D01*
X163600982Y-143359596D01*
X170787069Y-143359596D01*
X170787069Y-143359603D01*
X170806319Y-143518146D01*
X170806320Y-143518150D01*
X170806320Y-143518151D01*
X170806321Y-143518154D01*
X170825354Y-143568339D01*
X170862959Y-143667497D01*
X170953685Y-143798936D01*
X170953688Y-143798939D01*
X171073239Y-143904852D01*
X171214663Y-143979077D01*
X171369741Y-144017300D01*
X171369743Y-144017300D01*
X171529457Y-144017300D01*
X171529459Y-144017300D01*
X171684537Y-143979077D01*
X171825961Y-143904852D01*
X171945512Y-143798939D01*
X172036242Y-143667494D01*
X172092879Y-143518154D01*
X172099424Y-143464253D01*
X172112131Y-143359603D01*
X172112131Y-143359596D01*
X172092880Y-143201053D01*
X172092879Y-143201049D01*
X172092879Y-143201046D01*
X172065554Y-143128996D01*
X175930969Y-143128996D01*
X175930969Y-143129003D01*
X175950219Y-143287546D01*
X175950220Y-143287550D01*
X175950220Y-143287551D01*
X175950221Y-143287554D01*
X175988808Y-143389299D01*
X176006859Y-143436897D01*
X176097585Y-143568336D01*
X176097588Y-143568339D01*
X176217139Y-143674252D01*
X176358563Y-143748477D01*
X176513641Y-143786700D01*
X176513643Y-143786700D01*
X176673357Y-143786700D01*
X176673359Y-143786700D01*
X176828437Y-143748477D01*
X176969861Y-143674252D01*
X177089412Y-143568339D01*
X177180142Y-143436894D01*
X177224662Y-143319504D01*
X179145715Y-143319504D01*
X179145715Y-143319507D01*
X179164770Y-143464253D01*
X179164773Y-143464263D01*
X179207881Y-143568336D01*
X179220645Y-143599149D01*
X179309526Y-143714980D01*
X179425357Y-143803861D01*
X179560246Y-143859734D01*
X179560250Y-143859734D01*
X179560252Y-143859735D01*
X179704998Y-143878791D01*
X179705000Y-143878791D01*
X179705002Y-143878791D01*
X179849747Y-143859735D01*
X179849747Y-143859734D01*
X179849754Y-143859734D01*
X179984643Y-143803861D01*
X180100474Y-143714980D01*
X180189355Y-143599149D01*
X180245228Y-143464260D01*
X180255096Y-143389302D01*
X180264285Y-143319507D01*
X180264285Y-143319504D01*
X180255924Y-143255998D01*
X182955723Y-143255998D01*
X182955723Y-143256001D01*
X182974778Y-143400747D01*
X182974781Y-143400757D01*
X183028205Y-143529735D01*
X183030653Y-143535643D01*
X183119534Y-143651474D01*
X183235365Y-143740355D01*
X183370254Y-143796228D01*
X183370258Y-143796228D01*
X183370260Y-143796229D01*
X183515006Y-143815285D01*
X183515008Y-143815285D01*
X183515010Y-143815285D01*
X183659755Y-143796229D01*
X183659755Y-143796228D01*
X183659762Y-143796228D01*
X183794651Y-143740355D01*
X183910482Y-143651474D01*
X183999363Y-143535643D01*
X184055236Y-143400754D01*
X184060654Y-143359600D01*
X184074293Y-143256001D01*
X184074293Y-143255998D01*
X184055237Y-143111252D01*
X184055236Y-143111250D01*
X184055236Y-143111246D01*
X184014497Y-143012894D01*
X183999365Y-142976362D01*
X183999364Y-142976361D01*
X183999363Y-142976358D01*
X183910482Y-142860526D01*
X183910480Y-142860525D01*
X183910480Y-142860524D01*
X183850302Y-142814348D01*
X183794651Y-142771645D01*
X183794647Y-142771643D01*
X183659765Y-142715773D01*
X183659755Y-142715770D01*
X183515010Y-142696715D01*
X183515006Y-142696715D01*
X183370260Y-142715770D01*
X183370250Y-142715773D01*
X183235368Y-142771643D01*
X183119533Y-142860525D01*
X183030651Y-142976360D01*
X182974781Y-143111242D01*
X182974778Y-143111252D01*
X182955723Y-143255998D01*
X180255924Y-143255998D01*
X180245229Y-143174758D01*
X180245228Y-143174756D01*
X180245228Y-143174752D01*
X180194259Y-143051702D01*
X180189357Y-143039868D01*
X180189356Y-143039867D01*
X180189355Y-143039864D01*
X180100474Y-142924032D01*
X180100472Y-142924031D01*
X180100472Y-142924030D01*
X180065349Y-142897080D01*
X179984643Y-142835151D01*
X179984639Y-142835149D01*
X179849757Y-142779279D01*
X179849747Y-142779276D01*
X179705002Y-142760221D01*
X179704998Y-142760221D01*
X179560252Y-142779276D01*
X179560242Y-142779279D01*
X179425360Y-142835149D01*
X179309525Y-142924031D01*
X179220643Y-143039866D01*
X179164773Y-143174748D01*
X179164770Y-143174758D01*
X179145715Y-143319504D01*
X177224662Y-143319504D01*
X177236779Y-143287554D01*
X177256031Y-143129000D01*
X177253875Y-143111246D01*
X177236780Y-142970453D01*
X177236779Y-142970449D01*
X177236779Y-142970446D01*
X177180142Y-142821106D01*
X177180140Y-142821104D01*
X177180140Y-142821102D01*
X177089414Y-142689663D01*
X177089410Y-142689659D01*
X176969860Y-142583747D01*
X176828438Y-142509523D01*
X176673361Y-142471300D01*
X176673359Y-142471300D01*
X176513641Y-142471300D01*
X176513638Y-142471300D01*
X176358561Y-142509523D01*
X176217139Y-142583747D01*
X176097589Y-142689659D01*
X176097585Y-142689663D01*
X176006859Y-142821102D01*
X175986143Y-142875726D01*
X175958064Y-142949767D01*
X175950220Y-142970449D01*
X175950219Y-142970453D01*
X175930969Y-143128996D01*
X172065554Y-143128996D01*
X172036242Y-143051706D01*
X172036240Y-143051704D01*
X172036240Y-143051702D01*
X171945514Y-142920263D01*
X171945510Y-142920259D01*
X171825960Y-142814347D01*
X171684538Y-142740123D01*
X171529461Y-142701900D01*
X171529459Y-142701900D01*
X171369741Y-142701900D01*
X171369738Y-142701900D01*
X171214661Y-142740123D01*
X171073239Y-142814347D01*
X170953689Y-142920259D01*
X170953685Y-142920263D01*
X170862959Y-143051702D01*
X170840375Y-143111252D01*
X170816295Y-143174748D01*
X170806320Y-143201049D01*
X170806319Y-143201053D01*
X170787069Y-143359596D01*
X163600982Y-143359596D01*
X163947684Y-143012893D01*
X163989734Y-142949961D01*
X164004500Y-142875727D01*
X164004501Y-142204271D01*
X163989735Y-142130039D01*
X163974901Y-142107839D01*
X163947685Y-142067107D01*
X163947683Y-142067105D01*
X163472894Y-141592317D01*
X163472892Y-141592315D01*
X163409962Y-141550266D01*
X163409960Y-141550265D01*
X163335727Y-141535500D01*
X163335726Y-141535499D01*
X162664270Y-141535499D01*
X162590039Y-141550264D01*
X162590037Y-141550265D01*
X162527107Y-141592314D01*
X162527105Y-141592316D01*
X162052317Y-142067105D01*
X162052315Y-142067107D01*
X162010266Y-142130037D01*
X162010265Y-142130039D01*
X161995500Y-142204272D01*
X161995499Y-142204273D01*
X161463989Y-142204273D01*
X161449263Y-142130234D01*
X161449262Y-142130232D01*
X161407296Y-142067426D01*
X161407294Y-142067424D01*
X160932576Y-141592705D01*
X160932574Y-141592703D01*
X160869768Y-141550738D01*
X160869764Y-141550736D01*
X160795677Y-141536000D01*
X160714000Y-141536000D01*
X160714000Y-142109297D01*
X160652993Y-142074075D01*
X160525826Y-142040000D01*
X160394174Y-142040000D01*
X160267007Y-142074075D01*
X160206000Y-142109297D01*
X160206000Y-141536000D01*
X160124322Y-141536000D01*
X160050234Y-141550736D01*
X160050232Y-141550737D01*
X159987426Y-141592703D01*
X159987424Y-141592705D01*
X159512705Y-142067423D01*
X159512703Y-142067425D01*
X159470738Y-142130231D01*
X159470736Y-142130235D01*
X159456000Y-142204322D01*
X158924501Y-142204322D01*
X158924501Y-142204271D01*
X158909735Y-142130039D01*
X158894901Y-142107839D01*
X158867685Y-142067107D01*
X158867683Y-142067105D01*
X158392894Y-141592317D01*
X158392892Y-141592315D01*
X158329962Y-141550266D01*
X158329960Y-141550265D01*
X158255727Y-141535500D01*
X158255726Y-141535499D01*
X157584270Y-141535499D01*
X157510039Y-141550264D01*
X157510037Y-141550265D01*
X157447107Y-141592314D01*
X157447105Y-141592316D01*
X156972317Y-142067105D01*
X156972315Y-142067107D01*
X156930266Y-142130037D01*
X156930265Y-142130039D01*
X156915500Y-142204272D01*
X156915499Y-142204273D01*
X156384501Y-142204273D01*
X156384501Y-142204271D01*
X156369735Y-142130039D01*
X156354901Y-142107839D01*
X156327685Y-142067107D01*
X156327683Y-142067105D01*
X155852894Y-141592317D01*
X155852892Y-141592315D01*
X155789962Y-141550266D01*
X155789960Y-141550265D01*
X155715727Y-141535500D01*
X155715726Y-141535499D01*
X155044270Y-141535499D01*
X154970039Y-141550264D01*
X154970037Y-141550265D01*
X154907107Y-141592314D01*
X154907105Y-141592316D01*
X154432317Y-142067105D01*
X154432315Y-142067107D01*
X154390266Y-142130037D01*
X154390265Y-142130039D01*
X154375500Y-142204272D01*
X154375499Y-142204273D01*
X153844501Y-142204273D01*
X153844501Y-142204271D01*
X153829735Y-142130039D01*
X153814901Y-142107839D01*
X153787685Y-142067107D01*
X153787683Y-142067105D01*
X153312894Y-141592317D01*
X153312892Y-141592315D01*
X153249962Y-141550266D01*
X153249960Y-141550265D01*
X153175727Y-141535500D01*
X153175726Y-141535499D01*
X152504270Y-141535499D01*
X152430039Y-141550264D01*
X152430037Y-141550265D01*
X152367107Y-141592314D01*
X152367105Y-141592316D01*
X151892317Y-142067105D01*
X151892315Y-142067107D01*
X151850266Y-142130037D01*
X151850265Y-142130039D01*
X151835500Y-142204272D01*
X151835499Y-142204273D01*
X151304501Y-142204273D01*
X151304501Y-142204271D01*
X151289735Y-142130039D01*
X151274901Y-142107839D01*
X151247685Y-142067107D01*
X151247683Y-142067105D01*
X150772894Y-141592317D01*
X150772892Y-141592315D01*
X150709962Y-141550266D01*
X150709960Y-141550265D01*
X150635727Y-141535500D01*
X150635726Y-141535499D01*
X149964270Y-141535499D01*
X149890039Y-141550264D01*
X149890037Y-141550265D01*
X149827107Y-141592314D01*
X149827105Y-141592316D01*
X149352317Y-142067105D01*
X149352315Y-142067107D01*
X149310266Y-142130037D01*
X149310265Y-142130039D01*
X149295500Y-142204272D01*
X149295499Y-142204273D01*
X148764501Y-142204273D01*
X148764501Y-142204271D01*
X148749735Y-142130039D01*
X148734901Y-142107839D01*
X148707685Y-142067107D01*
X148707683Y-142067105D01*
X148232894Y-141592317D01*
X148232892Y-141592315D01*
X148169962Y-141550266D01*
X148169960Y-141550265D01*
X148095727Y-141535500D01*
X148095726Y-141535499D01*
X147424270Y-141535499D01*
X147350039Y-141550264D01*
X147350037Y-141550265D01*
X147287107Y-141592314D01*
X147287105Y-141592316D01*
X146812317Y-142067105D01*
X146812315Y-142067107D01*
X146770266Y-142130037D01*
X146770265Y-142130039D01*
X146755500Y-142204272D01*
X146755499Y-142204273D01*
X146224501Y-142204273D01*
X146224501Y-142204271D01*
X146209735Y-142130039D01*
X146194901Y-142107839D01*
X146167685Y-142067107D01*
X146167683Y-142067105D01*
X145692894Y-141592317D01*
X145692892Y-141592315D01*
X145629962Y-141550266D01*
X145629960Y-141550265D01*
X145555727Y-141535500D01*
X145555726Y-141535499D01*
X144884270Y-141535499D01*
X144810039Y-141550264D01*
X144810037Y-141550265D01*
X144747107Y-141592314D01*
X144747105Y-141592316D01*
X144272317Y-142067105D01*
X144272315Y-142067107D01*
X144230266Y-142130037D01*
X144230265Y-142130039D01*
X144215500Y-142204272D01*
X144215499Y-142204273D01*
X143683989Y-142204273D01*
X143669263Y-142130234D01*
X143669262Y-142130232D01*
X143627296Y-142067426D01*
X143627294Y-142067424D01*
X143152576Y-141592705D01*
X143152574Y-141592703D01*
X143089768Y-141550738D01*
X143089764Y-141550736D01*
X143015677Y-141536000D01*
X142934000Y-141536000D01*
X142934000Y-142109297D01*
X142872993Y-142074075D01*
X142745826Y-142040000D01*
X142614174Y-142040000D01*
X142487007Y-142074075D01*
X142426000Y-142109297D01*
X142426000Y-141536000D01*
X142344322Y-141536000D01*
X142270234Y-141550736D01*
X142270232Y-141550737D01*
X142207426Y-141592703D01*
X142207424Y-141592705D01*
X141732705Y-142067423D01*
X141732703Y-142067425D01*
X141690738Y-142130231D01*
X141690736Y-142130235D01*
X141676000Y-142204322D01*
X141144501Y-142204322D01*
X141144501Y-142204271D01*
X141129735Y-142130039D01*
X141114901Y-142107839D01*
X141087685Y-142067107D01*
X141087683Y-142067105D01*
X140612894Y-141592317D01*
X140612892Y-141592315D01*
X140549962Y-141550266D01*
X140549960Y-141550265D01*
X140475727Y-141535500D01*
X140475726Y-141535499D01*
X139804270Y-141535499D01*
X139730039Y-141550264D01*
X139730037Y-141550265D01*
X139667107Y-141592314D01*
X139667105Y-141592316D01*
X139192317Y-142067105D01*
X139192315Y-142067107D01*
X139150266Y-142130037D01*
X139150265Y-142130039D01*
X139135500Y-142204272D01*
X139135499Y-142204273D01*
X138603989Y-142204273D01*
X138589263Y-142130234D01*
X138589262Y-142130232D01*
X138547296Y-142067426D01*
X138547294Y-142067424D01*
X138072576Y-141592705D01*
X138072574Y-141592703D01*
X138009768Y-141550738D01*
X138009764Y-141550736D01*
X137935677Y-141536000D01*
X137854000Y-141536000D01*
X137854000Y-142109297D01*
X137792993Y-142074075D01*
X137665826Y-142040000D01*
X137534174Y-142040000D01*
X137407007Y-142074075D01*
X137346000Y-142109297D01*
X137346000Y-141536000D01*
X137264322Y-141536000D01*
X137190234Y-141550736D01*
X137190232Y-141550737D01*
X137127426Y-141592703D01*
X137127424Y-141592705D01*
X136652705Y-142067423D01*
X136652703Y-142067425D01*
X136610738Y-142130231D01*
X136610736Y-142130235D01*
X136596000Y-142204322D01*
X136064501Y-142204322D01*
X136064501Y-142204271D01*
X136049735Y-142130039D01*
X136034901Y-142107839D01*
X136007685Y-142067107D01*
X136007683Y-142067105D01*
X135532894Y-141592317D01*
X135532892Y-141592315D01*
X135469962Y-141550266D01*
X135469960Y-141550265D01*
X135395727Y-141535500D01*
X135395726Y-141535499D01*
X134724270Y-141535499D01*
X134650039Y-141550264D01*
X134650037Y-141550265D01*
X134587107Y-141592314D01*
X134587105Y-141592316D01*
X134112317Y-142067105D01*
X134112315Y-142067107D01*
X134070266Y-142130037D01*
X134070265Y-142130039D01*
X134055500Y-142204272D01*
X134055499Y-142204273D01*
X133524501Y-142204273D01*
X133524501Y-142204271D01*
X133509735Y-142130039D01*
X133494901Y-142107839D01*
X133467685Y-142067107D01*
X133467683Y-142067105D01*
X132992894Y-141592317D01*
X132992892Y-141592315D01*
X132929962Y-141550266D01*
X132929960Y-141550265D01*
X132855727Y-141535500D01*
X132855726Y-141535499D01*
X132184270Y-141535499D01*
X132110039Y-141550264D01*
X132110037Y-141550265D01*
X132047107Y-141592314D01*
X132047105Y-141592316D01*
X131572317Y-142067105D01*
X131572315Y-142067107D01*
X131530266Y-142130037D01*
X131530265Y-142130039D01*
X131515500Y-142204272D01*
X131515499Y-142204273D01*
X130984499Y-142204273D01*
X130984499Y-141764934D01*
X130969734Y-141690699D01*
X130937364Y-141642254D01*
X130913484Y-141606515D01*
X130829302Y-141550266D01*
X130829300Y-141550265D01*
X130755067Y-141535500D01*
X129204935Y-141535500D01*
X129204931Y-141535501D01*
X129130700Y-141550265D01*
X129130696Y-141550267D01*
X129046515Y-141606515D01*
X128990266Y-141690697D01*
X128990265Y-141690699D01*
X128975500Y-141764932D01*
X127254000Y-141764932D01*
X127254000Y-141096998D01*
X177200971Y-141096998D01*
X177200971Y-141097005D01*
X177220221Y-141255548D01*
X177220222Y-141255552D01*
X177220222Y-141255553D01*
X177220223Y-141255556D01*
X177260062Y-141360602D01*
X177276861Y-141404899D01*
X177367587Y-141536338D01*
X177367591Y-141536342D01*
X177431212Y-141592705D01*
X177487141Y-141642254D01*
X177628565Y-141716479D01*
X177783643Y-141754702D01*
X177783645Y-141754702D01*
X177943359Y-141754702D01*
X177943361Y-141754702D01*
X178098439Y-141716479D01*
X178189863Y-141668496D01*
X185582969Y-141668496D01*
X185582969Y-141668503D01*
X185602219Y-141827046D01*
X185602220Y-141827050D01*
X185602220Y-141827051D01*
X185602221Y-141827054D01*
X185646943Y-141944976D01*
X185658859Y-141976397D01*
X185749585Y-142107836D01*
X185749588Y-142107839D01*
X185869139Y-142213752D01*
X186010563Y-142287977D01*
X186165641Y-142326200D01*
X186165643Y-142326200D01*
X186325357Y-142326200D01*
X186325359Y-142326200D01*
X186480437Y-142287977D01*
X186621861Y-142213752D01*
X186741412Y-142107839D01*
X186832142Y-141976394D01*
X186888779Y-141827054D01*
X186897564Y-141754701D01*
X186908031Y-141668503D01*
X186908031Y-141668496D01*
X186888780Y-141509953D01*
X186888779Y-141509949D01*
X186888779Y-141509946D01*
X186832142Y-141360606D01*
X186832140Y-141360604D01*
X186832140Y-141360602D01*
X186741414Y-141229163D01*
X186741410Y-141229159D01*
X186621860Y-141123247D01*
X186480438Y-141049023D01*
X186325361Y-141010800D01*
X186325359Y-141010800D01*
X186165641Y-141010800D01*
X186165638Y-141010800D01*
X186010561Y-141049023D01*
X185869139Y-141123247D01*
X185749589Y-141229159D01*
X185749585Y-141229163D01*
X185658859Y-141360602D01*
X185602220Y-141509949D01*
X185602219Y-141509953D01*
X185582969Y-141668496D01*
X178189863Y-141668496D01*
X178239863Y-141642254D01*
X178359414Y-141536341D01*
X178450144Y-141404896D01*
X178506781Y-141255556D01*
X178522846Y-141123248D01*
X178526033Y-141097005D01*
X178526033Y-141096998D01*
X178506782Y-140938455D01*
X178506781Y-140938451D01*
X178506781Y-140938448D01*
X178450144Y-140789108D01*
X178450142Y-140789106D01*
X178450142Y-140789104D01*
X178359416Y-140657665D01*
X178359412Y-140657661D01*
X178255492Y-140565596D01*
X181772569Y-140565596D01*
X181772569Y-140565603D01*
X181791819Y-140724146D01*
X181791820Y-140724150D01*
X181791820Y-140724151D01*
X181791821Y-140724154D01*
X181797941Y-140740291D01*
X181848459Y-140873497D01*
X181939185Y-141004936D01*
X181939189Y-141004940D01*
X182043101Y-141096998D01*
X182058739Y-141110852D01*
X182200163Y-141185077D01*
X182355241Y-141223300D01*
X182355243Y-141223300D01*
X182514957Y-141223300D01*
X182514959Y-141223300D01*
X182670037Y-141185077D01*
X182811461Y-141110852D01*
X182931012Y-141004939D01*
X183021742Y-140873494D01*
X183078379Y-140724154D01*
X183086452Y-140657665D01*
X183097631Y-140565603D01*
X183097631Y-140565596D01*
X192440569Y-140565596D01*
X192440569Y-140565603D01*
X192459819Y-140724146D01*
X192459820Y-140724150D01*
X192459820Y-140724151D01*
X192459821Y-140724154D01*
X192465941Y-140740291D01*
X192516459Y-140873497D01*
X192607185Y-141004936D01*
X192607189Y-141004940D01*
X192711101Y-141096998D01*
X192726739Y-141110852D01*
X192868163Y-141185077D01*
X193023241Y-141223300D01*
X193023243Y-141223300D01*
X193182957Y-141223300D01*
X193182959Y-141223300D01*
X193338037Y-141185077D01*
X193479461Y-141110852D01*
X193599012Y-141004939D01*
X193689742Y-140873494D01*
X193746379Y-140724154D01*
X193754452Y-140657665D01*
X193765631Y-140565603D01*
X193765631Y-140565596D01*
X193746380Y-140407053D01*
X193746379Y-140407049D01*
X193746379Y-140407046D01*
X193689742Y-140257706D01*
X193689740Y-140257704D01*
X193689740Y-140257702D01*
X193599014Y-140126263D01*
X193599010Y-140126259D01*
X193479460Y-140020347D01*
X193338038Y-139946123D01*
X193182961Y-139907900D01*
X193182959Y-139907900D01*
X193023241Y-139907900D01*
X193023238Y-139907900D01*
X192868161Y-139946123D01*
X192726739Y-140020347D01*
X192607189Y-140126259D01*
X192607185Y-140126263D01*
X192516459Y-140257702D01*
X192459820Y-140407049D01*
X192459819Y-140407053D01*
X192440569Y-140565596D01*
X183097631Y-140565596D01*
X183078380Y-140407053D01*
X183078379Y-140407049D01*
X183078379Y-140407046D01*
X183021742Y-140257706D01*
X183021740Y-140257704D01*
X183021740Y-140257702D01*
X182931014Y-140126263D01*
X182931010Y-140126259D01*
X182811460Y-140020347D01*
X182670038Y-139946123D01*
X182514961Y-139907900D01*
X182514959Y-139907900D01*
X182355241Y-139907900D01*
X182355238Y-139907900D01*
X182200161Y-139946123D01*
X182058739Y-140020347D01*
X181939189Y-140126259D01*
X181939185Y-140126263D01*
X181848459Y-140257702D01*
X181791820Y-140407049D01*
X181791819Y-140407053D01*
X181772569Y-140565596D01*
X178255492Y-140565596D01*
X178239862Y-140551749D01*
X178098440Y-140477525D01*
X177943363Y-140439302D01*
X177943361Y-140439302D01*
X177783643Y-140439302D01*
X177783640Y-140439302D01*
X177628563Y-140477525D01*
X177487141Y-140551749D01*
X177367591Y-140657661D01*
X177367587Y-140657665D01*
X177276861Y-140789104D01*
X177220222Y-140938451D01*
X177220221Y-140938455D01*
X177200971Y-141096998D01*
X127254000Y-141096998D01*
X127254000Y-141004909D01*
X127254535Y-140996751D01*
X127262210Y-140938455D01*
X127270236Y-140877491D01*
X127274455Y-140861739D01*
X127318912Y-140754411D01*
X127327064Y-140740291D01*
X127400310Y-140644836D01*
X127405678Y-140638716D01*
X128380121Y-139664273D01*
X128975499Y-139664273D01*
X128975499Y-140335729D01*
X128990264Y-140409960D01*
X128990265Y-140409962D01*
X129032314Y-140472892D01*
X129032316Y-140472894D01*
X129507105Y-140947682D01*
X129507107Y-140947684D01*
X129570037Y-140989733D01*
X129570039Y-140989734D01*
X129644273Y-141004500D01*
X130315729Y-141004501D01*
X130389961Y-140989735D01*
X130452893Y-140947685D01*
X130927684Y-140472893D01*
X130969734Y-140409961D01*
X130984500Y-140335727D01*
X130984501Y-139664273D01*
X131515499Y-139664273D01*
X131515499Y-140335729D01*
X131530264Y-140409960D01*
X131530265Y-140409962D01*
X131572314Y-140472892D01*
X131572316Y-140472894D01*
X132047105Y-140947682D01*
X132047107Y-140947684D01*
X132110037Y-140989733D01*
X132110039Y-140989734D01*
X132184273Y-141004500D01*
X132855729Y-141004501D01*
X132929961Y-140989735D01*
X132992893Y-140947685D01*
X133467684Y-140472893D01*
X133509734Y-140409961D01*
X133524500Y-140335727D01*
X133524501Y-139664273D01*
X134055499Y-139664273D01*
X134055499Y-140335729D01*
X134070264Y-140409960D01*
X134070265Y-140409962D01*
X134112314Y-140472892D01*
X134112316Y-140472894D01*
X134587105Y-140947682D01*
X134587107Y-140947684D01*
X134650037Y-140989733D01*
X134650039Y-140989734D01*
X134724273Y-141004500D01*
X135395729Y-141004501D01*
X135469961Y-140989735D01*
X135532893Y-140947685D01*
X136007684Y-140472893D01*
X136049734Y-140409961D01*
X136064500Y-140335727D01*
X136064501Y-139664273D01*
X136595499Y-139664273D01*
X136595499Y-140335729D01*
X136610264Y-140409960D01*
X136610265Y-140409962D01*
X136652314Y-140472892D01*
X136652316Y-140472894D01*
X137127105Y-140947682D01*
X137127107Y-140947684D01*
X137190037Y-140989733D01*
X137190039Y-140989734D01*
X137264273Y-141004500D01*
X137935729Y-141004501D01*
X138009961Y-140989735D01*
X138072893Y-140947685D01*
X138547684Y-140472893D01*
X138589734Y-140409961D01*
X138604500Y-140335727D01*
X138604501Y-139664273D01*
X139135499Y-139664273D01*
X139135499Y-140335729D01*
X139150264Y-140409960D01*
X139150265Y-140409962D01*
X139192314Y-140472892D01*
X139192316Y-140472894D01*
X139667105Y-140947682D01*
X139667107Y-140947684D01*
X139730037Y-140989733D01*
X139730039Y-140989734D01*
X139804273Y-141004500D01*
X140475729Y-141004501D01*
X140549961Y-140989735D01*
X140612893Y-140947685D01*
X141087684Y-140472893D01*
X141129734Y-140409961D01*
X141144500Y-140335727D01*
X141144501Y-139664273D01*
X141675499Y-139664273D01*
X141675499Y-140335729D01*
X141690264Y-140409960D01*
X141690265Y-140409962D01*
X141732314Y-140472892D01*
X141732316Y-140472894D01*
X142207105Y-140947682D01*
X142207107Y-140947684D01*
X142270037Y-140989733D01*
X142270039Y-140989734D01*
X142344273Y-141004500D01*
X143015729Y-141004501D01*
X143089961Y-140989735D01*
X143152893Y-140947685D01*
X143627684Y-140472893D01*
X143669734Y-140409961D01*
X143684500Y-140335727D01*
X143684501Y-139664273D01*
X144215499Y-139664273D01*
X144215499Y-140335729D01*
X144230264Y-140409960D01*
X144230265Y-140409962D01*
X144272314Y-140472892D01*
X144272316Y-140472894D01*
X144747105Y-140947682D01*
X144747107Y-140947684D01*
X144810037Y-140989733D01*
X144810039Y-140989734D01*
X144884273Y-141004500D01*
X145555729Y-141004501D01*
X145629961Y-140989735D01*
X145692893Y-140947685D01*
X146167684Y-140472893D01*
X146209734Y-140409961D01*
X146224500Y-140335727D01*
X146224501Y-139664322D01*
X146756000Y-139664322D01*
X146756000Y-139746000D01*
X147329297Y-139746000D01*
X147294075Y-139807007D01*
X147260000Y-139934174D01*
X147260000Y-140065826D01*
X147294075Y-140192993D01*
X147329297Y-140254000D01*
X146756000Y-140254000D01*
X146756000Y-140335678D01*
X146770736Y-140409765D01*
X146770737Y-140409767D01*
X146812703Y-140472573D01*
X146812705Y-140472575D01*
X147287423Y-140947294D01*
X147287425Y-140947296D01*
X147350231Y-140989261D01*
X147350235Y-140989263D01*
X147424322Y-141003999D01*
X147424323Y-141004000D01*
X147506000Y-141004000D01*
X147506000Y-140430702D01*
X147567007Y-140465925D01*
X147694174Y-140500000D01*
X147825826Y-140500000D01*
X147952993Y-140465925D01*
X148014000Y-140430702D01*
X148014000Y-141004000D01*
X148095678Y-141004000D01*
X148095678Y-141003999D01*
X148169765Y-140989263D01*
X148169767Y-140989262D01*
X148232573Y-140947296D01*
X148232575Y-140947294D01*
X148707294Y-140472576D01*
X148707296Y-140472574D01*
X148749261Y-140409768D01*
X148749263Y-140409764D01*
X148763999Y-140335677D01*
X148764000Y-140335677D01*
X148764000Y-140254000D01*
X148190703Y-140254000D01*
X148225925Y-140192993D01*
X148260000Y-140065826D01*
X148260000Y-139934174D01*
X148225925Y-139807007D01*
X148190703Y-139746000D01*
X148764000Y-139746000D01*
X148764000Y-139664322D01*
X148763999Y-139664321D01*
X148763989Y-139664273D01*
X149295499Y-139664273D01*
X149295499Y-140335729D01*
X149310264Y-140409960D01*
X149310265Y-140409962D01*
X149352314Y-140472892D01*
X149352316Y-140472894D01*
X149827105Y-140947682D01*
X149827107Y-140947684D01*
X149890037Y-140989733D01*
X149890039Y-140989734D01*
X149964273Y-141004500D01*
X150635729Y-141004501D01*
X150709961Y-140989735D01*
X150772893Y-140947685D01*
X151247684Y-140472893D01*
X151289734Y-140409961D01*
X151304500Y-140335727D01*
X151304501Y-139664322D01*
X151836000Y-139664322D01*
X151836000Y-139746000D01*
X152409297Y-139746000D01*
X152374075Y-139807007D01*
X152340000Y-139934174D01*
X152340000Y-140065826D01*
X152374075Y-140192993D01*
X152409297Y-140254000D01*
X151836000Y-140254000D01*
X151836000Y-140335678D01*
X151850736Y-140409765D01*
X151850737Y-140409767D01*
X151892703Y-140472573D01*
X151892705Y-140472575D01*
X152367423Y-140947294D01*
X152367425Y-140947296D01*
X152430231Y-140989261D01*
X152430235Y-140989263D01*
X152504322Y-141003999D01*
X152504323Y-141004000D01*
X152586000Y-141004000D01*
X152586000Y-140430702D01*
X152647007Y-140465925D01*
X152774174Y-140500000D01*
X152905826Y-140500000D01*
X153032993Y-140465925D01*
X153094000Y-140430702D01*
X153094000Y-141004000D01*
X153175678Y-141004000D01*
X153175678Y-141003999D01*
X153249765Y-140989263D01*
X153249767Y-140989262D01*
X153312573Y-140947296D01*
X153312575Y-140947294D01*
X153787294Y-140472576D01*
X153787296Y-140472574D01*
X153829261Y-140409768D01*
X153829263Y-140409764D01*
X153843999Y-140335677D01*
X153844000Y-140335677D01*
X153844000Y-140254000D01*
X153270703Y-140254000D01*
X153305925Y-140192993D01*
X153340000Y-140065826D01*
X153340000Y-139934174D01*
X153305925Y-139807007D01*
X153270703Y-139746000D01*
X153844000Y-139746000D01*
X153844000Y-139664322D01*
X153843999Y-139664321D01*
X153843989Y-139664273D01*
X154375499Y-139664273D01*
X154375499Y-140335729D01*
X154390264Y-140409960D01*
X154390265Y-140409962D01*
X154432314Y-140472892D01*
X154432316Y-140472894D01*
X154907105Y-140947682D01*
X154907107Y-140947684D01*
X154970037Y-140989733D01*
X154970039Y-140989734D01*
X155044273Y-141004500D01*
X155715729Y-141004501D01*
X155789961Y-140989735D01*
X155852893Y-140947685D01*
X156327684Y-140472893D01*
X156369734Y-140409961D01*
X156384500Y-140335727D01*
X156384501Y-139664273D01*
X156915499Y-139664273D01*
X156915499Y-140335729D01*
X156930264Y-140409960D01*
X156930265Y-140409962D01*
X156972314Y-140472892D01*
X156972316Y-140472894D01*
X157447105Y-140947682D01*
X157447107Y-140947684D01*
X157510037Y-140989733D01*
X157510039Y-140989734D01*
X157584273Y-141004500D01*
X158255729Y-141004501D01*
X158329961Y-140989735D01*
X158392893Y-140947685D01*
X158867684Y-140472893D01*
X158909734Y-140409961D01*
X158924500Y-140335727D01*
X158924501Y-139664273D01*
X159455499Y-139664273D01*
X159455499Y-140335729D01*
X159470264Y-140409960D01*
X159470265Y-140409962D01*
X159512314Y-140472892D01*
X159512316Y-140472894D01*
X159987105Y-140947682D01*
X159987107Y-140947684D01*
X160050037Y-140989733D01*
X160050039Y-140989734D01*
X160124273Y-141004500D01*
X160795729Y-141004501D01*
X160869961Y-140989735D01*
X160932893Y-140947685D01*
X161407684Y-140472893D01*
X161449734Y-140409961D01*
X161464500Y-140335727D01*
X161464501Y-139664273D01*
X161995499Y-139664273D01*
X161995499Y-140335729D01*
X162010264Y-140409960D01*
X162010265Y-140409962D01*
X162052314Y-140472892D01*
X162052316Y-140472894D01*
X162527105Y-140947682D01*
X162527107Y-140947684D01*
X162590037Y-140989733D01*
X162590039Y-140989734D01*
X162664273Y-141004500D01*
X163335729Y-141004501D01*
X163409961Y-140989735D01*
X163472893Y-140947685D01*
X163947684Y-140472893D01*
X163989734Y-140409961D01*
X164004500Y-140335727D01*
X164004501Y-139664271D01*
X163989735Y-139590039D01*
X163947685Y-139527107D01*
X163472893Y-139052316D01*
X163472892Y-139052315D01*
X163409962Y-139010266D01*
X163409960Y-139010265D01*
X163335727Y-138995500D01*
X163335726Y-138995499D01*
X162664270Y-138995499D01*
X162590039Y-139010264D01*
X162590037Y-139010265D01*
X162527107Y-139052314D01*
X162527105Y-139052316D01*
X162052317Y-139527105D01*
X162052315Y-139527107D01*
X162010266Y-139590037D01*
X162010265Y-139590039D01*
X161995500Y-139664272D01*
X161995499Y-139664273D01*
X161464501Y-139664273D01*
X161464501Y-139664271D01*
X161449735Y-139590039D01*
X161407685Y-139527107D01*
X160932893Y-139052316D01*
X160932892Y-139052315D01*
X160869962Y-139010266D01*
X160869960Y-139010265D01*
X160795727Y-138995500D01*
X160795726Y-138995499D01*
X160124270Y-138995499D01*
X160050039Y-139010264D01*
X160050037Y-139010265D01*
X159987107Y-139052314D01*
X159987105Y-139052316D01*
X159512317Y-139527105D01*
X159512315Y-139527107D01*
X159470266Y-139590037D01*
X159470265Y-139590039D01*
X159455500Y-139664272D01*
X159455499Y-139664273D01*
X158924501Y-139664273D01*
X158924501Y-139664271D01*
X158909735Y-139590039D01*
X158867685Y-139527107D01*
X158392893Y-139052316D01*
X158392892Y-139052315D01*
X158329962Y-139010266D01*
X158329960Y-139010265D01*
X158255727Y-138995500D01*
X158255726Y-138995499D01*
X157584270Y-138995499D01*
X157510039Y-139010264D01*
X157510037Y-139010265D01*
X157447107Y-139052314D01*
X157447105Y-139052316D01*
X156972317Y-139527105D01*
X156972315Y-139527107D01*
X156930266Y-139590037D01*
X156930265Y-139590039D01*
X156915500Y-139664272D01*
X156915499Y-139664273D01*
X156384501Y-139664273D01*
X156384501Y-139664271D01*
X156369735Y-139590039D01*
X156327685Y-139527107D01*
X155852893Y-139052316D01*
X155852892Y-139052315D01*
X155789962Y-139010266D01*
X155789960Y-139010265D01*
X155715727Y-138995500D01*
X155715726Y-138995499D01*
X155044270Y-138995499D01*
X154970039Y-139010264D01*
X154970037Y-139010265D01*
X154907107Y-139052314D01*
X154907105Y-139052316D01*
X154432317Y-139527105D01*
X154432315Y-139527107D01*
X154390266Y-139590037D01*
X154390265Y-139590039D01*
X154375500Y-139664272D01*
X154375499Y-139664273D01*
X153843989Y-139664273D01*
X153829263Y-139590234D01*
X153829262Y-139590232D01*
X153787296Y-139527426D01*
X153787294Y-139527424D01*
X153312576Y-139052705D01*
X153312574Y-139052703D01*
X153249768Y-139010738D01*
X153249764Y-139010736D01*
X153175677Y-138996000D01*
X153094000Y-138996000D01*
X153094000Y-139569297D01*
X153032993Y-139534075D01*
X152905826Y-139500000D01*
X152774174Y-139500000D01*
X152647007Y-139534075D01*
X152586000Y-139569297D01*
X152586000Y-138996000D01*
X152504322Y-138996000D01*
X152430234Y-139010736D01*
X152430232Y-139010737D01*
X152367426Y-139052703D01*
X152367424Y-139052705D01*
X151892705Y-139527423D01*
X151892703Y-139527425D01*
X151850738Y-139590231D01*
X151850736Y-139590235D01*
X151836000Y-139664322D01*
X151304501Y-139664322D01*
X151304501Y-139664271D01*
X151289735Y-139590039D01*
X151247685Y-139527107D01*
X150772893Y-139052316D01*
X150772892Y-139052315D01*
X150709962Y-139010266D01*
X150709960Y-139010265D01*
X150635727Y-138995500D01*
X150635726Y-138995499D01*
X149964270Y-138995499D01*
X149890039Y-139010264D01*
X149890037Y-139010265D01*
X149827107Y-139052314D01*
X149827105Y-139052316D01*
X149352317Y-139527105D01*
X149352315Y-139527107D01*
X149310266Y-139590037D01*
X149310265Y-139590039D01*
X149295500Y-139664272D01*
X149295499Y-139664273D01*
X148763989Y-139664273D01*
X148749263Y-139590234D01*
X148749262Y-139590232D01*
X148707296Y-139527426D01*
X148707294Y-139527424D01*
X148232576Y-139052705D01*
X148232574Y-139052703D01*
X148169768Y-139010738D01*
X148169764Y-139010736D01*
X148095677Y-138996000D01*
X148014000Y-138996000D01*
X148014000Y-139569297D01*
X147952993Y-139534075D01*
X147825826Y-139500000D01*
X147694174Y-139500000D01*
X147567007Y-139534075D01*
X147506000Y-139569297D01*
X147506000Y-138996000D01*
X147424322Y-138996000D01*
X147350234Y-139010736D01*
X147350232Y-139010737D01*
X147287426Y-139052703D01*
X147287424Y-139052705D01*
X146812705Y-139527423D01*
X146812703Y-139527425D01*
X146770738Y-139590231D01*
X146770736Y-139590235D01*
X146756000Y-139664322D01*
X146224501Y-139664322D01*
X146224501Y-139664271D01*
X146209735Y-139590039D01*
X146167685Y-139527107D01*
X145692893Y-139052316D01*
X145692892Y-139052315D01*
X145629962Y-139010266D01*
X145629960Y-139010265D01*
X145555727Y-138995500D01*
X145555726Y-138995499D01*
X144884270Y-138995499D01*
X144810039Y-139010264D01*
X144810037Y-139010265D01*
X144747107Y-139052314D01*
X144747105Y-139052316D01*
X144272317Y-139527105D01*
X144272315Y-139527107D01*
X144230266Y-139590037D01*
X144230265Y-139590039D01*
X144215500Y-139664272D01*
X144215499Y-139664273D01*
X143684501Y-139664273D01*
X143684501Y-139664271D01*
X143669735Y-139590039D01*
X143627685Y-139527107D01*
X143152893Y-139052316D01*
X143152892Y-139052315D01*
X143089962Y-139010266D01*
X143089960Y-139010265D01*
X143015727Y-138995500D01*
X143015726Y-138995499D01*
X142344270Y-138995499D01*
X142270039Y-139010264D01*
X142270037Y-139010265D01*
X142207107Y-139052314D01*
X142207105Y-139052316D01*
X141732317Y-139527105D01*
X141732315Y-139527107D01*
X141690266Y-139590037D01*
X141690265Y-139590039D01*
X141675500Y-139664272D01*
X141675499Y-139664273D01*
X141144501Y-139664273D01*
X141144501Y-139664271D01*
X141129735Y-139590039D01*
X141087685Y-139527107D01*
X140612893Y-139052316D01*
X140612892Y-139052315D01*
X140549962Y-139010266D01*
X140549960Y-139010265D01*
X140475727Y-138995500D01*
X140475726Y-138995499D01*
X139804270Y-138995499D01*
X139730039Y-139010264D01*
X139730037Y-139010265D01*
X139667107Y-139052314D01*
X139667105Y-139052316D01*
X139192317Y-139527105D01*
X139192315Y-139527107D01*
X139150266Y-139590037D01*
X139150265Y-139590039D01*
X139135500Y-139664272D01*
X139135499Y-139664273D01*
X138604501Y-139664273D01*
X138604501Y-139664271D01*
X138589735Y-139590039D01*
X138547685Y-139527107D01*
X138072893Y-139052316D01*
X138072892Y-139052315D01*
X138009962Y-139010266D01*
X138009960Y-139010265D01*
X137935727Y-138995500D01*
X137935726Y-138995499D01*
X137264270Y-138995499D01*
X137190039Y-139010264D01*
X137190037Y-139010265D01*
X137127107Y-139052314D01*
X137127105Y-139052316D01*
X136652317Y-139527105D01*
X136652315Y-139527107D01*
X136610266Y-139590037D01*
X136610265Y-139590039D01*
X136595500Y-139664272D01*
X136595499Y-139664273D01*
X136064501Y-139664273D01*
X136064501Y-139664271D01*
X136049735Y-139590039D01*
X136007685Y-139527107D01*
X135532893Y-139052316D01*
X135532892Y-139052315D01*
X135469962Y-139010266D01*
X135469960Y-139010265D01*
X135395727Y-138995500D01*
X135395726Y-138995499D01*
X134724270Y-138995499D01*
X134650039Y-139010264D01*
X134650037Y-139010265D01*
X134587107Y-139052314D01*
X134587105Y-139052316D01*
X134112317Y-139527105D01*
X134112315Y-139527107D01*
X134070266Y-139590037D01*
X134070265Y-139590039D01*
X134055500Y-139664272D01*
X134055499Y-139664273D01*
X133524501Y-139664273D01*
X133524501Y-139664271D01*
X133509735Y-139590039D01*
X133467685Y-139527107D01*
X132992893Y-139052316D01*
X132992892Y-139052315D01*
X132929962Y-139010266D01*
X132929960Y-139010265D01*
X132855727Y-138995500D01*
X132855726Y-138995499D01*
X132184270Y-138995499D01*
X132110039Y-139010264D01*
X132110037Y-139010265D01*
X132047107Y-139052314D01*
X132047105Y-139052316D01*
X131572317Y-139527105D01*
X131572315Y-139527107D01*
X131530266Y-139590037D01*
X131530265Y-139590039D01*
X131515500Y-139664272D01*
X131515499Y-139664273D01*
X130984501Y-139664273D01*
X130984501Y-139664271D01*
X130969735Y-139590039D01*
X130927685Y-139527107D01*
X130452893Y-139052316D01*
X130452892Y-139052315D01*
X130389962Y-139010266D01*
X130389960Y-139010265D01*
X130315727Y-138995500D01*
X130315726Y-138995499D01*
X129644270Y-138995499D01*
X129570039Y-139010264D01*
X129570037Y-139010265D01*
X129507107Y-139052314D01*
X129507105Y-139052316D01*
X129032317Y-139527105D01*
X129032315Y-139527107D01*
X128990266Y-139590037D01*
X128990265Y-139590039D01*
X128975500Y-139664272D01*
X128975499Y-139664273D01*
X128380121Y-139664273D01*
X129282198Y-138762196D01*
X169009069Y-138762196D01*
X169009069Y-138762203D01*
X169028319Y-138920746D01*
X169028320Y-138920750D01*
X169028320Y-138920751D01*
X169028321Y-138920754D01*
X169056858Y-138996000D01*
X169084959Y-139070097D01*
X169175685Y-139201536D01*
X169175688Y-139201539D01*
X169295239Y-139307452D01*
X169436663Y-139381677D01*
X169591741Y-139419900D01*
X169591743Y-139419900D01*
X169751457Y-139419900D01*
X169751459Y-139419900D01*
X169906537Y-139381677D01*
X170047961Y-139307452D01*
X170133020Y-139232096D01*
X171676069Y-139232096D01*
X171676069Y-139232103D01*
X171695319Y-139390646D01*
X171695320Y-139390650D01*
X171695320Y-139390651D01*
X171695321Y-139390654D01*
X171706413Y-139419900D01*
X171751959Y-139539997D01*
X171842685Y-139671436D01*
X171842688Y-139671439D01*
X171962239Y-139777352D01*
X172103663Y-139851577D01*
X172258741Y-139889800D01*
X172258743Y-139889800D01*
X172418457Y-139889800D01*
X172418459Y-139889800D01*
X172573537Y-139851577D01*
X172714961Y-139777352D01*
X172834512Y-139671439D01*
X172925242Y-139539994D01*
X172981879Y-139390654D01*
X173001131Y-139232100D01*
X172997420Y-139201540D01*
X172981880Y-139073553D01*
X172981879Y-139073549D01*
X172981879Y-139073546D01*
X172925242Y-138924206D01*
X172925240Y-138924204D01*
X172925240Y-138924202D01*
X172834514Y-138792763D01*
X172834510Y-138792759D01*
X172714960Y-138686847D01*
X172573538Y-138612623D01*
X172418461Y-138574400D01*
X172418459Y-138574400D01*
X172258741Y-138574400D01*
X172258738Y-138574400D01*
X172103661Y-138612623D01*
X171962239Y-138686847D01*
X171842689Y-138792759D01*
X171842685Y-138792763D01*
X171751959Y-138924202D01*
X171695320Y-139073549D01*
X171695319Y-139073553D01*
X171676069Y-139232096D01*
X170133020Y-139232096D01*
X170167512Y-139201539D01*
X170258242Y-139070094D01*
X170314879Y-138920754D01*
X170330420Y-138792763D01*
X170334131Y-138762203D01*
X170334131Y-138762196D01*
X170314880Y-138603653D01*
X170314879Y-138603649D01*
X170314879Y-138603646D01*
X170258242Y-138454306D01*
X170258240Y-138454304D01*
X170258240Y-138454302D01*
X170167514Y-138322863D01*
X170167510Y-138322859D01*
X170047960Y-138216947D01*
X169906538Y-138142723D01*
X169751461Y-138104500D01*
X169751459Y-138104500D01*
X169591741Y-138104500D01*
X169591738Y-138104500D01*
X169436661Y-138142723D01*
X169295239Y-138216947D01*
X169175689Y-138322859D01*
X169175685Y-138322863D01*
X169084959Y-138454302D01*
X169028320Y-138603649D01*
X169028319Y-138603653D01*
X169009069Y-138762196D01*
X129282198Y-138762196D01*
X129716716Y-138327678D01*
X129722836Y-138322310D01*
X129818291Y-138249064D01*
X129832411Y-138240912D01*
X129939739Y-138196455D01*
X129955491Y-138192236D01*
X130074751Y-138176534D01*
X130082909Y-138176000D01*
X163947968Y-138176000D01*
X163947974Y-138176000D01*
X164158394Y-138176000D01*
X164846000Y-137488394D01*
X164846000Y-135543909D01*
X164846535Y-135535751D01*
X164855428Y-135468200D01*
X164862236Y-135416491D01*
X164866455Y-135400739D01*
X164910912Y-135293411D01*
X164919064Y-135279291D01*
X164992310Y-135183836D01*
X164997678Y-135177716D01*
X165748775Y-134426619D01*
X165792968Y-134408314D01*
X165837162Y-134426620D01*
X165855468Y-134470814D01*
X165848310Y-134499857D01*
X165846870Y-134502599D01*
X165790230Y-134651949D01*
X165790229Y-134651953D01*
X165770979Y-134810496D01*
X165770979Y-134810503D01*
X165790229Y-134969046D01*
X165790230Y-134969050D01*
X165790230Y-134969051D01*
X165790231Y-134969054D01*
X165829670Y-135073046D01*
X165846869Y-135118397D01*
X165937595Y-135249836D01*
X165937599Y-135249840D01*
X166057149Y-135355752D01*
X166172877Y-135416491D01*
X166198573Y-135429977D01*
X166353651Y-135468200D01*
X166353653Y-135468200D01*
X166513367Y-135468200D01*
X166513369Y-135468200D01*
X166668447Y-135429977D01*
X166809871Y-135355752D01*
X166929422Y-135249839D01*
X167020152Y-135118394D01*
X167076789Y-134969054D01*
X167096041Y-134810500D01*
X167093826Y-134792261D01*
X167076790Y-134651953D01*
X167076789Y-134651949D01*
X167076789Y-134651946D01*
X167020152Y-134502606D01*
X167020150Y-134502604D01*
X167020150Y-134502602D01*
X166929424Y-134371163D01*
X166929420Y-134371159D01*
X166809870Y-134265247D01*
X166668448Y-134191023D01*
X166513371Y-134152800D01*
X166513369Y-134152800D01*
X166353651Y-134152800D01*
X166353648Y-134152800D01*
X166198570Y-134191023D01*
X166111388Y-134236780D01*
X166063749Y-134241109D01*
X166027002Y-134210484D01*
X166022673Y-134162845D01*
X166038147Y-134137247D01*
X167245216Y-132930178D01*
X167251336Y-132924810D01*
X167346791Y-132851564D01*
X167360911Y-132843412D01*
X167468239Y-132798955D01*
X167483991Y-132794736D01*
X167603251Y-132779034D01*
X167611409Y-132778500D01*
X170231702Y-132778500D01*
X170239860Y-132779035D01*
G37*
%TD.AperFunction*%
%TD*%
M02*
