%TF.GenerationSoftware,KiCad,Pcbnew,8.0.7-8.0.7-0~ubuntu22.04.1*%
%TF.CreationDate,2024-12-15T22:19:19+01:00*%
%TF.ProjectId,EEZ DIB 1.2 template,45455a20-4449-4422-9031-2e322074656d,rev?*%
%TF.SameCoordinates,Original*%
%TF.FileFunction,Legend,Top*%
%TF.FilePolarity,Positive*%
%FSLAX46Y46*%
G04 Gerber Fmt 4.6, Leading zero omitted, Abs format (unit mm)*
G04 Created by KiCad (PCBNEW 8.0.7-8.0.7-0~ubuntu22.04.1) date 2024-12-15 22:19:19*
%MOMM*%
%LPD*%
G01*
G04 APERTURE LIST*
%ADD10C,0.152400*%
%ADD11C,0.114300*%
%ADD12C,0.203200*%
%ADD13C,0.120000*%
%ADD14C,0.000000*%
%ADD15C,0.127000*%
G04 APERTURE END LIST*
D10*
X150279782Y-58844375D02*
X150666829Y-58844375D01*
X150202372Y-59076603D02*
X150473305Y-58263803D01*
X150473305Y-58263803D02*
X150744239Y-59076603D01*
X151015172Y-59076603D02*
X151015172Y-58263803D01*
X151015172Y-58263803D02*
X151208696Y-58263803D01*
X151208696Y-58263803D02*
X151324810Y-58302508D01*
X151324810Y-58302508D02*
X151402220Y-58379918D01*
X151402220Y-58379918D02*
X151440925Y-58457327D01*
X151440925Y-58457327D02*
X151479629Y-58612146D01*
X151479629Y-58612146D02*
X151479629Y-58728260D01*
X151479629Y-58728260D02*
X151440925Y-58883079D01*
X151440925Y-58883079D02*
X151402220Y-58960489D01*
X151402220Y-58960489D02*
X151324810Y-59037899D01*
X151324810Y-59037899D02*
X151208696Y-59076603D01*
X151208696Y-59076603D02*
X151015172Y-59076603D01*
X151827972Y-59076603D02*
X151827972Y-58263803D01*
X152485954Y-58650851D02*
X152602068Y-58689556D01*
X152602068Y-58689556D02*
X152640773Y-58728260D01*
X152640773Y-58728260D02*
X152679477Y-58805670D01*
X152679477Y-58805670D02*
X152679477Y-58921784D01*
X152679477Y-58921784D02*
X152640773Y-58999194D01*
X152640773Y-58999194D02*
X152602068Y-59037899D01*
X152602068Y-59037899D02*
X152524658Y-59076603D01*
X152524658Y-59076603D02*
X152215020Y-59076603D01*
X152215020Y-59076603D02*
X152215020Y-58263803D01*
X152215020Y-58263803D02*
X152485954Y-58263803D01*
X152485954Y-58263803D02*
X152563363Y-58302508D01*
X152563363Y-58302508D02*
X152602068Y-58341213D01*
X152602068Y-58341213D02*
X152640773Y-58418622D01*
X152640773Y-58418622D02*
X152640773Y-58496032D01*
X152640773Y-58496032D02*
X152602068Y-58573441D01*
X152602068Y-58573441D02*
X152563363Y-58612146D01*
X152563363Y-58612146D02*
X152485954Y-58650851D01*
X152485954Y-58650851D02*
X152215020Y-58650851D01*
X152989116Y-58534737D02*
X153569687Y-58534737D01*
X153221344Y-58186394D02*
X152989116Y-59231422D01*
X153492277Y-58883079D02*
X152911706Y-58883079D01*
X153260049Y-59231422D02*
X153492277Y-58186394D01*
X153801916Y-58341213D02*
X153840620Y-58302508D01*
X153840620Y-58302508D02*
X153918030Y-58263803D01*
X153918030Y-58263803D02*
X154111554Y-58263803D01*
X154111554Y-58263803D02*
X154188963Y-58302508D01*
X154188963Y-58302508D02*
X154227668Y-58341213D01*
X154227668Y-58341213D02*
X154266373Y-58418622D01*
X154266373Y-58418622D02*
X154266373Y-58496032D01*
X154266373Y-58496032D02*
X154227668Y-58612146D01*
X154227668Y-58612146D02*
X153763211Y-59076603D01*
X153763211Y-59076603D02*
X154266373Y-59076603D01*
X107290282Y-58895175D02*
X107677329Y-58895175D01*
X107212872Y-59127403D02*
X107483805Y-58314603D01*
X107483805Y-58314603D02*
X107754739Y-59127403D01*
X108025672Y-59127403D02*
X108025672Y-58314603D01*
X108025672Y-58314603D02*
X108219196Y-58314603D01*
X108219196Y-58314603D02*
X108335310Y-58353308D01*
X108335310Y-58353308D02*
X108412720Y-58430718D01*
X108412720Y-58430718D02*
X108451425Y-58508127D01*
X108451425Y-58508127D02*
X108490129Y-58662946D01*
X108490129Y-58662946D02*
X108490129Y-58779060D01*
X108490129Y-58779060D02*
X108451425Y-58933879D01*
X108451425Y-58933879D02*
X108412720Y-59011289D01*
X108412720Y-59011289D02*
X108335310Y-59088699D01*
X108335310Y-59088699D02*
X108219196Y-59127403D01*
X108219196Y-59127403D02*
X108025672Y-59127403D01*
X108838472Y-59127403D02*
X108838472Y-58314603D01*
X109496454Y-58701651D02*
X109612568Y-58740356D01*
X109612568Y-58740356D02*
X109651273Y-58779060D01*
X109651273Y-58779060D02*
X109689977Y-58856470D01*
X109689977Y-58856470D02*
X109689977Y-58972584D01*
X109689977Y-58972584D02*
X109651273Y-59049994D01*
X109651273Y-59049994D02*
X109612568Y-59088699D01*
X109612568Y-59088699D02*
X109535158Y-59127403D01*
X109535158Y-59127403D02*
X109225520Y-59127403D01*
X109225520Y-59127403D02*
X109225520Y-58314603D01*
X109225520Y-58314603D02*
X109496454Y-58314603D01*
X109496454Y-58314603D02*
X109573863Y-58353308D01*
X109573863Y-58353308D02*
X109612568Y-58392013D01*
X109612568Y-58392013D02*
X109651273Y-58469422D01*
X109651273Y-58469422D02*
X109651273Y-58546832D01*
X109651273Y-58546832D02*
X109612568Y-58624241D01*
X109612568Y-58624241D02*
X109573863Y-58662946D01*
X109573863Y-58662946D02*
X109496454Y-58701651D01*
X109496454Y-58701651D02*
X109225520Y-58701651D01*
X109999616Y-58585537D02*
X110580187Y-58585537D01*
X110231844Y-58237194D02*
X109999616Y-59282222D01*
X110502777Y-58933879D02*
X109922206Y-58933879D01*
X110270549Y-59282222D02*
X110502777Y-58237194D01*
X111276873Y-59127403D02*
X110812416Y-59127403D01*
X111044644Y-59127403D02*
X111044644Y-58314603D01*
X111044644Y-58314603D02*
X110967235Y-58430718D01*
X110967235Y-58430718D02*
X110889825Y-58508127D01*
X110889825Y-58508127D02*
X110812416Y-58546832D01*
X205673953Y-146425735D02*
X205673953Y-147151450D01*
X205673953Y-147151450D02*
X205625572Y-147296593D01*
X205625572Y-147296593D02*
X205528810Y-147393355D01*
X205528810Y-147393355D02*
X205383667Y-147441735D01*
X205383667Y-147441735D02*
X205286905Y-147441735D01*
X206689953Y-147441735D02*
X206109381Y-147441735D01*
X206399667Y-147441735D02*
X206399667Y-146425735D01*
X206399667Y-146425735D02*
X206302905Y-146570878D01*
X206302905Y-146570878D02*
X206206143Y-146667640D01*
X206206143Y-146667640D02*
X206109381Y-146716021D01*
X172838533Y-138657182D02*
X172799829Y-138695887D01*
X172799829Y-138695887D02*
X172683714Y-138734591D01*
X172683714Y-138734591D02*
X172606305Y-138734591D01*
X172606305Y-138734591D02*
X172490191Y-138695887D01*
X172490191Y-138695887D02*
X172412781Y-138618477D01*
X172412781Y-138618477D02*
X172374076Y-138541067D01*
X172374076Y-138541067D02*
X172335372Y-138386248D01*
X172335372Y-138386248D02*
X172335372Y-138270134D01*
X172335372Y-138270134D02*
X172374076Y-138115315D01*
X172374076Y-138115315D02*
X172412781Y-138037906D01*
X172412781Y-138037906D02*
X172490191Y-137960496D01*
X172490191Y-137960496D02*
X172606305Y-137921791D01*
X172606305Y-137921791D02*
X172683714Y-137921791D01*
X172683714Y-137921791D02*
X172799829Y-137960496D01*
X172799829Y-137960496D02*
X172838533Y-137999201D01*
X173109467Y-137921791D02*
X173612629Y-137921791D01*
X173612629Y-137921791D02*
X173341695Y-138231429D01*
X173341695Y-138231429D02*
X173457810Y-138231429D01*
X173457810Y-138231429D02*
X173535219Y-138270134D01*
X173535219Y-138270134D02*
X173573924Y-138308839D01*
X173573924Y-138308839D02*
X173612629Y-138386248D01*
X173612629Y-138386248D02*
X173612629Y-138579772D01*
X173612629Y-138579772D02*
X173573924Y-138657182D01*
X173573924Y-138657182D02*
X173535219Y-138695887D01*
X173535219Y-138695887D02*
X173457810Y-138734591D01*
X173457810Y-138734591D02*
X173225581Y-138734591D01*
X173225581Y-138734591D02*
X173148172Y-138695887D01*
X173148172Y-138695887D02*
X173109467Y-138657182D01*
X131597877Y-63341803D02*
X132139743Y-64154603D01*
X132139743Y-63341803D02*
X131597877Y-64154603D01*
X132797724Y-63612737D02*
X132797724Y-64154603D01*
X132604200Y-63303099D02*
X132410677Y-63883670D01*
X132410677Y-63883670D02*
X132913838Y-63883670D01*
X111595377Y-63341803D02*
X112137243Y-64154603D01*
X112137243Y-63341803D02*
X111595377Y-64154603D01*
X112369472Y-63341803D02*
X112872634Y-63341803D01*
X112872634Y-63341803D02*
X112601700Y-63651441D01*
X112601700Y-63651441D02*
X112717815Y-63651441D01*
X112717815Y-63651441D02*
X112795224Y-63690146D01*
X112795224Y-63690146D02*
X112833929Y-63728851D01*
X112833929Y-63728851D02*
X112872634Y-63806260D01*
X112872634Y-63806260D02*
X112872634Y-63999784D01*
X112872634Y-63999784D02*
X112833929Y-64077194D01*
X112833929Y-64077194D02*
X112795224Y-64115899D01*
X112795224Y-64115899D02*
X112717815Y-64154603D01*
X112717815Y-64154603D02*
X112485586Y-64154603D01*
X112485586Y-64154603D02*
X112408177Y-64115899D01*
X112408177Y-64115899D02*
X112369472Y-64077194D01*
X129590405Y-137835735D02*
X130267739Y-138851735D01*
X130267739Y-137835735D02*
X129590405Y-138851735D01*
X130606405Y-137932497D02*
X130654786Y-137884116D01*
X130654786Y-137884116D02*
X130751548Y-137835735D01*
X130751548Y-137835735D02*
X130993453Y-137835735D01*
X130993453Y-137835735D02*
X131090215Y-137884116D01*
X131090215Y-137884116D02*
X131138596Y-137932497D01*
X131138596Y-137932497D02*
X131186977Y-138029259D01*
X131186977Y-138029259D02*
X131186977Y-138126021D01*
X131186977Y-138126021D02*
X131138596Y-138271164D01*
X131138596Y-138271164D02*
X130558024Y-138851735D01*
X130558024Y-138851735D02*
X131186977Y-138851735D01*
X174553033Y-129957682D02*
X174514329Y-129996387D01*
X174514329Y-129996387D02*
X174398214Y-130035091D01*
X174398214Y-130035091D02*
X174320805Y-130035091D01*
X174320805Y-130035091D02*
X174204691Y-129996387D01*
X174204691Y-129996387D02*
X174127281Y-129918977D01*
X174127281Y-129918977D02*
X174088576Y-129841567D01*
X174088576Y-129841567D02*
X174049872Y-129686748D01*
X174049872Y-129686748D02*
X174049872Y-129570634D01*
X174049872Y-129570634D02*
X174088576Y-129415815D01*
X174088576Y-129415815D02*
X174127281Y-129338406D01*
X174127281Y-129338406D02*
X174204691Y-129260996D01*
X174204691Y-129260996D02*
X174320805Y-129222291D01*
X174320805Y-129222291D02*
X174398214Y-129222291D01*
X174398214Y-129222291D02*
X174514329Y-129260996D01*
X174514329Y-129260996D02*
X174553033Y-129299701D01*
X175288424Y-129222291D02*
X174901376Y-129222291D01*
X174901376Y-129222291D02*
X174862672Y-129609339D01*
X174862672Y-129609339D02*
X174901376Y-129570634D01*
X174901376Y-129570634D02*
X174978786Y-129531929D01*
X174978786Y-129531929D02*
X175172310Y-129531929D01*
X175172310Y-129531929D02*
X175249719Y-129570634D01*
X175249719Y-129570634D02*
X175288424Y-129609339D01*
X175288424Y-129609339D02*
X175327129Y-129686748D01*
X175327129Y-129686748D02*
X175327129Y-129880272D01*
X175327129Y-129880272D02*
X175288424Y-129957682D01*
X175288424Y-129957682D02*
X175249719Y-129996387D01*
X175249719Y-129996387D02*
X175172310Y-130035091D01*
X175172310Y-130035091D02*
X174978786Y-130035091D01*
X174978786Y-130035091D02*
X174901376Y-129996387D01*
X174901376Y-129996387D02*
X174862672Y-129957682D01*
X171314533Y-139990682D02*
X171275829Y-140029387D01*
X171275829Y-140029387D02*
X171159714Y-140068091D01*
X171159714Y-140068091D02*
X171082305Y-140068091D01*
X171082305Y-140068091D02*
X170966191Y-140029387D01*
X170966191Y-140029387D02*
X170888781Y-139951977D01*
X170888781Y-139951977D02*
X170850076Y-139874567D01*
X170850076Y-139874567D02*
X170811372Y-139719748D01*
X170811372Y-139719748D02*
X170811372Y-139603634D01*
X170811372Y-139603634D02*
X170850076Y-139448815D01*
X170850076Y-139448815D02*
X170888781Y-139371406D01*
X170888781Y-139371406D02*
X170966191Y-139293996D01*
X170966191Y-139293996D02*
X171082305Y-139255291D01*
X171082305Y-139255291D02*
X171159714Y-139255291D01*
X171159714Y-139255291D02*
X171275829Y-139293996D01*
X171275829Y-139293996D02*
X171314533Y-139332701D01*
X172088629Y-140068091D02*
X171624172Y-140068091D01*
X171856400Y-140068091D02*
X171856400Y-139255291D01*
X171856400Y-139255291D02*
X171778991Y-139371406D01*
X171778991Y-139371406D02*
X171701581Y-139448815D01*
X171701581Y-139448815D02*
X171624172Y-139487520D01*
X165520786Y-144545603D02*
X165520786Y-143732803D01*
X166372291Y-144468194D02*
X166333587Y-144506899D01*
X166333587Y-144506899D02*
X166217472Y-144545603D01*
X166217472Y-144545603D02*
X166140063Y-144545603D01*
X166140063Y-144545603D02*
X166023949Y-144506899D01*
X166023949Y-144506899D02*
X165946539Y-144429489D01*
X165946539Y-144429489D02*
X165907834Y-144352079D01*
X165907834Y-144352079D02*
X165869130Y-144197260D01*
X165869130Y-144197260D02*
X165869130Y-144081146D01*
X165869130Y-144081146D02*
X165907834Y-143926327D01*
X165907834Y-143926327D02*
X165946539Y-143848918D01*
X165946539Y-143848918D02*
X166023949Y-143771508D01*
X166023949Y-143771508D02*
X166140063Y-143732803D01*
X166140063Y-143732803D02*
X166217472Y-143732803D01*
X166217472Y-143732803D02*
X166333587Y-143771508D01*
X166333587Y-143771508D02*
X166372291Y-143810213D01*
X167146387Y-144545603D02*
X166681930Y-144545603D01*
X166914158Y-144545603D02*
X166914158Y-143732803D01*
X166914158Y-143732803D02*
X166836749Y-143848918D01*
X166836749Y-143848918D02*
X166759339Y-143926327D01*
X166759339Y-143926327D02*
X166681930Y-143965032D01*
X188781743Y-144736103D02*
X188510810Y-144349056D01*
X188317286Y-144736103D02*
X188317286Y-143923303D01*
X188317286Y-143923303D02*
X188626924Y-143923303D01*
X188626924Y-143923303D02*
X188704334Y-143962008D01*
X188704334Y-143962008D02*
X188743039Y-144000713D01*
X188743039Y-144000713D02*
X188781743Y-144078122D01*
X188781743Y-144078122D02*
X188781743Y-144194237D01*
X188781743Y-144194237D02*
X188743039Y-144271646D01*
X188743039Y-144271646D02*
X188704334Y-144310351D01*
X188704334Y-144310351D02*
X188626924Y-144349056D01*
X188626924Y-144349056D02*
X188317286Y-144349056D01*
X189130086Y-144736103D02*
X189130086Y-143923303D01*
X189130086Y-143923303D02*
X189594543Y-144736103D01*
X189594543Y-144736103D02*
X189594543Y-143923303D01*
X190407344Y-144736103D02*
X189942887Y-144736103D01*
X190175115Y-144736103D02*
X190175115Y-143923303D01*
X190175115Y-143923303D02*
X190097706Y-144039418D01*
X190097706Y-144039418D02*
X190020296Y-144116827D01*
X190020296Y-144116827D02*
X189942887Y-144155532D01*
X176871818Y-141954803D02*
X176871818Y-142535375D01*
X176871818Y-142535375D02*
X176833113Y-142651489D01*
X176833113Y-142651489D02*
X176755704Y-142728899D01*
X176755704Y-142728899D02*
X176639589Y-142767603D01*
X176639589Y-142767603D02*
X176562180Y-142767603D01*
X177258865Y-142767603D02*
X177258865Y-141954803D01*
X177258865Y-141954803D02*
X177568503Y-141954803D01*
X177568503Y-141954803D02*
X177645913Y-141993508D01*
X177645913Y-141993508D02*
X177684618Y-142032213D01*
X177684618Y-142032213D02*
X177723322Y-142109622D01*
X177723322Y-142109622D02*
X177723322Y-142225737D01*
X177723322Y-142225737D02*
X177684618Y-142303146D01*
X177684618Y-142303146D02*
X177645913Y-142341851D01*
X177645913Y-142341851D02*
X177568503Y-142380556D01*
X177568503Y-142380556D02*
X177258865Y-142380556D01*
X178497418Y-142767603D02*
X178032961Y-142767603D01*
X178265189Y-142767603D02*
X178265189Y-141954803D01*
X178265189Y-141954803D02*
X178187780Y-142070918D01*
X178187780Y-142070918D02*
X178110370Y-142148327D01*
X178110370Y-142148327D02*
X178032961Y-142187032D01*
X189135052Y-133083091D02*
X189135052Y-132270291D01*
X189986557Y-133005682D02*
X189947853Y-133044387D01*
X189947853Y-133044387D02*
X189831738Y-133083091D01*
X189831738Y-133083091D02*
X189754329Y-133083091D01*
X189754329Y-133083091D02*
X189638215Y-133044387D01*
X189638215Y-133044387D02*
X189560805Y-132966977D01*
X189560805Y-132966977D02*
X189522100Y-132889567D01*
X189522100Y-132889567D02*
X189483396Y-132734748D01*
X189483396Y-132734748D02*
X189483396Y-132618634D01*
X189483396Y-132618634D02*
X189522100Y-132463815D01*
X189522100Y-132463815D02*
X189560805Y-132386406D01*
X189560805Y-132386406D02*
X189638215Y-132308996D01*
X189638215Y-132308996D02*
X189754329Y-132270291D01*
X189754329Y-132270291D02*
X189831738Y-132270291D01*
X189831738Y-132270291D02*
X189947853Y-132308996D01*
X189947853Y-132308996D02*
X189986557Y-132347701D01*
X190296196Y-132347701D02*
X190334900Y-132308996D01*
X190334900Y-132308996D02*
X190412310Y-132270291D01*
X190412310Y-132270291D02*
X190605834Y-132270291D01*
X190605834Y-132270291D02*
X190683243Y-132308996D01*
X190683243Y-132308996D02*
X190721948Y-132347701D01*
X190721948Y-132347701D02*
X190760653Y-132425110D01*
X190760653Y-132425110D02*
X190760653Y-132502520D01*
X190760653Y-132502520D02*
X190721948Y-132618634D01*
X190721948Y-132618634D02*
X190257491Y-133083091D01*
X190257491Y-133083091D02*
X190760653Y-133083091D01*
X214939033Y-144195591D02*
X214668100Y-143808544D01*
X214474576Y-144195591D02*
X214474576Y-143382791D01*
X214474576Y-143382791D02*
X214784214Y-143382791D01*
X214784214Y-143382791D02*
X214861624Y-143421496D01*
X214861624Y-143421496D02*
X214900329Y-143460201D01*
X214900329Y-143460201D02*
X214939033Y-143537610D01*
X214939033Y-143537610D02*
X214939033Y-143653725D01*
X214939033Y-143653725D02*
X214900329Y-143731134D01*
X214900329Y-143731134D02*
X214861624Y-143769839D01*
X214861624Y-143769839D02*
X214784214Y-143808544D01*
X214784214Y-143808544D02*
X214474576Y-143808544D01*
X215713129Y-144195591D02*
X215248672Y-144195591D01*
X215480900Y-144195591D02*
X215480900Y-143382791D01*
X215480900Y-143382791D02*
X215403491Y-143498906D01*
X215403491Y-143498906D02*
X215326081Y-143576315D01*
X215326081Y-143576315D02*
X215248672Y-143615020D01*
X206874533Y-144195591D02*
X206603600Y-143808544D01*
X206410076Y-144195591D02*
X206410076Y-143382791D01*
X206410076Y-143382791D02*
X206719714Y-143382791D01*
X206719714Y-143382791D02*
X206797124Y-143421496D01*
X206797124Y-143421496D02*
X206835829Y-143460201D01*
X206835829Y-143460201D02*
X206874533Y-143537610D01*
X206874533Y-143537610D02*
X206874533Y-143653725D01*
X206874533Y-143653725D02*
X206835829Y-143731134D01*
X206835829Y-143731134D02*
X206797124Y-143769839D01*
X206797124Y-143769839D02*
X206719714Y-143808544D01*
X206719714Y-143808544D02*
X206410076Y-143808544D01*
X207184172Y-143460201D02*
X207222876Y-143421496D01*
X207222876Y-143421496D02*
X207300286Y-143382791D01*
X207300286Y-143382791D02*
X207493810Y-143382791D01*
X207493810Y-143382791D02*
X207571219Y-143421496D01*
X207571219Y-143421496D02*
X207609924Y-143460201D01*
X207609924Y-143460201D02*
X207648629Y-143537610D01*
X207648629Y-143537610D02*
X207648629Y-143615020D01*
X207648629Y-143615020D02*
X207609924Y-143731134D01*
X207609924Y-143731134D02*
X207145467Y-144195591D01*
X207145467Y-144195591D02*
X207648629Y-144195591D01*
X178530552Y-133083091D02*
X178530552Y-132270291D01*
X179382057Y-133005682D02*
X179343353Y-133044387D01*
X179343353Y-133044387D02*
X179227238Y-133083091D01*
X179227238Y-133083091D02*
X179149829Y-133083091D01*
X179149829Y-133083091D02*
X179033715Y-133044387D01*
X179033715Y-133044387D02*
X178956305Y-132966977D01*
X178956305Y-132966977D02*
X178917600Y-132889567D01*
X178917600Y-132889567D02*
X178878896Y-132734748D01*
X178878896Y-132734748D02*
X178878896Y-132618634D01*
X178878896Y-132618634D02*
X178917600Y-132463815D01*
X178917600Y-132463815D02*
X178956305Y-132386406D01*
X178956305Y-132386406D02*
X179033715Y-132308996D01*
X179033715Y-132308996D02*
X179149829Y-132270291D01*
X179149829Y-132270291D02*
X179227238Y-132270291D01*
X179227238Y-132270291D02*
X179343353Y-132308996D01*
X179343353Y-132308996D02*
X179382057Y-132347701D01*
X179652991Y-132270291D02*
X180156153Y-132270291D01*
X180156153Y-132270291D02*
X179885219Y-132579929D01*
X179885219Y-132579929D02*
X180001334Y-132579929D01*
X180001334Y-132579929D02*
X180078743Y-132618634D01*
X180078743Y-132618634D02*
X180117448Y-132657339D01*
X180117448Y-132657339D02*
X180156153Y-132734748D01*
X180156153Y-132734748D02*
X180156153Y-132928272D01*
X180156153Y-132928272D02*
X180117448Y-133005682D01*
X180117448Y-133005682D02*
X180078743Y-133044387D01*
X180078743Y-133044387D02*
X180001334Y-133083091D01*
X180001334Y-133083091D02*
X179769105Y-133083091D01*
X179769105Y-133083091D02*
X179691696Y-133044387D01*
X179691696Y-133044387D02*
X179652991Y-133005682D01*
X212756533Y-141959182D02*
X212717829Y-141997887D01*
X212717829Y-141997887D02*
X212601714Y-142036591D01*
X212601714Y-142036591D02*
X212524305Y-142036591D01*
X212524305Y-142036591D02*
X212408191Y-141997887D01*
X212408191Y-141997887D02*
X212330781Y-141920477D01*
X212330781Y-141920477D02*
X212292076Y-141843067D01*
X212292076Y-141843067D02*
X212253372Y-141688248D01*
X212253372Y-141688248D02*
X212253372Y-141572134D01*
X212253372Y-141572134D02*
X212292076Y-141417315D01*
X212292076Y-141417315D02*
X212330781Y-141339906D01*
X212330781Y-141339906D02*
X212408191Y-141262496D01*
X212408191Y-141262496D02*
X212524305Y-141223791D01*
X212524305Y-141223791D02*
X212601714Y-141223791D01*
X212601714Y-141223791D02*
X212717829Y-141262496D01*
X212717829Y-141262496D02*
X212756533Y-141301201D01*
X213453219Y-141494725D02*
X213453219Y-142036591D01*
X213259695Y-141185087D02*
X213066172Y-141765658D01*
X213066172Y-141765658D02*
X213569333Y-141765658D01*
X185348033Y-144372182D02*
X185309329Y-144410887D01*
X185309329Y-144410887D02*
X185193214Y-144449591D01*
X185193214Y-144449591D02*
X185115805Y-144449591D01*
X185115805Y-144449591D02*
X184999691Y-144410887D01*
X184999691Y-144410887D02*
X184922281Y-144333477D01*
X184922281Y-144333477D02*
X184883576Y-144256067D01*
X184883576Y-144256067D02*
X184844872Y-144101248D01*
X184844872Y-144101248D02*
X184844872Y-143985134D01*
X184844872Y-143985134D02*
X184883576Y-143830315D01*
X184883576Y-143830315D02*
X184922281Y-143752906D01*
X184922281Y-143752906D02*
X184999691Y-143675496D01*
X184999691Y-143675496D02*
X185115805Y-143636791D01*
X185115805Y-143636791D02*
X185193214Y-143636791D01*
X185193214Y-143636791D02*
X185309329Y-143675496D01*
X185309329Y-143675496D02*
X185348033Y-143714201D01*
X185657672Y-143714201D02*
X185696376Y-143675496D01*
X185696376Y-143675496D02*
X185773786Y-143636791D01*
X185773786Y-143636791D02*
X185967310Y-143636791D01*
X185967310Y-143636791D02*
X186044719Y-143675496D01*
X186044719Y-143675496D02*
X186083424Y-143714201D01*
X186083424Y-143714201D02*
X186122129Y-143791610D01*
X186122129Y-143791610D02*
X186122129Y-143869020D01*
X186122129Y-143869020D02*
X186083424Y-143985134D01*
X186083424Y-143985134D02*
X185618967Y-144449591D01*
X185618967Y-144449591D02*
X186122129Y-144449591D01*
X171255743Y-135274603D02*
X170984810Y-134887556D01*
X170791286Y-135274603D02*
X170791286Y-134461803D01*
X170791286Y-134461803D02*
X171100924Y-134461803D01*
X171100924Y-134461803D02*
X171178334Y-134500508D01*
X171178334Y-134500508D02*
X171217039Y-134539213D01*
X171217039Y-134539213D02*
X171255743Y-134616622D01*
X171255743Y-134616622D02*
X171255743Y-134732737D01*
X171255743Y-134732737D02*
X171217039Y-134810146D01*
X171217039Y-134810146D02*
X171178334Y-134848851D01*
X171178334Y-134848851D02*
X171100924Y-134887556D01*
X171100924Y-134887556D02*
X170791286Y-134887556D01*
X171604086Y-135274603D02*
X171604086Y-134461803D01*
X171604086Y-134461803D02*
X172068543Y-135274603D01*
X172068543Y-135274603D02*
X172068543Y-134461803D01*
X172416887Y-134539213D02*
X172455591Y-134500508D01*
X172455591Y-134500508D02*
X172533001Y-134461803D01*
X172533001Y-134461803D02*
X172726525Y-134461803D01*
X172726525Y-134461803D02*
X172803934Y-134500508D01*
X172803934Y-134500508D02*
X172842639Y-134539213D01*
X172842639Y-134539213D02*
X172881344Y-134616622D01*
X172881344Y-134616622D02*
X172881344Y-134694032D01*
X172881344Y-134694032D02*
X172842639Y-134810146D01*
X172842639Y-134810146D02*
X172378182Y-135274603D01*
X172378182Y-135274603D02*
X172881344Y-135274603D01*
X92265641Y-137817955D02*
X92942975Y-138833955D01*
X92942975Y-137817955D02*
X92265641Y-138833955D01*
X93862213Y-138833955D02*
X93281641Y-138833955D01*
X93571927Y-138833955D02*
X93571927Y-137817955D01*
X93571927Y-137817955D02*
X93475165Y-137963098D01*
X93475165Y-137963098D02*
X93378403Y-138059860D01*
X93378403Y-138059860D02*
X93281641Y-138108241D01*
D11*
X91087231Y-139506013D02*
X91136217Y-139457027D01*
X91136217Y-139457027D02*
X91234189Y-139408041D01*
X91234189Y-139408041D02*
X91479117Y-139408041D01*
X91479117Y-139408041D02*
X91577089Y-139457027D01*
X91577089Y-139457027D02*
X91626074Y-139506013D01*
X91626074Y-139506013D02*
X91675060Y-139603984D01*
X91675060Y-139603984D02*
X91675060Y-139701956D01*
X91675060Y-139701956D02*
X91626074Y-139848913D01*
X91626074Y-139848913D02*
X91038246Y-140436741D01*
X91038246Y-140436741D02*
X91675060Y-140436741D01*
X91675060Y-142976741D02*
X91087231Y-142976741D01*
X91381146Y-142976741D02*
X91381146Y-141948041D01*
X91381146Y-141948041D02*
X91283174Y-142094998D01*
X91283174Y-142094998D02*
X91185203Y-142192970D01*
X91185203Y-142192970D02*
X91087231Y-142241956D01*
D10*
X185348033Y-129957682D02*
X185309329Y-129996387D01*
X185309329Y-129996387D02*
X185193214Y-130035091D01*
X185193214Y-130035091D02*
X185115805Y-130035091D01*
X185115805Y-130035091D02*
X184999691Y-129996387D01*
X184999691Y-129996387D02*
X184922281Y-129918977D01*
X184922281Y-129918977D02*
X184883576Y-129841567D01*
X184883576Y-129841567D02*
X184844872Y-129686748D01*
X184844872Y-129686748D02*
X184844872Y-129570634D01*
X184844872Y-129570634D02*
X184883576Y-129415815D01*
X184883576Y-129415815D02*
X184922281Y-129338406D01*
X184922281Y-129338406D02*
X184999691Y-129260996D01*
X184999691Y-129260996D02*
X185115805Y-129222291D01*
X185115805Y-129222291D02*
X185193214Y-129222291D01*
X185193214Y-129222291D02*
X185309329Y-129260996D01*
X185309329Y-129260996D02*
X185348033Y-129299701D01*
X186044719Y-129222291D02*
X185889900Y-129222291D01*
X185889900Y-129222291D02*
X185812491Y-129260996D01*
X185812491Y-129260996D02*
X185773786Y-129299701D01*
X185773786Y-129299701D02*
X185696376Y-129415815D01*
X185696376Y-129415815D02*
X185657672Y-129570634D01*
X185657672Y-129570634D02*
X185657672Y-129880272D01*
X185657672Y-129880272D02*
X185696376Y-129957682D01*
X185696376Y-129957682D02*
X185735081Y-129996387D01*
X185735081Y-129996387D02*
X185812491Y-130035091D01*
X185812491Y-130035091D02*
X185967310Y-130035091D01*
X185967310Y-130035091D02*
X186044719Y-129996387D01*
X186044719Y-129996387D02*
X186083424Y-129957682D01*
X186083424Y-129957682D02*
X186122129Y-129880272D01*
X186122129Y-129880272D02*
X186122129Y-129686748D01*
X186122129Y-129686748D02*
X186083424Y-129609339D01*
X186083424Y-129609339D02*
X186044719Y-129570634D01*
X186044719Y-129570634D02*
X185967310Y-129531929D01*
X185967310Y-129531929D02*
X185812491Y-129531929D01*
X185812491Y-129531929D02*
X185735081Y-129570634D01*
X185735081Y-129570634D02*
X185696376Y-129609339D01*
X185696376Y-129609339D02*
X185657672Y-129686748D01*
D12*
%TO.C,J1*%
X207137100Y-145415600D02*
X207137100Y-148415600D01*
X207137100Y-148415600D02*
X215137100Y-148415600D01*
X215137100Y-145415600D02*
X207137100Y-145415600D01*
X215137100Y-148415600D02*
X215137100Y-145415600D01*
D13*
%TO.C,C3*%
X172654100Y-140044020D02*
X172654100Y-140325180D01*
X173674100Y-140044020D02*
X173674100Y-140325180D01*
D10*
%TO.C,X4*%
X131500000Y-62980000D02*
X131500000Y-57380000D01*
X138500000Y-57380000D02*
X131500000Y-57380000D01*
X138500000Y-57380000D02*
X138500000Y-61380000D01*
X138500000Y-57380000D02*
X142500000Y-57380000D01*
X142500000Y-57380000D02*
X142500000Y-61380000D01*
X142500000Y-57380000D02*
X149500000Y-57380000D01*
X142500000Y-61380000D02*
X138500000Y-61380000D01*
X149500000Y-57380000D02*
X149500000Y-62980000D01*
X149500000Y-62980000D02*
X131500000Y-62980000D01*
D14*
G36*
X136500000Y-59034937D02*
G01*
X135594167Y-57336500D01*
X137405833Y-57336500D01*
X136500000Y-59034937D01*
G37*
D10*
%TO.C,X3*%
X111500000Y-62980000D02*
X111500000Y-57380000D01*
X118500000Y-57380000D02*
X111500000Y-57380000D01*
X118500000Y-57380000D02*
X118500000Y-61380000D01*
X118500000Y-57380000D02*
X122500000Y-57380000D01*
X122500000Y-57380000D02*
X122500000Y-61380000D01*
X122500000Y-57380000D02*
X129500000Y-57380000D01*
X122500000Y-61380000D02*
X118500000Y-61380000D01*
X129500000Y-57380000D02*
X129500000Y-62980000D01*
X129500000Y-62980000D02*
X111500000Y-62980000D01*
D14*
G36*
X116500000Y-59034937D02*
G01*
X115594167Y-57336500D01*
X117405833Y-57336500D01*
X116500000Y-59034937D01*
G37*
%TO.C,LOGO1*%
G36*
X187207564Y-63803373D02*
G01*
X187640039Y-63807093D01*
X187643988Y-63979380D01*
X187647937Y-64151666D01*
X187211513Y-64151666D01*
X186775089Y-64151666D01*
X186775089Y-63975660D01*
X186775089Y-63799654D01*
X187207564Y-63803373D01*
G37*
G36*
X187207564Y-64267493D02*
G01*
X187640039Y-64271212D01*
X187643988Y-64443499D01*
X187647937Y-64615786D01*
X187211513Y-64615786D01*
X186775089Y-64615786D01*
X186775089Y-64439780D01*
X186775089Y-64263774D01*
X187207564Y-64267493D01*
G37*
G36*
X187643988Y-64900587D02*
G01*
X187640039Y-65072873D01*
X187207564Y-65076593D01*
X186775089Y-65080312D01*
X186775089Y-64904306D01*
X186775089Y-64728300D01*
X187211513Y-64728300D01*
X187647937Y-64728300D01*
X187643988Y-64900587D01*
G37*
G36*
X187643988Y-65364706D02*
G01*
X187640039Y-65536993D01*
X187207564Y-65540712D01*
X186775089Y-65544432D01*
X186775089Y-65368426D01*
X186775089Y-65192419D01*
X187211513Y-65192419D01*
X187647937Y-65192419D01*
X187643988Y-65364706D01*
G37*
G36*
X187647071Y-65825310D02*
G01*
X187647071Y-65994080D01*
X187211080Y-65994080D01*
X186775089Y-65994080D01*
X186775089Y-65825310D01*
X186775089Y-65656539D01*
X187211080Y-65656539D01*
X187647071Y-65656539D01*
X187647071Y-65825310D01*
G37*
G36*
X190231806Y-63979380D02*
G01*
X190235755Y-64151666D01*
X189798898Y-64151666D01*
X189362041Y-64151666D01*
X189365990Y-63979380D01*
X189369939Y-63807093D01*
X189798898Y-63807093D01*
X190227857Y-63807093D01*
X190231806Y-63979380D01*
G37*
G36*
X190234889Y-64439983D02*
G01*
X190234889Y-64615786D01*
X189798898Y-64615786D01*
X189362907Y-64615786D01*
X189362907Y-64439983D01*
X189362907Y-64264180D01*
X189798898Y-64264180D01*
X190234889Y-64264180D01*
X190234889Y-64439983D01*
G37*
G36*
X190234889Y-64904103D02*
G01*
X190234889Y-65079906D01*
X189798898Y-65079906D01*
X189362907Y-65079906D01*
X189362907Y-64904103D01*
X189362907Y-64728300D01*
X189798898Y-64728300D01*
X190234889Y-64728300D01*
X190234889Y-64904103D01*
G37*
G36*
X190234889Y-65825310D02*
G01*
X190234889Y-65994080D01*
X189798898Y-65994080D01*
X189362907Y-65994080D01*
X189362907Y-65825310D01*
X189362907Y-65656539D01*
X189798898Y-65656539D01*
X190234889Y-65656539D01*
X190234889Y-65825310D01*
G37*
G36*
X191556927Y-63061688D02*
G01*
X191556927Y-63237491D01*
X191120936Y-63237491D01*
X190684945Y-63237491D01*
X190684945Y-63061688D01*
X190684945Y-62885886D01*
X191120936Y-62885886D01*
X191556927Y-62885886D01*
X191556927Y-63061688D01*
G37*
G36*
X191556927Y-63975660D02*
G01*
X191556927Y-64151666D01*
X191120503Y-64151666D01*
X190684079Y-64151666D01*
X190688028Y-63979380D01*
X190691977Y-63807093D01*
X191124452Y-63803373D01*
X191556927Y-63799654D01*
X191556927Y-63975660D01*
G37*
G36*
X191556927Y-64439983D02*
G01*
X191556927Y-64615786D01*
X191120936Y-64615786D01*
X190684945Y-64615786D01*
X190684945Y-64439983D01*
X190684945Y-64264180D01*
X191120936Y-64264180D01*
X191556927Y-64264180D01*
X191556927Y-64439983D01*
G37*
G36*
X191556927Y-64904103D02*
G01*
X191556927Y-65079906D01*
X191120936Y-65079906D01*
X190684945Y-65079906D01*
X190684945Y-64904103D01*
X190684945Y-64728300D01*
X191120936Y-64728300D01*
X191556927Y-64728300D01*
X191556927Y-64904103D01*
G37*
G36*
X191556927Y-65825310D02*
G01*
X191556927Y-65994080D01*
X191120936Y-65994080D01*
X190684945Y-65994080D01*
X190684945Y-65825310D01*
X190684945Y-65656539D01*
X191120936Y-65656539D01*
X191556927Y-65656539D01*
X191556927Y-65825310D01*
G37*
G36*
X191556927Y-66282194D02*
G01*
X191556927Y-66458200D01*
X191120503Y-66458200D01*
X190684079Y-66458200D01*
X190688028Y-66285913D01*
X190691977Y-66113626D01*
X191124452Y-66109907D01*
X191556927Y-66106188D01*
X191556927Y-66282194D01*
G37*
G36*
X191556927Y-66746517D02*
G01*
X191556927Y-66922320D01*
X191120936Y-66922320D01*
X190684945Y-66922320D01*
X190684945Y-66746517D01*
X190684945Y-66570714D01*
X191120936Y-66570714D01*
X191556927Y-66570714D01*
X191556927Y-66746517D01*
G37*
G36*
X192904010Y-63979380D02*
G01*
X192907959Y-64151666D01*
X192471102Y-64151666D01*
X192034245Y-64151666D01*
X192038194Y-63979380D01*
X192042143Y-63807093D01*
X192471102Y-63807093D01*
X192900061Y-63807093D01*
X192904010Y-63979380D01*
G37*
G36*
X192907093Y-65825310D02*
G01*
X192907093Y-65994080D01*
X192471102Y-65994080D01*
X192035111Y-65994080D01*
X192035111Y-65825310D01*
X192035111Y-65656539D01*
X192471102Y-65656539D01*
X192907093Y-65656539D01*
X192907093Y-65825310D01*
G37*
G36*
X195494912Y-65825310D02*
G01*
X195494912Y-65994080D01*
X195058920Y-65994080D01*
X194622929Y-65994080D01*
X194622929Y-65825310D01*
X194622929Y-65656539D01*
X195058920Y-65656539D01*
X195494912Y-65656539D01*
X195494912Y-65825310D01*
G37*
G36*
X190227856Y-63409778D02*
G01*
X190231585Y-63453693D01*
X190233214Y-63513409D01*
X190232431Y-63576656D01*
X190232233Y-63582065D01*
X190227857Y-63694579D01*
X188501473Y-63698150D01*
X186775089Y-63701722D01*
X186775089Y-63525864D01*
X186775089Y-63350005D01*
X188497095Y-63350005D01*
X190219102Y-63350005D01*
X190227856Y-63409778D01*
G37*
G36*
X190234889Y-66238447D02*
G01*
X190233954Y-66302149D01*
X190231453Y-66360025D01*
X190227847Y-66402873D01*
X190226099Y-66414249D01*
X190217309Y-66458200D01*
X188496199Y-66458200D01*
X186775089Y-66458200D01*
X186775089Y-66282397D01*
X186775089Y-66106594D01*
X188504989Y-66106594D01*
X190234889Y-66106594D01*
X190234889Y-66238447D01*
G37*
G36*
X193557564Y-62889097D02*
G01*
X195080017Y-62892918D01*
X195167530Y-62933341D01*
X195249083Y-62982603D01*
X195327063Y-63050367D01*
X195392328Y-63127862D01*
X195423323Y-63178750D01*
X195453291Y-63237491D01*
X193744201Y-63237491D01*
X192035111Y-63237491D01*
X192035111Y-63061384D01*
X192035111Y-62885277D01*
X193557564Y-62889097D01*
G37*
G36*
X193557564Y-64731512D02*
G01*
X195080017Y-64735332D01*
X195167530Y-64775755D01*
X195249083Y-64825017D01*
X195327063Y-64892781D01*
X195392328Y-64970276D01*
X195423323Y-65021164D01*
X195453291Y-65079906D01*
X193744201Y-65079906D01*
X192035111Y-65079906D01*
X192035111Y-64903798D01*
X192035111Y-64727691D01*
X193557564Y-64731512D01*
G37*
G36*
X195415517Y-66642292D02*
G01*
X195362192Y-66718510D01*
X195290623Y-66790529D01*
X195210034Y-66850102D01*
X195146775Y-66882650D01*
X195065953Y-66915288D01*
X193550532Y-66919168D01*
X192035111Y-66923048D01*
X192035111Y-66746881D01*
X192035111Y-66570714D01*
X193744793Y-66570714D01*
X195454474Y-66570714D01*
X195415517Y-66642292D01*
G37*
G36*
X195423323Y-64322921D02*
G01*
X195371064Y-64402040D01*
X195300210Y-64477068D01*
X195219905Y-64539234D01*
X195167530Y-64568331D01*
X195080017Y-64608754D01*
X193557564Y-64612574D01*
X192035111Y-64616394D01*
X192035111Y-64440287D01*
X192035111Y-64264180D01*
X193744201Y-64264180D01*
X195453291Y-64264180D01*
X195423323Y-64322921D01*
G37*
G36*
X195494720Y-63944016D02*
G01*
X195493832Y-64008288D01*
X195491596Y-64064749D01*
X195488393Y-64105676D01*
X195486047Y-64120022D01*
X195477567Y-64151666D01*
X195049815Y-64151666D01*
X194622064Y-64151666D01*
X194626013Y-63979380D01*
X194629961Y-63807093D01*
X195062437Y-63803373D01*
X195494912Y-63799654D01*
X195494720Y-63944016D01*
G37*
G36*
X195494720Y-66250753D02*
G01*
X195493830Y-66314984D01*
X195491592Y-66371405D01*
X195488385Y-66412286D01*
X195486047Y-66426556D01*
X195477567Y-66458200D01*
X193756339Y-66458200D01*
X192035111Y-66458200D01*
X192035111Y-66282397D01*
X192035111Y-66106594D01*
X193765011Y-66106594D01*
X195494912Y-66106594D01*
X195494720Y-66250753D01*
G37*
G36*
X190231806Y-65364706D02*
G01*
X190227857Y-65536993D01*
X189804961Y-65540711D01*
X189698580Y-65541337D01*
X189601379Y-65541315D01*
X189516894Y-65540694D01*
X189448665Y-65539520D01*
X189400228Y-65537843D01*
X189375121Y-65535710D01*
X189372486Y-65534851D01*
X189368742Y-65517792D01*
X189365683Y-65478508D01*
X189363632Y-65422899D01*
X189362907Y-65358846D01*
X189362907Y-65192419D01*
X189799331Y-65192419D01*
X190235755Y-65192419D01*
X190231806Y-65364706D01*
G37*
G36*
X191556927Y-63525808D02*
G01*
X191556927Y-63701611D01*
X191130312Y-63701611D01*
X191023460Y-63701313D01*
X190925787Y-63700469D01*
X190840814Y-63699156D01*
X190772060Y-63697448D01*
X190723044Y-63695422D01*
X190697287Y-63693154D01*
X190694321Y-63692235D01*
X190690657Y-63675259D01*
X190687663Y-63636048D01*
X190685655Y-63580494D01*
X190684945Y-63516432D01*
X190684945Y-63350005D01*
X191120936Y-63350005D01*
X191556927Y-63350005D01*
X191556927Y-63525808D01*
G37*
G36*
X191556927Y-65368222D02*
G01*
X191556927Y-65544025D01*
X191130312Y-65544025D01*
X191023460Y-65543727D01*
X190925787Y-65542884D01*
X190840814Y-65541570D01*
X190772060Y-65539863D01*
X190723044Y-65537837D01*
X190697287Y-65535568D01*
X190694321Y-65534649D01*
X190690657Y-65517673D01*
X190687663Y-65478462D01*
X190685655Y-65422909D01*
X190684945Y-65358846D01*
X190684945Y-65192419D01*
X191120936Y-65192419D01*
X191556927Y-65192419D01*
X191556927Y-65368222D01*
G37*
G36*
X192904010Y-65364706D02*
G01*
X192900061Y-65536993D01*
X192477165Y-65540711D01*
X192370784Y-65541337D01*
X192273583Y-65541315D01*
X192189098Y-65540694D01*
X192120869Y-65539520D01*
X192072431Y-65537843D01*
X192047325Y-65535710D01*
X192044690Y-65534851D01*
X192040946Y-65517792D01*
X192037887Y-65478508D01*
X192035836Y-65422899D01*
X192035111Y-65358846D01*
X192035111Y-65192419D01*
X192471535Y-65192419D01*
X192907959Y-65192419D01*
X192904010Y-65364706D01*
G37*
G36*
X195486047Y-65224064D02*
G01*
X195489667Y-65251230D01*
X195492558Y-65298792D01*
X195494339Y-65359020D01*
X195494720Y-65399867D01*
X195494912Y-65544025D01*
X195068297Y-65544025D01*
X194961444Y-65543727D01*
X194863772Y-65542884D01*
X194778798Y-65541570D01*
X194710044Y-65539863D01*
X194661029Y-65537837D01*
X194635272Y-65535568D01*
X194632305Y-65534649D01*
X194628641Y-65517673D01*
X194625648Y-65478462D01*
X194623639Y-65422909D01*
X194622929Y-65358846D01*
X194622929Y-65192419D01*
X195050248Y-65192419D01*
X195477567Y-65192419D01*
X195486047Y-65224064D01*
G37*
G36*
X195486047Y-63381650D02*
G01*
X195489667Y-63408816D01*
X195492558Y-63456378D01*
X195494339Y-63516606D01*
X195494720Y-63557453D01*
X195494912Y-63701611D01*
X193774387Y-63701611D01*
X193556687Y-63701536D01*
X193346806Y-63701316D01*
X193146460Y-63700962D01*
X192957363Y-63700482D01*
X192781229Y-63699886D01*
X192619775Y-63699183D01*
X192474714Y-63698382D01*
X192347762Y-63697493D01*
X192240633Y-63696524D01*
X192155042Y-63695486D01*
X192092704Y-63694388D01*
X192055333Y-63693238D01*
X192044487Y-63692235D01*
X192040823Y-63675259D01*
X192037829Y-63636048D01*
X192035821Y-63580494D01*
X192035111Y-63516432D01*
X192035111Y-63350005D01*
X193756339Y-63350005D01*
X195477567Y-63350005D01*
X195486047Y-63381650D01*
G37*
G36*
X188693145Y-66570799D02*
G01*
X188901465Y-66571048D01*
X189100108Y-66571451D01*
X189287364Y-66571996D01*
X189461521Y-66572672D01*
X189620868Y-66573470D01*
X189763692Y-66574379D01*
X189888282Y-66575388D01*
X189992926Y-66576486D01*
X190075914Y-66577663D01*
X190135533Y-66578908D01*
X190170072Y-66580211D01*
X190178501Y-66581262D01*
X190171923Y-66598267D01*
X190155020Y-66631483D01*
X190136976Y-66663980D01*
X190069529Y-66754083D01*
X189981908Y-66827467D01*
X189878514Y-66881097D01*
X189781873Y-66908817D01*
X189756486Y-66910941D01*
X189704355Y-66912922D01*
X189626863Y-66914747D01*
X189525394Y-66916406D01*
X189401332Y-66917886D01*
X189256059Y-66919174D01*
X189090961Y-66920259D01*
X188907421Y-66921128D01*
X188706822Y-66921769D01*
X188490548Y-66922170D01*
X188259983Y-66922319D01*
X188242881Y-66922320D01*
X186775089Y-66922320D01*
X186775089Y-66746517D01*
X186775089Y-66570714D01*
X188476861Y-66570714D01*
X188693145Y-66570799D01*
G37*
G36*
X188262381Y-62886053D02*
G01*
X188505692Y-62886077D01*
X188722529Y-62886141D01*
X188914550Y-62886317D01*
X189083409Y-62886679D01*
X189230763Y-62887300D01*
X189358267Y-62888253D01*
X189467576Y-62889610D01*
X189560347Y-62891445D01*
X189638235Y-62893831D01*
X189702896Y-62896840D01*
X189755986Y-62900547D01*
X189799160Y-62905024D01*
X189834074Y-62910343D01*
X189862384Y-62916579D01*
X189885745Y-62923803D01*
X189905813Y-62932090D01*
X189924244Y-62941512D01*
X189942694Y-62952142D01*
X189957318Y-62960821D01*
X190004377Y-62994545D01*
X190053929Y-63039704D01*
X190101052Y-63090543D01*
X190140825Y-63141306D01*
X190168325Y-63186237D01*
X190178632Y-63219579D01*
X190178633Y-63219660D01*
X190173810Y-63222412D01*
X190158489Y-63224883D01*
X190131394Y-63227086D01*
X190091249Y-63229034D01*
X190036774Y-63230741D01*
X189966695Y-63232221D01*
X189879734Y-63233486D01*
X189774614Y-63234549D01*
X189650059Y-63235425D01*
X189504790Y-63236127D01*
X189337532Y-63236668D01*
X189147007Y-63237061D01*
X188931938Y-63237320D01*
X188691050Y-63237459D01*
X188476861Y-63237491D01*
X186775089Y-63237491D01*
X186775089Y-63061688D01*
X186775089Y-62885886D01*
X188262381Y-62886053D01*
G37*
G36*
X191071711Y-58689312D02*
G01*
X191203611Y-58696860D01*
X191324346Y-58718212D01*
X191443636Y-58755788D01*
X191571200Y-58812009D01*
X191578214Y-58815474D01*
X191735103Y-58906759D01*
X191873966Y-59015151D01*
X191992267Y-59138221D01*
X192087469Y-59273540D01*
X192120563Y-59334667D01*
X192178928Y-59478517D01*
X192209702Y-59619775D01*
X192212880Y-59760306D01*
X192188456Y-59901976D01*
X192136425Y-60046650D01*
X192118369Y-60084998D01*
X192037749Y-60217342D01*
X191935096Y-60334361D01*
X191813642Y-60433108D01*
X191676613Y-60510632D01*
X191631169Y-60530016D01*
X191556760Y-60557136D01*
X191501528Y-60570961D01*
X191460071Y-60571873D01*
X191426987Y-60560250D01*
X191406989Y-60545791D01*
X191390058Y-60530327D01*
X191378740Y-60514761D01*
X191371891Y-60493385D01*
X191368366Y-60460491D01*
X191367022Y-60410372D01*
X191366728Y-60344973D01*
X191365723Y-60267443D01*
X191362263Y-60209334D01*
X191355148Y-60161971D01*
X191343173Y-60116673D01*
X191329584Y-60076910D01*
X191291896Y-59987908D01*
X191243054Y-59900752D01*
X191180346Y-59811842D01*
X191101065Y-59717579D01*
X191002500Y-59614363D01*
X190924083Y-59538178D01*
X190833900Y-59450565D01*
X190763369Y-59376637D01*
X190710014Y-59312710D01*
X190671360Y-59255099D01*
X190644934Y-59200121D01*
X190628258Y-59144093D01*
X190618927Y-59083979D01*
X190621956Y-59013976D01*
X190705910Y-59013976D01*
X190706350Y-59097354D01*
X190732827Y-59184732D01*
X190784990Y-59274910D01*
X190862493Y-59366685D01*
X190954669Y-59450513D01*
X191110390Y-59592578D01*
X191239443Y-59742426D01*
X191341643Y-59899811D01*
X191416809Y-60064484D01*
X191424822Y-60087104D01*
X191438490Y-60137243D01*
X191446867Y-60195778D01*
X191450799Y-60270283D01*
X191451379Y-60324113D01*
X191451445Y-60483769D01*
X191509885Y-60477181D01*
X191550385Y-60467696D01*
X191605149Y-60448482D01*
X191663756Y-60423296D01*
X191676436Y-60417175D01*
X191798397Y-60342520D01*
X191903468Y-60249203D01*
X191990128Y-60140641D01*
X192056856Y-60020252D01*
X192102130Y-59891453D01*
X192124430Y-59757662D01*
X192122235Y-59622296D01*
X192094024Y-59488772D01*
X192092179Y-59483049D01*
X192034098Y-59349260D01*
X191951445Y-59223338D01*
X191847244Y-59107706D01*
X191724520Y-59004792D01*
X191586298Y-58917020D01*
X191435604Y-58846818D01*
X191275462Y-58796609D01*
X191221664Y-58784959D01*
X191092984Y-58767999D01*
X190983295Y-58770721D01*
X190891259Y-58793367D01*
X190815536Y-58836179D01*
X190784531Y-58864024D01*
X190731854Y-58935799D01*
X190705910Y-59013976D01*
X190621956Y-59013976D01*
X190622923Y-58991642D01*
X190652297Y-58903818D01*
X190704300Y-58824953D01*
X190776181Y-58759491D01*
X190843490Y-58720950D01*
X190880737Y-58705765D01*
X190916673Y-58696128D01*
X190959169Y-58690948D01*
X191016098Y-58689134D01*
X191071711Y-58689312D01*
G37*
G36*
X190856133Y-60488433D02*
G01*
X190891118Y-60510877D01*
X190908336Y-60528471D01*
X190918287Y-60546375D01*
X190922204Y-60571742D01*
X190921323Y-60611726D01*
X190917595Y-60664225D01*
X190920053Y-60813643D01*
X190950433Y-60961788D01*
X191008539Y-61108286D01*
X191094179Y-61252761D01*
X191207158Y-61394837D01*
X191347284Y-61534136D01*
X191380662Y-61563450D01*
X191481766Y-61654156D01*
X191560877Y-61734416D01*
X191620384Y-61807811D01*
X191662675Y-61877919D01*
X191690141Y-61948321D01*
X191705169Y-62022597D01*
X191708237Y-62054244D01*
X191710082Y-62117294D01*
X191703828Y-62165491D01*
X191687815Y-62211361D01*
X191687254Y-62212636D01*
X191631516Y-62304934D01*
X191554642Y-62379139D01*
X191479702Y-62423954D01*
X191439445Y-62441875D01*
X191404372Y-62453416D01*
X191366373Y-62459901D01*
X191317340Y-62462648D01*
X191249163Y-62462981D01*
X191240482Y-62462929D01*
X191093379Y-62454946D01*
X190974341Y-62434553D01*
X190814373Y-62383137D01*
X190659462Y-62310128D01*
X190513470Y-62218598D01*
X190380259Y-62111619D01*
X190263692Y-61992262D01*
X190167630Y-61863600D01*
X190100679Y-61739642D01*
X190051950Y-61596475D01*
X190029638Y-61450686D01*
X190030736Y-61395479D01*
X190122376Y-61395479D01*
X190130243Y-61515689D01*
X190155801Y-61625490D01*
X190201980Y-61737081D01*
X190206817Y-61746776D01*
X190288962Y-61879742D01*
X190394613Y-62002745D01*
X190520115Y-62113132D01*
X190661811Y-62208249D01*
X190816045Y-62285441D01*
X190979161Y-62342055D01*
X191050615Y-62359306D01*
X191134116Y-62371538D01*
X191223308Y-62375766D01*
X191310267Y-62372359D01*
X191387073Y-62361690D01*
X191445803Y-62344130D01*
X191453601Y-62340392D01*
X191523237Y-62290522D01*
X191576778Y-62224548D01*
X191610930Y-62148653D01*
X191622399Y-62069016D01*
X191618739Y-62030494D01*
X191609435Y-61988135D01*
X191596358Y-61948839D01*
X191577309Y-61909835D01*
X191550086Y-61868353D01*
X191512489Y-61821623D01*
X191462318Y-61766873D01*
X191397371Y-61701333D01*
X191315448Y-61622233D01*
X191231338Y-61542752D01*
X191116678Y-61425638D01*
X191024253Y-61309384D01*
X190949148Y-61187499D01*
X190922458Y-61134889D01*
X190877867Y-61033603D01*
X190848672Y-60944292D01*
X190832651Y-60857004D01*
X190827583Y-60761785D01*
X190828307Y-60712962D01*
X190832619Y-60572320D01*
X190777749Y-60575662D01*
X190740484Y-60583310D01*
X190687453Y-60600920D01*
X190627756Y-60625303D01*
X190601946Y-60637248D01*
X190537072Y-60671041D01*
X190482737Y-60706443D01*
X190429668Y-60750299D01*
X190368593Y-60809453D01*
X190368341Y-60809709D01*
X190269626Y-60924332D01*
X190197436Y-61042638D01*
X190150168Y-61168445D01*
X190126219Y-61305571D01*
X190122376Y-61395479D01*
X190030736Y-61395479D01*
X190032535Y-61304971D01*
X190059437Y-61162024D01*
X190109137Y-61024542D01*
X190180430Y-60895219D01*
X190272111Y-60776752D01*
X190382974Y-60671835D01*
X190511813Y-60583164D01*
X190647393Y-60517370D01*
X190733927Y-60488593D01*
X190802613Y-60478971D01*
X190856133Y-60488433D01*
G37*
G36*
X190503113Y-59490837D02*
G01*
X190644661Y-59538759D01*
X190778846Y-59611972D01*
X190902553Y-59709728D01*
X191000591Y-59813722D01*
X191080936Y-59924692D01*
X191140975Y-60038133D01*
X191178095Y-60149540D01*
X191186897Y-60200039D01*
X191189885Y-60244074D01*
X191183538Y-60272633D01*
X191164697Y-60297680D01*
X191159808Y-60302667D01*
X191143421Y-60317580D01*
X191125885Y-60327503D01*
X191101435Y-60333417D01*
X191064304Y-60336300D01*
X191008726Y-60337134D01*
X190957573Y-60337030D01*
X190877523Y-60337686D01*
X190817605Y-60341083D01*
X190769881Y-60348156D01*
X190726411Y-60359840D01*
X190706964Y-60366545D01*
X190559481Y-60431613D01*
X190420222Y-60517712D01*
X190286160Y-60627061D01*
X190154264Y-60761881D01*
X190130361Y-60789208D01*
X190054552Y-60874525D01*
X189990041Y-60940352D01*
X189932381Y-60990510D01*
X189877124Y-61028817D01*
X189819823Y-61059093D01*
X189811980Y-61062643D01*
X189713829Y-61096200D01*
X189622221Y-61105388D01*
X189563977Y-61098814D01*
X189510431Y-61085398D01*
X189466420Y-61065331D01*
X189421362Y-61032919D01*
X189388699Y-61004526D01*
X189321913Y-60925738D01*
X189277195Y-60829908D01*
X189254515Y-60716894D01*
X189254336Y-60682399D01*
X189344083Y-60682399D01*
X189358667Y-60782383D01*
X189390558Y-60867553D01*
X189438507Y-60932868D01*
X189478133Y-60965729D01*
X189521075Y-60993036D01*
X189521442Y-60993225D01*
X189575960Y-61008899D01*
X189645019Y-61011293D01*
X189718753Y-61001112D01*
X189787298Y-60979059D01*
X189799312Y-60973389D01*
X189836984Y-60948538D01*
X189886291Y-60907580D01*
X189940878Y-60856033D01*
X189974701Y-60821056D01*
X190094128Y-60695845D01*
X190200334Y-60591231D01*
X190296345Y-60504854D01*
X190385191Y-60434349D01*
X190469898Y-60377356D01*
X190553494Y-60331512D01*
X190639009Y-60294454D01*
X190659418Y-60286871D01*
X190710904Y-60269810D01*
X190758035Y-60258663D01*
X190809732Y-60252139D01*
X190874921Y-60248946D01*
X190927609Y-60248057D01*
X190992877Y-60246847D01*
X191047222Y-60244800D01*
X191084842Y-60242207D01*
X191099848Y-60239458D01*
X191099948Y-60223319D01*
X191092982Y-60188861D01*
X191084146Y-60156301D01*
X191028356Y-60016542D01*
X190949050Y-59890281D01*
X190848547Y-59779896D01*
X190729171Y-59687768D01*
X190593242Y-59616277D01*
X190536112Y-59594457D01*
X190403361Y-59563208D01*
X190267641Y-59558480D01*
X190131645Y-59579241D01*
X189998064Y-59624459D01*
X189869590Y-59693102D01*
X189748914Y-59784138D01*
X189638727Y-59896535D01*
X189591049Y-59956826D01*
X189512658Y-60076156D01*
X189448469Y-60200542D01*
X189399000Y-60326670D01*
X189364767Y-60451230D01*
X189346289Y-60570910D01*
X189344083Y-60682399D01*
X189254336Y-60682399D01*
X189253840Y-60586552D01*
X189270580Y-60461854D01*
X189315757Y-60289406D01*
X189383677Y-60124504D01*
X189471884Y-59970565D01*
X189577925Y-59831001D01*
X189699345Y-59709228D01*
X189833691Y-59608661D01*
X189918444Y-59560442D01*
X190061866Y-59503011D01*
X190208957Y-59472545D01*
X190356959Y-59468626D01*
X190503113Y-59490837D01*
G37*
G36*
X192785525Y-60000028D02*
G01*
X192873146Y-60042484D01*
X192949274Y-60109079D01*
X193011182Y-60198819D01*
X193024708Y-60226025D01*
X193038029Y-60258928D01*
X193046743Y-60293422D01*
X193051717Y-60336434D01*
X193053821Y-60394890D01*
X193054011Y-60459806D01*
X193049184Y-60579294D01*
X193034380Y-60686222D01*
X193007383Y-60789504D01*
X192965979Y-60898056D01*
X192921209Y-60994247D01*
X192830648Y-61151466D01*
X192723300Y-61291996D01*
X192601728Y-61413589D01*
X192468497Y-61513999D01*
X192326170Y-61590980D01*
X192183347Y-61640757D01*
X192106602Y-61653969D01*
X192014134Y-61660151D01*
X191917252Y-61659319D01*
X191827268Y-61651487D01*
X191767891Y-61640203D01*
X191625611Y-61589260D01*
X191491674Y-61514736D01*
X191369736Y-61420063D01*
X191263452Y-61308676D01*
X191176479Y-61184006D01*
X191112472Y-61049488D01*
X191099921Y-61012937D01*
X191079458Y-60944918D01*
X191068834Y-60897045D01*
X191068657Y-60887382D01*
X191160065Y-60887382D01*
X191167510Y-60929823D01*
X191185572Y-60987057D01*
X191212724Y-61054188D01*
X191244598Y-61120825D01*
X191306254Y-61217963D01*
X191387548Y-61312634D01*
X191480955Y-61397483D01*
X191578953Y-61465152D01*
X191617934Y-61485850D01*
X191757525Y-61541297D01*
X191892686Y-61570297D01*
X192027244Y-61573289D01*
X192165024Y-61550717D01*
X192169668Y-61549541D01*
X192306835Y-61500439D01*
X192437316Y-61426725D01*
X192558781Y-61331579D01*
X192668901Y-61218177D01*
X192765346Y-61089698D01*
X192845787Y-60949321D01*
X192907894Y-60800222D01*
X192949337Y-60645581D01*
X192967787Y-60488575D01*
X192968491Y-60459806D01*
X192965584Y-60366661D01*
X192953587Y-60293948D01*
X192930611Y-60234908D01*
X192894770Y-60182780D01*
X192889356Y-60176486D01*
X192819421Y-60115770D01*
X192740183Y-60081198D01*
X192653363Y-60073037D01*
X192560684Y-60091555D01*
X192501402Y-60116367D01*
X192450297Y-60146026D01*
X192400689Y-60184669D01*
X192346098Y-60237769D01*
X192305773Y-60281622D01*
X192180068Y-60417275D01*
X192064801Y-60530500D01*
X191957048Y-60623622D01*
X191853890Y-60698967D01*
X191752405Y-60758861D01*
X191649672Y-60805630D01*
X191645713Y-60807177D01*
X191533843Y-60841764D01*
X191417694Y-60862009D01*
X191307624Y-60866437D01*
X191258257Y-60862281D01*
X191208702Y-60858122D01*
X191174579Y-60860378D01*
X191164761Y-60864630D01*
X191160065Y-60887382D01*
X191068657Y-60887382D01*
X191068211Y-60863055D01*
X191077749Y-60836682D01*
X191097609Y-60811662D01*
X191105297Y-60803790D01*
X191145916Y-60763172D01*
X191284616Y-60771324D01*
X191367305Y-60774132D01*
X191432962Y-60770938D01*
X191492183Y-60761022D01*
X191513610Y-60755763D01*
X191662148Y-60702580D01*
X191807732Y-60622160D01*
X191949037Y-60515345D01*
X192063239Y-60406070D01*
X192150632Y-60314143D01*
X192221532Y-60240354D01*
X192278628Y-60182267D01*
X192324609Y-60137445D01*
X192362162Y-60103452D01*
X192393976Y-60077851D01*
X192422739Y-60058206D01*
X192451139Y-60042080D01*
X192480968Y-60027456D01*
X192586710Y-59991519D01*
X192689138Y-59982708D01*
X192785525Y-60000028D01*
G37*
D12*
%TO.C,X2*%
X128581000Y-144170000D02*
X128581000Y-146110000D01*
X128581000Y-146110000D02*
X164399000Y-146110000D01*
X164399000Y-144170000D02*
X128581000Y-144170000D01*
X164399000Y-146110000D02*
X164399000Y-144170000D01*
D13*
%TO.C,C5*%
X174178100Y-131344520D02*
X174178100Y-131625680D01*
X175198100Y-131344520D02*
X175198100Y-131625680D01*
D14*
%TO.C,LOGO2*%
G36*
X200711028Y-61959928D02*
G01*
X200744951Y-62136078D01*
X200774854Y-62275245D01*
X200796094Y-62356465D01*
X200801553Y-62368493D01*
X200868147Y-62406518D01*
X200986561Y-62459040D01*
X201124212Y-62513281D01*
X201248520Y-62556461D01*
X201326904Y-62575799D01*
X201330403Y-62575934D01*
X201400361Y-62552092D01*
X201520339Y-62488859D01*
X201667278Y-62398676D01*
X201704078Y-62374346D01*
X201848418Y-62280344D01*
X201964873Y-62209730D01*
X202033246Y-62174595D01*
X202040873Y-62172759D01*
X202086693Y-62202593D01*
X202178198Y-62282315D01*
X202298949Y-62397256D01*
X202354816Y-62452893D01*
X202632460Y-62733028D01*
X202411170Y-63046456D01*
X202310173Y-63197126D01*
X202233601Y-63325884D01*
X202193798Y-63411409D01*
X202190835Y-63427080D01*
X202210137Y-63501387D01*
X202259201Y-63625309D01*
X202312376Y-63740660D01*
X202432961Y-63987045D01*
X202724142Y-64042838D01*
X202938663Y-64082579D01*
X203080911Y-64114051D01*
X203165085Y-64152436D01*
X203205383Y-64212912D01*
X203216003Y-64310661D01*
X203211145Y-64460862D01*
X203207376Y-64559480D01*
X203194513Y-64972583D01*
X202903331Y-65028376D01*
X202692331Y-65069590D01*
X202553236Y-65100359D01*
X202469834Y-65126434D01*
X202425912Y-65153567D01*
X202405257Y-65187510D01*
X202399024Y-65207278D01*
X202370232Y-65292213D01*
X202320541Y-65424428D01*
X202284289Y-65516382D01*
X202191799Y-65746601D01*
X202416006Y-66064834D01*
X202640213Y-66383067D01*
X202403255Y-66633615D01*
X202279978Y-66759369D01*
X202172655Y-66860720D01*
X202102031Y-66918209D01*
X202096087Y-66921739D01*
X202027983Y-66923048D01*
X201913886Y-66872463D01*
X201744367Y-66765687D01*
X201725496Y-66752780D01*
X201425116Y-66546245D01*
X201262734Y-66623679D01*
X201157243Y-66668765D01*
X201091976Y-66686861D01*
X201084515Y-66685277D01*
X201062912Y-66640497D01*
X201013681Y-66527315D01*
X200943010Y-66360296D01*
X200857090Y-66154005D01*
X200804193Y-66025714D01*
X200539708Y-65381987D01*
X200753018Y-65174217D01*
X200931278Y-64948313D01*
X201026205Y-64706452D01*
X201037658Y-64459900D01*
X200965498Y-64219927D01*
X200809585Y-63997798D01*
X200768121Y-63956297D01*
X200556669Y-63810645D01*
X200325274Y-63742257D01*
X200089415Y-63746100D01*
X199864569Y-63817144D01*
X199666214Y-63950355D01*
X199509827Y-64140702D01*
X199410887Y-64383153D01*
X199407230Y-64398740D01*
X199395226Y-64648283D01*
X199469398Y-64892148D01*
X199626410Y-65120784D01*
X199677983Y-65174217D01*
X199891293Y-65381987D01*
X199626808Y-66025714D01*
X199534684Y-66248178D01*
X199453894Y-66439971D01*
X199390736Y-66586399D01*
X199351509Y-66672767D01*
X199342338Y-66689426D01*
X199295326Y-66681998D01*
X199210538Y-66636146D01*
X199102469Y-66578829D01*
X199008217Y-66572944D01*
X198898338Y-66622292D01*
X198799911Y-66689164D01*
X198627800Y-66814532D01*
X198509629Y-66891804D01*
X198423356Y-66920355D01*
X198346938Y-66899563D01*
X198258331Y-66828802D01*
X198135492Y-66707450D01*
X198096985Y-66669266D01*
X197797241Y-66373908D01*
X198018222Y-66060255D01*
X198239202Y-65746601D01*
X198146712Y-65516382D01*
X198090617Y-65372627D01*
X198047067Y-65253643D01*
X198031977Y-65207278D01*
X198016628Y-65168195D01*
X197985571Y-65138603D01*
X197922592Y-65112750D01*
X197811480Y-65084885D01*
X197636022Y-65049256D01*
X197527670Y-65028376D01*
X197236488Y-64972583D01*
X197223625Y-64559480D01*
X197216357Y-64377639D01*
X197217527Y-64255778D01*
X197241334Y-64178717D01*
X197301977Y-64131275D01*
X197413652Y-64098272D01*
X197590560Y-64064529D01*
X197706858Y-64042838D01*
X197998040Y-63987045D01*
X198118625Y-63740660D01*
X198183218Y-63598514D01*
X198227358Y-63481967D01*
X198240166Y-63427080D01*
X198215999Y-63361532D01*
X198150783Y-63245355D01*
X198056861Y-63099871D01*
X198019831Y-63046456D01*
X197798541Y-62733028D01*
X198076185Y-62452893D01*
X198205624Y-62327315D01*
X198314406Y-62230973D01*
X198385486Y-62178592D01*
X198399921Y-62173242D01*
X198456350Y-62197631D01*
X198564232Y-62261802D01*
X198702441Y-62353006D01*
X198733956Y-62374829D01*
X198880902Y-62470816D01*
X199007828Y-62541888D01*
X199091013Y-62575007D01*
X199099819Y-62575934D01*
X199176516Y-62559448D01*
X199300054Y-62518378D01*
X199437905Y-62465300D01*
X199557543Y-62412792D01*
X199626441Y-62373432D01*
X199628530Y-62371487D01*
X199644833Y-62321476D01*
X199671794Y-62204371D01*
X199704708Y-62041344D01*
X199719973Y-61959928D01*
X199791788Y-61567997D01*
X200215500Y-61567997D01*
X200639213Y-61567997D01*
X200711028Y-61959928D01*
G37*
D13*
%TO.C,C1*%
X170939600Y-141441020D02*
X170939600Y-141722180D01*
X171959600Y-141441020D02*
X171959600Y-141722180D01*
D10*
%TO.C,IC1*%
X165277400Y-138160600D02*
X165277400Y-141903800D01*
X170255800Y-139727400D02*
X170255800Y-138160600D01*
X170255800Y-141903800D02*
X170255800Y-140337000D01*
X170255800Y-140337000D02*
G75*
G02*
X170255800Y-139727400I0J304800D01*
G01*
D14*
G36*
X169684300Y-139473400D02*
G01*
X168825029Y-139473400D01*
X169684300Y-138270421D01*
X169684300Y-139473400D01*
G37*
%TO.C,JP1*%
D10*
X184589500Y-143395700D02*
X178747500Y-143395700D01*
X178747500Y-141465300D01*
X184589500Y-141465300D01*
X184589500Y-143395700D01*
D15*
%TO.C,IC2*%
X184778100Y-135150600D02*
X184778100Y-136450800D01*
X184778100Y-138360600D02*
X184778100Y-137060400D01*
X195078100Y-138360600D02*
X195078100Y-135150600D01*
X184778100Y-136450800D02*
G75*
G02*
X184778100Y-137060400I0J-304800D01*
G01*
D13*
%TO.C,R1*%
X212992064Y-143092500D02*
X212537936Y-143092500D01*
X212992064Y-144562500D02*
X212537936Y-144562500D01*
%TO.C,R2*%
X209563064Y-143092500D02*
X209108936Y-143092500D01*
X209563064Y-144562500D02*
X209108936Y-144562500D01*
D14*
%TO.C,LOGO3*%
G36*
X208093797Y-66495861D02*
G01*
X208093797Y-66923048D01*
X206349871Y-66923048D01*
X204605946Y-66923048D01*
X204605946Y-66495861D01*
X204605946Y-66068675D01*
X206349871Y-66068675D01*
X208093797Y-66068675D01*
X208093797Y-66495861D01*
G37*
G36*
X207107911Y-64349340D02*
G01*
X207144816Y-64370896D01*
X207172136Y-64404776D01*
X207185341Y-64446758D01*
X207181755Y-64491435D01*
X207162443Y-64529553D01*
X207131322Y-64558203D01*
X207092313Y-64574477D01*
X207049335Y-64575468D01*
X207022840Y-64567323D01*
X206986068Y-64541297D01*
X206963509Y-64505595D01*
X206955164Y-64464762D01*
X206961038Y-64423342D01*
X206981133Y-64385881D01*
X207015452Y-64356924D01*
X207022692Y-64353178D01*
X207065757Y-64342602D01*
X207107911Y-64349340D01*
G37*
G36*
X208485803Y-60992215D02*
G01*
X208485803Y-61061816D01*
X208032742Y-61523964D01*
X207579680Y-61986113D01*
X207580778Y-62203057D01*
X207581876Y-62420001D01*
X207445830Y-62420001D01*
X207396160Y-62420311D01*
X207354615Y-62421163D01*
X207324852Y-62422435D01*
X207310530Y-62424007D01*
X207309784Y-62424475D01*
X207308873Y-62434956D01*
X207306234Y-62463897D01*
X207302013Y-62509740D01*
X207296354Y-62570930D01*
X207289401Y-62645910D01*
X207281300Y-62733124D01*
X207272193Y-62831015D01*
X207262227Y-62938028D01*
X207251545Y-63052605D01*
X207240292Y-63173191D01*
X207239424Y-63182484D01*
X207228089Y-63304302D01*
X207217319Y-63420857D01*
X207207261Y-63530517D01*
X207198060Y-63631650D01*
X207189864Y-63722622D01*
X207182819Y-63801800D01*
X207177070Y-63867551D01*
X207172764Y-63918244D01*
X207170047Y-63952244D01*
X207169065Y-63967920D01*
X207169064Y-63968115D01*
X207170592Y-63979675D01*
X207176204Y-63993278D01*
X207187444Y-64010825D01*
X207205855Y-64034216D01*
X207232981Y-64065352D01*
X207270363Y-64106136D01*
X207319546Y-64158468D01*
X207347477Y-64187909D01*
X207391209Y-64233924D01*
X207446500Y-64292113D01*
X207511067Y-64360072D01*
X207582625Y-64435398D01*
X207658890Y-64515685D01*
X207737580Y-64598530D01*
X207816411Y-64681530D01*
X207886740Y-64755583D01*
X208247589Y-65135561D01*
X208210955Y-65172195D01*
X208189173Y-65193276D01*
X208176095Y-65201726D01*
X208166277Y-65199197D01*
X208155779Y-65188950D01*
X208145410Y-65177937D01*
X208122602Y-65153782D01*
X208088735Y-65117946D01*
X208045189Y-65071887D01*
X207993344Y-65017064D01*
X207934580Y-64954936D01*
X207870275Y-64886963D01*
X207801811Y-64814605D01*
X207781307Y-64792937D01*
X207425376Y-64416802D01*
X207417807Y-64484540D01*
X207399935Y-64565873D01*
X207367192Y-64636745D01*
X207321964Y-64696355D01*
X207266636Y-64743901D01*
X207203595Y-64778582D01*
X207135224Y-64799594D01*
X207063911Y-64806137D01*
X206992040Y-64797410D01*
X206921997Y-64772609D01*
X206856167Y-64730934D01*
X206811249Y-64688405D01*
X206788618Y-64661963D01*
X206772668Y-64640902D01*
X206767006Y-64630231D01*
X206757260Y-64628236D01*
X206729240Y-64626416D01*
X206684777Y-64624810D01*
X206625699Y-64623458D01*
X206553836Y-64622396D01*
X206471017Y-64621665D01*
X206379072Y-64621301D01*
X206339820Y-64621267D01*
X205912633Y-64621267D01*
X205912633Y-64711730D01*
X205912633Y-64802193D01*
X205802067Y-64802193D01*
X205691502Y-64802193D01*
X205691502Y-64716274D01*
X205691048Y-64673897D01*
X205688866Y-64646500D01*
X205683725Y-64628966D01*
X205674394Y-64616179D01*
X205665440Y-64607937D01*
X205657698Y-64600763D01*
X205651414Y-64592456D01*
X205646186Y-64580629D01*
X205641611Y-64562898D01*
X205637286Y-64536877D01*
X205632811Y-64500182D01*
X205627781Y-64450428D01*
X205621796Y-64385228D01*
X205615085Y-64309388D01*
X205608645Y-64236886D01*
X205602670Y-64170953D01*
X205597410Y-64114239D01*
X205593114Y-64069391D01*
X205590032Y-64039057D01*
X205588413Y-64025885D01*
X205588353Y-64025646D01*
X205581124Y-64031482D01*
X205560885Y-64050663D01*
X205528672Y-64082152D01*
X205485519Y-64124910D01*
X205432461Y-64177901D01*
X205370531Y-64240085D01*
X205300766Y-64310426D01*
X205224199Y-64387884D01*
X205141865Y-64471423D01*
X205054799Y-64560003D01*
X204999710Y-64616169D01*
X204910108Y-64707511D01*
X204824514Y-64794603D01*
X204743976Y-64876391D01*
X204669540Y-64951819D01*
X204602251Y-65019833D01*
X204543156Y-65079378D01*
X204493301Y-65129398D01*
X204453733Y-65168838D01*
X204425497Y-65196645D01*
X204409641Y-65211762D01*
X204406505Y-65214302D01*
X204395769Y-65207797D01*
X204376873Y-65191391D01*
X204367710Y-65182508D01*
X204335916Y-65150714D01*
X204548829Y-64932383D01*
X204597739Y-64882285D01*
X204658472Y-64820165D01*
X204728763Y-64748339D01*
X204806342Y-64669121D01*
X204888941Y-64584826D01*
X204974294Y-64497769D01*
X205060132Y-64410265D01*
X205144186Y-64324629D01*
X205170071Y-64298269D01*
X205558656Y-63902589D01*
X205704063Y-63902589D01*
X205727493Y-64168952D01*
X205733808Y-64241772D01*
X205739513Y-64309503D01*
X205744364Y-64369102D01*
X205748120Y-64417531D01*
X205750536Y-64451748D01*
X205751366Y-64467983D01*
X205751810Y-64500650D01*
X206237983Y-64500650D01*
X206724157Y-64500650D01*
X206726736Y-64461157D01*
X206894702Y-64461157D01*
X206904265Y-64518003D01*
X206929207Y-64565614D01*
X206966275Y-64602305D01*
X207012217Y-64626388D01*
X207063779Y-64636179D01*
X207117709Y-64629990D01*
X207170754Y-64606136D01*
X207172366Y-64605085D01*
X207212641Y-64567279D01*
X207237980Y-64519082D01*
X207247281Y-64464695D01*
X207239438Y-64408313D01*
X207230415Y-64384268D01*
X207199630Y-64336706D01*
X207159723Y-64304271D01*
X207113915Y-64286225D01*
X207065431Y-64281830D01*
X207017492Y-64290347D01*
X206973321Y-64311038D01*
X206936142Y-64343166D01*
X206909178Y-64385991D01*
X206895651Y-64438777D01*
X206894702Y-64461157D01*
X206726736Y-64461157D01*
X206728915Y-64427777D01*
X206738536Y-64361902D01*
X206759825Y-64304984D01*
X206795625Y-64250628D01*
X206820490Y-64221721D01*
X206852232Y-64193114D01*
X206892351Y-64165264D01*
X206935047Y-64141415D01*
X206974522Y-64124813D01*
X207004570Y-64118703D01*
X207017233Y-64116044D01*
X207025106Y-64104980D01*
X207030529Y-64080864D01*
X207033109Y-64062012D01*
X207040192Y-64005329D01*
X206960611Y-63923804D01*
X206935525Y-63897888D01*
X206898713Y-63859558D01*
X206852266Y-63811005D01*
X206798274Y-63754419D01*
X206738826Y-63691992D01*
X206676013Y-63625914D01*
X206611924Y-63558374D01*
X206606342Y-63552486D01*
X206331653Y-63262692D01*
X206186785Y-63406740D01*
X206134364Y-63459245D01*
X206072883Y-63521442D01*
X206007128Y-63588449D01*
X205941887Y-63655386D01*
X205881947Y-63717371D01*
X205872990Y-63726688D01*
X205704063Y-63902589D01*
X205558656Y-63902589D01*
X205578399Y-63882486D01*
X205511432Y-63102888D01*
X205457451Y-62474471D01*
X205583631Y-62474471D01*
X205584067Y-62484581D01*
X205586113Y-62513030D01*
X205589630Y-62558129D01*
X205594478Y-62618192D01*
X205600519Y-62691529D01*
X205607612Y-62776453D01*
X205615618Y-62871275D01*
X205624398Y-62974309D01*
X205633813Y-63083865D01*
X205636401Y-63113827D01*
X205646004Y-63224983D01*
X205655075Y-63330180D01*
X205663469Y-63427714D01*
X205671040Y-63515880D01*
X205677642Y-63592977D01*
X205683130Y-63657299D01*
X205687356Y-63707143D01*
X205690176Y-63740807D01*
X205691444Y-63756586D01*
X205691502Y-63757546D01*
X205698319Y-63752113D01*
X205717766Y-63733867D01*
X205748337Y-63704289D01*
X205788526Y-63664859D01*
X205836825Y-63617058D01*
X205891729Y-63562364D01*
X205951731Y-63502260D01*
X205970429Y-63483466D01*
X206031906Y-63421281D01*
X206088690Y-63363171D01*
X206139256Y-63310749D01*
X206182080Y-63265626D01*
X206215637Y-63229412D01*
X206238400Y-63203718D01*
X206248846Y-63190157D01*
X206249357Y-63188788D01*
X206246577Y-63184945D01*
X206406951Y-63184945D01*
X206412918Y-63193659D01*
X206431133Y-63214994D01*
X206459937Y-63247203D01*
X206497675Y-63288535D01*
X206542688Y-63337241D01*
X206593321Y-63391572D01*
X206647916Y-63449777D01*
X206704816Y-63510107D01*
X206762364Y-63570814D01*
X206818903Y-63630146D01*
X206872777Y-63686356D01*
X206922327Y-63737692D01*
X206965898Y-63782406D01*
X207001832Y-63818748D01*
X207028471Y-63844969D01*
X207044160Y-63859319D01*
X207047690Y-63861465D01*
X207049407Y-63850898D01*
X207052806Y-63821911D01*
X207057727Y-63776104D01*
X207064010Y-63715077D01*
X207071497Y-63640427D01*
X207080028Y-63553755D01*
X207089445Y-63456659D01*
X207099589Y-63350739D01*
X207110299Y-63237594D01*
X207119371Y-63140793D01*
X207133325Y-62990000D01*
X207145244Y-62858509D01*
X207155182Y-62745627D01*
X207163190Y-62650660D01*
X207169324Y-62572916D01*
X207173636Y-62511702D01*
X207176179Y-62466326D01*
X207177008Y-62436094D01*
X207176174Y-62420314D01*
X207175092Y-62417583D01*
X207165745Y-62423000D01*
X207143333Y-62442121D01*
X207108696Y-62474132D01*
X207062674Y-62518220D01*
X207006108Y-62573571D01*
X206939837Y-62639370D01*
X206864702Y-62714805D01*
X206787109Y-62793400D01*
X206715519Y-62866283D01*
X206648259Y-62934934D01*
X206586637Y-62998006D01*
X206531961Y-63054152D01*
X206485539Y-63102023D01*
X206448678Y-63140275D01*
X206422687Y-63167558D01*
X206408874Y-63182526D01*
X206406951Y-63184945D01*
X206246577Y-63184945D01*
X206242771Y-63179685D01*
X206224084Y-63157853D01*
X206194903Y-63125014D01*
X206156832Y-63082892D01*
X206111477Y-63033210D01*
X206060445Y-62977690D01*
X206005341Y-62918055D01*
X205947771Y-62856029D01*
X205889340Y-62793335D01*
X205831655Y-62731695D01*
X205776321Y-62672833D01*
X205724945Y-62618472D01*
X205679131Y-62570334D01*
X205640486Y-62530143D01*
X205610616Y-62499622D01*
X205591126Y-62480493D01*
X205583631Y-62474471D01*
X205457451Y-62474471D01*
X205444465Y-62323291D01*
X204902989Y-61750969D01*
X204816377Y-61659435D01*
X204732793Y-61571121D01*
X204653411Y-61487269D01*
X204579405Y-61409117D01*
X204511951Y-61337905D01*
X204452222Y-61274873D01*
X204401392Y-61221260D01*
X204360638Y-61178305D01*
X204331132Y-61147250D01*
X204314049Y-61129333D01*
X204312357Y-61127570D01*
X204263202Y-61076493D01*
X204266212Y-61009084D01*
X204269222Y-60941675D01*
X204846238Y-61550274D01*
X204934282Y-61643047D01*
X205018321Y-61731426D01*
X205097336Y-61814349D01*
X205170306Y-61890754D01*
X205236212Y-61959578D01*
X205294033Y-62019758D01*
X205342749Y-62070232D01*
X205381340Y-62109938D01*
X205408786Y-62137813D01*
X205424067Y-62152794D01*
X205426981Y-62155145D01*
X205427499Y-62144357D01*
X205426339Y-62117635D01*
X205423823Y-62079047D01*
X205420273Y-62032664D01*
X205416011Y-61982552D01*
X205411360Y-61932783D01*
X205406640Y-61887423D01*
X205403989Y-61864658D01*
X205398123Y-61816914D01*
X205530678Y-61816914D01*
X205531067Y-61859633D01*
X205532068Y-61882801D01*
X205534628Y-61922114D01*
X205538457Y-61973699D01*
X205543266Y-62033682D01*
X205548767Y-62098192D01*
X205549378Y-62105127D01*
X205567300Y-62307903D01*
X205624852Y-62370065D01*
X205643691Y-62390232D01*
X205674677Y-62423181D01*
X205716114Y-62467116D01*
X205766304Y-62520244D01*
X205823551Y-62580767D01*
X205886159Y-62646893D01*
X205952430Y-62716825D01*
X206005797Y-62773095D01*
X206329191Y-63113964D01*
X206553214Y-62890112D01*
X206777237Y-62666261D01*
X206460527Y-62663607D01*
X206143817Y-62660953D01*
X206143817Y-62535327D01*
X206143817Y-62409702D01*
X206513207Y-62412338D01*
X206882598Y-62414975D01*
X206885638Y-62479648D01*
X206888679Y-62544321D01*
X207028871Y-62404397D01*
X207124016Y-62309435D01*
X207317323Y-62309435D01*
X207398991Y-62309435D01*
X207480659Y-62309435D01*
X207480659Y-62208920D01*
X207480077Y-62161362D01*
X207478048Y-62130817D01*
X207474143Y-62114223D01*
X207467933Y-62108514D01*
X207466617Y-62108406D01*
X207451921Y-62116038D01*
X207429466Y-62136162D01*
X207402758Y-62164618D01*
X207375303Y-62197246D01*
X207350604Y-62229888D01*
X207332168Y-62258383D01*
X207323582Y-62278139D01*
X207317323Y-62309435D01*
X207124016Y-62309435D01*
X207169064Y-62264473D01*
X207169064Y-62131156D01*
X207169064Y-61997840D01*
X207199218Y-61997840D01*
X207220979Y-61994942D01*
X207228876Y-61983376D01*
X207229444Y-61975224D01*
X207230410Y-61953693D01*
X207232860Y-61919853D01*
X207235923Y-61884761D01*
X207242331Y-61816914D01*
X206386505Y-61816914D01*
X205530678Y-61816914D01*
X205398123Y-61816914D01*
X205328706Y-61816914D01*
X205259289Y-61816914D01*
X205259289Y-61751580D01*
X205259289Y-61686245D01*
X205323097Y-61686245D01*
X205386905Y-61686245D01*
X205390506Y-61678260D01*
X205525979Y-61678260D01*
X205531514Y-61683816D01*
X205550335Y-61685946D01*
X205575556Y-61686245D01*
X205631193Y-61686245D01*
X205631193Y-61635395D01*
X205629879Y-61604906D01*
X205625417Y-61591682D01*
X205618629Y-61591964D01*
X205588399Y-61612335D01*
X205559091Y-61636103D01*
X205536976Y-61657918D01*
X205529844Y-61667702D01*
X205525979Y-61678260D01*
X205390506Y-61678260D01*
X205405250Y-61645563D01*
X205425828Y-61612839D01*
X205458551Y-61574680D01*
X205498301Y-61535953D01*
X205532612Y-61507596D01*
X205842273Y-61507596D01*
X205842273Y-61596920D01*
X205842273Y-61686245D01*
X206535823Y-61686245D01*
X206679915Y-61686106D01*
X206808666Y-61685694D01*
X206921460Y-61685017D01*
X207017677Y-61684085D01*
X207096701Y-61682905D01*
X207157912Y-61681488D01*
X207200693Y-61679841D01*
X207224425Y-61677972D01*
X207229373Y-61676529D01*
X207221328Y-61660124D01*
X207199955Y-61637267D01*
X207169398Y-61611452D01*
X207133799Y-61586172D01*
X207097301Y-61564921D01*
X207096590Y-61564561D01*
X207049582Y-61544518D01*
X206989403Y-61524198D01*
X206922866Y-61505533D01*
X206856780Y-61490456D01*
X206804699Y-61481729D01*
X206756955Y-61475550D01*
X206756955Y-61530640D01*
X206756955Y-61585731D01*
X206460437Y-61585731D01*
X206163919Y-61585731D01*
X206163919Y-61525422D01*
X206163465Y-61492036D01*
X206160654Y-61474033D01*
X206153317Y-61466694D01*
X206139285Y-61465299D01*
X206136278Y-61465313D01*
X206107049Y-61467190D01*
X206063302Y-61472063D01*
X206010280Y-61479230D01*
X205953226Y-61487991D01*
X205905095Y-61496235D01*
X205842273Y-61507596D01*
X205532612Y-61507596D01*
X205539960Y-61501523D01*
X205578411Y-61476258D01*
X205588704Y-61471126D01*
X205614725Y-61458092D01*
X205627127Y-61445000D01*
X205628049Y-61439985D01*
X206284537Y-61439985D01*
X206284537Y-61465113D01*
X206460437Y-61465113D01*
X206636337Y-61465113D01*
X206636337Y-61439985D01*
X206636337Y-61414856D01*
X206460437Y-61414856D01*
X206284537Y-61414856D01*
X206284537Y-61439985D01*
X205628049Y-61439985D01*
X205630937Y-61424286D01*
X205631078Y-61414856D01*
X205631193Y-61407219D01*
X205631193Y-61362429D01*
X205749297Y-61367061D01*
X205822270Y-61367776D01*
X205897659Y-61364865D01*
X205964605Y-61358762D01*
X205967916Y-61358330D01*
X206017027Y-61351850D01*
X206064447Y-61345675D01*
X206102854Y-61340756D01*
X206116175Y-61339090D01*
X206145235Y-61334310D01*
X206159371Y-61327196D01*
X206163741Y-61314466D01*
X206163919Y-61308700D01*
X206163919Y-61284187D01*
X206460437Y-61284187D01*
X206756955Y-61284187D01*
X206756955Y-61314657D01*
X206757092Y-61328649D01*
X206759671Y-61338522D01*
X206767947Y-61345773D01*
X206785173Y-61351899D01*
X206814603Y-61358395D01*
X206859490Y-61366760D01*
X206877313Y-61370013D01*
X206994047Y-61396962D01*
X207098505Y-61432513D01*
X207188311Y-61475713D01*
X207256837Y-61522112D01*
X207299378Y-61556632D01*
X207343157Y-61530976D01*
X207394536Y-61510593D01*
X207445044Y-61507580D01*
X207491906Y-61519664D01*
X207532349Y-61544573D01*
X207563599Y-61580037D01*
X207582882Y-61623784D01*
X207587426Y-61673542D01*
X207576450Y-61722032D01*
X207549041Y-61771024D01*
X207510303Y-61803492D01*
X207459744Y-61819766D01*
X207428276Y-61821940D01*
X207400346Y-61822028D01*
X207381851Y-61824619D01*
X207370418Y-61833200D01*
X207363673Y-61851257D01*
X207359242Y-61882279D01*
X207354752Y-61929752D01*
X207354730Y-61929993D01*
X207348390Y-61997840D01*
X207387178Y-61997840D01*
X207393553Y-61998006D01*
X207399394Y-61997971D01*
X207405532Y-61996936D01*
X207412795Y-61994101D01*
X207422013Y-61988668D01*
X207434016Y-61979836D01*
X207449632Y-61966806D01*
X207469692Y-61948780D01*
X207495024Y-61924957D01*
X207526458Y-61894538D01*
X207564824Y-61856725D01*
X207610950Y-61810717D01*
X207665666Y-61755715D01*
X207729801Y-61690920D01*
X207804186Y-61615532D01*
X207889648Y-61528753D01*
X207987018Y-61429782D01*
X208097124Y-61317821D01*
X208177017Y-61236582D01*
X208485803Y-60922614D01*
X208485803Y-60992215D01*
G37*
D15*
%TO.C,IC3*%
X174173600Y-135150600D02*
X174173600Y-136450800D01*
X174173600Y-138360600D02*
X174173600Y-137060400D01*
X184473600Y-138360600D02*
X184473600Y-135150600D01*
X174173600Y-136450800D02*
G75*
G02*
X174173600Y-137060400I0J-304800D01*
G01*
D13*
%TO.C,C4*%
X210682252Y-140758500D02*
X209259748Y-140758500D01*
X210682252Y-142578500D02*
X209259748Y-142578500D01*
%TO.C,C2*%
X184973100Y-142012520D02*
X184973100Y-142293680D01*
X185993100Y-142012520D02*
X185993100Y-142293680D01*
D14*
%TO.C,LOGO4*%
G36*
X214633896Y-64439379D02*
G01*
X214641293Y-64452062D01*
X214657823Y-64480848D01*
X214682749Y-64524440D01*
X214715330Y-64581540D01*
X214754829Y-64650850D01*
X214800505Y-64731071D01*
X214851619Y-64820905D01*
X214907433Y-64919054D01*
X214967207Y-65024221D01*
X215030202Y-65135107D01*
X215088282Y-65237384D01*
X215153594Y-65352395D01*
X215216395Y-65462934D01*
X215275939Y-65567694D01*
X215331483Y-65665366D01*
X215382280Y-65754640D01*
X215427585Y-65834209D01*
X215466654Y-65902763D01*
X215498741Y-65958995D01*
X215523101Y-66001594D01*
X215538989Y-66029254D01*
X215545374Y-66040201D01*
X215555971Y-66060538D01*
X215558109Y-66071268D01*
X215556806Y-66071798D01*
X215547173Y-66066709D01*
X215521490Y-66052173D01*
X215480955Y-66028887D01*
X215426762Y-65997547D01*
X215360109Y-65958850D01*
X215282191Y-65913494D01*
X215194206Y-65862173D01*
X215097349Y-65805586D01*
X214992817Y-65744428D01*
X214881806Y-65679397D01*
X214765513Y-65611189D01*
X214723703Y-65586647D01*
X214605811Y-65517400D01*
X214492800Y-65450958D01*
X214385867Y-65388027D01*
X214286207Y-65329315D01*
X214195018Y-65275528D01*
X214113496Y-65227373D01*
X214042836Y-65185557D01*
X213984236Y-65150788D01*
X213938892Y-65123771D01*
X213908000Y-65105215D01*
X213892757Y-65095825D01*
X213891344Y-65094838D01*
X213896186Y-65086920D01*
X213915135Y-65071295D01*
X213945029Y-65050363D01*
X213975836Y-65030710D01*
X214107058Y-64943814D01*
X214230223Y-64849791D01*
X214342823Y-64750948D01*
X214442348Y-64649590D01*
X214526289Y-64548022D01*
X214570403Y-64484397D01*
X214616853Y-64411677D01*
X214633896Y-64439379D01*
G37*
G36*
X213053713Y-61675657D02*
G01*
X213068760Y-61699977D01*
X213092059Y-61738932D01*
X213122814Y-61791127D01*
X213160230Y-61855171D01*
X213203512Y-61929670D01*
X213251865Y-62013233D01*
X213304492Y-62104465D01*
X213360599Y-62201975D01*
X213419389Y-62304370D01*
X213480069Y-62410256D01*
X213541841Y-62518242D01*
X213603911Y-62626934D01*
X213665483Y-62734940D01*
X213725762Y-62840866D01*
X213783952Y-62943321D01*
X213839259Y-63040912D01*
X213890885Y-63132245D01*
X213938037Y-63215928D01*
X213979919Y-63290569D01*
X214015735Y-63354774D01*
X214044689Y-63407151D01*
X214065987Y-63446307D01*
X214078833Y-63470849D01*
X214082514Y-63479213D01*
X214074576Y-63492401D01*
X214052463Y-63512773D01*
X214019559Y-63537925D01*
X213979249Y-63565453D01*
X213934919Y-63592951D01*
X213889952Y-63618015D01*
X213879859Y-63623191D01*
X213766924Y-63672137D01*
X213639876Y-63713189D01*
X213503434Y-63745201D01*
X213362319Y-63767031D01*
X213247581Y-63776474D01*
X213066036Y-63790056D01*
X212902073Y-63812474D01*
X212755255Y-63843863D01*
X212625147Y-63884359D01*
X212511311Y-63934098D01*
X212413312Y-63993217D01*
X212330714Y-64061850D01*
X212329890Y-64062658D01*
X212252530Y-64138637D01*
X212024770Y-64005235D01*
X211949653Y-63960795D01*
X211891013Y-63925056D01*
X211847700Y-63897254D01*
X211818565Y-63876622D01*
X211802458Y-63862396D01*
X211798157Y-63854333D01*
X211803168Y-63843480D01*
X211817399Y-63816649D01*
X211840123Y-63775112D01*
X211870616Y-63720137D01*
X211908150Y-63652995D01*
X211952002Y-63574957D01*
X212001444Y-63487291D01*
X212055752Y-63391268D01*
X212114200Y-63288159D01*
X212176061Y-63179232D01*
X212240611Y-63065759D01*
X212307124Y-62949008D01*
X212374874Y-62830251D01*
X212443136Y-62710757D01*
X212511183Y-62591797D01*
X212578291Y-62474639D01*
X212643733Y-62360555D01*
X212706784Y-62250814D01*
X212766718Y-62146686D01*
X212822810Y-62049442D01*
X212874334Y-61960351D01*
X212920564Y-61880683D01*
X212960775Y-61811709D01*
X212994241Y-61754698D01*
X213020237Y-61710921D01*
X213038036Y-61681647D01*
X213046913Y-61668146D01*
X213047714Y-61667363D01*
X213053713Y-61675657D01*
G37*
G36*
X211775374Y-64416001D02*
G01*
X211836800Y-64452083D01*
X211892737Y-64485240D01*
X211940789Y-64514026D01*
X211978563Y-64537000D01*
X212003663Y-64552717D01*
X212013544Y-64559566D01*
X212013562Y-64571508D01*
X212003893Y-64598217D01*
X211984255Y-64640326D01*
X211954366Y-64698467D01*
X211938296Y-64728548D01*
X211898943Y-64803616D01*
X211869280Y-64865880D01*
X211848050Y-64919285D01*
X211833998Y-64967775D01*
X211825866Y-65015293D01*
X211822397Y-65065784D01*
X211822020Y-65093549D01*
X211822954Y-65138388D01*
X211826193Y-65181756D01*
X211832394Y-65226533D01*
X211842212Y-65275604D01*
X211856305Y-65331849D01*
X211875327Y-65398152D01*
X211899936Y-65477394D01*
X211930787Y-65572458D01*
X211931629Y-65575017D01*
X212013123Y-65822615D01*
X212051051Y-65822615D01*
X212083451Y-65827491D01*
X212120104Y-65839753D01*
X212133069Y-65845886D01*
X212184103Y-65883459D01*
X212225895Y-65937635D01*
X212258655Y-66008829D01*
X212282592Y-66097458D01*
X212293570Y-66165013D01*
X212299269Y-66206940D01*
X212304144Y-66232501D01*
X212309595Y-66245214D01*
X212317020Y-66248594D01*
X212326058Y-66246718D01*
X212371864Y-66222224D01*
X212409509Y-66180380D01*
X212423898Y-66155176D01*
X212424017Y-66154801D01*
X212658454Y-66154801D01*
X212663537Y-66197045D01*
X212677933Y-66223792D01*
X212722197Y-66260597D01*
X212772740Y-66280066D01*
X212800333Y-66282759D01*
X212825837Y-66280953D01*
X212847035Y-66273321D01*
X212870354Y-66256620D01*
X212893648Y-66235682D01*
X212925478Y-66201412D01*
X212954971Y-66159101D01*
X212971232Y-66129624D01*
X213023137Y-66129624D01*
X213027108Y-66159021D01*
X213036462Y-66171893D01*
X213086239Y-66201605D01*
X213146194Y-66218918D01*
X213186233Y-66222374D01*
X213220628Y-66221570D01*
X213243551Y-66216297D01*
X213263510Y-66203139D01*
X213284972Y-66182733D01*
X213307302Y-66159296D01*
X213318799Y-66141018D01*
X213322394Y-66119788D01*
X213321017Y-66087489D01*
X213320742Y-66083672D01*
X213314044Y-66038423D01*
X213299952Y-66004467D01*
X213290847Y-65991159D01*
X213271849Y-65972028D01*
X213242685Y-65948805D01*
X213208471Y-65924872D01*
X213174320Y-65903611D01*
X213145349Y-65888406D01*
X213126745Y-65882639D01*
X213118609Y-65891532D01*
X213108259Y-65914802D01*
X213098345Y-65946005D01*
X213084059Y-65988157D01*
X213065310Y-66030044D01*
X213051885Y-66053547D01*
X213031596Y-66092932D01*
X213023137Y-66129624D01*
X212971232Y-66129624D01*
X212985527Y-66103712D01*
X212993258Y-66088194D01*
X213019682Y-66031363D01*
X213035650Y-65987943D01*
X213041426Y-65954448D01*
X213037273Y-65927394D01*
X213023454Y-65903298D01*
X213008487Y-65886640D01*
X212984262Y-65865365D01*
X212961485Y-65855377D01*
X212930230Y-65852656D01*
X212924462Y-65852627D01*
X212891990Y-65854895D01*
X212863850Y-65863675D01*
X212831746Y-65881930D01*
X212819450Y-65890141D01*
X212767391Y-65930411D01*
X212728431Y-65973345D01*
X212696402Y-66026261D01*
X212685304Y-66049329D01*
X212665764Y-66104275D01*
X212658454Y-66154801D01*
X212424017Y-66154801D01*
X212439609Y-66105598D01*
X212446329Y-66041973D01*
X212444549Y-65967871D01*
X212434760Y-65886861D01*
X212417456Y-65802515D01*
X212393127Y-65718402D01*
X212362265Y-65638092D01*
X212348628Y-65608702D01*
X212305982Y-65521598D01*
X212324779Y-65449519D01*
X212339438Y-65361970D01*
X212338035Y-65276793D01*
X212320807Y-65198247D01*
X212308998Y-65168451D01*
X212295046Y-65136133D01*
X212285354Y-65110160D01*
X212282201Y-65097399D01*
X212288457Y-65085978D01*
X212305427Y-65063097D01*
X212330410Y-65031889D01*
X212360705Y-64995484D01*
X212393612Y-64957017D01*
X212426430Y-64919617D01*
X212456459Y-64886418D01*
X212480998Y-64860552D01*
X212497348Y-64845150D01*
X212502211Y-64842229D01*
X212513348Y-64845950D01*
X212513707Y-64858108D01*
X212502528Y-64880200D01*
X212479051Y-64913719D01*
X212442512Y-64960160D01*
X212441544Y-64961353D01*
X212404661Y-65007980D01*
X212379761Y-65043846D01*
X212365424Y-65073042D01*
X212360232Y-65099663D01*
X212362764Y-65127802D01*
X212371601Y-65161553D01*
X212371845Y-65162355D01*
X212377095Y-65187568D01*
X212382388Y-65226377D01*
X212386926Y-65272386D01*
X212388804Y-65298341D01*
X212391185Y-65351701D01*
X212390273Y-65391735D01*
X212385601Y-65424923D01*
X212377548Y-65455091D01*
X212360004Y-65510869D01*
X212397571Y-65571732D01*
X212419114Y-65611674D01*
X212437333Y-65654293D01*
X212446901Y-65685088D01*
X212455215Y-65716318D01*
X212464367Y-65732788D01*
X212477768Y-65739580D01*
X212484193Y-65740623D01*
X212510923Y-65734881D01*
X212540026Y-65714973D01*
X212566790Y-65685446D01*
X212586506Y-65650845D01*
X212591139Y-65637425D01*
X212602226Y-65567186D01*
X212595654Y-65497442D01*
X212570945Y-65426152D01*
X212527620Y-65351274D01*
X212522394Y-65343722D01*
X212498311Y-65305676D01*
X212486121Y-65277705D01*
X212485375Y-65265189D01*
X212492142Y-65245281D01*
X212502707Y-65215804D01*
X212507645Y-65202371D01*
X212517906Y-65163792D01*
X212520197Y-65120441D01*
X212518345Y-65090935D01*
X212512358Y-65024518D01*
X212558568Y-64968387D01*
X212586989Y-64935780D01*
X212607390Y-64918089D01*
X212622855Y-64913586D01*
X212636466Y-64920542D01*
X212639233Y-64923153D01*
X212641597Y-64934808D01*
X212634333Y-64957438D01*
X212616624Y-64993245D01*
X212606006Y-65012510D01*
X212572360Y-65082835D01*
X212551560Y-65149955D01*
X212544566Y-65210142D01*
X212547304Y-65240895D01*
X212556136Y-65270966D01*
X212571847Y-65308960D01*
X212592210Y-65350911D01*
X212614997Y-65392853D01*
X212637981Y-65430820D01*
X212658934Y-65460846D01*
X212675629Y-65478965D01*
X212682986Y-65482481D01*
X212696482Y-65473768D01*
X212711121Y-65451872D01*
X212723774Y-65423153D01*
X212731311Y-65393975D01*
X212732200Y-65382442D01*
X212726293Y-65351287D01*
X212709923Y-65309292D01*
X212693544Y-65276713D01*
X212654991Y-65205999D01*
X212679533Y-65126654D01*
X212697690Y-65071658D01*
X212714518Y-65027693D01*
X212728915Y-64997306D01*
X212739777Y-64983042D01*
X212742045Y-64982284D01*
X212754393Y-64987564D01*
X212767340Y-64996015D01*
X212776872Y-65004476D01*
X212778895Y-65014199D01*
X212772290Y-65030019D01*
X212755936Y-65056770D01*
X212751746Y-65063313D01*
X212723863Y-65121890D01*
X212715495Y-65179574D01*
X212726678Y-65235215D01*
X212745439Y-65271254D01*
X212767892Y-65299419D01*
X212787324Y-65308999D01*
X212806018Y-65299710D01*
X212826259Y-65271270D01*
X212832164Y-65260501D01*
X212846459Y-65231017D01*
X212851656Y-65209145D01*
X212849037Y-65185390D01*
X212844669Y-65167860D01*
X212837858Y-65135028D01*
X212833724Y-65100529D01*
X212832523Y-65069916D01*
X212834513Y-65048740D01*
X212838857Y-65042308D01*
X212849422Y-65047095D01*
X212873792Y-65060199D01*
X212908563Y-65079733D01*
X212950330Y-65103810D01*
X212959493Y-65109163D01*
X213073689Y-65176018D01*
X213010576Y-65231034D01*
X212909268Y-65325894D01*
X212822132Y-65421131D01*
X212750103Y-65515375D01*
X212694121Y-65607255D01*
X212655121Y-65695400D01*
X212634041Y-65778439D01*
X212633452Y-65782599D01*
X212628466Y-65824104D01*
X212623742Y-65871935D01*
X212619538Y-65922161D01*
X212616111Y-65970852D01*
X212613720Y-66014075D01*
X212612623Y-66047900D01*
X212613079Y-66068396D01*
X212614392Y-66072713D01*
X212621809Y-66064966D01*
X212637285Y-66044296D01*
X212657984Y-66014560D01*
X212666704Y-66001573D01*
X212720051Y-65927426D01*
X212769669Y-65871695D01*
X212816839Y-65833427D01*
X212862842Y-65811669D01*
X212908959Y-65805466D01*
X212927950Y-65807160D01*
X212964415Y-65816916D01*
X212998955Y-65832670D01*
X213004353Y-65836070D01*
X213028580Y-65852281D01*
X213046685Y-65864086D01*
X213049132Y-65865615D01*
X213060546Y-65861266D01*
X213081536Y-65841649D01*
X213110669Y-65808204D01*
X213111136Y-65807620D01*
X213193143Y-65807620D01*
X213198466Y-65832909D01*
X213212731Y-65855565D01*
X213245548Y-65886804D01*
X213288626Y-65914263D01*
X213332342Y-65931918D01*
X213336198Y-65932871D01*
X213383866Y-65935984D01*
X213424235Y-65920945D01*
X213442658Y-65906175D01*
X213456720Y-65889901D01*
X213464136Y-65871293D01*
X213466756Y-65843647D01*
X213466781Y-65818828D01*
X213460107Y-65760486D01*
X213443133Y-65708535D01*
X213417893Y-65666179D01*
X213386420Y-65636619D01*
X213350745Y-65623056D01*
X213342167Y-65622536D01*
X213326455Y-65625436D01*
X213309618Y-65635986D01*
X213288435Y-65656956D01*
X213259683Y-65691122D01*
X213253480Y-65698856D01*
X213219760Y-65744016D01*
X213199944Y-65779130D01*
X213193143Y-65807620D01*
X213111136Y-65807620D01*
X213129088Y-65785152D01*
X213209105Y-65685568D01*
X213291317Y-65588755D01*
X213370520Y-65500780D01*
X213398844Y-65470825D01*
X213462904Y-65404148D01*
X214215581Y-65844697D01*
X214344709Y-65920274D01*
X214480985Y-66000027D01*
X214621685Y-66082363D01*
X214764085Y-66165689D01*
X214905462Y-66248410D01*
X215043091Y-66328934D01*
X215174249Y-66405666D01*
X215296212Y-66477013D01*
X215406257Y-66541381D01*
X215498467Y-66595310D01*
X215592756Y-66650502D01*
X215681988Y-66702834D01*
X215764650Y-66751414D01*
X215839231Y-66795348D01*
X215904217Y-66833741D01*
X215958097Y-66865701D01*
X215999359Y-66890333D01*
X216026489Y-66906745D01*
X216037976Y-66914042D01*
X216038179Y-66914211D01*
X216029129Y-66914987D01*
X216000710Y-66915739D01*
X215953563Y-66916466D01*
X215888326Y-66917164D01*
X215805640Y-66917834D01*
X215706145Y-66918471D01*
X215590479Y-66919076D01*
X215459283Y-66919645D01*
X215313195Y-66920177D01*
X215152857Y-66920670D01*
X214978906Y-66921122D01*
X214791984Y-66921532D01*
X214592729Y-66921896D01*
X214381781Y-66922215D01*
X214159780Y-66922484D01*
X213927365Y-66922704D01*
X213685176Y-66922871D01*
X213433853Y-66922984D01*
X213174035Y-66923041D01*
X213044244Y-66923048D01*
X210040806Y-66923048D01*
X210055050Y-66895500D01*
X210061728Y-66883479D01*
X210077655Y-66855274D01*
X210102154Y-66812069D01*
X210134548Y-66755053D01*
X210174161Y-66685412D01*
X210220315Y-66604331D01*
X210272332Y-66512999D01*
X210329536Y-66412600D01*
X210391250Y-66304323D01*
X210456795Y-66189353D01*
X210525496Y-66068877D01*
X210596675Y-65944082D01*
X210635892Y-65875337D01*
X212032102Y-65875337D01*
X212035716Y-65904030D01*
X212045409Y-65945439D01*
X212059457Y-65993852D01*
X212076136Y-66043561D01*
X212093721Y-66088856D01*
X212102485Y-66108420D01*
X212121028Y-66142220D01*
X212144638Y-66178227D01*
X212170099Y-66212333D01*
X212194198Y-66240431D01*
X212213720Y-66258411D01*
X212223275Y-66262788D01*
X212233222Y-66254500D01*
X212243422Y-66235277D01*
X212250222Y-66199003D01*
X212249354Y-66150157D01*
X212241952Y-66094138D01*
X212229149Y-66036344D01*
X212212079Y-65982171D01*
X212191874Y-65937019D01*
X212175707Y-65912749D01*
X212134493Y-65875718D01*
X212088799Y-65855698D01*
X212062611Y-65852627D01*
X212040765Y-65855374D01*
X212032741Y-65866481D01*
X212032102Y-65875337D01*
X210635892Y-65875337D01*
X210669655Y-65816154D01*
X210743758Y-65686280D01*
X210818308Y-65555646D01*
X210892627Y-65425439D01*
X210966038Y-65296845D01*
X211037864Y-65171052D01*
X211107428Y-65049245D01*
X211174052Y-64932611D01*
X211237061Y-64822337D01*
X211295775Y-64719610D01*
X211349519Y-64625615D01*
X211397614Y-64541540D01*
X211439384Y-64468570D01*
X211474153Y-64407894D01*
X211501241Y-64360696D01*
X211519973Y-64328165D01*
X211529671Y-64311485D01*
X211530640Y-64309874D01*
X211547487Y-64282718D01*
X211775374Y-64416001D01*
G37*
D10*
%TO.C,X1*%
X91870000Y-144064000D02*
X91870000Y-152446000D01*
X91870000Y-152446000D02*
X117270000Y-152446000D01*
X117270000Y-144064000D02*
X91870000Y-144064000D01*
X117270000Y-152446000D02*
X117270000Y-144064000D01*
D13*
%TO.C,C6*%
X184973100Y-131344520D02*
X184973100Y-131625680D01*
X185993100Y-131344520D02*
X185993100Y-131625680D01*
%TD*%
M02*
