%TF.GenerationSoftware,KiCad,Pcbnew,8.0.8-8.0.8-0~ubuntu22.04.1*%
%TF.CreationDate,2025-02-04T16:45:40+01:00*%
%TF.ProjectId,EEZ DIB 1.2 template,45455a20-4449-4422-9031-2e322074656d,rev?*%
%TF.SameCoordinates,Original*%
%TF.FileFunction,Copper,L3,Inr*%
%TF.FilePolarity,Positive*%
%FSLAX46Y46*%
G04 Gerber Fmt 4.6, Leading zero omitted, Abs format (unit mm)*
G04 Created by KiCad (PCBNEW 8.0.8-8.0.8-0~ubuntu22.04.1) date 2025-02-04 16:45:40*
%MOMM*%
%LPD*%
G01*
G04 APERTURE LIST*
G04 Aperture macros list*
%AMOutline5P*
0 Free polygon, 5 corners , with rotation*
0 The origin of the aperture is its center*
0 number of corners: always 5*
0 $1 to $10 corner X, Y*
0 $11 Rotation angle, in degrees counterclockwise*
0 create outline with 5 corners*
4,1,5,$1,$2,$3,$4,$5,$6,$7,$8,$9,$10,$1,$2,$11*%
%AMOutline6P*
0 Free polygon, 6 corners , with rotation*
0 The origin of the aperture is its center*
0 number of corners: always 6*
0 $1 to $12 corner X, Y*
0 $13 Rotation angle, in degrees counterclockwise*
0 create outline with 6 corners*
4,1,6,$1,$2,$3,$4,$5,$6,$7,$8,$9,$10,$11,$12,$1,$2,$13*%
%AMOutline7P*
0 Free polygon, 7 corners , with rotation*
0 The origin of the aperture is its center*
0 number of corners: always 7*
0 $1 to $14 corner X, Y*
0 $15 Rotation angle, in degrees counterclockwise*
0 create outline with 7 corners*
4,1,7,$1,$2,$3,$4,$5,$6,$7,$8,$9,$10,$11,$12,$13,$14,$1,$2,$15*%
%AMOutline8P*
0 Free polygon, 8 corners , with rotation*
0 The origin of the aperture is its center*
0 number of corners: always 8*
0 $1 to $16 corner X, Y*
0 $17 Rotation angle, in degrees counterclockwise*
0 create outline with 8 corners*
4,1,8,$1,$2,$3,$4,$5,$6,$7,$8,$9,$10,$11,$12,$13,$14,$15,$16,$1,$2,$17*%
G04 Aperture macros list end*
%ADD10C,0.101600*%
%TA.AperFunction,NonConductor*%
%ADD11C,0.101600*%
%TD*%
%TA.AperFunction,ComponentPad*%
%ADD12Outline8P,-1.200000X0.497056X-0.497056X1.200000X0.497056X1.200000X1.200000X0.497056X1.200000X-0.497056X0.497056X-1.200000X-0.497056X-1.200000X-1.200000X-0.497056X270.000000*%
%TD*%
%TA.AperFunction,ComponentPad*%
%ADD13R,1.200000X1.200000*%
%TD*%
%TA.AperFunction,ComponentPad*%
%ADD14Outline8P,-0.600000X0.248528X-0.248528X0.600000X0.248528X0.600000X0.600000X0.248528X0.600000X-0.248528X0.248528X-0.600000X-0.248528X-0.600000X-0.600000X-0.248528X0.000000*%
%TD*%
%TA.AperFunction,ComponentPad*%
%ADD15R,1.500000X1.500000*%
%TD*%
%TA.AperFunction,ComponentPad*%
%ADD16Outline8P,-0.750000X0.310660X-0.310660X0.750000X0.310660X0.750000X0.750000X0.310660X0.750000X-0.310660X0.310660X-0.750000X-0.310660X-0.750000X-0.750000X-0.310660X0.000000*%
%TD*%
%TA.AperFunction,ComponentPad*%
%ADD17C,5.500000*%
%TD*%
%TA.AperFunction,ComponentPad*%
%ADD18Outline8P,-0.750000X0.310660X-0.310660X0.750000X0.310660X0.750000X0.750000X0.310660X0.750000X-0.310660X0.310660X-0.750000X-0.310660X-0.750000X-0.750000X-0.310660X180.000000*%
%TD*%
%TA.AperFunction,ViaPad*%
%ADD19C,0.806400*%
%TD*%
%TA.AperFunction,ViaPad*%
%ADD20C,0.600000*%
%TD*%
G04 APERTURE END LIST*
D10*
D11*
X92341700Y-63039910D02*
X92907757Y-63039910D01*
X92907757Y-63039910D02*
X92602957Y-63388253D01*
X92602957Y-63388253D02*
X92733586Y-63388253D01*
X92733586Y-63388253D02*
X92820672Y-63431796D01*
X92820672Y-63431796D02*
X92864214Y-63475339D01*
X92864214Y-63475339D02*
X92907757Y-63562425D01*
X92907757Y-63562425D02*
X92907757Y-63780139D01*
X92907757Y-63780139D02*
X92864214Y-63867225D01*
X92864214Y-63867225D02*
X92820672Y-63910768D01*
X92820672Y-63910768D02*
X92733586Y-63954310D01*
X92733586Y-63954310D02*
X92472329Y-63954310D01*
X92472329Y-63954310D02*
X92385243Y-63910768D01*
X92385243Y-63910768D02*
X92341700Y-63867225D01*
D12*
%TO.N,PE*%
%TO.C,J1*%
X213677100Y-146915600D03*
%TO.N,unconnected-(J1-Pad2)*%
X208597100Y-146915600D03*
%TD*%
D13*
%TO.N,GND*%
%TO.C,X4*%
X136500000Y-66500000D03*
D14*
X136500000Y-64500000D03*
%TO.N,/DIB v1.2 interface/AFE2N*%
X138500000Y-66500000D03*
%TO.N,/DIB v1.2 interface/AFE2P*%
X138500000Y-64500000D03*
%TO.N,GND*%
X140500000Y-66500000D03*
X140500000Y-64500000D03*
%TO.N,ADIB2_ID0*%
X142500000Y-66500000D03*
%TO.N,ADIB2_ID2*%
X142500000Y-64500000D03*
%TO.N,ADIB2_ID1*%
X144500000Y-66500000D03*
%TO.N,GND*%
X144500000Y-64500000D03*
%TD*%
D13*
%TO.N,GND*%
%TO.C,X3*%
X116500000Y-66500000D03*
D14*
X116500000Y-64500000D03*
%TO.N,/DIB v1.2 interface/AFE1N*%
X118500000Y-66500000D03*
%TO.N,/DIB v1.2 interface/AFE1P*%
X118500000Y-64500000D03*
%TO.N,GND*%
X120500000Y-66500000D03*
X120500000Y-64500000D03*
%TO.N,ADIB1_ID0*%
X122500000Y-66500000D03*
%TO.N,ADIB1_ID2*%
X122500000Y-64500000D03*
%TO.N,ADIB1_ID1*%
X124500000Y-66500000D03*
%TO.N,GND*%
X124500000Y-64500000D03*
%TD*%
D15*
%TO.N,+3V3*%
%TO.C,X2*%
X129980000Y-142540000D03*
D16*
%TO.N,unconnected-(X2-Pin_2-Pad2)*%
X129980000Y-140000000D03*
%TO.N,unconnected-(X2-Pin_3-Pad3)*%
X132520000Y-142540000D03*
%TO.N,/DIB v1.2 interface/DIB_NRESET*%
X132520000Y-140000000D03*
%TO.N,/DIB v1.2 interface/DIB_SCL*%
X135060000Y-142540000D03*
%TO.N,/DIB v1.2 interface/OE_SYNC*%
X135060000Y-140000000D03*
%TO.N,GNDIO*%
X137600000Y-142540000D03*
%TO.N,/DIB v1.2 interface/DIB_SDA*%
X137600000Y-140000000D03*
%TO.N,Net-(RN1B-2)*%
X140140000Y-142540000D03*
%TO.N,/DIB v1.2 interface/DIB_IRQ*%
X140140000Y-140000000D03*
%TO.N,GNDIO*%
X142680000Y-142540000D03*
%TO.N,/DIB v1.2 interface/DIB_CSB*%
X142680000Y-140000000D03*
%TO.N,Net-(RN1C-2)*%
X145220000Y-142540000D03*
%TO.N,Net-(RN1A-2)*%
X145220000Y-140000000D03*
%TO.N,Net-(RN1D-2)*%
X147760000Y-142540000D03*
%TO.N,GNDIO*%
X147760000Y-140000000D03*
%TO.N,/DIB v1.2 interface/DIB_A0*%
X150300000Y-142540000D03*
%TO.N,/DIB v1.2 interface/DIB_A2*%
X150300000Y-140000000D03*
%TO.N,/DIB v1.2 interface/DIB_A1*%
X152840000Y-142540000D03*
%TO.N,GNDIO*%
X152840000Y-140000000D03*
%TO.N,unconnected-(X2-Pin_21-Pad21)*%
X155380000Y-142540000D03*
%TO.N,unconnected-(X2-Pin_22-Pad22)*%
X155380000Y-140000000D03*
%TO.N,+5V*%
X157920000Y-142540000D03*
X157920000Y-140000000D03*
%TO.N,GNDIO*%
X160460000Y-142540000D03*
%TO.N,/DIB v1.2 interface/DIB_BOOT*%
X160460000Y-140000000D03*
%TO.N,unconnected-(X2-Pin_27-Pad27)*%
X163000000Y-142540000D03*
%TO.N,unconnected-(X2-Pin_28-Pad28)*%
X163000000Y-140000000D03*
%TD*%
D17*
%TO.N,*%
%TO.C,KK1*%
X86500000Y-63000000D03*
%TD*%
D15*
%TO.N,unconnected-(X1-Pin_1-Pad1)*%
%TO.C,X1*%
X93140000Y-142540000D03*
D18*
%TO.N,unconnected-(X1-Pin_2-Pad2)*%
X93140000Y-140000000D03*
%TO.N,unconnected-(X1-Pin_3-Pad3)*%
X95680000Y-142540000D03*
%TO.N,unconnected-(X1-Pin_4-Pad4)*%
X95680000Y-140000000D03*
%TO.N,unconnected-(X1-Pin_5-Pad5)*%
X98220000Y-142540000D03*
%TO.N,unconnected-(X1-Pin_6-Pad6)*%
X98220000Y-140000000D03*
%TO.N,unconnected-(X1-Pin_7-Pad7)*%
X100760000Y-142540000D03*
%TO.N,unconnected-(X1-Pin_8-Pad8)*%
X100760000Y-140000000D03*
%TO.N,unconnected-(X1-Pin_9-Pad9)*%
X103300000Y-142540000D03*
%TO.N,unconnected-(X1-Pin_10-Pad10)*%
X103300000Y-140000000D03*
%TO.N,unconnected-(X1-Pin_11-Pad11)*%
X105840000Y-142540000D03*
%TO.N,unconnected-(X1-Pin_12-Pad12)*%
X105840000Y-140000000D03*
%TO.N,unconnected-(X1-Pin_13-Pad13)*%
X108380000Y-142540000D03*
%TO.N,unconnected-(X1-Pin_14-Pad14)*%
X108380000Y-140000000D03*
%TO.N,unconnected-(X1-Pin_15-Pad15)*%
X110920000Y-142540000D03*
%TO.N,unconnected-(X1-Pin_16-Pad16)*%
X110920000Y-140000000D03*
%TO.N,unconnected-(X1-Pin_17-Pad17)*%
X113460000Y-142540000D03*
%TO.N,unconnected-(X1-Pin_18-Pad18)*%
X113460000Y-140000000D03*
%TO.N,unconnected-(X1-Pin_19-Pad19)*%
X116000000Y-142540000D03*
%TO.N,unconnected-(X1-Pin_20-Pad20)*%
X116000000Y-140000000D03*
%TD*%
D17*
%TO.N,*%
%TO.C,KK2*%
X86500000Y-147000000D03*
%TD*%
D19*
%TO.N,GND*%
X176148600Y-132945600D03*
X209336000Y-141668500D03*
X183768600Y-135231600D03*
X184657600Y-130596100D03*
X194373100Y-132945600D03*
X186753100Y-132945600D03*
X173862600Y-130659600D03*
%TO.N,+3V3*%
X172338600Y-139232100D03*
X166433510Y-134810500D03*
X171449600Y-143359600D03*
X182435100Y-140565600D03*
X186245500Y-141668500D03*
X193103100Y-140565600D03*
%TO.N,GNDIO*%
X168401600Y-143867600D03*
X173164100Y-141485200D03*
X186245500Y-143002000D03*
X186753100Y-140565600D03*
X170624100Y-140481800D03*
X184403600Y-139359100D03*
X165848900Y-136171400D03*
X194373100Y-140565600D03*
X176148600Y-140565600D03*
%TO.N,/DIB v1.2 interface/DIB_A0*%
X169671600Y-138762200D03*
%TO.N,+3V3_ISO*%
X193039600Y-135168100D03*
X173862600Y-132374100D03*
X182498600Y-135231600D03*
X184657600Y-132374100D03*
%TO.N,/DIB v1.2 interface/DIB_SDA*%
X151066100Y-144629600D03*
%TO.N,/DIB v1.2 interface/DIB_SCL*%
X151764600Y-145391600D03*
%TO.N,/DIB v1.2 interface/DIB_BOOT*%
X177863502Y-141097002D03*
%TO.N,/DIB v1.2 interface/DIB_NRESET*%
X176593500Y-143129000D03*
X176466504Y-149138100D03*
%TO.N,/DIB v1.2 interface/OE_SYNC*%
X175387000Y-149138100D03*
X175387000Y-145391600D03*
D20*
%TO.N,/DIB v1.2 interface/DIB_CSB*%
X183515008Y-143256000D03*
X183515000Y-147193000D03*
%TO.N,/DIB v1.2 interface/DIB_IRQ*%
X179705000Y-143319506D03*
X179705000Y-148653500D03*
D19*
%TO.N,Net-(RN1A-2)*%
X144017600Y-145201100D03*
%TD*%
%TA.AperFunction,Conductor*%
%TO.N,+3V3*%
G36*
X170175960Y-132819135D02*
G01*
X170280777Y-132832934D01*
X170296532Y-132837155D01*
X170390400Y-132876037D01*
X170404518Y-132884187D01*
X170485128Y-132946041D01*
X170496662Y-132957576D01*
X170558509Y-133038177D01*
X170566663Y-133052301D01*
X170601328Y-133135986D01*
X170605543Y-133146163D01*
X170609765Y-133161922D01*
X170623565Y-133266740D01*
X170624100Y-133274898D01*
X170624100Y-138099994D01*
X170803706Y-138279600D01*
X194719191Y-138279600D01*
X194727348Y-138280134D01*
X194846606Y-138295835D01*
X194862363Y-138300057D01*
X194969685Y-138344511D01*
X194983811Y-138352666D01*
X195079255Y-138425904D01*
X195085391Y-138431286D01*
X195364413Y-138710308D01*
X195369796Y-138716445D01*
X195404908Y-138762203D01*
X195443030Y-138811884D01*
X195451188Y-138826014D01*
X195495642Y-138933336D01*
X195499864Y-138949096D01*
X195515565Y-139068351D01*
X195516100Y-139076509D01*
X195516100Y-151928005D01*
X195515565Y-151936163D01*
X195499864Y-152055418D01*
X195495642Y-152071178D01*
X195451188Y-152178500D01*
X195443030Y-152192630D01*
X195372319Y-152284782D01*
X195360782Y-152296319D01*
X195268630Y-152367030D01*
X195254500Y-152375188D01*
X195147178Y-152419642D01*
X195131418Y-152423864D01*
X195012164Y-152439565D01*
X195004006Y-152440100D01*
X127702194Y-152440100D01*
X127694036Y-152439565D01*
X127574781Y-152423864D01*
X127559021Y-152419642D01*
X127451699Y-152375188D01*
X127437571Y-152367031D01*
X127345414Y-152296316D01*
X127333883Y-152284785D01*
X127263166Y-152192626D01*
X127255011Y-152178500D01*
X127210557Y-152071178D01*
X127206335Y-152055418D01*
X127190635Y-151936163D01*
X127190100Y-151928005D01*
X127190100Y-149138096D01*
X174724469Y-149138096D01*
X174724469Y-149138103D01*
X174743719Y-149296646D01*
X174743720Y-149296650D01*
X174743720Y-149296651D01*
X174743721Y-149296654D01*
X174788443Y-149414576D01*
X174800359Y-149445997D01*
X174891085Y-149577436D01*
X174891088Y-149577439D01*
X175010639Y-149683352D01*
X175152063Y-149757577D01*
X175307141Y-149795800D01*
X175307143Y-149795800D01*
X175466857Y-149795800D01*
X175466859Y-149795800D01*
X175621937Y-149757577D01*
X175763361Y-149683352D01*
X175882912Y-149577439D01*
X175882912Y-149577438D01*
X175885307Y-149575317D01*
X175930526Y-149559713D01*
X175968197Y-149575317D01*
X175970591Y-149577438D01*
X175970592Y-149577439D01*
X176090143Y-149683352D01*
X176231567Y-149757577D01*
X176386645Y-149795800D01*
X176386647Y-149795800D01*
X176546361Y-149795800D01*
X176546363Y-149795800D01*
X176701441Y-149757577D01*
X176842865Y-149683352D01*
X176962416Y-149577439D01*
X177053146Y-149445994D01*
X177109783Y-149296654D01*
X177119967Y-149212785D01*
X177129035Y-149138103D01*
X177129035Y-149138096D01*
X177109784Y-148979553D01*
X177109783Y-148979549D01*
X177109783Y-148979546D01*
X177053146Y-148830206D01*
X177053144Y-148830204D01*
X177053144Y-148830202D01*
X176962418Y-148698763D01*
X176962414Y-148698759D01*
X176911325Y-148653498D01*
X179145715Y-148653498D01*
X179145715Y-148653501D01*
X179164770Y-148798247D01*
X179164771Y-148798253D01*
X179164772Y-148798254D01*
X179220645Y-148933143D01*
X179309526Y-149048974D01*
X179425357Y-149137855D01*
X179560246Y-149193728D01*
X179560250Y-149193728D01*
X179560252Y-149193729D01*
X179704998Y-149212785D01*
X179705000Y-149212785D01*
X179705002Y-149212785D01*
X179849747Y-149193729D01*
X179849747Y-149193728D01*
X179849754Y-149193728D01*
X179984643Y-149137855D01*
X180100474Y-149048974D01*
X180189355Y-148933143D01*
X180245228Y-148798254D01*
X180264285Y-148653500D01*
X180246528Y-148518623D01*
X180245229Y-148508752D01*
X180245228Y-148508750D01*
X180245228Y-148508746D01*
X180189355Y-148373858D01*
X180100474Y-148258026D01*
X180100472Y-148258025D01*
X180100472Y-148258024D01*
X180065349Y-148231074D01*
X179984643Y-148169145D01*
X179984639Y-148169143D01*
X179849757Y-148113273D01*
X179849747Y-148113270D01*
X179705002Y-148094215D01*
X179704998Y-148094215D01*
X179560252Y-148113270D01*
X179560242Y-148113273D01*
X179425360Y-148169143D01*
X179309525Y-148258025D01*
X179220643Y-148373860D01*
X179164773Y-148508742D01*
X179164770Y-148508752D01*
X179145715Y-148653498D01*
X176911325Y-148653498D01*
X176842864Y-148592847D01*
X176701442Y-148518623D01*
X176546365Y-148480400D01*
X176546363Y-148480400D01*
X176386645Y-148480400D01*
X176386642Y-148480400D01*
X176231565Y-148518623D01*
X176090143Y-148592847D01*
X175968197Y-148700882D01*
X175922978Y-148716486D01*
X175885307Y-148700882D01*
X175763360Y-148592847D01*
X175621938Y-148518623D01*
X175466861Y-148480400D01*
X175466859Y-148480400D01*
X175307141Y-148480400D01*
X175307138Y-148480400D01*
X175152061Y-148518623D01*
X175010639Y-148592847D01*
X174891089Y-148698759D01*
X174891085Y-148698763D01*
X174800359Y-148830202D01*
X174743720Y-148979549D01*
X174743719Y-148979553D01*
X174724469Y-149138096D01*
X127190100Y-149138096D01*
X127190100Y-147192998D01*
X182955715Y-147192998D01*
X182955715Y-147193001D01*
X182974770Y-147337747D01*
X182974771Y-147337753D01*
X182974772Y-147337754D01*
X183030645Y-147472643D01*
X183119526Y-147588474D01*
X183235357Y-147677355D01*
X183370246Y-147733228D01*
X183370250Y-147733228D01*
X183370252Y-147733229D01*
X183514998Y-147752285D01*
X183515000Y-147752285D01*
X183515002Y-147752285D01*
X183659747Y-147733229D01*
X183659747Y-147733228D01*
X183659754Y-147733228D01*
X183794643Y-147677355D01*
X183910474Y-147588474D01*
X183999355Y-147472643D01*
X184055228Y-147337754D01*
X184074285Y-147193000D01*
X184055228Y-147048246D01*
X183999355Y-146913358D01*
X183910474Y-146797526D01*
X183910472Y-146797525D01*
X183910472Y-146797524D01*
X183875349Y-146770574D01*
X183794643Y-146708645D01*
X183794639Y-146708643D01*
X183659757Y-146652773D01*
X183659747Y-146652770D01*
X183515002Y-146633715D01*
X183514998Y-146633715D01*
X183370252Y-146652770D01*
X183370242Y-146652773D01*
X183235360Y-146708643D01*
X183119525Y-146797525D01*
X183030643Y-146913360D01*
X182974773Y-147048242D01*
X182974770Y-147048252D01*
X182955715Y-147192998D01*
X127190100Y-147192998D01*
X127190100Y-145201096D01*
X143355069Y-145201096D01*
X143355069Y-145201103D01*
X143374319Y-145359646D01*
X143374320Y-145359650D01*
X143374320Y-145359651D01*
X143374321Y-145359654D01*
X143386438Y-145391603D01*
X143430959Y-145508997D01*
X143521685Y-145640436D01*
X143521688Y-145640439D01*
X143641239Y-145746352D01*
X143782663Y-145820577D01*
X143937741Y-145858800D01*
X143937743Y-145858800D01*
X144097457Y-145858800D01*
X144097459Y-145858800D01*
X144252537Y-145820577D01*
X144393961Y-145746352D01*
X144513512Y-145640439D01*
X144604242Y-145508994D01*
X144660879Y-145359654D01*
X144661161Y-145357333D01*
X144680131Y-145201103D01*
X144680131Y-145201096D01*
X144660880Y-145042553D01*
X144660879Y-145042549D01*
X144660879Y-145042546D01*
X144604242Y-144893206D01*
X144604240Y-144893204D01*
X144604240Y-144893202D01*
X144513514Y-144761763D01*
X144513510Y-144761759D01*
X144393960Y-144655847D01*
X144343943Y-144629596D01*
X150403569Y-144629596D01*
X150403569Y-144629603D01*
X150422819Y-144788146D01*
X150422820Y-144788150D01*
X150422820Y-144788151D01*
X150422821Y-144788154D01*
X150444891Y-144846347D01*
X150479459Y-144937497D01*
X150570185Y-145068936D01*
X150570188Y-145068939D01*
X150689739Y-145174852D01*
X150831163Y-145249077D01*
X150986241Y-145287300D01*
X151044185Y-145287300D01*
X151088379Y-145305606D01*
X151106685Y-145349800D01*
X151106229Y-145357333D01*
X151102069Y-145391597D01*
X151102069Y-145391603D01*
X151121319Y-145550146D01*
X151121320Y-145550150D01*
X151121320Y-145550151D01*
X151121321Y-145550154D01*
X151155562Y-145640440D01*
X151177959Y-145699497D01*
X151268685Y-145830936D01*
X151268689Y-145830940D01*
X151388239Y-145936852D01*
X151529663Y-146011077D01*
X151684741Y-146049300D01*
X151684743Y-146049300D01*
X151844457Y-146049300D01*
X151844459Y-146049300D01*
X151999537Y-146011077D01*
X152140961Y-145936852D01*
X152260512Y-145830939D01*
X152351242Y-145699494D01*
X152407879Y-145550154D01*
X152427131Y-145391600D01*
X152427131Y-145391596D01*
X174724469Y-145391596D01*
X174724469Y-145391603D01*
X174743719Y-145550146D01*
X174743720Y-145550150D01*
X174743720Y-145550151D01*
X174743721Y-145550154D01*
X174777962Y-145640440D01*
X174800359Y-145699497D01*
X174891085Y-145830936D01*
X174891089Y-145830940D01*
X175010639Y-145936852D01*
X175152063Y-146011077D01*
X175307141Y-146049300D01*
X175307143Y-146049300D01*
X175466857Y-146049300D01*
X175466859Y-146049300D01*
X175621937Y-146011077D01*
X175763361Y-145936852D01*
X175882912Y-145830939D01*
X175973642Y-145699494D01*
X176030279Y-145550154D01*
X176049531Y-145391600D01*
X176045370Y-145357333D01*
X176030280Y-145233053D01*
X176030279Y-145233049D01*
X176030279Y-145233046D01*
X175973642Y-145083706D01*
X175973640Y-145083704D01*
X175973640Y-145083702D01*
X175882914Y-144952263D01*
X175882910Y-144952259D01*
X175763360Y-144846347D01*
X175621938Y-144772123D01*
X175466861Y-144733900D01*
X175466859Y-144733900D01*
X175307141Y-144733900D01*
X175307138Y-144733900D01*
X175152061Y-144772123D01*
X175010639Y-144846347D01*
X174891089Y-144952259D01*
X174891085Y-144952263D01*
X174800359Y-145083702D01*
X174743720Y-145233049D01*
X174743719Y-145233053D01*
X174724469Y-145391596D01*
X152427131Y-145391596D01*
X152422970Y-145357333D01*
X152407880Y-145233053D01*
X152407879Y-145233049D01*
X152407879Y-145233046D01*
X152351242Y-145083706D01*
X152351240Y-145083704D01*
X152351240Y-145083702D01*
X152260514Y-144952263D01*
X152260510Y-144952259D01*
X152140960Y-144846347D01*
X151999538Y-144772123D01*
X151844461Y-144733900D01*
X151844459Y-144733900D01*
X151786515Y-144733900D01*
X151742321Y-144715594D01*
X151724015Y-144671400D01*
X151724471Y-144663867D01*
X151728631Y-144629602D01*
X151728631Y-144629596D01*
X151709380Y-144471053D01*
X151709379Y-144471049D01*
X151709379Y-144471046D01*
X151652742Y-144321706D01*
X151652740Y-144321704D01*
X151652740Y-144321702D01*
X151562014Y-144190263D01*
X151562010Y-144190259D01*
X151442460Y-144084347D01*
X151301038Y-144010123D01*
X151145961Y-143971900D01*
X151145959Y-143971900D01*
X150986241Y-143971900D01*
X150986238Y-143971900D01*
X150831161Y-144010123D01*
X150689739Y-144084347D01*
X150570189Y-144190259D01*
X150570185Y-144190263D01*
X150479459Y-144321702D01*
X150422820Y-144471049D01*
X150422819Y-144471053D01*
X150403569Y-144629596D01*
X144343943Y-144629596D01*
X144252538Y-144581623D01*
X144097461Y-144543400D01*
X144097459Y-144543400D01*
X143937741Y-144543400D01*
X143937738Y-144543400D01*
X143782661Y-144581623D01*
X143641239Y-144655847D01*
X143521689Y-144761759D01*
X143521685Y-144761763D01*
X143430959Y-144893202D01*
X143374320Y-145042549D01*
X143374319Y-145042553D01*
X143355069Y-145201096D01*
X127190100Y-145201096D01*
X127190100Y-143867596D01*
X167739069Y-143867596D01*
X167739069Y-143867603D01*
X167758319Y-144026146D01*
X167758320Y-144026150D01*
X167758320Y-144026151D01*
X167758321Y-144026154D01*
X167780391Y-144084347D01*
X167814959Y-144175497D01*
X167905685Y-144306936D01*
X167905688Y-144306939D01*
X168025239Y-144412852D01*
X168166663Y-144487077D01*
X168321741Y-144525300D01*
X168321743Y-144525300D01*
X168481457Y-144525300D01*
X168481459Y-144525300D01*
X168636537Y-144487077D01*
X168777961Y-144412852D01*
X168897512Y-144306939D01*
X168978049Y-144190261D01*
X168988240Y-144175497D01*
X168988240Y-144175496D01*
X168988242Y-144175494D01*
X169044879Y-144026154D01*
X169051467Y-143971900D01*
X169064131Y-143867603D01*
X169064131Y-143867596D01*
X169044880Y-143709053D01*
X169044879Y-143709049D01*
X169044879Y-143709046D01*
X168988242Y-143559706D01*
X168988240Y-143559704D01*
X168988240Y-143559702D01*
X168897514Y-143428263D01*
X168897510Y-143428259D01*
X168777960Y-143322347D01*
X168636538Y-143248123D01*
X168481461Y-143209900D01*
X168481459Y-143209900D01*
X168321741Y-143209900D01*
X168321738Y-143209900D01*
X168166661Y-143248123D01*
X168025239Y-143322347D01*
X167905689Y-143428259D01*
X167905685Y-143428263D01*
X167814959Y-143559702D01*
X167758320Y-143709049D01*
X167758319Y-143709053D01*
X167739069Y-143867596D01*
X127190100Y-143867596D01*
X127190100Y-141764982D01*
X128976000Y-141764982D01*
X128976000Y-142286000D01*
X129549297Y-142286000D01*
X129514075Y-142347007D01*
X129480000Y-142474174D01*
X129480000Y-142605826D01*
X129514075Y-142732993D01*
X129549297Y-142794000D01*
X128976001Y-142794000D01*
X128976001Y-143315018D01*
X128990736Y-143389104D01*
X128990738Y-143389108D01*
X129046876Y-143473123D01*
X129130891Y-143529261D01*
X129130895Y-143529263D01*
X129204982Y-143543999D01*
X129726000Y-143543999D01*
X129726000Y-142970702D01*
X129787007Y-143005925D01*
X129914174Y-143040000D01*
X130045826Y-143040000D01*
X130172993Y-143005925D01*
X130234000Y-142970702D01*
X130234000Y-143543999D01*
X130755015Y-143543999D01*
X130755018Y-143543998D01*
X130829104Y-143529263D01*
X130829108Y-143529261D01*
X130913123Y-143473123D01*
X130969261Y-143389108D01*
X130969263Y-143389104D01*
X130983999Y-143315017D01*
X130984000Y-143315017D01*
X130984000Y-142794000D01*
X130410703Y-142794000D01*
X130445925Y-142732993D01*
X130480000Y-142605826D01*
X130480000Y-142474174D01*
X130445925Y-142347007D01*
X130410703Y-142286000D01*
X130983999Y-142286000D01*
X130983999Y-142204273D01*
X131515499Y-142204273D01*
X131515499Y-142875729D01*
X131530264Y-142949960D01*
X131530265Y-142949962D01*
X131572314Y-143012892D01*
X131572316Y-143012894D01*
X132047105Y-143487682D01*
X132047107Y-143487684D01*
X132110037Y-143529733D01*
X132110039Y-143529734D01*
X132184273Y-143544500D01*
X132855729Y-143544501D01*
X132929961Y-143529735D01*
X132992893Y-143487685D01*
X133467684Y-143012893D01*
X133509734Y-142949961D01*
X133524500Y-142875727D01*
X133524501Y-142204273D01*
X134055499Y-142204273D01*
X134055499Y-142875729D01*
X134070264Y-142949960D01*
X134070265Y-142949962D01*
X134112314Y-143012892D01*
X134112316Y-143012894D01*
X134587105Y-143487682D01*
X134587107Y-143487684D01*
X134650037Y-143529733D01*
X134650039Y-143529734D01*
X134724273Y-143544500D01*
X135395729Y-143544501D01*
X135469961Y-143529735D01*
X135532893Y-143487685D01*
X136007684Y-143012893D01*
X136049734Y-142949961D01*
X136064500Y-142875727D01*
X136064501Y-142204273D01*
X136595499Y-142204273D01*
X136595499Y-142875729D01*
X136610264Y-142949960D01*
X136610265Y-142949962D01*
X136652314Y-143012892D01*
X136652316Y-143012894D01*
X137127105Y-143487682D01*
X137127107Y-143487684D01*
X137190037Y-143529733D01*
X137190039Y-143529734D01*
X137264273Y-143544500D01*
X137935729Y-143544501D01*
X138009961Y-143529735D01*
X138072893Y-143487685D01*
X138547684Y-143012893D01*
X138589734Y-142949961D01*
X138604500Y-142875727D01*
X138604501Y-142204273D01*
X139135499Y-142204273D01*
X139135499Y-142875729D01*
X139150264Y-142949960D01*
X139150265Y-142949962D01*
X139192314Y-143012892D01*
X139192316Y-143012894D01*
X139667105Y-143487682D01*
X139667107Y-143487684D01*
X139730037Y-143529733D01*
X139730039Y-143529734D01*
X139804273Y-143544500D01*
X140475729Y-143544501D01*
X140549961Y-143529735D01*
X140612893Y-143487685D01*
X141087684Y-143012893D01*
X141129734Y-142949961D01*
X141144500Y-142875727D01*
X141144501Y-142204273D01*
X141675499Y-142204273D01*
X141675499Y-142875729D01*
X141690264Y-142949960D01*
X141690265Y-142949962D01*
X141732314Y-143012892D01*
X141732316Y-143012894D01*
X142207105Y-143487682D01*
X142207107Y-143487684D01*
X142270037Y-143529733D01*
X142270039Y-143529734D01*
X142344273Y-143544500D01*
X143015729Y-143544501D01*
X143089961Y-143529735D01*
X143152893Y-143487685D01*
X143627684Y-143012893D01*
X143669734Y-142949961D01*
X143684500Y-142875727D01*
X143684501Y-142204273D01*
X144215499Y-142204273D01*
X144215499Y-142875729D01*
X144230264Y-142949960D01*
X144230265Y-142949962D01*
X144272314Y-143012892D01*
X144272316Y-143012894D01*
X144747105Y-143487682D01*
X144747107Y-143487684D01*
X144810037Y-143529733D01*
X144810039Y-143529734D01*
X144884273Y-143544500D01*
X145555729Y-143544501D01*
X145629961Y-143529735D01*
X145692893Y-143487685D01*
X146167684Y-143012893D01*
X146209734Y-142949961D01*
X146224500Y-142875727D01*
X146224501Y-142204273D01*
X146755499Y-142204273D01*
X146755499Y-142875729D01*
X146770264Y-142949960D01*
X146770265Y-142949962D01*
X146812314Y-143012892D01*
X146812316Y-143012894D01*
X147287105Y-143487682D01*
X147287107Y-143487684D01*
X147350037Y-143529733D01*
X147350039Y-143529734D01*
X147424273Y-143544500D01*
X148095729Y-143544501D01*
X148169961Y-143529735D01*
X148232893Y-143487685D01*
X148707684Y-143012893D01*
X148749734Y-142949961D01*
X148764500Y-142875727D01*
X148764501Y-142204273D01*
X149295499Y-142204273D01*
X149295499Y-142875729D01*
X149310264Y-142949960D01*
X149310265Y-142949962D01*
X149352314Y-143012892D01*
X149352316Y-143012894D01*
X149827105Y-143487682D01*
X149827107Y-143487684D01*
X149890037Y-143529733D01*
X149890039Y-143529734D01*
X149964273Y-143544500D01*
X150635729Y-143544501D01*
X150709961Y-143529735D01*
X150772893Y-143487685D01*
X151247684Y-143012893D01*
X151289734Y-142949961D01*
X151304500Y-142875727D01*
X151304501Y-142204273D01*
X151835499Y-142204273D01*
X151835499Y-142875729D01*
X151850264Y-142949960D01*
X151850265Y-142949962D01*
X151892314Y-143012892D01*
X151892316Y-143012894D01*
X152367105Y-143487682D01*
X152367107Y-143487684D01*
X152430037Y-143529733D01*
X152430039Y-143529734D01*
X152504273Y-143544500D01*
X153175729Y-143544501D01*
X153249961Y-143529735D01*
X153312893Y-143487685D01*
X153787684Y-143012893D01*
X153829734Y-142949961D01*
X153844500Y-142875727D01*
X153844501Y-142204273D01*
X154375499Y-142204273D01*
X154375499Y-142875729D01*
X154390264Y-142949960D01*
X154390265Y-142949962D01*
X154432314Y-143012892D01*
X154432316Y-143012894D01*
X154907105Y-143487682D01*
X154907107Y-143487684D01*
X154970037Y-143529733D01*
X154970039Y-143529734D01*
X155044273Y-143544500D01*
X155715729Y-143544501D01*
X155789961Y-143529735D01*
X155852893Y-143487685D01*
X156327684Y-143012893D01*
X156369734Y-142949961D01*
X156384500Y-142875727D01*
X156384501Y-142204273D01*
X156915499Y-142204273D01*
X156915499Y-142875729D01*
X156930264Y-142949960D01*
X156930265Y-142949962D01*
X156972314Y-143012892D01*
X156972316Y-143012894D01*
X157447105Y-143487682D01*
X157447107Y-143487684D01*
X157510037Y-143529733D01*
X157510039Y-143529734D01*
X157584273Y-143544500D01*
X158255729Y-143544501D01*
X158329961Y-143529735D01*
X158392893Y-143487685D01*
X158867684Y-143012893D01*
X158909734Y-142949961D01*
X158924500Y-142875727D01*
X158924501Y-142204273D01*
X159455499Y-142204273D01*
X159455499Y-142875729D01*
X159470264Y-142949960D01*
X159470265Y-142949962D01*
X159512314Y-143012892D01*
X159512316Y-143012894D01*
X159987105Y-143487682D01*
X159987107Y-143487684D01*
X160050037Y-143529733D01*
X160050039Y-143529734D01*
X160124273Y-143544500D01*
X160795729Y-143544501D01*
X160869961Y-143529735D01*
X160932893Y-143487685D01*
X161407684Y-143012893D01*
X161449734Y-142949961D01*
X161464500Y-142875727D01*
X161464501Y-142204273D01*
X161995499Y-142204273D01*
X161995499Y-142875729D01*
X162010264Y-142949960D01*
X162010265Y-142949962D01*
X162052314Y-143012892D01*
X162052316Y-143012894D01*
X162527105Y-143487682D01*
X162527107Y-143487684D01*
X162590037Y-143529733D01*
X162590039Y-143529734D01*
X162664273Y-143544500D01*
X163335729Y-143544501D01*
X163409961Y-143529735D01*
X163472893Y-143487685D01*
X163831581Y-143128996D01*
X175930969Y-143128996D01*
X175930969Y-143129003D01*
X175950219Y-143287546D01*
X175950220Y-143287550D01*
X175950220Y-143287551D01*
X175950221Y-143287554D01*
X175963417Y-143322348D01*
X176006859Y-143436897D01*
X176097585Y-143568336D01*
X176097588Y-143568339D01*
X176217139Y-143674252D01*
X176358563Y-143748477D01*
X176513641Y-143786700D01*
X176513643Y-143786700D01*
X176673357Y-143786700D01*
X176673359Y-143786700D01*
X176828437Y-143748477D01*
X176969861Y-143674252D01*
X177089412Y-143568339D01*
X177180142Y-143436894D01*
X177224662Y-143319504D01*
X179145715Y-143319504D01*
X179145715Y-143319507D01*
X179164770Y-143464253D01*
X179164773Y-143464263D01*
X179207881Y-143568336D01*
X179220645Y-143599149D01*
X179309526Y-143714980D01*
X179425357Y-143803861D01*
X179560246Y-143859734D01*
X179560250Y-143859734D01*
X179560252Y-143859735D01*
X179704998Y-143878791D01*
X179705000Y-143878791D01*
X179705002Y-143878791D01*
X179849747Y-143859735D01*
X179849747Y-143859734D01*
X179849754Y-143859734D01*
X179984643Y-143803861D01*
X180100474Y-143714980D01*
X180189355Y-143599149D01*
X180245228Y-143464260D01*
X180245229Y-143464253D01*
X180264285Y-143319507D01*
X180264285Y-143319504D01*
X180255924Y-143255998D01*
X182955723Y-143255998D01*
X182955723Y-143256001D01*
X182974778Y-143400747D01*
X182974781Y-143400757D01*
X183028205Y-143529735D01*
X183030653Y-143535643D01*
X183119534Y-143651474D01*
X183235365Y-143740355D01*
X183370254Y-143796228D01*
X183370258Y-143796228D01*
X183370260Y-143796229D01*
X183515006Y-143815285D01*
X183515008Y-143815285D01*
X183515010Y-143815285D01*
X183659755Y-143796229D01*
X183659755Y-143796228D01*
X183659762Y-143796228D01*
X183794651Y-143740355D01*
X183910482Y-143651474D01*
X183999363Y-143535643D01*
X184055236Y-143400754D01*
X184066523Y-143315017D01*
X184074293Y-143256001D01*
X184074293Y-143255998D01*
X184055237Y-143111252D01*
X184055236Y-143111250D01*
X184055236Y-143111246D01*
X184014497Y-143012894D01*
X184009983Y-143001996D01*
X185582969Y-143001996D01*
X185582969Y-143002003D01*
X185602219Y-143160546D01*
X185602220Y-143160550D01*
X185602220Y-143160551D01*
X185602221Y-143160554D01*
X185638418Y-143255998D01*
X185658859Y-143309897D01*
X185749585Y-143441336D01*
X185749589Y-143441340D01*
X185869139Y-143547252D01*
X185968020Y-143599149D01*
X186010563Y-143621477D01*
X186165641Y-143659700D01*
X186165643Y-143659700D01*
X186325357Y-143659700D01*
X186325359Y-143659700D01*
X186480437Y-143621477D01*
X186621861Y-143547252D01*
X186741412Y-143441339D01*
X186832142Y-143309894D01*
X186888779Y-143160554D01*
X186903433Y-143039868D01*
X186908031Y-143002003D01*
X186908031Y-143001996D01*
X186888780Y-142843453D01*
X186888779Y-142843449D01*
X186888779Y-142843446D01*
X186832142Y-142694106D01*
X186832140Y-142694104D01*
X186832140Y-142694102D01*
X186741414Y-142562663D01*
X186741410Y-142562659D01*
X186621860Y-142456747D01*
X186480438Y-142382523D01*
X186325361Y-142344300D01*
X186325359Y-142344300D01*
X186165641Y-142344300D01*
X186165638Y-142344300D01*
X186010561Y-142382523D01*
X185869139Y-142456747D01*
X185749589Y-142562659D01*
X185749585Y-142562663D01*
X185658859Y-142694102D01*
X185602220Y-142843449D01*
X185602219Y-142843453D01*
X185582969Y-143001996D01*
X184009983Y-143001996D01*
X183999365Y-142976362D01*
X183999364Y-142976361D01*
X183999363Y-142976358D01*
X183910482Y-142860526D01*
X183910480Y-142860525D01*
X183910480Y-142860524D01*
X183859104Y-142821102D01*
X183794651Y-142771645D01*
X183794647Y-142771643D01*
X183659765Y-142715773D01*
X183659755Y-142715770D01*
X183515010Y-142696715D01*
X183515006Y-142696715D01*
X183370260Y-142715770D01*
X183370250Y-142715773D01*
X183235368Y-142771643D01*
X183119533Y-142860525D01*
X183030651Y-142976360D01*
X182974781Y-143111242D01*
X182974778Y-143111252D01*
X182955723Y-143255998D01*
X180255924Y-143255998D01*
X180245229Y-143174758D01*
X180245228Y-143174756D01*
X180245228Y-143174752D01*
X180217291Y-143107308D01*
X180189357Y-143039868D01*
X180189356Y-143039867D01*
X180189355Y-143039864D01*
X180100474Y-142924032D01*
X180100472Y-142924031D01*
X180100472Y-142924030D01*
X180065349Y-142897080D01*
X179984643Y-142835151D01*
X179984639Y-142835149D01*
X179849757Y-142779279D01*
X179849747Y-142779276D01*
X179705002Y-142760221D01*
X179704998Y-142760221D01*
X179560252Y-142779276D01*
X179560242Y-142779279D01*
X179425360Y-142835149D01*
X179309525Y-142924031D01*
X179220643Y-143039866D01*
X179164773Y-143174748D01*
X179164770Y-143174758D01*
X179145715Y-143319504D01*
X177224662Y-143319504D01*
X177236779Y-143287554D01*
X177256031Y-143129000D01*
X177253875Y-143111246D01*
X177236780Y-142970453D01*
X177236779Y-142970449D01*
X177236779Y-142970446D01*
X177180142Y-142821106D01*
X177180140Y-142821104D01*
X177180140Y-142821102D01*
X177089414Y-142689663D01*
X177089410Y-142689659D01*
X176969860Y-142583747D01*
X176828438Y-142509523D01*
X176673361Y-142471300D01*
X176673359Y-142471300D01*
X176513641Y-142471300D01*
X176513638Y-142471300D01*
X176358561Y-142509523D01*
X176217139Y-142583747D01*
X176097589Y-142689659D01*
X176097585Y-142689663D01*
X176006859Y-142821102D01*
X175950220Y-142970449D01*
X175950219Y-142970453D01*
X175930969Y-143128996D01*
X163831581Y-143128996D01*
X163947684Y-143012893D01*
X163989734Y-142949961D01*
X164004500Y-142875727D01*
X164004501Y-142204271D01*
X163989735Y-142130039D01*
X163947685Y-142067107D01*
X163472893Y-141592316D01*
X163472892Y-141592315D01*
X163409962Y-141550266D01*
X163409960Y-141550265D01*
X163335727Y-141535500D01*
X163335726Y-141535499D01*
X162664270Y-141535499D01*
X162590039Y-141550264D01*
X162590037Y-141550265D01*
X162527107Y-141592314D01*
X162527105Y-141592316D01*
X162052317Y-142067105D01*
X162052315Y-142067107D01*
X162010266Y-142130037D01*
X162010265Y-142130039D01*
X161995500Y-142204272D01*
X161995499Y-142204273D01*
X161464501Y-142204273D01*
X161464501Y-142204271D01*
X161449735Y-142130039D01*
X161407685Y-142067107D01*
X160932893Y-141592316D01*
X160932892Y-141592315D01*
X160869962Y-141550266D01*
X160869960Y-141550265D01*
X160795727Y-141535500D01*
X160795726Y-141535499D01*
X160124270Y-141535499D01*
X160050039Y-141550264D01*
X160050037Y-141550265D01*
X159987107Y-141592314D01*
X159987105Y-141592316D01*
X159512317Y-142067105D01*
X159512315Y-142067107D01*
X159470266Y-142130037D01*
X159470265Y-142130039D01*
X159455500Y-142204272D01*
X159455499Y-142204273D01*
X158924501Y-142204273D01*
X158924501Y-142204271D01*
X158909735Y-142130039D01*
X158867685Y-142067107D01*
X158392893Y-141592316D01*
X158392892Y-141592315D01*
X158329962Y-141550266D01*
X158329960Y-141550265D01*
X158255727Y-141535500D01*
X158255726Y-141535499D01*
X157584270Y-141535499D01*
X157510039Y-141550264D01*
X157510037Y-141550265D01*
X157447107Y-141592314D01*
X157447105Y-141592316D01*
X156972317Y-142067105D01*
X156972315Y-142067107D01*
X156930266Y-142130037D01*
X156930265Y-142130039D01*
X156915500Y-142204272D01*
X156915499Y-142204273D01*
X156384501Y-142204273D01*
X156384501Y-142204271D01*
X156369735Y-142130039D01*
X156327685Y-142067107D01*
X155852893Y-141592316D01*
X155852892Y-141592315D01*
X155789962Y-141550266D01*
X155789960Y-141550265D01*
X155715727Y-141535500D01*
X155715726Y-141535499D01*
X155044270Y-141535499D01*
X154970039Y-141550264D01*
X154970037Y-141550265D01*
X154907107Y-141592314D01*
X154907105Y-141592316D01*
X154432317Y-142067105D01*
X154432315Y-142067107D01*
X154390266Y-142130037D01*
X154390265Y-142130039D01*
X154375500Y-142204272D01*
X154375499Y-142204273D01*
X153844501Y-142204273D01*
X153844501Y-142204271D01*
X153829735Y-142130039D01*
X153787685Y-142067107D01*
X153312893Y-141592316D01*
X153312892Y-141592315D01*
X153249962Y-141550266D01*
X153249960Y-141550265D01*
X153175727Y-141535500D01*
X153175726Y-141535499D01*
X152504270Y-141535499D01*
X152430039Y-141550264D01*
X152430037Y-141550265D01*
X152367107Y-141592314D01*
X152367105Y-141592316D01*
X151892317Y-142067105D01*
X151892315Y-142067107D01*
X151850266Y-142130037D01*
X151850265Y-142130039D01*
X151835500Y-142204272D01*
X151835499Y-142204273D01*
X151304501Y-142204273D01*
X151304501Y-142204271D01*
X151289735Y-142130039D01*
X151247685Y-142067107D01*
X150772893Y-141592316D01*
X150772892Y-141592315D01*
X150709962Y-141550266D01*
X150709960Y-141550265D01*
X150635727Y-141535500D01*
X150635726Y-141535499D01*
X149964270Y-141535499D01*
X149890039Y-141550264D01*
X149890037Y-141550265D01*
X149827107Y-141592314D01*
X149827105Y-141592316D01*
X149352317Y-142067105D01*
X149352315Y-142067107D01*
X149310266Y-142130037D01*
X149310265Y-142130039D01*
X149295500Y-142204272D01*
X149295499Y-142204273D01*
X148764501Y-142204273D01*
X148764501Y-142204271D01*
X148749735Y-142130039D01*
X148707685Y-142067107D01*
X148232893Y-141592316D01*
X148232892Y-141592315D01*
X148169962Y-141550266D01*
X148169960Y-141550265D01*
X148095727Y-141535500D01*
X148095726Y-141535499D01*
X147424270Y-141535499D01*
X147350039Y-141550264D01*
X147350037Y-141550265D01*
X147287107Y-141592314D01*
X147287105Y-141592316D01*
X146812317Y-142067105D01*
X146812315Y-142067107D01*
X146770266Y-142130037D01*
X146770265Y-142130039D01*
X146755500Y-142204272D01*
X146755499Y-142204273D01*
X146224501Y-142204273D01*
X146224501Y-142204271D01*
X146209735Y-142130039D01*
X146167685Y-142067107D01*
X145692893Y-141592316D01*
X145692892Y-141592315D01*
X145629962Y-141550266D01*
X145629960Y-141550265D01*
X145555727Y-141535500D01*
X145555726Y-141535499D01*
X144884270Y-141535499D01*
X144810039Y-141550264D01*
X144810037Y-141550265D01*
X144747107Y-141592314D01*
X144747105Y-141592316D01*
X144272317Y-142067105D01*
X144272315Y-142067107D01*
X144230266Y-142130037D01*
X144230265Y-142130039D01*
X144215500Y-142204272D01*
X144215499Y-142204273D01*
X143684501Y-142204273D01*
X143684501Y-142204271D01*
X143669735Y-142130039D01*
X143627685Y-142067107D01*
X143152893Y-141592316D01*
X143152892Y-141592315D01*
X143089962Y-141550266D01*
X143089960Y-141550265D01*
X143015727Y-141535500D01*
X143015726Y-141535499D01*
X142344270Y-141535499D01*
X142270039Y-141550264D01*
X142270037Y-141550265D01*
X142207107Y-141592314D01*
X142207105Y-141592316D01*
X141732317Y-142067105D01*
X141732315Y-142067107D01*
X141690266Y-142130037D01*
X141690265Y-142130039D01*
X141675500Y-142204272D01*
X141675499Y-142204273D01*
X141144501Y-142204273D01*
X141144501Y-142204271D01*
X141129735Y-142130039D01*
X141087685Y-142067107D01*
X140612893Y-141592316D01*
X140612892Y-141592315D01*
X140549962Y-141550266D01*
X140549960Y-141550265D01*
X140475727Y-141535500D01*
X140475726Y-141535499D01*
X139804270Y-141535499D01*
X139730039Y-141550264D01*
X139730037Y-141550265D01*
X139667107Y-141592314D01*
X139667105Y-141592316D01*
X139192317Y-142067105D01*
X139192315Y-142067107D01*
X139150266Y-142130037D01*
X139150265Y-142130039D01*
X139135500Y-142204272D01*
X139135499Y-142204273D01*
X138604501Y-142204273D01*
X138604501Y-142204271D01*
X138589735Y-142130039D01*
X138547685Y-142067107D01*
X138072893Y-141592316D01*
X138072892Y-141592315D01*
X138009962Y-141550266D01*
X138009960Y-141550265D01*
X137935727Y-141535500D01*
X137935726Y-141535499D01*
X137264270Y-141535499D01*
X137190039Y-141550264D01*
X137190037Y-141550265D01*
X137127107Y-141592314D01*
X137127105Y-141592316D01*
X136652317Y-142067105D01*
X136652315Y-142067107D01*
X136610266Y-142130037D01*
X136610265Y-142130039D01*
X136595500Y-142204272D01*
X136595499Y-142204273D01*
X136064501Y-142204273D01*
X136064501Y-142204271D01*
X136049735Y-142130039D01*
X136007685Y-142067107D01*
X135532893Y-141592316D01*
X135532892Y-141592315D01*
X135469962Y-141550266D01*
X135469960Y-141550265D01*
X135395727Y-141535500D01*
X135395726Y-141535499D01*
X134724270Y-141535499D01*
X134650039Y-141550264D01*
X134650037Y-141550265D01*
X134587107Y-141592314D01*
X134587105Y-141592316D01*
X134112317Y-142067105D01*
X134112315Y-142067107D01*
X134070266Y-142130037D01*
X134070265Y-142130039D01*
X134055500Y-142204272D01*
X134055499Y-142204273D01*
X133524501Y-142204273D01*
X133524501Y-142204271D01*
X133509735Y-142130039D01*
X133467685Y-142067107D01*
X132992893Y-141592316D01*
X132992892Y-141592315D01*
X132929962Y-141550266D01*
X132929960Y-141550265D01*
X132855727Y-141535500D01*
X132855726Y-141535499D01*
X132184270Y-141535499D01*
X132110039Y-141550264D01*
X132110037Y-141550265D01*
X132047107Y-141592314D01*
X132047105Y-141592316D01*
X131572317Y-142067105D01*
X131572315Y-142067107D01*
X131530266Y-142130037D01*
X131530265Y-142130039D01*
X131515500Y-142204272D01*
X131515499Y-142204273D01*
X130983999Y-142204273D01*
X130983999Y-141764985D01*
X130983998Y-141764981D01*
X130969263Y-141690895D01*
X130969261Y-141690891D01*
X130913123Y-141606876D01*
X130829108Y-141550738D01*
X130829104Y-141550736D01*
X130755017Y-141536000D01*
X130234000Y-141536000D01*
X130234000Y-142109297D01*
X130172993Y-142074075D01*
X130045826Y-142040000D01*
X129914174Y-142040000D01*
X129787007Y-142074075D01*
X129726000Y-142109297D01*
X129726000Y-141536000D01*
X129204985Y-141536000D01*
X129204981Y-141536001D01*
X129130895Y-141550736D01*
X129130891Y-141550738D01*
X129046876Y-141606876D01*
X128990738Y-141690891D01*
X128990736Y-141690895D01*
X128976000Y-141764982D01*
X127190100Y-141764982D01*
X127190100Y-141485196D01*
X172501569Y-141485196D01*
X172501569Y-141485203D01*
X172520819Y-141643746D01*
X172520820Y-141643750D01*
X172520820Y-141643751D01*
X172520821Y-141643754D01*
X172548402Y-141716479D01*
X172577459Y-141793097D01*
X172668185Y-141924536D01*
X172668188Y-141924539D01*
X172787739Y-142030452D01*
X172929163Y-142104677D01*
X173084241Y-142142900D01*
X173084243Y-142142900D01*
X173243957Y-142142900D01*
X173243959Y-142142900D01*
X173399037Y-142104677D01*
X173540461Y-142030452D01*
X173660012Y-141924539D01*
X173750742Y-141793094D01*
X173807379Y-141643754D01*
X173818673Y-141550738D01*
X173826631Y-141485203D01*
X173826631Y-141485196D01*
X173807380Y-141326653D01*
X173807379Y-141326649D01*
X173807379Y-141326646D01*
X173750742Y-141177306D01*
X173750740Y-141177304D01*
X173750740Y-141177302D01*
X173660014Y-141045863D01*
X173660010Y-141045859D01*
X173540460Y-140939947D01*
X173399038Y-140865723D01*
X173243961Y-140827500D01*
X173243959Y-140827500D01*
X173084241Y-140827500D01*
X173084238Y-140827500D01*
X172929161Y-140865723D01*
X172787739Y-140939947D01*
X172668189Y-141045859D01*
X172668185Y-141045863D01*
X172577459Y-141177302D01*
X172520820Y-141326649D01*
X172520819Y-141326653D01*
X172501569Y-141485196D01*
X127190100Y-141485196D01*
X127190100Y-141045009D01*
X127190635Y-141036851D01*
X127202374Y-140947683D01*
X127206336Y-140917591D01*
X127210555Y-140901839D01*
X127255012Y-140794511D01*
X127263164Y-140780391D01*
X127336410Y-140684936D01*
X127341778Y-140678816D01*
X128356321Y-139664273D01*
X128975499Y-139664273D01*
X128975499Y-140335729D01*
X128990264Y-140409960D01*
X128990265Y-140409962D01*
X129032314Y-140472892D01*
X129032316Y-140472894D01*
X129507105Y-140947682D01*
X129507107Y-140947684D01*
X129570037Y-140989733D01*
X129570039Y-140989734D01*
X129644273Y-141004500D01*
X130315729Y-141004501D01*
X130389961Y-140989735D01*
X130452893Y-140947685D01*
X130927684Y-140472893D01*
X130969734Y-140409961D01*
X130984500Y-140335727D01*
X130984501Y-139664273D01*
X131515499Y-139664273D01*
X131515499Y-140335729D01*
X131530264Y-140409960D01*
X131530265Y-140409962D01*
X131572314Y-140472892D01*
X131572316Y-140472894D01*
X132047105Y-140947682D01*
X132047107Y-140947684D01*
X132110037Y-140989733D01*
X132110039Y-140989734D01*
X132184273Y-141004500D01*
X132855729Y-141004501D01*
X132929961Y-140989735D01*
X132992893Y-140947685D01*
X133467684Y-140472893D01*
X133509734Y-140409961D01*
X133524500Y-140335727D01*
X133524501Y-139664273D01*
X134055499Y-139664273D01*
X134055499Y-140335729D01*
X134070264Y-140409960D01*
X134070265Y-140409962D01*
X134112314Y-140472892D01*
X134112316Y-140472894D01*
X134587105Y-140947682D01*
X134587107Y-140947684D01*
X134650037Y-140989733D01*
X134650039Y-140989734D01*
X134724273Y-141004500D01*
X135395729Y-141004501D01*
X135469961Y-140989735D01*
X135532893Y-140947685D01*
X136007684Y-140472893D01*
X136049734Y-140409961D01*
X136064500Y-140335727D01*
X136064501Y-139664273D01*
X136595499Y-139664273D01*
X136595499Y-140335729D01*
X136610264Y-140409960D01*
X136610265Y-140409962D01*
X136652314Y-140472892D01*
X136652316Y-140472894D01*
X137127105Y-140947682D01*
X137127107Y-140947684D01*
X137190037Y-140989733D01*
X137190039Y-140989734D01*
X137264273Y-141004500D01*
X137935729Y-141004501D01*
X138009961Y-140989735D01*
X138072893Y-140947685D01*
X138547684Y-140472893D01*
X138589734Y-140409961D01*
X138604500Y-140335727D01*
X138604501Y-139664273D01*
X139135499Y-139664273D01*
X139135499Y-140335729D01*
X139150264Y-140409960D01*
X139150265Y-140409962D01*
X139192314Y-140472892D01*
X139192316Y-140472894D01*
X139667105Y-140947682D01*
X139667107Y-140947684D01*
X139730037Y-140989733D01*
X139730039Y-140989734D01*
X139804273Y-141004500D01*
X140475729Y-141004501D01*
X140549961Y-140989735D01*
X140612893Y-140947685D01*
X141087684Y-140472893D01*
X141129734Y-140409961D01*
X141144500Y-140335727D01*
X141144501Y-139664273D01*
X141675499Y-139664273D01*
X141675499Y-140335729D01*
X141690264Y-140409960D01*
X141690265Y-140409962D01*
X141732314Y-140472892D01*
X141732316Y-140472894D01*
X142207105Y-140947682D01*
X142207107Y-140947684D01*
X142270037Y-140989733D01*
X142270039Y-140989734D01*
X142344273Y-141004500D01*
X143015729Y-141004501D01*
X143089961Y-140989735D01*
X143152893Y-140947685D01*
X143627684Y-140472893D01*
X143669734Y-140409961D01*
X143684500Y-140335727D01*
X143684501Y-139664273D01*
X144215499Y-139664273D01*
X144215499Y-140335729D01*
X144230264Y-140409960D01*
X144230265Y-140409962D01*
X144272314Y-140472892D01*
X144272316Y-140472894D01*
X144747105Y-140947682D01*
X144747107Y-140947684D01*
X144810037Y-140989733D01*
X144810039Y-140989734D01*
X144884273Y-141004500D01*
X145555729Y-141004501D01*
X145629961Y-140989735D01*
X145692893Y-140947685D01*
X146167684Y-140472893D01*
X146209734Y-140409961D01*
X146224500Y-140335727D01*
X146224501Y-139664273D01*
X146755499Y-139664273D01*
X146755499Y-140335729D01*
X146770264Y-140409960D01*
X146770265Y-140409962D01*
X146812314Y-140472892D01*
X146812316Y-140472894D01*
X147287105Y-140947682D01*
X147287107Y-140947684D01*
X147350037Y-140989733D01*
X147350039Y-140989734D01*
X147424273Y-141004500D01*
X148095729Y-141004501D01*
X148169961Y-140989735D01*
X148232893Y-140947685D01*
X148707684Y-140472893D01*
X148749734Y-140409961D01*
X148764500Y-140335727D01*
X148764501Y-139664273D01*
X149295499Y-139664273D01*
X149295499Y-140335729D01*
X149310264Y-140409960D01*
X149310265Y-140409962D01*
X149352314Y-140472892D01*
X149352316Y-140472894D01*
X149827105Y-140947682D01*
X149827107Y-140947684D01*
X149890037Y-140989733D01*
X149890039Y-140989734D01*
X149964273Y-141004500D01*
X150635729Y-141004501D01*
X150709961Y-140989735D01*
X150772893Y-140947685D01*
X151247684Y-140472893D01*
X151289734Y-140409961D01*
X151304500Y-140335727D01*
X151304501Y-139664273D01*
X151835499Y-139664273D01*
X151835499Y-140335729D01*
X151850264Y-140409960D01*
X151850265Y-140409962D01*
X151892314Y-140472892D01*
X151892316Y-140472894D01*
X152367105Y-140947682D01*
X152367107Y-140947684D01*
X152430037Y-140989733D01*
X152430039Y-140989734D01*
X152504273Y-141004500D01*
X153175729Y-141004501D01*
X153249961Y-140989735D01*
X153312893Y-140947685D01*
X153787684Y-140472893D01*
X153829734Y-140409961D01*
X153844500Y-140335727D01*
X153844501Y-139664273D01*
X154375499Y-139664273D01*
X154375499Y-140335729D01*
X154390264Y-140409960D01*
X154390265Y-140409962D01*
X154432314Y-140472892D01*
X154432316Y-140472894D01*
X154907105Y-140947682D01*
X154907107Y-140947684D01*
X154970037Y-140989733D01*
X154970039Y-140989734D01*
X155044273Y-141004500D01*
X155715729Y-141004501D01*
X155789961Y-140989735D01*
X155852893Y-140947685D01*
X156327684Y-140472893D01*
X156369734Y-140409961D01*
X156384500Y-140335727D01*
X156384501Y-139664273D01*
X156915499Y-139664273D01*
X156915499Y-140335729D01*
X156930264Y-140409960D01*
X156930265Y-140409962D01*
X156972314Y-140472892D01*
X156972316Y-140472894D01*
X157447105Y-140947682D01*
X157447107Y-140947684D01*
X157510037Y-140989733D01*
X157510039Y-140989734D01*
X157584273Y-141004500D01*
X158255729Y-141004501D01*
X158329961Y-140989735D01*
X158392893Y-140947685D01*
X158867684Y-140472893D01*
X158909734Y-140409961D01*
X158924500Y-140335727D01*
X158924501Y-139664273D01*
X159455499Y-139664273D01*
X159455499Y-140335729D01*
X159470264Y-140409960D01*
X159470265Y-140409962D01*
X159512314Y-140472892D01*
X159512316Y-140472894D01*
X159987105Y-140947682D01*
X159987107Y-140947684D01*
X160050037Y-140989733D01*
X160050039Y-140989734D01*
X160124273Y-141004500D01*
X160795729Y-141004501D01*
X160869961Y-140989735D01*
X160932893Y-140947685D01*
X161407684Y-140472893D01*
X161449734Y-140409961D01*
X161464500Y-140335727D01*
X161464501Y-139664273D01*
X161995499Y-139664273D01*
X161995499Y-140335729D01*
X162010264Y-140409960D01*
X162010265Y-140409962D01*
X162052314Y-140472892D01*
X162052316Y-140472894D01*
X162527105Y-140947682D01*
X162527107Y-140947684D01*
X162590037Y-140989733D01*
X162590039Y-140989734D01*
X162664273Y-141004500D01*
X163335729Y-141004501D01*
X163409961Y-140989735D01*
X163472893Y-140947685D01*
X163938781Y-140481796D01*
X169961569Y-140481796D01*
X169961569Y-140481803D01*
X169980819Y-140640346D01*
X169980820Y-140640350D01*
X169980820Y-140640351D01*
X169980821Y-140640354D01*
X169995408Y-140678816D01*
X170037459Y-140789697D01*
X170128185Y-140921136D01*
X170128188Y-140921139D01*
X170247739Y-141027052D01*
X170389163Y-141101277D01*
X170544241Y-141139500D01*
X170544243Y-141139500D01*
X170703957Y-141139500D01*
X170703959Y-141139500D01*
X170859037Y-141101277D01*
X171000461Y-141027052D01*
X171120012Y-140921139D01*
X171210742Y-140789694D01*
X171267379Y-140640354D01*
X171267380Y-140640346D01*
X171276456Y-140565596D01*
X175486069Y-140565596D01*
X175486069Y-140565603D01*
X175505319Y-140724146D01*
X175505320Y-140724150D01*
X175505320Y-140724151D01*
X175505321Y-140724154D01*
X175526649Y-140780391D01*
X175561959Y-140873497D01*
X175652685Y-141004936D01*
X175652688Y-141004939D01*
X175772239Y-141110852D01*
X175913663Y-141185077D01*
X176068741Y-141223300D01*
X176068743Y-141223300D01*
X176228457Y-141223300D01*
X176228459Y-141223300D01*
X176383537Y-141185077D01*
X176524961Y-141110852D01*
X176540599Y-141096998D01*
X177200971Y-141096998D01*
X177200971Y-141097005D01*
X177220221Y-141255548D01*
X177220222Y-141255552D01*
X177220222Y-141255553D01*
X177220223Y-141255556D01*
X177264945Y-141373478D01*
X177276861Y-141404899D01*
X177367587Y-141536338D01*
X177367591Y-141536342D01*
X177487141Y-141642254D01*
X177628565Y-141716479D01*
X177783643Y-141754702D01*
X177783645Y-141754702D01*
X177943359Y-141754702D01*
X177943361Y-141754702D01*
X178098439Y-141716479D01*
X178239863Y-141642254D01*
X178359414Y-141536341D01*
X178450144Y-141404896D01*
X178506781Y-141255556D01*
X178520873Y-141139499D01*
X178526033Y-141097005D01*
X178526033Y-141096998D01*
X178506782Y-140938455D01*
X178506781Y-140938451D01*
X178506781Y-140938448D01*
X178450144Y-140789108D01*
X178450142Y-140789106D01*
X178450142Y-140789104D01*
X178359416Y-140657665D01*
X178359412Y-140657661D01*
X178255492Y-140565596D01*
X186090569Y-140565596D01*
X186090569Y-140565603D01*
X186109819Y-140724146D01*
X186109820Y-140724150D01*
X186109820Y-140724151D01*
X186109821Y-140724154D01*
X186131149Y-140780391D01*
X186166459Y-140873497D01*
X186257185Y-141004936D01*
X186257188Y-141004939D01*
X186376739Y-141110852D01*
X186518163Y-141185077D01*
X186673241Y-141223300D01*
X186673243Y-141223300D01*
X186832957Y-141223300D01*
X186832959Y-141223300D01*
X186988037Y-141185077D01*
X187129461Y-141110852D01*
X187249012Y-141004939D01*
X187339742Y-140873494D01*
X187396379Y-140724154D01*
X187404452Y-140657665D01*
X187415631Y-140565603D01*
X187415631Y-140565596D01*
X193710569Y-140565596D01*
X193710569Y-140565603D01*
X193729819Y-140724146D01*
X193729820Y-140724150D01*
X193729820Y-140724151D01*
X193729821Y-140724154D01*
X193751149Y-140780391D01*
X193786459Y-140873497D01*
X193877185Y-141004936D01*
X193877188Y-141004939D01*
X193996739Y-141110852D01*
X194138163Y-141185077D01*
X194293241Y-141223300D01*
X194293243Y-141223300D01*
X194452957Y-141223300D01*
X194452959Y-141223300D01*
X194608037Y-141185077D01*
X194749461Y-141110852D01*
X194869012Y-141004939D01*
X194959742Y-140873494D01*
X195016379Y-140724154D01*
X195024452Y-140657665D01*
X195035631Y-140565603D01*
X195035631Y-140565596D01*
X195016380Y-140407053D01*
X195016379Y-140407049D01*
X195016379Y-140407046D01*
X194959742Y-140257706D01*
X194959740Y-140257704D01*
X194959740Y-140257702D01*
X194869014Y-140126263D01*
X194869010Y-140126259D01*
X194749460Y-140020347D01*
X194608038Y-139946123D01*
X194452961Y-139907900D01*
X194452959Y-139907900D01*
X194293241Y-139907900D01*
X194293238Y-139907900D01*
X194138161Y-139946123D01*
X193996739Y-140020347D01*
X193877189Y-140126259D01*
X193877185Y-140126263D01*
X193786459Y-140257702D01*
X193729820Y-140407049D01*
X193729819Y-140407053D01*
X193710569Y-140565596D01*
X187415631Y-140565596D01*
X187396380Y-140407053D01*
X187396379Y-140407049D01*
X187396379Y-140407046D01*
X187339742Y-140257706D01*
X187339740Y-140257704D01*
X187339740Y-140257702D01*
X187249014Y-140126263D01*
X187249010Y-140126259D01*
X187129460Y-140020347D01*
X186988038Y-139946123D01*
X186832961Y-139907900D01*
X186832959Y-139907900D01*
X186673241Y-139907900D01*
X186673238Y-139907900D01*
X186518161Y-139946123D01*
X186376739Y-140020347D01*
X186257189Y-140126259D01*
X186257185Y-140126263D01*
X186166459Y-140257702D01*
X186109820Y-140407049D01*
X186109819Y-140407053D01*
X186090569Y-140565596D01*
X178255492Y-140565596D01*
X178239862Y-140551749D01*
X178098440Y-140477525D01*
X177943363Y-140439302D01*
X177943361Y-140439302D01*
X177783643Y-140439302D01*
X177783640Y-140439302D01*
X177628563Y-140477525D01*
X177487141Y-140551749D01*
X177367591Y-140657661D01*
X177367587Y-140657665D01*
X177276861Y-140789104D01*
X177220222Y-140938451D01*
X177220221Y-140938455D01*
X177200971Y-141096998D01*
X176540599Y-141096998D01*
X176644512Y-141004939D01*
X176735242Y-140873494D01*
X176791879Y-140724154D01*
X176799952Y-140657665D01*
X176811131Y-140565603D01*
X176811131Y-140565596D01*
X176791880Y-140407053D01*
X176791879Y-140407049D01*
X176791879Y-140407046D01*
X176735242Y-140257706D01*
X176735240Y-140257704D01*
X176735240Y-140257702D01*
X176644514Y-140126263D01*
X176644510Y-140126259D01*
X176524960Y-140020347D01*
X176383538Y-139946123D01*
X176228461Y-139907900D01*
X176228459Y-139907900D01*
X176068741Y-139907900D01*
X176068738Y-139907900D01*
X175913661Y-139946123D01*
X175772239Y-140020347D01*
X175652689Y-140126259D01*
X175652685Y-140126263D01*
X175561959Y-140257702D01*
X175505320Y-140407049D01*
X175505319Y-140407053D01*
X175486069Y-140565596D01*
X171276456Y-140565596D01*
X171286631Y-140481803D01*
X171286631Y-140481796D01*
X171267380Y-140323253D01*
X171267379Y-140323249D01*
X171267379Y-140323246D01*
X171210742Y-140173906D01*
X171210740Y-140173904D01*
X171210740Y-140173902D01*
X171120014Y-140042463D01*
X171120010Y-140042459D01*
X171000460Y-139936547D01*
X170859038Y-139862323D01*
X170703961Y-139824100D01*
X170703959Y-139824100D01*
X170544241Y-139824100D01*
X170544238Y-139824100D01*
X170389161Y-139862323D01*
X170247739Y-139936547D01*
X170128189Y-140042459D01*
X170128185Y-140042463D01*
X170037459Y-140173902D01*
X169980820Y-140323249D01*
X169980819Y-140323253D01*
X169961569Y-140481796D01*
X163938781Y-140481796D01*
X163947684Y-140472893D01*
X163989734Y-140409961D01*
X164004500Y-140335727D01*
X164004501Y-139664271D01*
X163989735Y-139590039D01*
X163947685Y-139527107D01*
X163472893Y-139052316D01*
X163472892Y-139052315D01*
X163409962Y-139010266D01*
X163409960Y-139010265D01*
X163335727Y-138995500D01*
X163335726Y-138995499D01*
X162664270Y-138995499D01*
X162590039Y-139010264D01*
X162590037Y-139010265D01*
X162527107Y-139052314D01*
X162527105Y-139052316D01*
X162052317Y-139527105D01*
X162052315Y-139527107D01*
X162010266Y-139590037D01*
X162010265Y-139590039D01*
X161995500Y-139664272D01*
X161995499Y-139664273D01*
X161464501Y-139664273D01*
X161464501Y-139664271D01*
X161449735Y-139590039D01*
X161407685Y-139527107D01*
X160932893Y-139052316D01*
X160932892Y-139052315D01*
X160869962Y-139010266D01*
X160869960Y-139010265D01*
X160795727Y-138995500D01*
X160795726Y-138995499D01*
X160124270Y-138995499D01*
X160050039Y-139010264D01*
X160050037Y-139010265D01*
X159987107Y-139052314D01*
X159987105Y-139052316D01*
X159512317Y-139527105D01*
X159512315Y-139527107D01*
X159470266Y-139590037D01*
X159470265Y-139590039D01*
X159455500Y-139664272D01*
X159455499Y-139664273D01*
X158924501Y-139664273D01*
X158924501Y-139664271D01*
X158909735Y-139590039D01*
X158867685Y-139527107D01*
X158392893Y-139052316D01*
X158392892Y-139052315D01*
X158329962Y-139010266D01*
X158329960Y-139010265D01*
X158255727Y-138995500D01*
X158255726Y-138995499D01*
X157584270Y-138995499D01*
X157510039Y-139010264D01*
X157510037Y-139010265D01*
X157447107Y-139052314D01*
X157447105Y-139052316D01*
X156972317Y-139527105D01*
X156972315Y-139527107D01*
X156930266Y-139590037D01*
X156930265Y-139590039D01*
X156915500Y-139664272D01*
X156915499Y-139664273D01*
X156384501Y-139664273D01*
X156384501Y-139664271D01*
X156369735Y-139590039D01*
X156327685Y-139527107D01*
X155852893Y-139052316D01*
X155852892Y-139052315D01*
X155789962Y-139010266D01*
X155789960Y-139010265D01*
X155715727Y-138995500D01*
X155715726Y-138995499D01*
X155044270Y-138995499D01*
X154970039Y-139010264D01*
X154970037Y-139010265D01*
X154907107Y-139052314D01*
X154907105Y-139052316D01*
X154432317Y-139527105D01*
X154432315Y-139527107D01*
X154390266Y-139590037D01*
X154390265Y-139590039D01*
X154375500Y-139664272D01*
X154375499Y-139664273D01*
X153844501Y-139664273D01*
X153844501Y-139664271D01*
X153829735Y-139590039D01*
X153787685Y-139527107D01*
X153312893Y-139052316D01*
X153312892Y-139052315D01*
X153249962Y-139010266D01*
X153249960Y-139010265D01*
X153175727Y-138995500D01*
X153175726Y-138995499D01*
X152504270Y-138995499D01*
X152430039Y-139010264D01*
X152430037Y-139010265D01*
X152367107Y-139052314D01*
X152367105Y-139052316D01*
X151892317Y-139527105D01*
X151892315Y-139527107D01*
X151850266Y-139590037D01*
X151850265Y-139590039D01*
X151835500Y-139664272D01*
X151835499Y-139664273D01*
X151304501Y-139664273D01*
X151304501Y-139664271D01*
X151289735Y-139590039D01*
X151247685Y-139527107D01*
X150772893Y-139052316D01*
X150772892Y-139052315D01*
X150709962Y-139010266D01*
X150709960Y-139010265D01*
X150635727Y-138995500D01*
X150635726Y-138995499D01*
X149964270Y-138995499D01*
X149890039Y-139010264D01*
X149890037Y-139010265D01*
X149827107Y-139052314D01*
X149827105Y-139052316D01*
X149352317Y-139527105D01*
X149352315Y-139527107D01*
X149310266Y-139590037D01*
X149310265Y-139590039D01*
X149295500Y-139664272D01*
X149295499Y-139664273D01*
X148764501Y-139664273D01*
X148764501Y-139664271D01*
X148749735Y-139590039D01*
X148707685Y-139527107D01*
X148232893Y-139052316D01*
X148232892Y-139052315D01*
X148169962Y-139010266D01*
X148169960Y-139010265D01*
X148095727Y-138995500D01*
X148095726Y-138995499D01*
X147424270Y-138995499D01*
X147350039Y-139010264D01*
X147350037Y-139010265D01*
X147287107Y-139052314D01*
X147287105Y-139052316D01*
X146812317Y-139527105D01*
X146812315Y-139527107D01*
X146770266Y-139590037D01*
X146770265Y-139590039D01*
X146755500Y-139664272D01*
X146755499Y-139664273D01*
X146224501Y-139664273D01*
X146224501Y-139664271D01*
X146209735Y-139590039D01*
X146167685Y-139527107D01*
X145692893Y-139052316D01*
X145692892Y-139052315D01*
X145629962Y-139010266D01*
X145629960Y-139010265D01*
X145555727Y-138995500D01*
X145555726Y-138995499D01*
X144884270Y-138995499D01*
X144810039Y-139010264D01*
X144810037Y-139010265D01*
X144747107Y-139052314D01*
X144747105Y-139052316D01*
X144272317Y-139527105D01*
X144272315Y-139527107D01*
X144230266Y-139590037D01*
X144230265Y-139590039D01*
X144215500Y-139664272D01*
X144215499Y-139664273D01*
X143684501Y-139664273D01*
X143684501Y-139664271D01*
X143669735Y-139590039D01*
X143627685Y-139527107D01*
X143152893Y-139052316D01*
X143152892Y-139052315D01*
X143089962Y-139010266D01*
X143089960Y-139010265D01*
X143015727Y-138995500D01*
X143015726Y-138995499D01*
X142344270Y-138995499D01*
X142270039Y-139010264D01*
X142270037Y-139010265D01*
X142207107Y-139052314D01*
X142207105Y-139052316D01*
X141732317Y-139527105D01*
X141732315Y-139527107D01*
X141690266Y-139590037D01*
X141690265Y-139590039D01*
X141675500Y-139664272D01*
X141675499Y-139664273D01*
X141144501Y-139664273D01*
X141144501Y-139664271D01*
X141129735Y-139590039D01*
X141087685Y-139527107D01*
X140612893Y-139052316D01*
X140612892Y-139052315D01*
X140549962Y-139010266D01*
X140549960Y-139010265D01*
X140475727Y-138995500D01*
X140475726Y-138995499D01*
X139804270Y-138995499D01*
X139730039Y-139010264D01*
X139730037Y-139010265D01*
X139667107Y-139052314D01*
X139667105Y-139052316D01*
X139192317Y-139527105D01*
X139192315Y-139527107D01*
X139150266Y-139590037D01*
X139150265Y-139590039D01*
X139135500Y-139664272D01*
X139135499Y-139664273D01*
X138604501Y-139664273D01*
X138604501Y-139664271D01*
X138589735Y-139590039D01*
X138547685Y-139527107D01*
X138072893Y-139052316D01*
X138072892Y-139052315D01*
X138009962Y-139010266D01*
X138009960Y-139010265D01*
X137935727Y-138995500D01*
X137935726Y-138995499D01*
X137264270Y-138995499D01*
X137190039Y-139010264D01*
X137190037Y-139010265D01*
X137127107Y-139052314D01*
X137127105Y-139052316D01*
X136652317Y-139527105D01*
X136652315Y-139527107D01*
X136610266Y-139590037D01*
X136610265Y-139590039D01*
X136595500Y-139664272D01*
X136595499Y-139664273D01*
X136064501Y-139664273D01*
X136064501Y-139664271D01*
X136049735Y-139590039D01*
X136007685Y-139527107D01*
X135532893Y-139052316D01*
X135532892Y-139052315D01*
X135469962Y-139010266D01*
X135469960Y-139010265D01*
X135395727Y-138995500D01*
X135395726Y-138995499D01*
X134724270Y-138995499D01*
X134650039Y-139010264D01*
X134650037Y-139010265D01*
X134587107Y-139052314D01*
X134587105Y-139052316D01*
X134112317Y-139527105D01*
X134112315Y-139527107D01*
X134070266Y-139590037D01*
X134070265Y-139590039D01*
X134055500Y-139664272D01*
X134055499Y-139664273D01*
X133524501Y-139664273D01*
X133524501Y-139664271D01*
X133509735Y-139590039D01*
X133467685Y-139527107D01*
X132992893Y-139052316D01*
X132992892Y-139052315D01*
X132929962Y-139010266D01*
X132929960Y-139010265D01*
X132855727Y-138995500D01*
X132855726Y-138995499D01*
X132184270Y-138995499D01*
X132110039Y-139010264D01*
X132110037Y-139010265D01*
X132047107Y-139052314D01*
X132047105Y-139052316D01*
X131572317Y-139527105D01*
X131572315Y-139527107D01*
X131530266Y-139590037D01*
X131530265Y-139590039D01*
X131515500Y-139664272D01*
X131515499Y-139664273D01*
X130984501Y-139664273D01*
X130984501Y-139664271D01*
X130969735Y-139590039D01*
X130927685Y-139527107D01*
X130452893Y-139052316D01*
X130452892Y-139052315D01*
X130389962Y-139010266D01*
X130389960Y-139010265D01*
X130315727Y-138995500D01*
X130315726Y-138995499D01*
X129644270Y-138995499D01*
X129570039Y-139010264D01*
X129570037Y-139010265D01*
X129507107Y-139052314D01*
X129507105Y-139052316D01*
X129032317Y-139527105D01*
X129032315Y-139527107D01*
X128990266Y-139590037D01*
X128990265Y-139590039D01*
X128975500Y-139664272D01*
X128975499Y-139664273D01*
X128356321Y-139664273D01*
X129258398Y-138762196D01*
X169009069Y-138762196D01*
X169009069Y-138762203D01*
X169028319Y-138920746D01*
X169028320Y-138920750D01*
X169028320Y-138920751D01*
X169028321Y-138920754D01*
X169062268Y-139010264D01*
X169084959Y-139070097D01*
X169175685Y-139201536D01*
X169175688Y-139201539D01*
X169295239Y-139307452D01*
X169436663Y-139381677D01*
X169591741Y-139419900D01*
X169591743Y-139419900D01*
X169751457Y-139419900D01*
X169751459Y-139419900D01*
X169906537Y-139381677D01*
X169949562Y-139359096D01*
X183741069Y-139359096D01*
X183741069Y-139359103D01*
X183760319Y-139517646D01*
X183760320Y-139517650D01*
X183760320Y-139517651D01*
X183760321Y-139517654D01*
X183787772Y-139590037D01*
X183816959Y-139666997D01*
X183907685Y-139798436D01*
X183907688Y-139798439D01*
X184027239Y-139904352D01*
X184168663Y-139978577D01*
X184323741Y-140016800D01*
X184323743Y-140016800D01*
X184483457Y-140016800D01*
X184483459Y-140016800D01*
X184638537Y-139978577D01*
X184779961Y-139904352D01*
X184899512Y-139798439D01*
X184990242Y-139666994D01*
X185046879Y-139517654D01*
X185066131Y-139359100D01*
X185046879Y-139200546D01*
X184990242Y-139051206D01*
X184990240Y-139051204D01*
X184990240Y-139051202D01*
X184899514Y-138919763D01*
X184899510Y-138919759D01*
X184779960Y-138813847D01*
X184638538Y-138739623D01*
X184483461Y-138701400D01*
X184483459Y-138701400D01*
X184323741Y-138701400D01*
X184323738Y-138701400D01*
X184168661Y-138739623D01*
X184027239Y-138813847D01*
X183907689Y-138919759D01*
X183907685Y-138919763D01*
X183816959Y-139051202D01*
X183760320Y-139200549D01*
X183760319Y-139200553D01*
X183741069Y-139359096D01*
X169949562Y-139359096D01*
X170047961Y-139307452D01*
X170167512Y-139201539D01*
X170258242Y-139070094D01*
X170314879Y-138920754D01*
X170327860Y-138813847D01*
X170334131Y-138762203D01*
X170334131Y-138762196D01*
X170314880Y-138603653D01*
X170314879Y-138603649D01*
X170314879Y-138603646D01*
X170258242Y-138454306D01*
X170258240Y-138454304D01*
X170258240Y-138454302D01*
X170167514Y-138322863D01*
X170167510Y-138322859D01*
X170047960Y-138216947D01*
X169906538Y-138142723D01*
X169751461Y-138104500D01*
X169751459Y-138104500D01*
X169591741Y-138104500D01*
X169591738Y-138104500D01*
X169436661Y-138142723D01*
X169295239Y-138216947D01*
X169175689Y-138322859D01*
X169175685Y-138322863D01*
X169084959Y-138454302D01*
X169028320Y-138603649D01*
X169028319Y-138603653D01*
X169009069Y-138762196D01*
X129258398Y-138762196D01*
X129652816Y-138367778D01*
X129658936Y-138362410D01*
X129754391Y-138289164D01*
X129768511Y-138281012D01*
X129875839Y-138236555D01*
X129891591Y-138232336D01*
X130010851Y-138216634D01*
X130019009Y-138216100D01*
X163884068Y-138216100D01*
X163884074Y-138216100D01*
X164094494Y-138216100D01*
X164782100Y-137528494D01*
X164782100Y-136171396D01*
X165186369Y-136171396D01*
X165186369Y-136171403D01*
X165205619Y-136329946D01*
X165205620Y-136329950D01*
X165205620Y-136329951D01*
X165205621Y-136329954D01*
X165250343Y-136447876D01*
X165262259Y-136479297D01*
X165352985Y-136610736D01*
X165352988Y-136610739D01*
X165472539Y-136716652D01*
X165613963Y-136790877D01*
X165769041Y-136829100D01*
X165769043Y-136829100D01*
X165928757Y-136829100D01*
X165928759Y-136829100D01*
X166083837Y-136790877D01*
X166225261Y-136716652D01*
X166344812Y-136610739D01*
X166435542Y-136479294D01*
X166492179Y-136329954D01*
X166511431Y-136171400D01*
X166492179Y-136012846D01*
X166435542Y-135863506D01*
X166435540Y-135863504D01*
X166435540Y-135863502D01*
X166344814Y-135732063D01*
X166344810Y-135732059D01*
X166225260Y-135626147D01*
X166083838Y-135551923D01*
X165928761Y-135513700D01*
X165928759Y-135513700D01*
X165769041Y-135513700D01*
X165769038Y-135513700D01*
X165613961Y-135551923D01*
X165472539Y-135626147D01*
X165352989Y-135732059D01*
X165352985Y-135732063D01*
X165262259Y-135863502D01*
X165205620Y-136012849D01*
X165205619Y-136012853D01*
X165186369Y-136171396D01*
X164782100Y-136171396D01*
X164782100Y-135584009D01*
X164782635Y-135575851D01*
X164785785Y-135551923D01*
X164798336Y-135456591D01*
X164802555Y-135440839D01*
X164847012Y-135333511D01*
X164855164Y-135319391D01*
X164928410Y-135223936D01*
X164933778Y-135217816D01*
X167181316Y-132970278D01*
X167187436Y-132964910D01*
X167282891Y-132891664D01*
X167297011Y-132883512D01*
X167404339Y-132839055D01*
X167420091Y-132834836D01*
X167539351Y-132819134D01*
X167547509Y-132818600D01*
X170167802Y-132818600D01*
X170175960Y-132819135D01*
G37*
%TD.AperFunction*%
%TD*%
M02*
