%TF.GenerationSoftware,KiCad,Pcbnew,8.0.7-8.0.7-0~ubuntu22.04.1*%
%TF.CreationDate,2024-12-15T21:04:22+01:00*%
%TF.ProjectId,EEZ DIB 1.2 template,45455a20-4449-4422-9031-2e322074656d,rev?*%
%TF.SameCoordinates,Original*%
%TF.FileFunction,Legend,Top*%
%TF.FilePolarity,Positive*%
%FSLAX46Y46*%
G04 Gerber Fmt 4.6, Leading zero omitted, Abs format (unit mm)*
G04 Created by KiCad (PCBNEW 8.0.7-8.0.7-0~ubuntu22.04.1) date 2024-12-15 21:04:22*
%MOMM*%
%LPD*%
G01*
G04 APERTURE LIST*
%ADD10C,0.152400*%
%ADD11C,0.203200*%
%ADD12C,0.120000*%
%ADD13C,0.000000*%
%ADD14C,0.127000*%
G04 APERTURE END LIST*
D10*
X150279782Y-58844375D02*
X150666829Y-58844375D01*
X150202372Y-59076603D02*
X150473305Y-58263803D01*
X150473305Y-58263803D02*
X150744239Y-59076603D01*
X151015172Y-59076603D02*
X151015172Y-58263803D01*
X151015172Y-58263803D02*
X151208696Y-58263803D01*
X151208696Y-58263803D02*
X151324810Y-58302508D01*
X151324810Y-58302508D02*
X151402220Y-58379918D01*
X151402220Y-58379918D02*
X151440925Y-58457327D01*
X151440925Y-58457327D02*
X151479629Y-58612146D01*
X151479629Y-58612146D02*
X151479629Y-58728260D01*
X151479629Y-58728260D02*
X151440925Y-58883079D01*
X151440925Y-58883079D02*
X151402220Y-58960489D01*
X151402220Y-58960489D02*
X151324810Y-59037899D01*
X151324810Y-59037899D02*
X151208696Y-59076603D01*
X151208696Y-59076603D02*
X151015172Y-59076603D01*
X151827972Y-59076603D02*
X151827972Y-58263803D01*
X152485954Y-58650851D02*
X152602068Y-58689556D01*
X152602068Y-58689556D02*
X152640773Y-58728260D01*
X152640773Y-58728260D02*
X152679477Y-58805670D01*
X152679477Y-58805670D02*
X152679477Y-58921784D01*
X152679477Y-58921784D02*
X152640773Y-58999194D01*
X152640773Y-58999194D02*
X152602068Y-59037899D01*
X152602068Y-59037899D02*
X152524658Y-59076603D01*
X152524658Y-59076603D02*
X152215020Y-59076603D01*
X152215020Y-59076603D02*
X152215020Y-58263803D01*
X152215020Y-58263803D02*
X152485954Y-58263803D01*
X152485954Y-58263803D02*
X152563363Y-58302508D01*
X152563363Y-58302508D02*
X152602068Y-58341213D01*
X152602068Y-58341213D02*
X152640773Y-58418622D01*
X152640773Y-58418622D02*
X152640773Y-58496032D01*
X152640773Y-58496032D02*
X152602068Y-58573441D01*
X152602068Y-58573441D02*
X152563363Y-58612146D01*
X152563363Y-58612146D02*
X152485954Y-58650851D01*
X152485954Y-58650851D02*
X152215020Y-58650851D01*
X152989116Y-58534737D02*
X153569687Y-58534737D01*
X153221344Y-58186394D02*
X152989116Y-59231422D01*
X153492277Y-58883079D02*
X152911706Y-58883079D01*
X153260049Y-59231422D02*
X153492277Y-58186394D01*
X153801916Y-58341213D02*
X153840620Y-58302508D01*
X153840620Y-58302508D02*
X153918030Y-58263803D01*
X153918030Y-58263803D02*
X154111554Y-58263803D01*
X154111554Y-58263803D02*
X154188963Y-58302508D01*
X154188963Y-58302508D02*
X154227668Y-58341213D01*
X154227668Y-58341213D02*
X154266373Y-58418622D01*
X154266373Y-58418622D02*
X154266373Y-58496032D01*
X154266373Y-58496032D02*
X154227668Y-58612146D01*
X154227668Y-58612146D02*
X153763211Y-59076603D01*
X153763211Y-59076603D02*
X154266373Y-59076603D01*
X107290282Y-58895175D02*
X107677329Y-58895175D01*
X107212872Y-59127403D02*
X107483805Y-58314603D01*
X107483805Y-58314603D02*
X107754739Y-59127403D01*
X108025672Y-59127403D02*
X108025672Y-58314603D01*
X108025672Y-58314603D02*
X108219196Y-58314603D01*
X108219196Y-58314603D02*
X108335310Y-58353308D01*
X108335310Y-58353308D02*
X108412720Y-58430718D01*
X108412720Y-58430718D02*
X108451425Y-58508127D01*
X108451425Y-58508127D02*
X108490129Y-58662946D01*
X108490129Y-58662946D02*
X108490129Y-58779060D01*
X108490129Y-58779060D02*
X108451425Y-58933879D01*
X108451425Y-58933879D02*
X108412720Y-59011289D01*
X108412720Y-59011289D02*
X108335310Y-59088699D01*
X108335310Y-59088699D02*
X108219196Y-59127403D01*
X108219196Y-59127403D02*
X108025672Y-59127403D01*
X108838472Y-59127403D02*
X108838472Y-58314603D01*
X109496454Y-58701651D02*
X109612568Y-58740356D01*
X109612568Y-58740356D02*
X109651273Y-58779060D01*
X109651273Y-58779060D02*
X109689977Y-58856470D01*
X109689977Y-58856470D02*
X109689977Y-58972584D01*
X109689977Y-58972584D02*
X109651273Y-59049994D01*
X109651273Y-59049994D02*
X109612568Y-59088699D01*
X109612568Y-59088699D02*
X109535158Y-59127403D01*
X109535158Y-59127403D02*
X109225520Y-59127403D01*
X109225520Y-59127403D02*
X109225520Y-58314603D01*
X109225520Y-58314603D02*
X109496454Y-58314603D01*
X109496454Y-58314603D02*
X109573863Y-58353308D01*
X109573863Y-58353308D02*
X109612568Y-58392013D01*
X109612568Y-58392013D02*
X109651273Y-58469422D01*
X109651273Y-58469422D02*
X109651273Y-58546832D01*
X109651273Y-58546832D02*
X109612568Y-58624241D01*
X109612568Y-58624241D02*
X109573863Y-58662946D01*
X109573863Y-58662946D02*
X109496454Y-58701651D01*
X109496454Y-58701651D02*
X109225520Y-58701651D01*
X109999616Y-58585537D02*
X110580187Y-58585537D01*
X110231844Y-58237194D02*
X109999616Y-59282222D01*
X110502777Y-58933879D02*
X109922206Y-58933879D01*
X110270549Y-59282222D02*
X110502777Y-58237194D01*
X111276873Y-59127403D02*
X110812416Y-59127403D01*
X111044644Y-59127403D02*
X111044644Y-58314603D01*
X111044644Y-58314603D02*
X110967235Y-58430718D01*
X110967235Y-58430718D02*
X110889825Y-58508127D01*
X110889825Y-58508127D02*
X110812416Y-58546832D01*
X205673953Y-146425735D02*
X205673953Y-147151450D01*
X205673953Y-147151450D02*
X205625572Y-147296593D01*
X205625572Y-147296593D02*
X205528810Y-147393355D01*
X205528810Y-147393355D02*
X205383667Y-147441735D01*
X205383667Y-147441735D02*
X205286905Y-147441735D01*
X206689953Y-147441735D02*
X206109381Y-147441735D01*
X206399667Y-147441735D02*
X206399667Y-146425735D01*
X206399667Y-146425735D02*
X206302905Y-146570878D01*
X206302905Y-146570878D02*
X206206143Y-146667640D01*
X206206143Y-146667640D02*
X206109381Y-146716021D01*
X172838533Y-138657182D02*
X172799829Y-138695887D01*
X172799829Y-138695887D02*
X172683714Y-138734591D01*
X172683714Y-138734591D02*
X172606305Y-138734591D01*
X172606305Y-138734591D02*
X172490191Y-138695887D01*
X172490191Y-138695887D02*
X172412781Y-138618477D01*
X172412781Y-138618477D02*
X172374076Y-138541067D01*
X172374076Y-138541067D02*
X172335372Y-138386248D01*
X172335372Y-138386248D02*
X172335372Y-138270134D01*
X172335372Y-138270134D02*
X172374076Y-138115315D01*
X172374076Y-138115315D02*
X172412781Y-138037906D01*
X172412781Y-138037906D02*
X172490191Y-137960496D01*
X172490191Y-137960496D02*
X172606305Y-137921791D01*
X172606305Y-137921791D02*
X172683714Y-137921791D01*
X172683714Y-137921791D02*
X172799829Y-137960496D01*
X172799829Y-137960496D02*
X172838533Y-137999201D01*
X173109467Y-137921791D02*
X173612629Y-137921791D01*
X173612629Y-137921791D02*
X173341695Y-138231429D01*
X173341695Y-138231429D02*
X173457810Y-138231429D01*
X173457810Y-138231429D02*
X173535219Y-138270134D01*
X173535219Y-138270134D02*
X173573924Y-138308839D01*
X173573924Y-138308839D02*
X173612629Y-138386248D01*
X173612629Y-138386248D02*
X173612629Y-138579772D01*
X173612629Y-138579772D02*
X173573924Y-138657182D01*
X173573924Y-138657182D02*
X173535219Y-138695887D01*
X173535219Y-138695887D02*
X173457810Y-138734591D01*
X173457810Y-138734591D02*
X173225581Y-138734591D01*
X173225581Y-138734591D02*
X173148172Y-138695887D01*
X173148172Y-138695887D02*
X173109467Y-138657182D01*
X129590405Y-137835735D02*
X130267739Y-138851735D01*
X130267739Y-137835735D02*
X129590405Y-138851735D01*
X131186977Y-138851735D02*
X130606405Y-138851735D01*
X130896691Y-138851735D02*
X130896691Y-137835735D01*
X130896691Y-137835735D02*
X130799929Y-137980878D01*
X130799929Y-137980878D02*
X130703167Y-138077640D01*
X130703167Y-138077640D02*
X130606405Y-138126021D01*
X174553033Y-129957682D02*
X174514329Y-129996387D01*
X174514329Y-129996387D02*
X174398214Y-130035091D01*
X174398214Y-130035091D02*
X174320805Y-130035091D01*
X174320805Y-130035091D02*
X174204691Y-129996387D01*
X174204691Y-129996387D02*
X174127281Y-129918977D01*
X174127281Y-129918977D02*
X174088576Y-129841567D01*
X174088576Y-129841567D02*
X174049872Y-129686748D01*
X174049872Y-129686748D02*
X174049872Y-129570634D01*
X174049872Y-129570634D02*
X174088576Y-129415815D01*
X174088576Y-129415815D02*
X174127281Y-129338406D01*
X174127281Y-129338406D02*
X174204691Y-129260996D01*
X174204691Y-129260996D02*
X174320805Y-129222291D01*
X174320805Y-129222291D02*
X174398214Y-129222291D01*
X174398214Y-129222291D02*
X174514329Y-129260996D01*
X174514329Y-129260996D02*
X174553033Y-129299701D01*
X175288424Y-129222291D02*
X174901376Y-129222291D01*
X174901376Y-129222291D02*
X174862672Y-129609339D01*
X174862672Y-129609339D02*
X174901376Y-129570634D01*
X174901376Y-129570634D02*
X174978786Y-129531929D01*
X174978786Y-129531929D02*
X175172310Y-129531929D01*
X175172310Y-129531929D02*
X175249719Y-129570634D01*
X175249719Y-129570634D02*
X175288424Y-129609339D01*
X175288424Y-129609339D02*
X175327129Y-129686748D01*
X175327129Y-129686748D02*
X175327129Y-129880272D01*
X175327129Y-129880272D02*
X175288424Y-129957682D01*
X175288424Y-129957682D02*
X175249719Y-129996387D01*
X175249719Y-129996387D02*
X175172310Y-130035091D01*
X175172310Y-130035091D02*
X174978786Y-130035091D01*
X174978786Y-130035091D02*
X174901376Y-129996387D01*
X174901376Y-129996387D02*
X174862672Y-129957682D01*
X171314533Y-139990682D02*
X171275829Y-140029387D01*
X171275829Y-140029387D02*
X171159714Y-140068091D01*
X171159714Y-140068091D02*
X171082305Y-140068091D01*
X171082305Y-140068091D02*
X170966191Y-140029387D01*
X170966191Y-140029387D02*
X170888781Y-139951977D01*
X170888781Y-139951977D02*
X170850076Y-139874567D01*
X170850076Y-139874567D02*
X170811372Y-139719748D01*
X170811372Y-139719748D02*
X170811372Y-139603634D01*
X170811372Y-139603634D02*
X170850076Y-139448815D01*
X170850076Y-139448815D02*
X170888781Y-139371406D01*
X170888781Y-139371406D02*
X170966191Y-139293996D01*
X170966191Y-139293996D02*
X171082305Y-139255291D01*
X171082305Y-139255291D02*
X171159714Y-139255291D01*
X171159714Y-139255291D02*
X171275829Y-139293996D01*
X171275829Y-139293996D02*
X171314533Y-139332701D01*
X172088629Y-140068091D02*
X171624172Y-140068091D01*
X171856400Y-140068091D02*
X171856400Y-139255291D01*
X171856400Y-139255291D02*
X171778991Y-139371406D01*
X171778991Y-139371406D02*
X171701581Y-139448815D01*
X171701581Y-139448815D02*
X171624172Y-139487520D01*
X131531877Y-63278303D02*
X132073743Y-64091103D01*
X132073743Y-63278303D02*
X131531877Y-64091103D01*
X132305972Y-63278303D02*
X132809134Y-63278303D01*
X132809134Y-63278303D02*
X132538200Y-63587941D01*
X132538200Y-63587941D02*
X132654315Y-63587941D01*
X132654315Y-63587941D02*
X132731724Y-63626646D01*
X132731724Y-63626646D02*
X132770429Y-63665351D01*
X132770429Y-63665351D02*
X132809134Y-63742760D01*
X132809134Y-63742760D02*
X132809134Y-63936284D01*
X132809134Y-63936284D02*
X132770429Y-64013694D01*
X132770429Y-64013694D02*
X132731724Y-64052399D01*
X132731724Y-64052399D02*
X132654315Y-64091103D01*
X132654315Y-64091103D02*
X132422086Y-64091103D01*
X132422086Y-64091103D02*
X132344677Y-64052399D01*
X132344677Y-64052399D02*
X132305972Y-64013694D01*
X165520786Y-144545603D02*
X165520786Y-143732803D01*
X166372291Y-144468194D02*
X166333587Y-144506899D01*
X166333587Y-144506899D02*
X166217472Y-144545603D01*
X166217472Y-144545603D02*
X166140063Y-144545603D01*
X166140063Y-144545603D02*
X166023949Y-144506899D01*
X166023949Y-144506899D02*
X165946539Y-144429489D01*
X165946539Y-144429489D02*
X165907834Y-144352079D01*
X165907834Y-144352079D02*
X165869130Y-144197260D01*
X165869130Y-144197260D02*
X165869130Y-144081146D01*
X165869130Y-144081146D02*
X165907834Y-143926327D01*
X165907834Y-143926327D02*
X165946539Y-143848918D01*
X165946539Y-143848918D02*
X166023949Y-143771508D01*
X166023949Y-143771508D02*
X166140063Y-143732803D01*
X166140063Y-143732803D02*
X166217472Y-143732803D01*
X166217472Y-143732803D02*
X166333587Y-143771508D01*
X166333587Y-143771508D02*
X166372291Y-143810213D01*
X167146387Y-144545603D02*
X166681930Y-144545603D01*
X166914158Y-144545603D02*
X166914158Y-143732803D01*
X166914158Y-143732803D02*
X166836749Y-143848918D01*
X166836749Y-143848918D02*
X166759339Y-143926327D01*
X166759339Y-143926327D02*
X166681930Y-143965032D01*
X188781743Y-144736103D02*
X188510810Y-144349056D01*
X188317286Y-144736103D02*
X188317286Y-143923303D01*
X188317286Y-143923303D02*
X188626924Y-143923303D01*
X188626924Y-143923303D02*
X188704334Y-143962008D01*
X188704334Y-143962008D02*
X188743039Y-144000713D01*
X188743039Y-144000713D02*
X188781743Y-144078122D01*
X188781743Y-144078122D02*
X188781743Y-144194237D01*
X188781743Y-144194237D02*
X188743039Y-144271646D01*
X188743039Y-144271646D02*
X188704334Y-144310351D01*
X188704334Y-144310351D02*
X188626924Y-144349056D01*
X188626924Y-144349056D02*
X188317286Y-144349056D01*
X189130086Y-144736103D02*
X189130086Y-143923303D01*
X189130086Y-143923303D02*
X189594543Y-144736103D01*
X189594543Y-144736103D02*
X189594543Y-143923303D01*
X190407344Y-144736103D02*
X189942887Y-144736103D01*
X190175115Y-144736103D02*
X190175115Y-143923303D01*
X190175115Y-143923303D02*
X190097706Y-144039418D01*
X190097706Y-144039418D02*
X190020296Y-144116827D01*
X190020296Y-144116827D02*
X189942887Y-144155532D01*
X176871818Y-141954803D02*
X176871818Y-142535375D01*
X176871818Y-142535375D02*
X176833113Y-142651489D01*
X176833113Y-142651489D02*
X176755704Y-142728899D01*
X176755704Y-142728899D02*
X176639589Y-142767603D01*
X176639589Y-142767603D02*
X176562180Y-142767603D01*
X177258865Y-142767603D02*
X177258865Y-141954803D01*
X177258865Y-141954803D02*
X177568503Y-141954803D01*
X177568503Y-141954803D02*
X177645913Y-141993508D01*
X177645913Y-141993508D02*
X177684618Y-142032213D01*
X177684618Y-142032213D02*
X177723322Y-142109622D01*
X177723322Y-142109622D02*
X177723322Y-142225737D01*
X177723322Y-142225737D02*
X177684618Y-142303146D01*
X177684618Y-142303146D02*
X177645913Y-142341851D01*
X177645913Y-142341851D02*
X177568503Y-142380556D01*
X177568503Y-142380556D02*
X177258865Y-142380556D01*
X178497418Y-142767603D02*
X178032961Y-142767603D01*
X178265189Y-142767603D02*
X178265189Y-141954803D01*
X178265189Y-141954803D02*
X178187780Y-142070918D01*
X178187780Y-142070918D02*
X178110370Y-142148327D01*
X178110370Y-142148327D02*
X178032961Y-142187032D01*
X189135052Y-133083091D02*
X189135052Y-132270291D01*
X189986557Y-133005682D02*
X189947853Y-133044387D01*
X189947853Y-133044387D02*
X189831738Y-133083091D01*
X189831738Y-133083091D02*
X189754329Y-133083091D01*
X189754329Y-133083091D02*
X189638215Y-133044387D01*
X189638215Y-133044387D02*
X189560805Y-132966977D01*
X189560805Y-132966977D02*
X189522100Y-132889567D01*
X189522100Y-132889567D02*
X189483396Y-132734748D01*
X189483396Y-132734748D02*
X189483396Y-132618634D01*
X189483396Y-132618634D02*
X189522100Y-132463815D01*
X189522100Y-132463815D02*
X189560805Y-132386406D01*
X189560805Y-132386406D02*
X189638215Y-132308996D01*
X189638215Y-132308996D02*
X189754329Y-132270291D01*
X189754329Y-132270291D02*
X189831738Y-132270291D01*
X189831738Y-132270291D02*
X189947853Y-132308996D01*
X189947853Y-132308996D02*
X189986557Y-132347701D01*
X190296196Y-132347701D02*
X190334900Y-132308996D01*
X190334900Y-132308996D02*
X190412310Y-132270291D01*
X190412310Y-132270291D02*
X190605834Y-132270291D01*
X190605834Y-132270291D02*
X190683243Y-132308996D01*
X190683243Y-132308996D02*
X190721948Y-132347701D01*
X190721948Y-132347701D02*
X190760653Y-132425110D01*
X190760653Y-132425110D02*
X190760653Y-132502520D01*
X190760653Y-132502520D02*
X190721948Y-132618634D01*
X190721948Y-132618634D02*
X190257491Y-133083091D01*
X190257491Y-133083091D02*
X190760653Y-133083091D01*
X214939033Y-144195591D02*
X214668100Y-143808544D01*
X214474576Y-144195591D02*
X214474576Y-143382791D01*
X214474576Y-143382791D02*
X214784214Y-143382791D01*
X214784214Y-143382791D02*
X214861624Y-143421496D01*
X214861624Y-143421496D02*
X214900329Y-143460201D01*
X214900329Y-143460201D02*
X214939033Y-143537610D01*
X214939033Y-143537610D02*
X214939033Y-143653725D01*
X214939033Y-143653725D02*
X214900329Y-143731134D01*
X214900329Y-143731134D02*
X214861624Y-143769839D01*
X214861624Y-143769839D02*
X214784214Y-143808544D01*
X214784214Y-143808544D02*
X214474576Y-143808544D01*
X215713129Y-144195591D02*
X215248672Y-144195591D01*
X215480900Y-144195591D02*
X215480900Y-143382791D01*
X215480900Y-143382791D02*
X215403491Y-143498906D01*
X215403491Y-143498906D02*
X215326081Y-143576315D01*
X215326081Y-143576315D02*
X215248672Y-143615020D01*
X206874533Y-144195591D02*
X206603600Y-143808544D01*
X206410076Y-144195591D02*
X206410076Y-143382791D01*
X206410076Y-143382791D02*
X206719714Y-143382791D01*
X206719714Y-143382791D02*
X206797124Y-143421496D01*
X206797124Y-143421496D02*
X206835829Y-143460201D01*
X206835829Y-143460201D02*
X206874533Y-143537610D01*
X206874533Y-143537610D02*
X206874533Y-143653725D01*
X206874533Y-143653725D02*
X206835829Y-143731134D01*
X206835829Y-143731134D02*
X206797124Y-143769839D01*
X206797124Y-143769839D02*
X206719714Y-143808544D01*
X206719714Y-143808544D02*
X206410076Y-143808544D01*
X207184172Y-143460201D02*
X207222876Y-143421496D01*
X207222876Y-143421496D02*
X207300286Y-143382791D01*
X207300286Y-143382791D02*
X207493810Y-143382791D01*
X207493810Y-143382791D02*
X207571219Y-143421496D01*
X207571219Y-143421496D02*
X207609924Y-143460201D01*
X207609924Y-143460201D02*
X207648629Y-143537610D01*
X207648629Y-143537610D02*
X207648629Y-143615020D01*
X207648629Y-143615020D02*
X207609924Y-143731134D01*
X207609924Y-143731134D02*
X207145467Y-144195591D01*
X207145467Y-144195591D02*
X207648629Y-144195591D01*
X111531877Y-63278303D02*
X112073743Y-64091103D01*
X112073743Y-63278303D02*
X111531877Y-64091103D01*
X112344677Y-63355713D02*
X112383381Y-63317008D01*
X112383381Y-63317008D02*
X112460791Y-63278303D01*
X112460791Y-63278303D02*
X112654315Y-63278303D01*
X112654315Y-63278303D02*
X112731724Y-63317008D01*
X112731724Y-63317008D02*
X112770429Y-63355713D01*
X112770429Y-63355713D02*
X112809134Y-63433122D01*
X112809134Y-63433122D02*
X112809134Y-63510532D01*
X112809134Y-63510532D02*
X112770429Y-63626646D01*
X112770429Y-63626646D02*
X112305972Y-64091103D01*
X112305972Y-64091103D02*
X112809134Y-64091103D01*
X178530552Y-133083091D02*
X178530552Y-132270291D01*
X179382057Y-133005682D02*
X179343353Y-133044387D01*
X179343353Y-133044387D02*
X179227238Y-133083091D01*
X179227238Y-133083091D02*
X179149829Y-133083091D01*
X179149829Y-133083091D02*
X179033715Y-133044387D01*
X179033715Y-133044387D02*
X178956305Y-132966977D01*
X178956305Y-132966977D02*
X178917600Y-132889567D01*
X178917600Y-132889567D02*
X178878896Y-132734748D01*
X178878896Y-132734748D02*
X178878896Y-132618634D01*
X178878896Y-132618634D02*
X178917600Y-132463815D01*
X178917600Y-132463815D02*
X178956305Y-132386406D01*
X178956305Y-132386406D02*
X179033715Y-132308996D01*
X179033715Y-132308996D02*
X179149829Y-132270291D01*
X179149829Y-132270291D02*
X179227238Y-132270291D01*
X179227238Y-132270291D02*
X179343353Y-132308996D01*
X179343353Y-132308996D02*
X179382057Y-132347701D01*
X179652991Y-132270291D02*
X180156153Y-132270291D01*
X180156153Y-132270291D02*
X179885219Y-132579929D01*
X179885219Y-132579929D02*
X180001334Y-132579929D01*
X180001334Y-132579929D02*
X180078743Y-132618634D01*
X180078743Y-132618634D02*
X180117448Y-132657339D01*
X180117448Y-132657339D02*
X180156153Y-132734748D01*
X180156153Y-132734748D02*
X180156153Y-132928272D01*
X180156153Y-132928272D02*
X180117448Y-133005682D01*
X180117448Y-133005682D02*
X180078743Y-133044387D01*
X180078743Y-133044387D02*
X180001334Y-133083091D01*
X180001334Y-133083091D02*
X179769105Y-133083091D01*
X179769105Y-133083091D02*
X179691696Y-133044387D01*
X179691696Y-133044387D02*
X179652991Y-133005682D01*
X212756533Y-141959182D02*
X212717829Y-141997887D01*
X212717829Y-141997887D02*
X212601714Y-142036591D01*
X212601714Y-142036591D02*
X212524305Y-142036591D01*
X212524305Y-142036591D02*
X212408191Y-141997887D01*
X212408191Y-141997887D02*
X212330781Y-141920477D01*
X212330781Y-141920477D02*
X212292076Y-141843067D01*
X212292076Y-141843067D02*
X212253372Y-141688248D01*
X212253372Y-141688248D02*
X212253372Y-141572134D01*
X212253372Y-141572134D02*
X212292076Y-141417315D01*
X212292076Y-141417315D02*
X212330781Y-141339906D01*
X212330781Y-141339906D02*
X212408191Y-141262496D01*
X212408191Y-141262496D02*
X212524305Y-141223791D01*
X212524305Y-141223791D02*
X212601714Y-141223791D01*
X212601714Y-141223791D02*
X212717829Y-141262496D01*
X212717829Y-141262496D02*
X212756533Y-141301201D01*
X213453219Y-141494725D02*
X213453219Y-142036591D01*
X213259695Y-141185087D02*
X213066172Y-141765658D01*
X213066172Y-141765658D02*
X213569333Y-141765658D01*
X185348033Y-144372182D02*
X185309329Y-144410887D01*
X185309329Y-144410887D02*
X185193214Y-144449591D01*
X185193214Y-144449591D02*
X185115805Y-144449591D01*
X185115805Y-144449591D02*
X184999691Y-144410887D01*
X184999691Y-144410887D02*
X184922281Y-144333477D01*
X184922281Y-144333477D02*
X184883576Y-144256067D01*
X184883576Y-144256067D02*
X184844872Y-144101248D01*
X184844872Y-144101248D02*
X184844872Y-143985134D01*
X184844872Y-143985134D02*
X184883576Y-143830315D01*
X184883576Y-143830315D02*
X184922281Y-143752906D01*
X184922281Y-143752906D02*
X184999691Y-143675496D01*
X184999691Y-143675496D02*
X185115805Y-143636791D01*
X185115805Y-143636791D02*
X185193214Y-143636791D01*
X185193214Y-143636791D02*
X185309329Y-143675496D01*
X185309329Y-143675496D02*
X185348033Y-143714201D01*
X185657672Y-143714201D02*
X185696376Y-143675496D01*
X185696376Y-143675496D02*
X185773786Y-143636791D01*
X185773786Y-143636791D02*
X185967310Y-143636791D01*
X185967310Y-143636791D02*
X186044719Y-143675496D01*
X186044719Y-143675496D02*
X186083424Y-143714201D01*
X186083424Y-143714201D02*
X186122129Y-143791610D01*
X186122129Y-143791610D02*
X186122129Y-143869020D01*
X186122129Y-143869020D02*
X186083424Y-143985134D01*
X186083424Y-143985134D02*
X185618967Y-144449591D01*
X185618967Y-144449591D02*
X186122129Y-144449591D01*
X171255743Y-135274603D02*
X170984810Y-134887556D01*
X170791286Y-135274603D02*
X170791286Y-134461803D01*
X170791286Y-134461803D02*
X171100924Y-134461803D01*
X171100924Y-134461803D02*
X171178334Y-134500508D01*
X171178334Y-134500508D02*
X171217039Y-134539213D01*
X171217039Y-134539213D02*
X171255743Y-134616622D01*
X171255743Y-134616622D02*
X171255743Y-134732737D01*
X171255743Y-134732737D02*
X171217039Y-134810146D01*
X171217039Y-134810146D02*
X171178334Y-134848851D01*
X171178334Y-134848851D02*
X171100924Y-134887556D01*
X171100924Y-134887556D02*
X170791286Y-134887556D01*
X171604086Y-135274603D02*
X171604086Y-134461803D01*
X171604086Y-134461803D02*
X172068543Y-135274603D01*
X172068543Y-135274603D02*
X172068543Y-134461803D01*
X172416887Y-134539213D02*
X172455591Y-134500508D01*
X172455591Y-134500508D02*
X172533001Y-134461803D01*
X172533001Y-134461803D02*
X172726525Y-134461803D01*
X172726525Y-134461803D02*
X172803934Y-134500508D01*
X172803934Y-134500508D02*
X172842639Y-134539213D01*
X172842639Y-134539213D02*
X172881344Y-134616622D01*
X172881344Y-134616622D02*
X172881344Y-134694032D01*
X172881344Y-134694032D02*
X172842639Y-134810146D01*
X172842639Y-134810146D02*
X172378182Y-135274603D01*
X172378182Y-135274603D02*
X172881344Y-135274603D01*
X185348033Y-129957682D02*
X185309329Y-129996387D01*
X185309329Y-129996387D02*
X185193214Y-130035091D01*
X185193214Y-130035091D02*
X185115805Y-130035091D01*
X185115805Y-130035091D02*
X184999691Y-129996387D01*
X184999691Y-129996387D02*
X184922281Y-129918977D01*
X184922281Y-129918977D02*
X184883576Y-129841567D01*
X184883576Y-129841567D02*
X184844872Y-129686748D01*
X184844872Y-129686748D02*
X184844872Y-129570634D01*
X184844872Y-129570634D02*
X184883576Y-129415815D01*
X184883576Y-129415815D02*
X184922281Y-129338406D01*
X184922281Y-129338406D02*
X184999691Y-129260996D01*
X184999691Y-129260996D02*
X185115805Y-129222291D01*
X185115805Y-129222291D02*
X185193214Y-129222291D01*
X185193214Y-129222291D02*
X185309329Y-129260996D01*
X185309329Y-129260996D02*
X185348033Y-129299701D01*
X186044719Y-129222291D02*
X185889900Y-129222291D01*
X185889900Y-129222291D02*
X185812491Y-129260996D01*
X185812491Y-129260996D02*
X185773786Y-129299701D01*
X185773786Y-129299701D02*
X185696376Y-129415815D01*
X185696376Y-129415815D02*
X185657672Y-129570634D01*
X185657672Y-129570634D02*
X185657672Y-129880272D01*
X185657672Y-129880272D02*
X185696376Y-129957682D01*
X185696376Y-129957682D02*
X185735081Y-129996387D01*
X185735081Y-129996387D02*
X185812491Y-130035091D01*
X185812491Y-130035091D02*
X185967310Y-130035091D01*
X185967310Y-130035091D02*
X186044719Y-129996387D01*
X186044719Y-129996387D02*
X186083424Y-129957682D01*
X186083424Y-129957682D02*
X186122129Y-129880272D01*
X186122129Y-129880272D02*
X186122129Y-129686748D01*
X186122129Y-129686748D02*
X186083424Y-129609339D01*
X186083424Y-129609339D02*
X186044719Y-129570634D01*
X186044719Y-129570634D02*
X185967310Y-129531929D01*
X185967310Y-129531929D02*
X185812491Y-129531929D01*
X185812491Y-129531929D02*
X185735081Y-129570634D01*
X185735081Y-129570634D02*
X185696376Y-129609339D01*
X185696376Y-129609339D02*
X185657672Y-129686748D01*
D11*
%TO.C,J1*%
X207137100Y-145415600D02*
X207137100Y-148415600D01*
X207137100Y-148415600D02*
X215137100Y-148415600D01*
X215137100Y-145415600D02*
X207137100Y-145415600D01*
X215137100Y-148415600D02*
X215137100Y-145415600D01*
D12*
%TO.C,C3*%
X172654100Y-140044020D02*
X172654100Y-140325180D01*
X173674100Y-140044020D02*
X173674100Y-140325180D01*
D13*
%TO.C,LOGO1*%
G36*
X95640564Y-146924873D02*
G01*
X96073039Y-146928593D01*
X96076988Y-147100880D01*
X96080937Y-147273166D01*
X95644513Y-147273166D01*
X95208089Y-147273166D01*
X95208089Y-147097160D01*
X95208089Y-146921154D01*
X95640564Y-146924873D01*
G37*
G36*
X95640564Y-147388993D02*
G01*
X96073039Y-147392712D01*
X96076988Y-147564999D01*
X96080937Y-147737286D01*
X95644513Y-147737286D01*
X95208089Y-147737286D01*
X95208089Y-147561280D01*
X95208089Y-147385274D01*
X95640564Y-147388993D01*
G37*
G36*
X96076988Y-148022087D02*
G01*
X96073039Y-148194373D01*
X95640564Y-148198093D01*
X95208089Y-148201812D01*
X95208089Y-148025806D01*
X95208089Y-147849800D01*
X95644513Y-147849800D01*
X96080937Y-147849800D01*
X96076988Y-148022087D01*
G37*
G36*
X96076988Y-148486206D02*
G01*
X96073039Y-148658493D01*
X95640564Y-148662212D01*
X95208089Y-148665932D01*
X95208089Y-148489926D01*
X95208089Y-148313919D01*
X95644513Y-148313919D01*
X96080937Y-148313919D01*
X96076988Y-148486206D01*
G37*
G36*
X96080071Y-148946810D02*
G01*
X96080071Y-149115580D01*
X95644080Y-149115580D01*
X95208089Y-149115580D01*
X95208089Y-148946810D01*
X95208089Y-148778039D01*
X95644080Y-148778039D01*
X96080071Y-148778039D01*
X96080071Y-148946810D01*
G37*
G36*
X98664806Y-147100880D02*
G01*
X98668755Y-147273166D01*
X98231898Y-147273166D01*
X97795041Y-147273166D01*
X97798990Y-147100880D01*
X97802939Y-146928593D01*
X98231898Y-146928593D01*
X98660857Y-146928593D01*
X98664806Y-147100880D01*
G37*
G36*
X98667889Y-147561483D02*
G01*
X98667889Y-147737286D01*
X98231898Y-147737286D01*
X97795907Y-147737286D01*
X97795907Y-147561483D01*
X97795907Y-147385680D01*
X98231898Y-147385680D01*
X98667889Y-147385680D01*
X98667889Y-147561483D01*
G37*
G36*
X98667889Y-148025603D02*
G01*
X98667889Y-148201406D01*
X98231898Y-148201406D01*
X97795907Y-148201406D01*
X97795907Y-148025603D01*
X97795907Y-147849800D01*
X98231898Y-147849800D01*
X98667889Y-147849800D01*
X98667889Y-148025603D01*
G37*
G36*
X98667889Y-148946810D02*
G01*
X98667889Y-149115580D01*
X98231898Y-149115580D01*
X97795907Y-149115580D01*
X97795907Y-148946810D01*
X97795907Y-148778039D01*
X98231898Y-148778039D01*
X98667889Y-148778039D01*
X98667889Y-148946810D01*
G37*
G36*
X99989927Y-146183188D02*
G01*
X99989927Y-146358991D01*
X99553936Y-146358991D01*
X99117945Y-146358991D01*
X99117945Y-146183188D01*
X99117945Y-146007386D01*
X99553936Y-146007386D01*
X99989927Y-146007386D01*
X99989927Y-146183188D01*
G37*
G36*
X99989927Y-147097160D02*
G01*
X99989927Y-147273166D01*
X99553503Y-147273166D01*
X99117079Y-147273166D01*
X99121028Y-147100880D01*
X99124977Y-146928593D01*
X99557452Y-146924873D01*
X99989927Y-146921154D01*
X99989927Y-147097160D01*
G37*
G36*
X99989927Y-147561483D02*
G01*
X99989927Y-147737286D01*
X99553936Y-147737286D01*
X99117945Y-147737286D01*
X99117945Y-147561483D01*
X99117945Y-147385680D01*
X99553936Y-147385680D01*
X99989927Y-147385680D01*
X99989927Y-147561483D01*
G37*
G36*
X99989927Y-148025603D02*
G01*
X99989927Y-148201406D01*
X99553936Y-148201406D01*
X99117945Y-148201406D01*
X99117945Y-148025603D01*
X99117945Y-147849800D01*
X99553936Y-147849800D01*
X99989927Y-147849800D01*
X99989927Y-148025603D01*
G37*
G36*
X99989927Y-148946810D02*
G01*
X99989927Y-149115580D01*
X99553936Y-149115580D01*
X99117945Y-149115580D01*
X99117945Y-148946810D01*
X99117945Y-148778039D01*
X99553936Y-148778039D01*
X99989927Y-148778039D01*
X99989927Y-148946810D01*
G37*
G36*
X99989927Y-149403694D02*
G01*
X99989927Y-149579700D01*
X99553503Y-149579700D01*
X99117079Y-149579700D01*
X99121028Y-149407413D01*
X99124977Y-149235126D01*
X99557452Y-149231407D01*
X99989927Y-149227688D01*
X99989927Y-149403694D01*
G37*
G36*
X99989927Y-149868017D02*
G01*
X99989927Y-150043820D01*
X99553936Y-150043820D01*
X99117945Y-150043820D01*
X99117945Y-149868017D01*
X99117945Y-149692214D01*
X99553936Y-149692214D01*
X99989927Y-149692214D01*
X99989927Y-149868017D01*
G37*
G36*
X101337010Y-147100880D02*
G01*
X101340959Y-147273166D01*
X100904102Y-147273166D01*
X100467245Y-147273166D01*
X100471194Y-147100880D01*
X100475143Y-146928593D01*
X100904102Y-146928593D01*
X101333061Y-146928593D01*
X101337010Y-147100880D01*
G37*
G36*
X101340093Y-148946810D02*
G01*
X101340093Y-149115580D01*
X100904102Y-149115580D01*
X100468111Y-149115580D01*
X100468111Y-148946810D01*
X100468111Y-148778039D01*
X100904102Y-148778039D01*
X101340093Y-148778039D01*
X101340093Y-148946810D01*
G37*
G36*
X103927912Y-148946810D02*
G01*
X103927912Y-149115580D01*
X103491920Y-149115580D01*
X103055929Y-149115580D01*
X103055929Y-148946810D01*
X103055929Y-148778039D01*
X103491920Y-148778039D01*
X103927912Y-148778039D01*
X103927912Y-148946810D01*
G37*
G36*
X98660856Y-146531278D02*
G01*
X98664585Y-146575193D01*
X98666214Y-146634909D01*
X98665431Y-146698156D01*
X98665233Y-146703565D01*
X98660857Y-146816079D01*
X96934473Y-146819650D01*
X95208089Y-146823222D01*
X95208089Y-146647364D01*
X95208089Y-146471505D01*
X96930095Y-146471505D01*
X98652102Y-146471505D01*
X98660856Y-146531278D01*
G37*
G36*
X98667889Y-149359947D02*
G01*
X98666954Y-149423649D01*
X98664453Y-149481525D01*
X98660847Y-149524373D01*
X98659099Y-149535749D01*
X98650309Y-149579700D01*
X96929199Y-149579700D01*
X95208089Y-149579700D01*
X95208089Y-149403897D01*
X95208089Y-149228094D01*
X96937989Y-149228094D01*
X98667889Y-149228094D01*
X98667889Y-149359947D01*
G37*
G36*
X101990564Y-146010597D02*
G01*
X103513017Y-146014418D01*
X103600530Y-146054841D01*
X103682083Y-146104103D01*
X103760063Y-146171867D01*
X103825328Y-146249362D01*
X103856323Y-146300250D01*
X103886291Y-146358991D01*
X102177201Y-146358991D01*
X100468111Y-146358991D01*
X100468111Y-146182884D01*
X100468111Y-146006777D01*
X101990564Y-146010597D01*
G37*
G36*
X101990564Y-147853012D02*
G01*
X103513017Y-147856832D01*
X103600530Y-147897255D01*
X103682083Y-147946517D01*
X103760063Y-148014281D01*
X103825328Y-148091776D01*
X103856323Y-148142664D01*
X103886291Y-148201406D01*
X102177201Y-148201406D01*
X100468111Y-148201406D01*
X100468111Y-148025298D01*
X100468111Y-147849191D01*
X101990564Y-147853012D01*
G37*
G36*
X103848517Y-149763792D02*
G01*
X103795192Y-149840010D01*
X103723623Y-149912029D01*
X103643034Y-149971602D01*
X103579775Y-150004150D01*
X103498953Y-150036788D01*
X101983532Y-150040668D01*
X100468111Y-150044548D01*
X100468111Y-149868381D01*
X100468111Y-149692214D01*
X102177793Y-149692214D01*
X103887474Y-149692214D01*
X103848517Y-149763792D01*
G37*
G36*
X103856323Y-147444421D02*
G01*
X103804064Y-147523540D01*
X103733210Y-147598568D01*
X103652905Y-147660734D01*
X103600530Y-147689831D01*
X103513017Y-147730254D01*
X101990564Y-147734074D01*
X100468111Y-147737894D01*
X100468111Y-147561787D01*
X100468111Y-147385680D01*
X102177201Y-147385680D01*
X103886291Y-147385680D01*
X103856323Y-147444421D01*
G37*
G36*
X103927720Y-147065516D02*
G01*
X103926832Y-147129788D01*
X103924596Y-147186249D01*
X103921393Y-147227176D01*
X103919047Y-147241522D01*
X103910567Y-147273166D01*
X103482815Y-147273166D01*
X103055064Y-147273166D01*
X103059013Y-147100880D01*
X103062961Y-146928593D01*
X103495437Y-146924873D01*
X103927912Y-146921154D01*
X103927720Y-147065516D01*
G37*
G36*
X103927720Y-149372253D02*
G01*
X103926830Y-149436484D01*
X103924592Y-149492905D01*
X103921385Y-149533786D01*
X103919047Y-149548056D01*
X103910567Y-149579700D01*
X102189339Y-149579700D01*
X100468111Y-149579700D01*
X100468111Y-149403897D01*
X100468111Y-149228094D01*
X102198011Y-149228094D01*
X103927912Y-149228094D01*
X103927720Y-149372253D01*
G37*
G36*
X98664806Y-148486206D02*
G01*
X98660857Y-148658493D01*
X98237961Y-148662211D01*
X98131580Y-148662837D01*
X98034379Y-148662815D01*
X97949894Y-148662194D01*
X97881665Y-148661020D01*
X97833228Y-148659343D01*
X97808121Y-148657210D01*
X97805486Y-148656351D01*
X97801742Y-148639292D01*
X97798683Y-148600008D01*
X97796632Y-148544399D01*
X97795907Y-148480346D01*
X97795907Y-148313919D01*
X98232331Y-148313919D01*
X98668755Y-148313919D01*
X98664806Y-148486206D01*
G37*
G36*
X99989927Y-146647308D02*
G01*
X99989927Y-146823111D01*
X99563312Y-146823111D01*
X99456460Y-146822813D01*
X99358787Y-146821969D01*
X99273814Y-146820656D01*
X99205060Y-146818948D01*
X99156044Y-146816922D01*
X99130287Y-146814654D01*
X99127321Y-146813735D01*
X99123657Y-146796759D01*
X99120663Y-146757548D01*
X99118655Y-146701994D01*
X99117945Y-146637932D01*
X99117945Y-146471505D01*
X99553936Y-146471505D01*
X99989927Y-146471505D01*
X99989927Y-146647308D01*
G37*
G36*
X99989927Y-148489722D02*
G01*
X99989927Y-148665525D01*
X99563312Y-148665525D01*
X99456460Y-148665227D01*
X99358787Y-148664384D01*
X99273814Y-148663070D01*
X99205060Y-148661363D01*
X99156044Y-148659337D01*
X99130287Y-148657068D01*
X99127321Y-148656149D01*
X99123657Y-148639173D01*
X99120663Y-148599962D01*
X99118655Y-148544409D01*
X99117945Y-148480346D01*
X99117945Y-148313919D01*
X99553936Y-148313919D01*
X99989927Y-148313919D01*
X99989927Y-148489722D01*
G37*
G36*
X101337010Y-148486206D02*
G01*
X101333061Y-148658493D01*
X100910165Y-148662211D01*
X100803784Y-148662837D01*
X100706583Y-148662815D01*
X100622098Y-148662194D01*
X100553869Y-148661020D01*
X100505431Y-148659343D01*
X100480325Y-148657210D01*
X100477690Y-148656351D01*
X100473946Y-148639292D01*
X100470887Y-148600008D01*
X100468836Y-148544399D01*
X100468111Y-148480346D01*
X100468111Y-148313919D01*
X100904535Y-148313919D01*
X101340959Y-148313919D01*
X101337010Y-148486206D01*
G37*
G36*
X103919047Y-148345564D02*
G01*
X103922667Y-148372730D01*
X103925558Y-148420292D01*
X103927339Y-148480520D01*
X103927720Y-148521367D01*
X103927912Y-148665525D01*
X103501297Y-148665525D01*
X103394444Y-148665227D01*
X103296772Y-148664384D01*
X103211798Y-148663070D01*
X103143044Y-148661363D01*
X103094029Y-148659337D01*
X103068272Y-148657068D01*
X103065305Y-148656149D01*
X103061641Y-148639173D01*
X103058648Y-148599962D01*
X103056639Y-148544409D01*
X103055929Y-148480346D01*
X103055929Y-148313919D01*
X103483248Y-148313919D01*
X103910567Y-148313919D01*
X103919047Y-148345564D01*
G37*
G36*
X103919047Y-146503150D02*
G01*
X103922667Y-146530316D01*
X103925558Y-146577878D01*
X103927339Y-146638106D01*
X103927720Y-146678953D01*
X103927912Y-146823111D01*
X102207387Y-146823111D01*
X101989687Y-146823036D01*
X101779806Y-146822816D01*
X101579460Y-146822462D01*
X101390363Y-146821982D01*
X101214229Y-146821386D01*
X101052775Y-146820683D01*
X100907714Y-146819882D01*
X100780762Y-146818993D01*
X100673633Y-146818024D01*
X100588042Y-146816986D01*
X100525704Y-146815888D01*
X100488333Y-146814738D01*
X100477487Y-146813735D01*
X100473823Y-146796759D01*
X100470829Y-146757548D01*
X100468821Y-146701994D01*
X100468111Y-146637932D01*
X100468111Y-146471505D01*
X102189339Y-146471505D01*
X103910567Y-146471505D01*
X103919047Y-146503150D01*
G37*
G36*
X97126145Y-149692299D02*
G01*
X97334465Y-149692548D01*
X97533108Y-149692951D01*
X97720364Y-149693496D01*
X97894521Y-149694172D01*
X98053868Y-149694970D01*
X98196692Y-149695879D01*
X98321282Y-149696888D01*
X98425926Y-149697986D01*
X98508914Y-149699163D01*
X98568533Y-149700408D01*
X98603072Y-149701711D01*
X98611501Y-149702762D01*
X98604923Y-149719767D01*
X98588020Y-149752983D01*
X98569976Y-149785480D01*
X98502529Y-149875583D01*
X98414908Y-149948967D01*
X98311514Y-150002597D01*
X98214873Y-150030317D01*
X98189486Y-150032441D01*
X98137355Y-150034422D01*
X98059863Y-150036247D01*
X97958394Y-150037906D01*
X97834332Y-150039386D01*
X97689059Y-150040674D01*
X97523961Y-150041759D01*
X97340421Y-150042628D01*
X97139822Y-150043269D01*
X96923548Y-150043670D01*
X96692983Y-150043819D01*
X96675881Y-150043820D01*
X95208089Y-150043820D01*
X95208089Y-149868017D01*
X95208089Y-149692214D01*
X96909861Y-149692214D01*
X97126145Y-149692299D01*
G37*
G36*
X96695381Y-146007553D02*
G01*
X96938692Y-146007577D01*
X97155529Y-146007641D01*
X97347550Y-146007817D01*
X97516409Y-146008179D01*
X97663763Y-146008800D01*
X97791267Y-146009753D01*
X97900576Y-146011110D01*
X97993347Y-146012945D01*
X98071235Y-146015331D01*
X98135896Y-146018340D01*
X98188986Y-146022047D01*
X98232160Y-146026524D01*
X98267074Y-146031843D01*
X98295384Y-146038079D01*
X98318745Y-146045303D01*
X98338813Y-146053590D01*
X98357244Y-146063012D01*
X98375694Y-146073642D01*
X98390318Y-146082321D01*
X98437377Y-146116045D01*
X98486929Y-146161204D01*
X98534052Y-146212043D01*
X98573825Y-146262806D01*
X98601325Y-146307737D01*
X98611632Y-146341079D01*
X98611633Y-146341160D01*
X98606810Y-146343912D01*
X98591489Y-146346383D01*
X98564394Y-146348586D01*
X98524249Y-146350534D01*
X98469774Y-146352241D01*
X98399695Y-146353721D01*
X98312734Y-146354986D01*
X98207614Y-146356049D01*
X98083059Y-146356925D01*
X97937790Y-146357627D01*
X97770532Y-146358168D01*
X97580007Y-146358561D01*
X97364938Y-146358820D01*
X97124050Y-146358959D01*
X96909861Y-146358991D01*
X95208089Y-146358991D01*
X95208089Y-146183188D01*
X95208089Y-146007386D01*
X96695381Y-146007553D01*
G37*
G36*
X99504711Y-141810812D02*
G01*
X99636611Y-141818360D01*
X99757346Y-141839712D01*
X99876636Y-141877288D01*
X100004200Y-141933509D01*
X100011214Y-141936974D01*
X100168103Y-142028259D01*
X100306966Y-142136651D01*
X100425267Y-142259721D01*
X100520469Y-142395040D01*
X100553563Y-142456167D01*
X100611928Y-142600017D01*
X100642702Y-142741275D01*
X100645880Y-142881806D01*
X100621456Y-143023476D01*
X100569425Y-143168150D01*
X100551369Y-143206498D01*
X100470749Y-143338842D01*
X100368096Y-143455861D01*
X100246642Y-143554608D01*
X100109613Y-143632132D01*
X100064169Y-143651516D01*
X99989760Y-143678636D01*
X99934528Y-143692461D01*
X99893071Y-143693373D01*
X99859987Y-143681750D01*
X99839989Y-143667291D01*
X99823058Y-143651827D01*
X99811740Y-143636261D01*
X99804891Y-143614885D01*
X99801366Y-143581991D01*
X99800022Y-143531872D01*
X99799728Y-143466473D01*
X99798723Y-143388943D01*
X99795263Y-143330834D01*
X99788148Y-143283471D01*
X99776173Y-143238173D01*
X99762584Y-143198410D01*
X99724896Y-143109408D01*
X99676054Y-143022252D01*
X99613346Y-142933342D01*
X99534065Y-142839079D01*
X99435500Y-142735863D01*
X99357083Y-142659678D01*
X99266900Y-142572065D01*
X99196369Y-142498137D01*
X99143014Y-142434210D01*
X99104360Y-142376599D01*
X99077934Y-142321621D01*
X99061258Y-142265593D01*
X99051927Y-142205479D01*
X99054956Y-142135476D01*
X99138910Y-142135476D01*
X99139350Y-142218854D01*
X99165827Y-142306232D01*
X99217990Y-142396410D01*
X99295493Y-142488185D01*
X99387669Y-142572013D01*
X99543390Y-142714078D01*
X99672443Y-142863926D01*
X99774643Y-143021311D01*
X99849809Y-143185984D01*
X99857822Y-143208604D01*
X99871490Y-143258743D01*
X99879867Y-143317278D01*
X99883799Y-143391783D01*
X99884379Y-143445613D01*
X99884445Y-143605269D01*
X99942885Y-143598681D01*
X99983385Y-143589196D01*
X100038149Y-143569982D01*
X100096756Y-143544796D01*
X100109436Y-143538675D01*
X100231397Y-143464020D01*
X100336468Y-143370703D01*
X100423128Y-143262141D01*
X100489856Y-143141752D01*
X100535130Y-143012953D01*
X100557430Y-142879162D01*
X100555235Y-142743796D01*
X100527024Y-142610272D01*
X100525179Y-142604549D01*
X100467098Y-142470760D01*
X100384445Y-142344838D01*
X100280244Y-142229206D01*
X100157520Y-142126292D01*
X100019298Y-142038520D01*
X99868604Y-141968318D01*
X99708462Y-141918109D01*
X99654664Y-141906459D01*
X99525984Y-141889499D01*
X99416295Y-141892221D01*
X99324259Y-141914867D01*
X99248536Y-141957679D01*
X99217531Y-141985524D01*
X99164854Y-142057299D01*
X99138910Y-142135476D01*
X99054956Y-142135476D01*
X99055923Y-142113142D01*
X99085297Y-142025318D01*
X99137300Y-141946453D01*
X99209181Y-141880991D01*
X99276490Y-141842450D01*
X99313737Y-141827265D01*
X99349673Y-141817628D01*
X99392169Y-141812448D01*
X99449098Y-141810634D01*
X99504711Y-141810812D01*
G37*
G36*
X99289133Y-143609933D02*
G01*
X99324118Y-143632377D01*
X99341336Y-143649971D01*
X99351287Y-143667875D01*
X99355204Y-143693242D01*
X99354323Y-143733226D01*
X99350595Y-143785725D01*
X99353053Y-143935143D01*
X99383433Y-144083288D01*
X99441539Y-144229786D01*
X99527179Y-144374261D01*
X99640158Y-144516337D01*
X99780284Y-144655636D01*
X99813662Y-144684950D01*
X99914766Y-144775656D01*
X99993877Y-144855916D01*
X100053384Y-144929311D01*
X100095675Y-144999419D01*
X100123141Y-145069821D01*
X100138169Y-145144097D01*
X100141237Y-145175744D01*
X100143082Y-145238794D01*
X100136828Y-145286991D01*
X100120815Y-145332861D01*
X100120254Y-145334136D01*
X100064516Y-145426434D01*
X99987642Y-145500639D01*
X99912702Y-145545454D01*
X99872445Y-145563375D01*
X99837372Y-145574916D01*
X99799373Y-145581401D01*
X99750340Y-145584148D01*
X99682163Y-145584481D01*
X99673482Y-145584429D01*
X99526379Y-145576446D01*
X99407341Y-145556053D01*
X99247373Y-145504637D01*
X99092462Y-145431628D01*
X98946470Y-145340098D01*
X98813259Y-145233119D01*
X98696692Y-145113762D01*
X98600630Y-144985100D01*
X98533679Y-144861142D01*
X98484950Y-144717975D01*
X98462638Y-144572186D01*
X98463736Y-144516979D01*
X98555376Y-144516979D01*
X98563243Y-144637189D01*
X98588801Y-144746990D01*
X98634980Y-144858581D01*
X98639817Y-144868276D01*
X98721962Y-145001242D01*
X98827613Y-145124245D01*
X98953115Y-145234632D01*
X99094811Y-145329749D01*
X99249045Y-145406941D01*
X99412161Y-145463555D01*
X99483615Y-145480806D01*
X99567116Y-145493038D01*
X99656308Y-145497266D01*
X99743267Y-145493859D01*
X99820073Y-145483190D01*
X99878803Y-145465630D01*
X99886601Y-145461892D01*
X99956237Y-145412022D01*
X100009778Y-145346048D01*
X100043930Y-145270153D01*
X100055399Y-145190516D01*
X100051739Y-145151994D01*
X100042435Y-145109635D01*
X100029358Y-145070339D01*
X100010309Y-145031335D01*
X99983086Y-144989853D01*
X99945489Y-144943123D01*
X99895318Y-144888373D01*
X99830371Y-144822833D01*
X99748448Y-144743733D01*
X99664338Y-144664252D01*
X99549678Y-144547138D01*
X99457253Y-144430884D01*
X99382148Y-144308999D01*
X99355458Y-144256389D01*
X99310867Y-144155103D01*
X99281672Y-144065792D01*
X99265651Y-143978504D01*
X99260583Y-143883285D01*
X99261307Y-143834462D01*
X99265619Y-143693820D01*
X99210749Y-143697162D01*
X99173484Y-143704810D01*
X99120453Y-143722420D01*
X99060756Y-143746803D01*
X99034946Y-143758748D01*
X98970072Y-143792541D01*
X98915737Y-143827943D01*
X98862668Y-143871799D01*
X98801593Y-143930953D01*
X98801341Y-143931209D01*
X98702626Y-144045832D01*
X98630436Y-144164138D01*
X98583168Y-144289945D01*
X98559219Y-144427071D01*
X98555376Y-144516979D01*
X98463736Y-144516979D01*
X98465535Y-144426471D01*
X98492437Y-144283524D01*
X98542137Y-144146042D01*
X98613430Y-144016719D01*
X98705111Y-143898252D01*
X98815974Y-143793335D01*
X98944813Y-143704664D01*
X99080393Y-143638870D01*
X99166927Y-143610093D01*
X99235613Y-143600471D01*
X99289133Y-143609933D01*
G37*
G36*
X98936113Y-142612337D02*
G01*
X99077661Y-142660259D01*
X99211846Y-142733472D01*
X99335553Y-142831228D01*
X99433591Y-142935222D01*
X99513936Y-143046192D01*
X99573975Y-143159633D01*
X99611095Y-143271040D01*
X99619897Y-143321539D01*
X99622885Y-143365574D01*
X99616538Y-143394133D01*
X99597697Y-143419180D01*
X99592808Y-143424167D01*
X99576421Y-143439080D01*
X99558885Y-143449003D01*
X99534435Y-143454917D01*
X99497304Y-143457800D01*
X99441726Y-143458634D01*
X99390573Y-143458530D01*
X99310523Y-143459186D01*
X99250605Y-143462583D01*
X99202881Y-143469656D01*
X99159411Y-143481340D01*
X99139964Y-143488045D01*
X98992481Y-143553113D01*
X98853222Y-143639212D01*
X98719160Y-143748561D01*
X98587264Y-143883381D01*
X98563361Y-143910708D01*
X98487552Y-143996025D01*
X98423041Y-144061852D01*
X98365381Y-144112010D01*
X98310124Y-144150317D01*
X98252823Y-144180593D01*
X98244980Y-144184143D01*
X98146829Y-144217700D01*
X98055221Y-144226888D01*
X97996977Y-144220314D01*
X97943431Y-144206898D01*
X97899420Y-144186831D01*
X97854362Y-144154419D01*
X97821699Y-144126026D01*
X97754913Y-144047238D01*
X97710195Y-143951408D01*
X97687515Y-143838394D01*
X97687336Y-143803899D01*
X97777083Y-143803899D01*
X97791667Y-143903883D01*
X97823558Y-143989053D01*
X97871507Y-144054368D01*
X97911133Y-144087229D01*
X97954075Y-144114536D01*
X97954442Y-144114725D01*
X98008960Y-144130399D01*
X98078019Y-144132793D01*
X98151753Y-144122612D01*
X98220298Y-144100559D01*
X98232312Y-144094889D01*
X98269984Y-144070038D01*
X98319291Y-144029080D01*
X98373878Y-143977533D01*
X98407701Y-143942556D01*
X98527128Y-143817345D01*
X98633334Y-143712731D01*
X98729345Y-143626354D01*
X98818191Y-143555849D01*
X98902898Y-143498856D01*
X98986494Y-143453012D01*
X99072009Y-143415954D01*
X99092418Y-143408371D01*
X99143904Y-143391310D01*
X99191035Y-143380163D01*
X99242732Y-143373639D01*
X99307921Y-143370446D01*
X99360609Y-143369557D01*
X99425877Y-143368347D01*
X99480222Y-143366300D01*
X99517842Y-143363707D01*
X99532848Y-143360958D01*
X99532948Y-143344819D01*
X99525982Y-143310361D01*
X99517146Y-143277801D01*
X99461356Y-143138042D01*
X99382050Y-143011781D01*
X99281547Y-142901396D01*
X99162171Y-142809268D01*
X99026242Y-142737777D01*
X98969112Y-142715957D01*
X98836361Y-142684708D01*
X98700641Y-142679980D01*
X98564645Y-142700741D01*
X98431064Y-142745959D01*
X98302590Y-142814602D01*
X98181914Y-142905638D01*
X98071727Y-143018035D01*
X98024049Y-143078326D01*
X97945658Y-143197656D01*
X97881469Y-143322042D01*
X97832000Y-143448170D01*
X97797767Y-143572730D01*
X97779289Y-143692410D01*
X97777083Y-143803899D01*
X97687336Y-143803899D01*
X97686840Y-143708052D01*
X97703580Y-143583354D01*
X97748757Y-143410906D01*
X97816677Y-143246004D01*
X97904884Y-143092065D01*
X98010925Y-142952501D01*
X98132345Y-142830728D01*
X98266691Y-142730161D01*
X98351444Y-142681942D01*
X98494866Y-142624511D01*
X98641957Y-142594045D01*
X98789959Y-142590126D01*
X98936113Y-142612337D01*
G37*
G36*
X101218525Y-143121528D02*
G01*
X101306146Y-143163984D01*
X101382274Y-143230579D01*
X101444182Y-143320319D01*
X101457708Y-143347525D01*
X101471029Y-143380428D01*
X101479743Y-143414922D01*
X101484717Y-143457934D01*
X101486821Y-143516390D01*
X101487011Y-143581306D01*
X101482184Y-143700794D01*
X101467380Y-143807722D01*
X101440383Y-143911004D01*
X101398979Y-144019556D01*
X101354209Y-144115747D01*
X101263648Y-144272966D01*
X101156300Y-144413496D01*
X101034728Y-144535089D01*
X100901497Y-144635499D01*
X100759170Y-144712480D01*
X100616347Y-144762257D01*
X100539602Y-144775469D01*
X100447134Y-144781651D01*
X100350252Y-144780819D01*
X100260268Y-144772987D01*
X100200891Y-144761703D01*
X100058611Y-144710760D01*
X99924674Y-144636236D01*
X99802736Y-144541563D01*
X99696452Y-144430176D01*
X99609479Y-144305506D01*
X99545472Y-144170988D01*
X99532921Y-144134437D01*
X99512458Y-144066418D01*
X99501834Y-144018545D01*
X99501657Y-144008882D01*
X99593065Y-144008882D01*
X99600510Y-144051323D01*
X99618572Y-144108557D01*
X99645724Y-144175688D01*
X99677598Y-144242325D01*
X99739254Y-144339463D01*
X99820548Y-144434134D01*
X99913955Y-144518983D01*
X100011953Y-144586652D01*
X100050934Y-144607350D01*
X100190525Y-144662797D01*
X100325686Y-144691797D01*
X100460244Y-144694789D01*
X100598024Y-144672217D01*
X100602668Y-144671041D01*
X100739835Y-144621939D01*
X100870316Y-144548225D01*
X100991781Y-144453079D01*
X101101901Y-144339677D01*
X101198346Y-144211198D01*
X101278787Y-144070821D01*
X101340894Y-143921722D01*
X101382337Y-143767081D01*
X101400787Y-143610075D01*
X101401491Y-143581306D01*
X101398584Y-143488161D01*
X101386587Y-143415448D01*
X101363611Y-143356408D01*
X101327770Y-143304280D01*
X101322356Y-143297986D01*
X101252421Y-143237270D01*
X101173183Y-143202698D01*
X101086363Y-143194537D01*
X100993684Y-143213055D01*
X100934402Y-143237867D01*
X100883297Y-143267526D01*
X100833689Y-143306169D01*
X100779098Y-143359269D01*
X100738773Y-143403122D01*
X100613068Y-143538775D01*
X100497801Y-143652000D01*
X100390048Y-143745122D01*
X100286890Y-143820467D01*
X100185405Y-143880361D01*
X100082672Y-143927130D01*
X100078713Y-143928677D01*
X99966843Y-143963264D01*
X99850694Y-143983509D01*
X99740624Y-143987937D01*
X99691257Y-143983781D01*
X99641702Y-143979622D01*
X99607579Y-143981878D01*
X99597761Y-143986130D01*
X99593065Y-144008882D01*
X99501657Y-144008882D01*
X99501211Y-143984555D01*
X99510749Y-143958182D01*
X99530609Y-143933162D01*
X99538297Y-143925290D01*
X99578916Y-143884672D01*
X99717616Y-143892824D01*
X99800305Y-143895632D01*
X99865962Y-143892438D01*
X99925183Y-143882522D01*
X99946610Y-143877263D01*
X100095148Y-143824080D01*
X100240732Y-143743660D01*
X100382037Y-143636845D01*
X100496239Y-143527570D01*
X100583632Y-143435643D01*
X100654532Y-143361854D01*
X100711628Y-143303767D01*
X100757609Y-143258945D01*
X100795162Y-143224952D01*
X100826976Y-143199351D01*
X100855739Y-143179706D01*
X100884139Y-143163580D01*
X100913968Y-143148956D01*
X101019710Y-143113019D01*
X101122138Y-143104208D01*
X101218525Y-143121528D01*
G37*
D11*
%TO.C,X1*%
X128581000Y-144170000D02*
X128581000Y-146110000D01*
X128581000Y-146110000D02*
X164399000Y-146110000D01*
X164399000Y-144170000D02*
X128581000Y-144170000D01*
X164399000Y-146110000D02*
X164399000Y-144170000D01*
D12*
%TO.C,C5*%
X174178100Y-131344520D02*
X174178100Y-131625680D01*
X175198100Y-131344520D02*
X175198100Y-131625680D01*
D13*
%TO.C,LOGO2*%
G36*
X109144028Y-145081428D02*
G01*
X109177951Y-145257578D01*
X109207854Y-145396745D01*
X109229094Y-145477965D01*
X109234553Y-145489993D01*
X109301147Y-145528018D01*
X109419561Y-145580540D01*
X109557212Y-145634781D01*
X109681520Y-145677961D01*
X109759904Y-145697299D01*
X109763403Y-145697434D01*
X109833361Y-145673592D01*
X109953339Y-145610359D01*
X110100278Y-145520176D01*
X110137078Y-145495846D01*
X110281418Y-145401844D01*
X110397873Y-145331230D01*
X110466246Y-145296095D01*
X110473873Y-145294259D01*
X110519693Y-145324093D01*
X110611198Y-145403815D01*
X110731949Y-145518756D01*
X110787816Y-145574393D01*
X111065460Y-145854528D01*
X110844170Y-146167956D01*
X110743173Y-146318626D01*
X110666601Y-146447384D01*
X110626798Y-146532909D01*
X110623835Y-146548580D01*
X110643137Y-146622887D01*
X110692201Y-146746809D01*
X110745376Y-146862160D01*
X110865961Y-147108545D01*
X111157142Y-147164338D01*
X111371663Y-147204079D01*
X111513911Y-147235551D01*
X111598085Y-147273936D01*
X111638383Y-147334412D01*
X111649003Y-147432161D01*
X111644145Y-147582362D01*
X111640376Y-147680980D01*
X111627513Y-148094083D01*
X111336331Y-148149876D01*
X111125331Y-148191090D01*
X110986236Y-148221859D01*
X110902834Y-148247934D01*
X110858912Y-148275067D01*
X110838257Y-148309010D01*
X110832024Y-148328778D01*
X110803232Y-148413713D01*
X110753541Y-148545928D01*
X110717289Y-148637882D01*
X110624799Y-148868101D01*
X110849006Y-149186334D01*
X111073213Y-149504567D01*
X110836255Y-149755115D01*
X110712978Y-149880869D01*
X110605655Y-149982220D01*
X110535031Y-150039709D01*
X110529087Y-150043239D01*
X110460983Y-150044548D01*
X110346886Y-149993963D01*
X110177367Y-149887187D01*
X110158496Y-149874280D01*
X109858116Y-149667745D01*
X109695734Y-149745179D01*
X109590243Y-149790265D01*
X109524976Y-149808361D01*
X109517515Y-149806777D01*
X109495912Y-149761997D01*
X109446681Y-149648815D01*
X109376010Y-149481796D01*
X109290090Y-149275505D01*
X109237193Y-149147214D01*
X108972708Y-148503487D01*
X109186018Y-148295717D01*
X109364278Y-148069813D01*
X109459205Y-147827952D01*
X109470658Y-147581400D01*
X109398498Y-147341427D01*
X109242585Y-147119298D01*
X109201121Y-147077797D01*
X108989669Y-146932145D01*
X108758274Y-146863757D01*
X108522415Y-146867600D01*
X108297569Y-146938644D01*
X108099214Y-147071855D01*
X107942827Y-147262202D01*
X107843887Y-147504653D01*
X107840230Y-147520240D01*
X107828226Y-147769783D01*
X107902398Y-148013648D01*
X108059410Y-148242284D01*
X108110983Y-148295717D01*
X108324293Y-148503487D01*
X108059808Y-149147214D01*
X107967684Y-149369678D01*
X107886894Y-149561471D01*
X107823736Y-149707899D01*
X107784509Y-149794267D01*
X107775338Y-149810926D01*
X107728326Y-149803498D01*
X107643538Y-149757646D01*
X107535469Y-149700329D01*
X107441217Y-149694444D01*
X107331338Y-149743792D01*
X107232911Y-149810664D01*
X107060800Y-149936032D01*
X106942629Y-150013304D01*
X106856356Y-150041855D01*
X106779938Y-150021063D01*
X106691331Y-149950302D01*
X106568492Y-149828950D01*
X106529985Y-149790766D01*
X106230241Y-149495408D01*
X106451222Y-149181755D01*
X106672202Y-148868101D01*
X106579712Y-148637882D01*
X106523617Y-148494127D01*
X106480067Y-148375143D01*
X106464977Y-148328778D01*
X106449628Y-148289695D01*
X106418571Y-148260103D01*
X106355592Y-148234250D01*
X106244480Y-148206385D01*
X106069022Y-148170756D01*
X105960670Y-148149876D01*
X105669488Y-148094083D01*
X105656625Y-147680980D01*
X105649357Y-147499139D01*
X105650527Y-147377278D01*
X105674334Y-147300217D01*
X105734977Y-147252775D01*
X105846652Y-147219772D01*
X106023560Y-147186029D01*
X106139858Y-147164338D01*
X106431040Y-147108545D01*
X106551625Y-146862160D01*
X106616218Y-146720014D01*
X106660358Y-146603467D01*
X106673166Y-146548580D01*
X106648999Y-146483032D01*
X106583783Y-146366855D01*
X106489861Y-146221371D01*
X106452831Y-146167956D01*
X106231541Y-145854528D01*
X106509185Y-145574393D01*
X106638624Y-145448815D01*
X106747406Y-145352473D01*
X106818486Y-145300092D01*
X106832921Y-145294742D01*
X106889350Y-145319131D01*
X106997232Y-145383302D01*
X107135441Y-145474506D01*
X107166956Y-145496329D01*
X107313902Y-145592316D01*
X107440828Y-145663388D01*
X107524013Y-145696507D01*
X107532819Y-145697434D01*
X107609516Y-145680948D01*
X107733054Y-145639878D01*
X107870905Y-145586800D01*
X107990543Y-145534292D01*
X108059441Y-145494932D01*
X108061530Y-145492987D01*
X108077833Y-145442976D01*
X108104794Y-145325871D01*
X108137708Y-145162844D01*
X108152973Y-145081428D01*
X108224788Y-144689497D01*
X108648500Y-144689497D01*
X109072213Y-144689497D01*
X109144028Y-145081428D01*
G37*
D12*
%TO.C,C1*%
X170939600Y-141441020D02*
X170939600Y-141722180D01*
X171959600Y-141441020D02*
X171959600Y-141722180D01*
D10*
%TO.C,X3*%
X131500000Y-62980000D02*
X131500000Y-57380000D01*
X138500000Y-57380000D02*
X131500000Y-57380000D01*
X138500000Y-57380000D02*
X138500000Y-61380000D01*
X138500000Y-57380000D02*
X142500000Y-57380000D01*
X142500000Y-57380000D02*
X142500000Y-61380000D01*
X142500000Y-57380000D02*
X149500000Y-57380000D01*
X142500000Y-61380000D02*
X138500000Y-61380000D01*
X149500000Y-57380000D02*
X149500000Y-62980000D01*
X149500000Y-62980000D02*
X131500000Y-62980000D01*
D13*
G36*
X136500000Y-59034937D02*
G01*
X135594167Y-57336500D01*
X137405833Y-57336500D01*
X136500000Y-59034937D01*
G37*
D10*
%TO.C,IC1*%
X165277400Y-138160600D02*
X165277400Y-141903800D01*
X170255800Y-139727400D02*
X170255800Y-138160600D01*
X170255800Y-141903800D02*
X170255800Y-140337000D01*
X170255800Y-140337000D02*
G75*
G02*
X170255800Y-139727400I0J304800D01*
G01*
D13*
G36*
X169684300Y-139473400D02*
G01*
X168825029Y-139473400D01*
X169684300Y-138270421D01*
X169684300Y-139473400D01*
G37*
%TO.C,JP1*%
D10*
X184589500Y-143395700D02*
X178747500Y-143395700D01*
X178747500Y-141465300D01*
X184589500Y-141465300D01*
X184589500Y-143395700D01*
D14*
%TO.C,IC2*%
X184778100Y-135150600D02*
X184778100Y-136450800D01*
X184778100Y-138360600D02*
X184778100Y-137060400D01*
X195078100Y-138360600D02*
X195078100Y-135150600D01*
X184778100Y-136450800D02*
G75*
G02*
X184778100Y-137060400I0J-304800D01*
G01*
D12*
%TO.C,R1*%
X212992064Y-143092500D02*
X212537936Y-143092500D01*
X212992064Y-144562500D02*
X212537936Y-144562500D01*
%TO.C,R2*%
X209563064Y-143092500D02*
X209108936Y-143092500D01*
X209563064Y-144562500D02*
X209108936Y-144562500D01*
D10*
%TO.C,X2*%
X111500000Y-62980000D02*
X111500000Y-57380000D01*
X118500000Y-57380000D02*
X111500000Y-57380000D01*
X118500000Y-57380000D02*
X118500000Y-61380000D01*
X118500000Y-57380000D02*
X122500000Y-57380000D01*
X122500000Y-57380000D02*
X122500000Y-61380000D01*
X122500000Y-57380000D02*
X129500000Y-57380000D01*
X122500000Y-61380000D02*
X118500000Y-61380000D01*
X129500000Y-57380000D02*
X129500000Y-62980000D01*
X129500000Y-62980000D02*
X111500000Y-62980000D01*
D13*
G36*
X116500000Y-59034937D02*
G01*
X115594167Y-57336500D01*
X117405833Y-57336500D01*
X116500000Y-59034937D01*
G37*
%TO.C,LOGO3*%
G36*
X116526797Y-149617361D02*
G01*
X116526797Y-150044548D01*
X114782871Y-150044548D01*
X113038946Y-150044548D01*
X113038946Y-149617361D01*
X113038946Y-149190175D01*
X114782871Y-149190175D01*
X116526797Y-149190175D01*
X116526797Y-149617361D01*
G37*
G36*
X115540911Y-147470840D02*
G01*
X115577816Y-147492396D01*
X115605136Y-147526276D01*
X115618341Y-147568258D01*
X115614755Y-147612935D01*
X115595443Y-147651053D01*
X115564322Y-147679703D01*
X115525313Y-147695977D01*
X115482335Y-147696968D01*
X115455840Y-147688823D01*
X115419068Y-147662797D01*
X115396509Y-147627095D01*
X115388164Y-147586262D01*
X115394038Y-147544842D01*
X115414133Y-147507381D01*
X115448452Y-147478424D01*
X115455692Y-147474678D01*
X115498757Y-147464102D01*
X115540911Y-147470840D01*
G37*
G36*
X116918803Y-144113715D02*
G01*
X116918803Y-144183316D01*
X116465742Y-144645464D01*
X116012680Y-145107613D01*
X116013778Y-145324557D01*
X116014876Y-145541501D01*
X115878830Y-145541501D01*
X115829160Y-145541811D01*
X115787615Y-145542663D01*
X115757852Y-145543935D01*
X115743530Y-145545507D01*
X115742784Y-145545975D01*
X115741873Y-145556456D01*
X115739234Y-145585397D01*
X115735013Y-145631240D01*
X115729354Y-145692430D01*
X115722401Y-145767410D01*
X115714300Y-145854624D01*
X115705193Y-145952515D01*
X115695227Y-146059528D01*
X115684545Y-146174105D01*
X115673292Y-146294691D01*
X115672424Y-146303984D01*
X115661089Y-146425802D01*
X115650319Y-146542357D01*
X115640261Y-146652017D01*
X115631060Y-146753150D01*
X115622864Y-146844122D01*
X115615819Y-146923300D01*
X115610070Y-146989051D01*
X115605764Y-147039744D01*
X115603047Y-147073744D01*
X115602065Y-147089420D01*
X115602064Y-147089615D01*
X115603592Y-147101175D01*
X115609204Y-147114778D01*
X115620444Y-147132325D01*
X115638855Y-147155716D01*
X115665981Y-147186852D01*
X115703363Y-147227636D01*
X115752546Y-147279968D01*
X115780477Y-147309409D01*
X115824209Y-147355424D01*
X115879500Y-147413613D01*
X115944067Y-147481572D01*
X116015625Y-147556898D01*
X116091890Y-147637185D01*
X116170580Y-147720030D01*
X116249411Y-147803030D01*
X116319740Y-147877083D01*
X116680589Y-148257061D01*
X116643955Y-148293695D01*
X116622173Y-148314776D01*
X116609095Y-148323226D01*
X116599277Y-148320697D01*
X116588779Y-148310450D01*
X116578410Y-148299437D01*
X116555602Y-148275282D01*
X116521735Y-148239446D01*
X116478189Y-148193387D01*
X116426344Y-148138564D01*
X116367580Y-148076436D01*
X116303275Y-148008463D01*
X116234811Y-147936105D01*
X116214307Y-147914437D01*
X115858376Y-147538302D01*
X115850807Y-147606040D01*
X115832935Y-147687373D01*
X115800192Y-147758245D01*
X115754964Y-147817855D01*
X115699636Y-147865401D01*
X115636595Y-147900082D01*
X115568224Y-147921094D01*
X115496911Y-147927637D01*
X115425040Y-147918910D01*
X115354997Y-147894109D01*
X115289167Y-147852434D01*
X115244249Y-147809905D01*
X115221618Y-147783463D01*
X115205668Y-147762402D01*
X115200006Y-147751731D01*
X115190260Y-147749736D01*
X115162240Y-147747916D01*
X115117777Y-147746310D01*
X115058699Y-147744958D01*
X114986836Y-147743896D01*
X114904017Y-147743165D01*
X114812072Y-147742801D01*
X114772820Y-147742767D01*
X114345633Y-147742767D01*
X114345633Y-147833230D01*
X114345633Y-147923693D01*
X114235067Y-147923693D01*
X114124502Y-147923693D01*
X114124502Y-147837774D01*
X114124048Y-147795397D01*
X114121866Y-147768000D01*
X114116725Y-147750466D01*
X114107394Y-147737679D01*
X114098440Y-147729437D01*
X114090698Y-147722263D01*
X114084414Y-147713956D01*
X114079186Y-147702129D01*
X114074611Y-147684398D01*
X114070286Y-147658377D01*
X114065811Y-147621682D01*
X114060781Y-147571928D01*
X114054796Y-147506728D01*
X114048085Y-147430888D01*
X114041645Y-147358386D01*
X114035670Y-147292453D01*
X114030410Y-147235739D01*
X114026114Y-147190891D01*
X114023032Y-147160557D01*
X114021413Y-147147385D01*
X114021353Y-147147146D01*
X114014124Y-147152982D01*
X113993885Y-147172163D01*
X113961672Y-147203652D01*
X113918519Y-147246410D01*
X113865461Y-147299401D01*
X113803531Y-147361585D01*
X113733766Y-147431926D01*
X113657199Y-147509384D01*
X113574865Y-147592923D01*
X113487799Y-147681503D01*
X113432710Y-147737669D01*
X113343108Y-147829011D01*
X113257514Y-147916103D01*
X113176976Y-147997891D01*
X113102540Y-148073319D01*
X113035251Y-148141333D01*
X112976156Y-148200878D01*
X112926301Y-148250898D01*
X112886733Y-148290338D01*
X112858497Y-148318145D01*
X112842641Y-148333262D01*
X112839505Y-148335802D01*
X112828769Y-148329297D01*
X112809873Y-148312891D01*
X112800710Y-148304008D01*
X112768916Y-148272214D01*
X112981829Y-148053883D01*
X113030739Y-148003785D01*
X113091472Y-147941665D01*
X113161763Y-147869839D01*
X113239342Y-147790621D01*
X113321941Y-147706326D01*
X113407294Y-147619269D01*
X113493132Y-147531765D01*
X113577186Y-147446129D01*
X113603071Y-147419769D01*
X113991656Y-147024089D01*
X114137063Y-147024089D01*
X114160493Y-147290452D01*
X114166808Y-147363272D01*
X114172513Y-147431003D01*
X114177364Y-147490602D01*
X114181120Y-147539031D01*
X114183536Y-147573248D01*
X114184366Y-147589483D01*
X114184810Y-147622150D01*
X114670983Y-147622150D01*
X115157157Y-147622150D01*
X115159736Y-147582657D01*
X115327702Y-147582657D01*
X115337265Y-147639503D01*
X115362207Y-147687114D01*
X115399275Y-147723805D01*
X115445217Y-147747888D01*
X115496779Y-147757679D01*
X115550709Y-147751490D01*
X115603754Y-147727636D01*
X115605366Y-147726585D01*
X115645641Y-147688779D01*
X115670980Y-147640582D01*
X115680281Y-147586195D01*
X115672438Y-147529813D01*
X115663415Y-147505768D01*
X115632630Y-147458206D01*
X115592723Y-147425771D01*
X115546915Y-147407725D01*
X115498431Y-147403330D01*
X115450492Y-147411847D01*
X115406321Y-147432538D01*
X115369142Y-147464666D01*
X115342178Y-147507491D01*
X115328651Y-147560277D01*
X115327702Y-147582657D01*
X115159736Y-147582657D01*
X115161915Y-147549277D01*
X115171536Y-147483402D01*
X115192825Y-147426484D01*
X115228625Y-147372128D01*
X115253490Y-147343221D01*
X115285232Y-147314614D01*
X115325351Y-147286764D01*
X115368047Y-147262915D01*
X115407522Y-147246313D01*
X115437570Y-147240203D01*
X115450233Y-147237544D01*
X115458106Y-147226480D01*
X115463529Y-147202364D01*
X115466109Y-147183512D01*
X115473192Y-147126829D01*
X115393611Y-147045304D01*
X115368525Y-147019388D01*
X115331713Y-146981058D01*
X115285266Y-146932505D01*
X115231274Y-146875919D01*
X115171826Y-146813492D01*
X115109013Y-146747414D01*
X115044924Y-146679874D01*
X115039342Y-146673986D01*
X114764653Y-146384192D01*
X114619785Y-146528240D01*
X114567364Y-146580745D01*
X114505883Y-146642942D01*
X114440128Y-146709949D01*
X114374887Y-146776886D01*
X114314947Y-146838871D01*
X114305990Y-146848188D01*
X114137063Y-147024089D01*
X113991656Y-147024089D01*
X114011399Y-147003986D01*
X113944432Y-146224388D01*
X113890451Y-145595971D01*
X114016631Y-145595971D01*
X114017067Y-145606081D01*
X114019113Y-145634530D01*
X114022630Y-145679629D01*
X114027478Y-145739692D01*
X114033519Y-145813029D01*
X114040612Y-145897953D01*
X114048618Y-145992775D01*
X114057398Y-146095809D01*
X114066813Y-146205365D01*
X114069401Y-146235327D01*
X114079004Y-146346483D01*
X114088075Y-146451680D01*
X114096469Y-146549214D01*
X114104040Y-146637380D01*
X114110642Y-146714477D01*
X114116130Y-146778799D01*
X114120356Y-146828643D01*
X114123176Y-146862307D01*
X114124444Y-146878086D01*
X114124502Y-146879046D01*
X114131319Y-146873613D01*
X114150766Y-146855367D01*
X114181337Y-146825789D01*
X114221526Y-146786359D01*
X114269825Y-146738558D01*
X114324729Y-146683864D01*
X114384731Y-146623760D01*
X114403429Y-146604966D01*
X114464906Y-146542781D01*
X114521690Y-146484671D01*
X114572256Y-146432249D01*
X114615080Y-146387126D01*
X114648637Y-146350912D01*
X114671400Y-146325218D01*
X114681846Y-146311657D01*
X114682357Y-146310288D01*
X114679577Y-146306445D01*
X114839951Y-146306445D01*
X114845918Y-146315159D01*
X114864133Y-146336494D01*
X114892937Y-146368703D01*
X114930675Y-146410035D01*
X114975688Y-146458741D01*
X115026321Y-146513072D01*
X115080916Y-146571277D01*
X115137816Y-146631607D01*
X115195364Y-146692314D01*
X115251903Y-146751646D01*
X115305777Y-146807856D01*
X115355327Y-146859192D01*
X115398898Y-146903906D01*
X115434832Y-146940248D01*
X115461471Y-146966469D01*
X115477160Y-146980819D01*
X115480690Y-146982965D01*
X115482407Y-146972398D01*
X115485806Y-146943411D01*
X115490727Y-146897604D01*
X115497010Y-146836577D01*
X115504497Y-146761927D01*
X115513028Y-146675255D01*
X115522445Y-146578159D01*
X115532589Y-146472239D01*
X115543299Y-146359094D01*
X115552371Y-146262293D01*
X115566325Y-146111500D01*
X115578244Y-145980009D01*
X115588182Y-145867127D01*
X115596190Y-145772160D01*
X115602324Y-145694416D01*
X115606636Y-145633202D01*
X115609179Y-145587826D01*
X115610008Y-145557594D01*
X115609174Y-145541814D01*
X115608092Y-145539083D01*
X115598745Y-145544500D01*
X115576333Y-145563621D01*
X115541696Y-145595632D01*
X115495674Y-145639720D01*
X115439108Y-145695071D01*
X115372837Y-145760870D01*
X115297702Y-145836305D01*
X115220109Y-145914900D01*
X115148519Y-145987783D01*
X115081259Y-146056434D01*
X115019637Y-146119506D01*
X114964961Y-146175652D01*
X114918539Y-146223523D01*
X114881678Y-146261775D01*
X114855687Y-146289058D01*
X114841874Y-146304026D01*
X114839951Y-146306445D01*
X114679577Y-146306445D01*
X114675771Y-146301185D01*
X114657084Y-146279353D01*
X114627903Y-146246514D01*
X114589832Y-146204392D01*
X114544477Y-146154710D01*
X114493445Y-146099190D01*
X114438341Y-146039555D01*
X114380771Y-145977529D01*
X114322340Y-145914835D01*
X114264655Y-145853195D01*
X114209321Y-145794333D01*
X114157945Y-145739972D01*
X114112131Y-145691834D01*
X114073486Y-145651643D01*
X114043616Y-145621122D01*
X114024126Y-145601993D01*
X114016631Y-145595971D01*
X113890451Y-145595971D01*
X113877465Y-145444791D01*
X113335989Y-144872469D01*
X113249377Y-144780935D01*
X113165793Y-144692621D01*
X113086411Y-144608769D01*
X113012405Y-144530617D01*
X112944951Y-144459405D01*
X112885222Y-144396373D01*
X112834392Y-144342760D01*
X112793638Y-144299805D01*
X112764132Y-144268750D01*
X112747049Y-144250833D01*
X112745357Y-144249070D01*
X112696202Y-144197993D01*
X112699212Y-144130584D01*
X112702222Y-144063175D01*
X113279238Y-144671774D01*
X113367282Y-144764547D01*
X113451321Y-144852926D01*
X113530336Y-144935849D01*
X113603306Y-145012254D01*
X113669212Y-145081078D01*
X113727033Y-145141258D01*
X113775749Y-145191732D01*
X113814340Y-145231438D01*
X113841786Y-145259313D01*
X113857067Y-145274294D01*
X113859981Y-145276645D01*
X113860499Y-145265857D01*
X113859339Y-145239135D01*
X113856823Y-145200547D01*
X113853273Y-145154164D01*
X113849011Y-145104052D01*
X113844360Y-145054283D01*
X113839640Y-145008923D01*
X113836989Y-144986158D01*
X113831123Y-144938414D01*
X113963678Y-144938414D01*
X113964067Y-144981133D01*
X113965068Y-145004301D01*
X113967628Y-145043614D01*
X113971457Y-145095199D01*
X113976266Y-145155182D01*
X113981767Y-145219692D01*
X113982378Y-145226627D01*
X114000300Y-145429403D01*
X114057852Y-145491565D01*
X114076691Y-145511732D01*
X114107677Y-145544681D01*
X114149114Y-145588616D01*
X114199304Y-145641744D01*
X114256551Y-145702267D01*
X114319159Y-145768393D01*
X114385430Y-145838325D01*
X114438797Y-145894595D01*
X114762191Y-146235464D01*
X114986214Y-146011612D01*
X115210237Y-145787761D01*
X114893527Y-145785107D01*
X114576817Y-145782453D01*
X114576817Y-145656827D01*
X114576817Y-145531202D01*
X114946207Y-145533838D01*
X115315598Y-145536475D01*
X115318638Y-145601148D01*
X115321679Y-145665821D01*
X115461871Y-145525897D01*
X115557016Y-145430935D01*
X115750323Y-145430935D01*
X115831991Y-145430935D01*
X115913659Y-145430935D01*
X115913659Y-145330420D01*
X115913077Y-145282862D01*
X115911048Y-145252317D01*
X115907143Y-145235723D01*
X115900933Y-145230014D01*
X115899617Y-145229906D01*
X115884921Y-145237538D01*
X115862466Y-145257662D01*
X115835758Y-145286118D01*
X115808303Y-145318746D01*
X115783604Y-145351388D01*
X115765168Y-145379883D01*
X115756582Y-145399639D01*
X115750323Y-145430935D01*
X115557016Y-145430935D01*
X115602064Y-145385973D01*
X115602064Y-145252656D01*
X115602064Y-145119340D01*
X115632218Y-145119340D01*
X115653979Y-145116442D01*
X115661876Y-145104876D01*
X115662444Y-145096724D01*
X115663410Y-145075193D01*
X115665860Y-145041353D01*
X115668923Y-145006261D01*
X115675331Y-144938414D01*
X114819505Y-144938414D01*
X113963678Y-144938414D01*
X113831123Y-144938414D01*
X113761706Y-144938414D01*
X113692289Y-144938414D01*
X113692289Y-144873080D01*
X113692289Y-144807745D01*
X113756097Y-144807745D01*
X113819905Y-144807745D01*
X113823506Y-144799760D01*
X113958979Y-144799760D01*
X113964514Y-144805316D01*
X113983335Y-144807446D01*
X114008556Y-144807745D01*
X114064193Y-144807745D01*
X114064193Y-144756895D01*
X114062879Y-144726406D01*
X114058417Y-144713182D01*
X114051629Y-144713464D01*
X114021399Y-144733835D01*
X113992091Y-144757603D01*
X113969976Y-144779418D01*
X113962844Y-144789202D01*
X113958979Y-144799760D01*
X113823506Y-144799760D01*
X113838250Y-144767063D01*
X113858828Y-144734339D01*
X113891551Y-144696180D01*
X113931301Y-144657453D01*
X113965612Y-144629096D01*
X114275273Y-144629096D01*
X114275273Y-144718420D01*
X114275273Y-144807745D01*
X114968823Y-144807745D01*
X115112915Y-144807606D01*
X115241666Y-144807194D01*
X115354460Y-144806517D01*
X115450677Y-144805585D01*
X115529701Y-144804405D01*
X115590912Y-144802988D01*
X115633693Y-144801341D01*
X115657425Y-144799472D01*
X115662373Y-144798029D01*
X115654328Y-144781624D01*
X115632955Y-144758767D01*
X115602398Y-144732952D01*
X115566799Y-144707672D01*
X115530301Y-144686421D01*
X115529590Y-144686061D01*
X115482582Y-144666018D01*
X115422403Y-144645698D01*
X115355866Y-144627033D01*
X115289780Y-144611956D01*
X115237699Y-144603229D01*
X115189955Y-144597050D01*
X115189955Y-144652140D01*
X115189955Y-144707231D01*
X114893437Y-144707231D01*
X114596919Y-144707231D01*
X114596919Y-144646922D01*
X114596465Y-144613536D01*
X114593654Y-144595533D01*
X114586317Y-144588194D01*
X114572285Y-144586799D01*
X114569278Y-144586813D01*
X114540049Y-144588690D01*
X114496302Y-144593563D01*
X114443280Y-144600730D01*
X114386226Y-144609491D01*
X114338095Y-144617735D01*
X114275273Y-144629096D01*
X113965612Y-144629096D01*
X113972960Y-144623023D01*
X114011411Y-144597758D01*
X114021704Y-144592626D01*
X114047725Y-144579592D01*
X114060127Y-144566500D01*
X114061049Y-144561485D01*
X114717537Y-144561485D01*
X114717537Y-144586613D01*
X114893437Y-144586613D01*
X115069337Y-144586613D01*
X115069337Y-144561485D01*
X115069337Y-144536356D01*
X114893437Y-144536356D01*
X114717537Y-144536356D01*
X114717537Y-144561485D01*
X114061049Y-144561485D01*
X114063937Y-144545786D01*
X114064078Y-144536356D01*
X114064193Y-144528719D01*
X114064193Y-144483929D01*
X114182297Y-144488561D01*
X114255270Y-144489276D01*
X114330659Y-144486365D01*
X114397605Y-144480262D01*
X114400916Y-144479830D01*
X114450027Y-144473350D01*
X114497447Y-144467175D01*
X114535854Y-144462256D01*
X114549175Y-144460590D01*
X114578235Y-144455810D01*
X114592371Y-144448696D01*
X114596741Y-144435966D01*
X114596919Y-144430200D01*
X114596919Y-144405687D01*
X114893437Y-144405687D01*
X115189955Y-144405687D01*
X115189955Y-144436157D01*
X115190092Y-144450149D01*
X115192671Y-144460022D01*
X115200947Y-144467273D01*
X115218173Y-144473399D01*
X115247603Y-144479895D01*
X115292490Y-144488260D01*
X115310313Y-144491513D01*
X115427047Y-144518462D01*
X115531505Y-144554013D01*
X115621311Y-144597213D01*
X115689837Y-144643612D01*
X115732378Y-144678132D01*
X115776157Y-144652476D01*
X115827536Y-144632093D01*
X115878044Y-144629080D01*
X115924906Y-144641164D01*
X115965349Y-144666073D01*
X115996599Y-144701537D01*
X116015882Y-144745284D01*
X116020426Y-144795042D01*
X116009450Y-144843532D01*
X115982041Y-144892524D01*
X115943303Y-144924992D01*
X115892744Y-144941266D01*
X115861276Y-144943440D01*
X115833346Y-144943528D01*
X115814851Y-144946119D01*
X115803418Y-144954700D01*
X115796673Y-144972757D01*
X115792242Y-145003779D01*
X115787752Y-145051252D01*
X115787730Y-145051493D01*
X115781390Y-145119340D01*
X115820178Y-145119340D01*
X115826553Y-145119506D01*
X115832394Y-145119471D01*
X115838532Y-145118436D01*
X115845795Y-145115601D01*
X115855013Y-145110168D01*
X115867016Y-145101336D01*
X115882632Y-145088306D01*
X115902692Y-145070280D01*
X115928024Y-145046457D01*
X115959458Y-145016038D01*
X115997824Y-144978225D01*
X116043950Y-144932217D01*
X116098666Y-144877215D01*
X116162801Y-144812420D01*
X116237186Y-144737032D01*
X116322648Y-144650253D01*
X116420018Y-144551282D01*
X116530124Y-144439321D01*
X116610017Y-144358082D01*
X116918803Y-144044114D01*
X116918803Y-144113715D01*
G37*
D14*
%TO.C,IC3*%
X174173600Y-135150600D02*
X174173600Y-136450800D01*
X174173600Y-138360600D02*
X174173600Y-137060400D01*
X184473600Y-138360600D02*
X184473600Y-135150600D01*
X174173600Y-136450800D02*
G75*
G02*
X174173600Y-137060400I0J-304800D01*
G01*
D12*
%TO.C,C4*%
X210682252Y-140758500D02*
X209259748Y-140758500D01*
X210682252Y-142578500D02*
X209259748Y-142578500D01*
%TO.C,C2*%
X184973100Y-142012520D02*
X184973100Y-142293680D01*
X185993100Y-142012520D02*
X185993100Y-142293680D01*
D13*
%TO.C,LOGO4*%
G36*
X123066896Y-147560879D02*
G01*
X123074293Y-147573562D01*
X123090823Y-147602348D01*
X123115749Y-147645940D01*
X123148330Y-147703040D01*
X123187829Y-147772350D01*
X123233505Y-147852571D01*
X123284619Y-147942405D01*
X123340433Y-148040554D01*
X123400207Y-148145721D01*
X123463202Y-148256607D01*
X123521282Y-148358884D01*
X123586594Y-148473895D01*
X123649395Y-148584434D01*
X123708939Y-148689194D01*
X123764483Y-148786866D01*
X123815280Y-148876140D01*
X123860585Y-148955709D01*
X123899654Y-149024263D01*
X123931741Y-149080495D01*
X123956101Y-149123094D01*
X123971989Y-149150754D01*
X123978374Y-149161701D01*
X123988971Y-149182038D01*
X123991109Y-149192768D01*
X123989806Y-149193298D01*
X123980173Y-149188209D01*
X123954490Y-149173673D01*
X123913955Y-149150387D01*
X123859762Y-149119047D01*
X123793109Y-149080350D01*
X123715191Y-149034994D01*
X123627206Y-148983673D01*
X123530349Y-148927086D01*
X123425817Y-148865928D01*
X123314806Y-148800897D01*
X123198513Y-148732689D01*
X123156703Y-148708147D01*
X123038811Y-148638900D01*
X122925800Y-148572458D01*
X122818867Y-148509527D01*
X122719207Y-148450815D01*
X122628018Y-148397028D01*
X122546496Y-148348873D01*
X122475836Y-148307057D01*
X122417236Y-148272288D01*
X122371892Y-148245271D01*
X122341000Y-148226715D01*
X122325757Y-148217325D01*
X122324344Y-148216338D01*
X122329186Y-148208420D01*
X122348135Y-148192795D01*
X122378029Y-148171863D01*
X122408836Y-148152210D01*
X122540058Y-148065314D01*
X122663223Y-147971291D01*
X122775823Y-147872448D01*
X122875348Y-147771090D01*
X122959289Y-147669522D01*
X123003403Y-147605897D01*
X123049853Y-147533177D01*
X123066896Y-147560879D01*
G37*
G36*
X121486713Y-144797157D02*
G01*
X121501760Y-144821477D01*
X121525059Y-144860432D01*
X121555814Y-144912627D01*
X121593230Y-144976671D01*
X121636512Y-145051170D01*
X121684865Y-145134733D01*
X121737492Y-145225965D01*
X121793599Y-145323475D01*
X121852389Y-145425870D01*
X121913069Y-145531756D01*
X121974841Y-145639742D01*
X122036911Y-145748434D01*
X122098483Y-145856440D01*
X122158762Y-145962366D01*
X122216952Y-146064821D01*
X122272259Y-146162412D01*
X122323885Y-146253745D01*
X122371037Y-146337428D01*
X122412919Y-146412069D01*
X122448735Y-146476274D01*
X122477689Y-146528651D01*
X122498987Y-146567807D01*
X122511833Y-146592349D01*
X122515514Y-146600713D01*
X122507576Y-146613901D01*
X122485463Y-146634273D01*
X122452559Y-146659425D01*
X122412249Y-146686953D01*
X122367919Y-146714451D01*
X122322952Y-146739515D01*
X122312859Y-146744691D01*
X122199924Y-146793637D01*
X122072876Y-146834689D01*
X121936434Y-146866701D01*
X121795319Y-146888531D01*
X121680581Y-146897974D01*
X121499036Y-146911556D01*
X121335073Y-146933974D01*
X121188255Y-146965363D01*
X121058147Y-147005859D01*
X120944311Y-147055598D01*
X120846312Y-147114717D01*
X120763714Y-147183350D01*
X120762890Y-147184158D01*
X120685530Y-147260137D01*
X120457770Y-147126735D01*
X120382653Y-147082295D01*
X120324013Y-147046556D01*
X120280700Y-147018754D01*
X120251565Y-146998122D01*
X120235458Y-146983896D01*
X120231157Y-146975833D01*
X120236168Y-146964980D01*
X120250399Y-146938149D01*
X120273123Y-146896612D01*
X120303616Y-146841637D01*
X120341150Y-146774495D01*
X120385002Y-146696457D01*
X120434444Y-146608791D01*
X120488752Y-146512768D01*
X120547200Y-146409659D01*
X120609061Y-146300732D01*
X120673611Y-146187259D01*
X120740124Y-146070508D01*
X120807874Y-145951751D01*
X120876136Y-145832257D01*
X120944183Y-145713297D01*
X121011291Y-145596139D01*
X121076733Y-145482055D01*
X121139784Y-145372314D01*
X121199718Y-145268186D01*
X121255810Y-145170942D01*
X121307334Y-145081851D01*
X121353564Y-145002183D01*
X121393775Y-144933209D01*
X121427241Y-144876198D01*
X121453237Y-144832421D01*
X121471036Y-144803147D01*
X121479913Y-144789646D01*
X121480714Y-144788863D01*
X121486713Y-144797157D01*
G37*
G36*
X120208374Y-147537501D02*
G01*
X120269800Y-147573583D01*
X120325737Y-147606740D01*
X120373789Y-147635526D01*
X120411563Y-147658500D01*
X120436663Y-147674217D01*
X120446544Y-147681066D01*
X120446562Y-147693008D01*
X120436893Y-147719717D01*
X120417255Y-147761826D01*
X120387366Y-147819967D01*
X120371296Y-147850048D01*
X120331943Y-147925116D01*
X120302280Y-147987380D01*
X120281050Y-148040785D01*
X120266998Y-148089275D01*
X120258866Y-148136793D01*
X120255397Y-148187284D01*
X120255020Y-148215049D01*
X120255954Y-148259888D01*
X120259193Y-148303256D01*
X120265394Y-148348033D01*
X120275212Y-148397104D01*
X120289305Y-148453349D01*
X120308327Y-148519652D01*
X120332936Y-148598894D01*
X120363787Y-148693958D01*
X120364629Y-148696517D01*
X120446123Y-148944115D01*
X120484051Y-148944115D01*
X120516451Y-148948991D01*
X120553104Y-148961253D01*
X120566069Y-148967386D01*
X120617103Y-149004959D01*
X120658895Y-149059135D01*
X120691655Y-149130329D01*
X120715592Y-149218958D01*
X120726570Y-149286513D01*
X120732269Y-149328440D01*
X120737144Y-149354001D01*
X120742595Y-149366714D01*
X120750020Y-149370094D01*
X120759058Y-149368218D01*
X120804864Y-149343724D01*
X120842509Y-149301880D01*
X120856898Y-149276676D01*
X120857017Y-149276301D01*
X121091454Y-149276301D01*
X121096537Y-149318545D01*
X121110933Y-149345292D01*
X121155197Y-149382097D01*
X121205740Y-149401566D01*
X121233333Y-149404259D01*
X121258837Y-149402453D01*
X121280035Y-149394821D01*
X121303354Y-149378120D01*
X121326648Y-149357182D01*
X121358478Y-149322912D01*
X121387971Y-149280601D01*
X121404232Y-149251124D01*
X121456137Y-149251124D01*
X121460108Y-149280521D01*
X121469462Y-149293393D01*
X121519239Y-149323105D01*
X121579194Y-149340418D01*
X121619233Y-149343874D01*
X121653628Y-149343070D01*
X121676551Y-149337797D01*
X121696510Y-149324639D01*
X121717972Y-149304233D01*
X121740302Y-149280796D01*
X121751799Y-149262518D01*
X121755394Y-149241288D01*
X121754017Y-149208989D01*
X121753742Y-149205172D01*
X121747044Y-149159923D01*
X121732952Y-149125967D01*
X121723847Y-149112659D01*
X121704849Y-149093528D01*
X121675685Y-149070305D01*
X121641471Y-149046372D01*
X121607320Y-149025111D01*
X121578349Y-149009906D01*
X121559745Y-149004139D01*
X121551609Y-149013032D01*
X121541259Y-149036302D01*
X121531345Y-149067505D01*
X121517059Y-149109657D01*
X121498310Y-149151544D01*
X121484885Y-149175047D01*
X121464596Y-149214432D01*
X121456137Y-149251124D01*
X121404232Y-149251124D01*
X121418527Y-149225212D01*
X121426258Y-149209694D01*
X121452682Y-149152863D01*
X121468650Y-149109443D01*
X121474426Y-149075948D01*
X121470273Y-149048894D01*
X121456454Y-149024798D01*
X121441487Y-149008140D01*
X121417262Y-148986865D01*
X121394485Y-148976877D01*
X121363230Y-148974156D01*
X121357462Y-148974127D01*
X121324990Y-148976395D01*
X121296850Y-148985175D01*
X121264746Y-149003430D01*
X121252450Y-149011641D01*
X121200391Y-149051911D01*
X121161431Y-149094845D01*
X121129402Y-149147761D01*
X121118304Y-149170829D01*
X121098764Y-149225775D01*
X121091454Y-149276301D01*
X120857017Y-149276301D01*
X120872609Y-149227098D01*
X120879329Y-149163473D01*
X120877549Y-149089371D01*
X120867760Y-149008361D01*
X120850456Y-148924015D01*
X120826127Y-148839902D01*
X120795265Y-148759592D01*
X120781628Y-148730202D01*
X120738982Y-148643098D01*
X120757779Y-148571019D01*
X120772438Y-148483470D01*
X120771035Y-148398293D01*
X120753807Y-148319747D01*
X120741998Y-148289951D01*
X120728046Y-148257633D01*
X120718354Y-148231660D01*
X120715201Y-148218899D01*
X120721457Y-148207478D01*
X120738427Y-148184597D01*
X120763410Y-148153389D01*
X120793705Y-148116984D01*
X120826612Y-148078517D01*
X120859430Y-148041117D01*
X120889459Y-148007918D01*
X120913998Y-147982052D01*
X120930348Y-147966650D01*
X120935211Y-147963729D01*
X120946348Y-147967450D01*
X120946707Y-147979608D01*
X120935528Y-148001700D01*
X120912051Y-148035219D01*
X120875512Y-148081660D01*
X120874544Y-148082853D01*
X120837661Y-148129480D01*
X120812761Y-148165346D01*
X120798424Y-148194542D01*
X120793232Y-148221163D01*
X120795764Y-148249302D01*
X120804601Y-148283053D01*
X120804845Y-148283855D01*
X120810095Y-148309068D01*
X120815388Y-148347877D01*
X120819926Y-148393886D01*
X120821804Y-148419841D01*
X120824185Y-148473201D01*
X120823273Y-148513235D01*
X120818601Y-148546423D01*
X120810548Y-148576591D01*
X120793004Y-148632369D01*
X120830571Y-148693232D01*
X120852114Y-148733174D01*
X120870333Y-148775793D01*
X120879901Y-148806588D01*
X120888215Y-148837818D01*
X120897367Y-148854288D01*
X120910768Y-148861080D01*
X120917193Y-148862123D01*
X120943923Y-148856381D01*
X120973026Y-148836473D01*
X120999790Y-148806946D01*
X121019506Y-148772345D01*
X121024139Y-148758925D01*
X121035226Y-148688686D01*
X121028654Y-148618942D01*
X121003945Y-148547652D01*
X120960620Y-148472774D01*
X120955394Y-148465222D01*
X120931311Y-148427176D01*
X120919121Y-148399205D01*
X120918375Y-148386689D01*
X120925142Y-148366781D01*
X120935707Y-148337304D01*
X120940645Y-148323871D01*
X120950906Y-148285292D01*
X120953197Y-148241941D01*
X120951345Y-148212435D01*
X120945358Y-148146018D01*
X120991568Y-148089887D01*
X121019989Y-148057280D01*
X121040390Y-148039589D01*
X121055855Y-148035086D01*
X121069466Y-148042042D01*
X121072233Y-148044653D01*
X121074597Y-148056308D01*
X121067333Y-148078938D01*
X121049624Y-148114745D01*
X121039006Y-148134010D01*
X121005360Y-148204335D01*
X120984560Y-148271455D01*
X120977566Y-148331642D01*
X120980304Y-148362395D01*
X120989136Y-148392466D01*
X121004847Y-148430460D01*
X121025210Y-148472411D01*
X121047997Y-148514353D01*
X121070981Y-148552320D01*
X121091934Y-148582346D01*
X121108629Y-148600465D01*
X121115986Y-148603981D01*
X121129482Y-148595268D01*
X121144121Y-148573372D01*
X121156774Y-148544653D01*
X121164311Y-148515475D01*
X121165200Y-148503942D01*
X121159293Y-148472787D01*
X121142923Y-148430792D01*
X121126544Y-148398213D01*
X121087991Y-148327499D01*
X121112533Y-148248154D01*
X121130690Y-148193158D01*
X121147518Y-148149193D01*
X121161915Y-148118806D01*
X121172777Y-148104542D01*
X121175045Y-148103784D01*
X121187393Y-148109064D01*
X121200340Y-148117515D01*
X121209872Y-148125976D01*
X121211895Y-148135699D01*
X121205290Y-148151519D01*
X121188936Y-148178270D01*
X121184746Y-148184813D01*
X121156863Y-148243390D01*
X121148495Y-148301074D01*
X121159678Y-148356715D01*
X121178439Y-148392754D01*
X121200892Y-148420919D01*
X121220324Y-148430499D01*
X121239018Y-148421210D01*
X121259259Y-148392770D01*
X121265164Y-148382001D01*
X121279459Y-148352517D01*
X121284656Y-148330645D01*
X121282037Y-148306890D01*
X121277669Y-148289360D01*
X121270858Y-148256528D01*
X121266724Y-148222029D01*
X121265523Y-148191416D01*
X121267513Y-148170240D01*
X121271857Y-148163808D01*
X121282422Y-148168595D01*
X121306792Y-148181699D01*
X121341563Y-148201233D01*
X121383330Y-148225310D01*
X121392493Y-148230663D01*
X121506689Y-148297518D01*
X121443576Y-148352534D01*
X121342268Y-148447394D01*
X121255132Y-148542631D01*
X121183103Y-148636875D01*
X121127121Y-148728755D01*
X121088121Y-148816900D01*
X121067041Y-148899939D01*
X121066452Y-148904099D01*
X121061466Y-148945604D01*
X121056742Y-148993435D01*
X121052538Y-149043661D01*
X121049111Y-149092352D01*
X121046720Y-149135575D01*
X121045623Y-149169400D01*
X121046079Y-149189896D01*
X121047392Y-149194213D01*
X121054809Y-149186466D01*
X121070285Y-149165796D01*
X121090984Y-149136060D01*
X121099704Y-149123073D01*
X121153051Y-149048926D01*
X121202669Y-148993195D01*
X121249839Y-148954927D01*
X121295842Y-148933169D01*
X121341959Y-148926966D01*
X121360950Y-148928660D01*
X121397415Y-148938416D01*
X121431955Y-148954170D01*
X121437353Y-148957570D01*
X121461580Y-148973781D01*
X121479685Y-148985586D01*
X121482132Y-148987115D01*
X121493546Y-148982766D01*
X121514536Y-148963149D01*
X121543669Y-148929704D01*
X121544136Y-148929120D01*
X121626143Y-148929120D01*
X121631466Y-148954409D01*
X121645731Y-148977065D01*
X121678548Y-149008304D01*
X121721626Y-149035763D01*
X121765342Y-149053418D01*
X121769198Y-149054371D01*
X121816866Y-149057484D01*
X121857235Y-149042445D01*
X121875658Y-149027675D01*
X121889720Y-149011401D01*
X121897136Y-148992793D01*
X121899756Y-148965147D01*
X121899781Y-148940328D01*
X121893107Y-148881986D01*
X121876133Y-148830035D01*
X121850893Y-148787679D01*
X121819420Y-148758119D01*
X121783745Y-148744556D01*
X121775167Y-148744036D01*
X121759455Y-148746936D01*
X121742618Y-148757486D01*
X121721435Y-148778456D01*
X121692683Y-148812622D01*
X121686480Y-148820356D01*
X121652760Y-148865516D01*
X121632944Y-148900630D01*
X121626143Y-148929120D01*
X121544136Y-148929120D01*
X121562088Y-148906652D01*
X121642105Y-148807068D01*
X121724317Y-148710255D01*
X121803520Y-148622280D01*
X121831844Y-148592325D01*
X121895904Y-148525648D01*
X122648581Y-148966197D01*
X122777709Y-149041774D01*
X122913985Y-149121527D01*
X123054685Y-149203863D01*
X123197085Y-149287189D01*
X123338462Y-149369910D01*
X123476091Y-149450434D01*
X123607249Y-149527166D01*
X123729212Y-149598513D01*
X123839257Y-149662881D01*
X123931467Y-149716810D01*
X124025756Y-149772002D01*
X124114988Y-149824334D01*
X124197650Y-149872914D01*
X124272231Y-149916848D01*
X124337217Y-149955241D01*
X124391097Y-149987201D01*
X124432359Y-150011833D01*
X124459489Y-150028245D01*
X124470976Y-150035542D01*
X124471179Y-150035711D01*
X124462129Y-150036487D01*
X124433710Y-150037239D01*
X124386563Y-150037966D01*
X124321326Y-150038664D01*
X124238640Y-150039334D01*
X124139145Y-150039971D01*
X124023479Y-150040576D01*
X123892283Y-150041145D01*
X123746195Y-150041677D01*
X123585857Y-150042170D01*
X123411906Y-150042622D01*
X123224984Y-150043032D01*
X123025729Y-150043396D01*
X122814781Y-150043715D01*
X122592780Y-150043984D01*
X122360365Y-150044204D01*
X122118176Y-150044371D01*
X121866853Y-150044484D01*
X121607035Y-150044541D01*
X121477244Y-150044548D01*
X118473806Y-150044548D01*
X118488050Y-150017000D01*
X118494728Y-150004979D01*
X118510655Y-149976774D01*
X118535154Y-149933569D01*
X118567548Y-149876553D01*
X118607161Y-149806912D01*
X118653315Y-149725831D01*
X118705332Y-149634499D01*
X118762536Y-149534100D01*
X118824250Y-149425823D01*
X118889795Y-149310853D01*
X118958496Y-149190377D01*
X119029675Y-149065582D01*
X119068892Y-148996837D01*
X120465102Y-148996837D01*
X120468716Y-149025530D01*
X120478409Y-149066939D01*
X120492457Y-149115352D01*
X120509136Y-149165061D01*
X120526721Y-149210356D01*
X120535485Y-149229920D01*
X120554028Y-149263720D01*
X120577638Y-149299727D01*
X120603099Y-149333833D01*
X120627198Y-149361931D01*
X120646720Y-149379911D01*
X120656275Y-149384288D01*
X120666222Y-149376000D01*
X120676422Y-149356777D01*
X120683222Y-149320503D01*
X120682354Y-149271657D01*
X120674952Y-149215638D01*
X120662149Y-149157844D01*
X120645079Y-149103671D01*
X120624874Y-149058519D01*
X120608707Y-149034249D01*
X120567493Y-148997218D01*
X120521799Y-148977198D01*
X120495611Y-148974127D01*
X120473765Y-148976874D01*
X120465741Y-148987981D01*
X120465102Y-148996837D01*
X119068892Y-148996837D01*
X119102655Y-148937654D01*
X119176758Y-148807780D01*
X119251308Y-148677146D01*
X119325627Y-148546939D01*
X119399038Y-148418345D01*
X119470864Y-148292552D01*
X119540428Y-148170745D01*
X119607052Y-148054111D01*
X119670061Y-147943837D01*
X119728775Y-147841110D01*
X119782519Y-147747115D01*
X119830614Y-147663040D01*
X119872384Y-147590070D01*
X119907153Y-147529394D01*
X119934241Y-147482196D01*
X119952973Y-147449665D01*
X119962671Y-147432985D01*
X119963640Y-147431374D01*
X119980487Y-147404218D01*
X120208374Y-147537501D01*
G37*
D12*
%TO.C,C6*%
X184973100Y-131344520D02*
X184973100Y-131625680D01*
X185993100Y-131344520D02*
X185993100Y-131625680D01*
%TD*%
M02*
